M48
; DRILL file {KiCad (5.1.5)-3} date 16/04/2020 8:55:30 PM
; FORMAT={-:-/ absolute / inch / decimal}
; #@! TF.CreationDate,2020-04-16T20:55:30+12:00
; #@! TF.GenerationSoftware,Kicad,Pcbnew,(5.1.5)-3
; #@! TF.FileFunction,Plated,1,2,PTH
FMAT,2
INCH
T1C0.0118
T2C0.0157
T3C0.0197
T4C0.0236
T5C0.0256
T6C0.0315
T7C0.0354
T8C0.0390
T9C0.0394
T10C0.0512
T11C0.0787
T12C0.0866
T13C0.1260
%
G90
G05
T1
X7.4041Y-3.752
X7.4041Y-3.7914
X7.4041Y-3.8307
X7.4041Y-3.8701
X7.4041Y-3.9095
X7.4435Y-3.752
X7.4435Y-3.7914
X7.4435Y-3.8307
X7.4435Y-3.8701
X7.4435Y-3.9095
X7.4829Y-3.752
X7.4829Y-3.7914
X7.4829Y-3.8307
X7.4829Y-3.8701
X7.4829Y-3.9095
X7.5222Y-3.752
X7.5222Y-3.7914
X7.5222Y-3.8307
X7.5222Y-3.8701
X7.5222Y-3.9095
X7.5616Y-3.752
X7.5616Y-3.7914
X7.5616Y-3.8307
X7.5616Y-3.8701
X7.5616Y-3.9095
T2
X6.565Y-4.35
X6.625Y-3.19
X6.6996Y-3.2154
X6.7282Y-3.33
X6.8123Y-3.6923
X6.82Y-4.35
X6.97Y-4.305
X7.14Y-4.35
X7.2108Y-4.2592
X7.235Y-3.12
X7.275Y-3.34
X7.28Y-4.025
X7.36Y-3.95
X7.38Y-3.22
X7.42Y-3.3115
X7.51Y-4.38
X7.57Y-4.275
X7.58Y-3.985
X7.5814Y-3.37
X7.62Y-4.065
X7.66Y-3.33
X7.66Y-3.95
X7.72Y-3.85
X7.76Y-4.3035
X7.81Y-4.415
X7.83Y-3.18
X7.905Y-3.35
X7.91Y-4.365
X7.955Y-3.29
X7.955Y-4.33
X7.962Y-4.257
X7.98Y-3.585
X8.112Y-4.2481
X8.165Y-4.33
X8.215Y-3.975
X8.225Y-3.14
X8.24Y-4.695
X8.2435Y-3.585
X8.2835Y-3.84
X8.345Y-3.37
X8.345Y-4.025
X8.385Y-4.06
X8.56Y-5.015
X8.66Y-4.985
X8.755Y-4.85
X8.76Y-4.955
X8.785Y-3.925
X8.8544Y-4.881
X8.86Y-4.92
X8.904Y-4.881
X8.955Y-4.92
X9.01Y-4.85
X9.03Y-3.865
X9.055Y-4.955
X9.0591Y-3.8959
X9.06Y-3.46
X9.105Y-4.76
X9.155Y-4.985
X9.205Y-4.76
X9.255Y-5.015
X9.311Y-2.976
X9.3954Y-2.83
X9.59Y-2.88
T4
X7.905Y-3.22
X7.955Y-3.22
X8.005Y-3.22
T5
X7.2652Y-2.847
X7.3103Y-2.7879
X7.3103Y-2.906
X7.3554Y-2.847
X7.4005Y-2.7879
X7.4005Y-2.906
X7.4456Y-2.847
X7.4905Y-2.906
X7.4906Y-2.788
X7.5357Y-2.847
X7.5808Y-2.7879
X7.5808Y-2.906
X7.6259Y-2.847
X7.6709Y-2.7879
X7.6709Y-2.906
T6
X8.785Y-3.525
X8.785Y-3.825
X7.66Y-4.89
X7.66Y-4.9884
X7.495Y-3.13
X7.795Y-3.13
X8.345Y-3.14
X8.345Y-3.44
X9.32Y-4.255
X9.62Y-4.255
X9.425Y-3.52
X9.5234Y-3.52
X9.425Y-3.95
X9.5234Y-3.95
X7.955Y-4.49
X7.955Y-4.79
X8.055Y-4.49
X8.055Y-4.79
X8.155Y-4.49
X8.155Y-4.79
X8.255Y-4.49
X8.255Y-4.79
X8.355Y-4.49
X8.355Y-4.79
X8.455Y-4.49
X8.455Y-4.79
X8.555Y-4.49
X8.555Y-4.79
X8.655Y-4.49
X8.655Y-4.79
X8.755Y-4.49
X8.755Y-4.79
X8.855Y-4.49
X8.855Y-4.79
X8.955Y-4.49
X8.955Y-4.79
X9.055Y-4.49
X9.055Y-4.79
X9.155Y-4.49
X9.155Y-4.79
X9.255Y-4.49
X9.255Y-4.79
X7.01Y-3.13
X7.31Y-3.13
X7.495Y-3.26
X7.795Y-3.26
X9.005Y-3.95
X9.1034Y-3.95
X8.485Y-3.14
X8.485Y-3.44
X8.65Y-3.525
X8.65Y-3.825
X9.005Y-3.525
X9.1034Y-3.525
X7.01Y-3.26
X7.31Y-3.26
X9.32Y-4.385
X9.62Y-4.385
X6.86Y-4.49
X6.86Y-4.79
X6.96Y-4.49
X6.96Y-4.79
X7.06Y-4.49
X7.06Y-4.79
X7.16Y-4.49
X7.16Y-4.79
X7.26Y-4.49
X7.26Y-4.79
X7.36Y-4.49
X7.36Y-4.79
X7.46Y-4.49
X7.46Y-4.79
X7.56Y-4.49
X7.56Y-4.79
X7.66Y-4.49
X7.66Y-4.79
X8.895Y-4.195
X9.195Y-4.195
X8.495Y-3.63
X8.495Y-3.7284
X8.155Y-2.99
X8.155Y-3.29
X8.455Y-4.365
X8.5534Y-4.365
T7
X8.3461Y-2.7936
X8.3461Y-2.892
X8.4288Y-2.7936
X8.5312Y-2.7936
X8.6139Y-2.7936
X8.6139Y-2.892
T8
X9.5828Y-5.24
X9.76Y-5.24
T9
X6.625Y-3.5923
X6.625Y-3.6923
X6.625Y-3.7923
X6.625Y-3.8923
X6.625Y-3.9923
X6.625Y-4.0923
X6.715Y-5.12
X6.715Y-5.22
X6.86Y-5.12
X6.86Y-5.22
X6.96Y-5.12
X6.96Y-5.22
X7.06Y-5.12
X7.06Y-5.22
X7.16Y-5.12
X7.16Y-5.22
X7.26Y-5.12
X7.26Y-5.22
X7.36Y-5.12
X7.36Y-5.22
X7.46Y-5.12
X7.46Y-5.22
X7.56Y-5.12
X7.56Y-5.22
X7.66Y-5.12
X7.66Y-5.22
X7.76Y-5.12
X7.76Y-5.22
X7.86Y-5.12
X7.86Y-5.22
X7.96Y-5.12
X7.96Y-5.22
X8.06Y-5.12
X8.06Y-5.22
X8.16Y-5.12
X8.16Y-5.22
X8.26Y-5.12
X8.26Y-5.22
X8.36Y-5.12
X8.36Y-5.22
X8.46Y-5.12
X8.46Y-5.22
X8.56Y-5.12
X8.56Y-5.22
X8.66Y-5.12
X8.66Y-5.22
X8.76Y-5.12
X8.76Y-5.22
X8.86Y-5.12
X8.86Y-5.22
X8.96Y-5.12
X8.96Y-5.22
X9.06Y-5.12
X9.06Y-5.22
X9.16Y-5.12
X9.16Y-5.22
X9.26Y-5.12
X9.26Y-5.22
X6.57Y-5.12
X6.57Y-5.22
X8.2831Y-2.892
X8.3816Y-2.5928
X8.5784Y-2.5928
X8.6769Y-2.892
T10
X9.5332Y-5.142
X9.8092Y-5.142
T11
X8.2044Y-2.6755
X8.7556Y-2.6755
X9.045Y-2.665
X9.045Y-2.9052
X9.045Y-3.1217
X9.1237Y-2.7595
X9.1237Y-2.976
T12
X8.48Y-2.644
T13
X6.9881Y-2.8273
X7.9719Y-2.8273
T3
G00X9.3343Y-2.5638
M15
G01X9.3343Y-2.5362
M16
G05
G00X9.6157Y-2.5638
M15
G01X9.6157Y-2.5362
M16
G05
T4
G00X9.3795Y-2.6622
M15
G01X9.3795Y-2.6543
M16
G05
G00X9.5705Y-2.6622
M15
G01X9.5705Y-2.6543
M16
G05
T0
M30
