G04 #@! TF.GenerationSoftware,KiCad,Pcbnew,(6.0.5)*
G04 #@! TF.CreationDate,2022-06-13T20:59:20-07:00*
G04 #@! TF.ProjectId,PocketTRS,506f636b-6574-4545-9253-2e6b69636164,rev?*
G04 #@! TF.SameCoordinates,Original*
G04 #@! TF.FileFunction,Legend,Bot*
G04 #@! TF.FilePolarity,Positive*
%FSLAX46Y46*%
G04 Gerber Fmt 4.6, Leading zero omitted, Abs format (unit mm)*
G04 Created by KiCad (PCBNEW (6.0.5)) date 2022-06-13 20:59:20*
%MOMM*%
%LPD*%
G01*
G04 APERTURE LIST*
G04 #@! TA.AperFunction,Profile*
%ADD10C,0.050000*%
G04 #@! TD*
%ADD11C,0.150000*%
%ADD12C,0.120000*%
G04 APERTURE END LIST*
D10*
X165100000Y-61976000D02*
X165100000Y-64770000D01*
X252730000Y-64770000D02*
X252730000Y-61976000D01*
X171323000Y-85852000D02*
X171323000Y-90805000D01*
X165100000Y-64770000D02*
X165100000Y-85852000D01*
X165100000Y-135890000D02*
X165100000Y-114046000D01*
X241808000Y-135890000D02*
X252730000Y-135890000D01*
X241808000Y-145542000D02*
X241300000Y-145542000D01*
X175260000Y-135890000D02*
X176022000Y-135890000D01*
X241808000Y-145542000D02*
X241808000Y-135890000D01*
X171323000Y-85852000D02*
X165100000Y-85852000D01*
X165100000Y-114046000D02*
X171323000Y-114046000D01*
X171323000Y-114046000D02*
X171323000Y-90805000D01*
X176022000Y-145542000D02*
X241300000Y-145542000D01*
X252730000Y-64770000D02*
X252730000Y-135890000D01*
X165100000Y-61976000D02*
X252730000Y-61976000D01*
X165100000Y-135890000D02*
X175260000Y-135890000D01*
X176022000Y-135890000D02*
X176022000Y-145542000D01*
D11*
X177276095Y-135469380D02*
X177752285Y-135469380D01*
X177799904Y-135945571D01*
X177752285Y-135897952D01*
X177657047Y-135850333D01*
X177418952Y-135850333D01*
X177323714Y-135897952D01*
X177276095Y-135945571D01*
X177228476Y-136040809D01*
X177228476Y-136278904D01*
X177276095Y-136374142D01*
X177323714Y-136421761D01*
X177418952Y-136469380D01*
X177657047Y-136469380D01*
X177752285Y-136421761D01*
X177799904Y-136374142D01*
X176609428Y-135469380D02*
X176514190Y-135469380D01*
X176418952Y-135517000D01*
X176371333Y-135564619D01*
X176323714Y-135659857D01*
X176276095Y-135850333D01*
X176276095Y-136088428D01*
X176323714Y-136278904D01*
X176371333Y-136374142D01*
X176418952Y-136421761D01*
X176514190Y-136469380D01*
X176609428Y-136469380D01*
X176704666Y-136421761D01*
X176752285Y-136374142D01*
X176799904Y-136278904D01*
X176847523Y-136088428D01*
X176847523Y-135850333D01*
X176799904Y-135659857D01*
X176752285Y-135564619D01*
X176704666Y-135517000D01*
X176609428Y-135469380D01*
X240442714Y-135564619D02*
X240395095Y-135517000D01*
X240299857Y-135469380D01*
X240061761Y-135469380D01*
X239966523Y-135517000D01*
X239918904Y-135564619D01*
X239871285Y-135659857D01*
X239871285Y-135755095D01*
X239918904Y-135897952D01*
X240490333Y-136469380D01*
X239871285Y-136469380D01*
X247856380Y-96059666D02*
X248570666Y-96059666D01*
X248713523Y-96012047D01*
X248808761Y-95916809D01*
X248856380Y-95773952D01*
X248856380Y-95678714D01*
X248284952Y-96678714D02*
X248237333Y-96583476D01*
X248189714Y-96535857D01*
X248094476Y-96488238D01*
X248046857Y-96488238D01*
X247951619Y-96535857D01*
X247904000Y-96583476D01*
X247856380Y-96678714D01*
X247856380Y-96869190D01*
X247904000Y-96964428D01*
X247951619Y-97012047D01*
X248046857Y-97059666D01*
X248094476Y-97059666D01*
X248189714Y-97012047D01*
X248237333Y-96964428D01*
X248284952Y-96869190D01*
X248284952Y-96678714D01*
X248332571Y-96583476D01*
X248380190Y-96535857D01*
X248475428Y-96488238D01*
X248665904Y-96488238D01*
X248761142Y-96535857D01*
X248808761Y-96583476D01*
X248856380Y-96678714D01*
X248856380Y-96869190D01*
X248808761Y-96964428D01*
X248761142Y-97012047D01*
X248665904Y-97059666D01*
X248475428Y-97059666D01*
X248380190Y-97012047D01*
X248332571Y-96964428D01*
X248284952Y-96869190D01*
X191142857Y-100323380D02*
X191476190Y-99847190D01*
X191714285Y-100323380D02*
X191714285Y-99323380D01*
X191333333Y-99323380D01*
X191238095Y-99371000D01*
X191190476Y-99418619D01*
X191142857Y-99513857D01*
X191142857Y-99656714D01*
X191190476Y-99751952D01*
X191238095Y-99799571D01*
X191333333Y-99847190D01*
X191714285Y-99847190D01*
X190190476Y-100323380D02*
X190761904Y-100323380D01*
X190476190Y-100323380D02*
X190476190Y-99323380D01*
X190571428Y-99466238D01*
X190666666Y-99561476D01*
X190761904Y-99609095D01*
X189857142Y-99323380D02*
X189190476Y-99323380D01*
X189619047Y-100323380D01*
X235592857Y-93987880D02*
X235926190Y-93511690D01*
X236164285Y-93987880D02*
X236164285Y-92987880D01*
X235783333Y-92987880D01*
X235688095Y-93035500D01*
X235640476Y-93083119D01*
X235592857Y-93178357D01*
X235592857Y-93321214D01*
X235640476Y-93416452D01*
X235688095Y-93464071D01*
X235783333Y-93511690D01*
X236164285Y-93511690D01*
X234640476Y-93987880D02*
X235211904Y-93987880D01*
X234926190Y-93987880D02*
X234926190Y-92987880D01*
X235021428Y-93130738D01*
X235116666Y-93225976D01*
X235211904Y-93273595D01*
X234164285Y-93987880D02*
X233973809Y-93987880D01*
X233878571Y-93940261D01*
X233830952Y-93892642D01*
X233735714Y-93749785D01*
X233688095Y-93559309D01*
X233688095Y-93178357D01*
X233735714Y-93083119D01*
X233783333Y-93035500D01*
X233878571Y-92987880D01*
X234069047Y-92987880D01*
X234164285Y-93035500D01*
X234211904Y-93083119D01*
X234259523Y-93178357D01*
X234259523Y-93416452D01*
X234211904Y-93511690D01*
X234164285Y-93559309D01*
X234069047Y-93606928D01*
X233878571Y-93606928D01*
X233783333Y-93559309D01*
X233735714Y-93511690D01*
X233688095Y-93416452D01*
X244038357Y-85351880D02*
X244371690Y-84875690D01*
X244609785Y-85351880D02*
X244609785Y-84351880D01*
X244228833Y-84351880D01*
X244133595Y-84399500D01*
X244085976Y-84447119D01*
X244038357Y-84542357D01*
X244038357Y-84685214D01*
X244085976Y-84780452D01*
X244133595Y-84828071D01*
X244228833Y-84875690D01*
X244609785Y-84875690D01*
X243657404Y-84447119D02*
X243609785Y-84399500D01*
X243514547Y-84351880D01*
X243276452Y-84351880D01*
X243181214Y-84399500D01*
X243133595Y-84447119D01*
X243085976Y-84542357D01*
X243085976Y-84637595D01*
X243133595Y-84780452D01*
X243705023Y-85351880D01*
X243085976Y-85351880D01*
X242466928Y-84351880D02*
X242371690Y-84351880D01*
X242276452Y-84399500D01*
X242228833Y-84447119D01*
X242181214Y-84542357D01*
X242133595Y-84732833D01*
X242133595Y-84970928D01*
X242181214Y-85161404D01*
X242228833Y-85256642D01*
X242276452Y-85304261D01*
X242371690Y-85351880D01*
X242466928Y-85351880D01*
X242562166Y-85304261D01*
X242609785Y-85256642D01*
X242657404Y-85161404D01*
X242705023Y-84970928D01*
X242705023Y-84732833D01*
X242657404Y-84542357D01*
X242609785Y-84447119D01*
X242562166Y-84399500D01*
X242466928Y-84351880D01*
X235592857Y-105735380D02*
X235926190Y-105259190D01*
X236164285Y-105735380D02*
X236164285Y-104735380D01*
X235783333Y-104735380D01*
X235688095Y-104783000D01*
X235640476Y-104830619D01*
X235592857Y-104925857D01*
X235592857Y-105068714D01*
X235640476Y-105163952D01*
X235688095Y-105211571D01*
X235783333Y-105259190D01*
X236164285Y-105259190D01*
X234640476Y-105735380D02*
X235211904Y-105735380D01*
X234926190Y-105735380D02*
X234926190Y-104735380D01*
X235021428Y-104878238D01*
X235116666Y-104973476D01*
X235211904Y-105021095D01*
X234069047Y-105163952D02*
X234164285Y-105116333D01*
X234211904Y-105068714D01*
X234259523Y-104973476D01*
X234259523Y-104925857D01*
X234211904Y-104830619D01*
X234164285Y-104783000D01*
X234069047Y-104735380D01*
X233878571Y-104735380D01*
X233783333Y-104783000D01*
X233735714Y-104830619D01*
X233688095Y-104925857D01*
X233688095Y-104973476D01*
X233735714Y-105068714D01*
X233783333Y-105116333D01*
X233878571Y-105163952D01*
X234069047Y-105163952D01*
X234164285Y-105211571D01*
X234211904Y-105259190D01*
X234259523Y-105354428D01*
X234259523Y-105544904D01*
X234211904Y-105640142D01*
X234164285Y-105687761D01*
X234069047Y-105735380D01*
X233878571Y-105735380D01*
X233783333Y-105687761D01*
X233735714Y-105640142D01*
X233688095Y-105544904D01*
X233688095Y-105354428D01*
X233735714Y-105259190D01*
X233783333Y-105211571D01*
X233878571Y-105163952D01*
X237904000Y-88893000D02*
X237904000Y-103893000D01*
X252604000Y-88893000D02*
X237904000Y-88893000D01*
X237904000Y-103893000D02*
X252604000Y-103893000D01*
X252604000Y-103893000D02*
X252604000Y-88893000D01*
X248404000Y-91463000D02*
G75*
G03*
X248404000Y-91463000I-500000J0D01*
G01*
X248404000Y-99443000D02*
G75*
G03*
X248404000Y-99443000I-500000J0D01*
G01*
D12*
X191100000Y-97291000D02*
X189900000Y-97291000D01*
X189900000Y-99051000D02*
X191100000Y-99051000D01*
X234070000Y-96047000D02*
X234070000Y-97247000D01*
X235830000Y-97247000D02*
X235830000Y-96047000D01*
X238731500Y-85779500D02*
X239931500Y-85779500D01*
X239931500Y-84019500D02*
X238731500Y-84019500D01*
X235830000Y-102517500D02*
X235830000Y-101317500D01*
X234070000Y-101317500D02*
X234070000Y-102517500D01*
M02*
