G04 #@! TF.GenerationSoftware,KiCad,Pcbnew,(6.0.5)*
G04 #@! TF.CreationDate,2022-06-13T20:59:20-07:00*
G04 #@! TF.ProjectId,PocketTRS,506f636b-6574-4545-9253-2e6b69636164,rev?*
G04 #@! TF.SameCoordinates,Original*
G04 #@! TF.FileFunction,Legend,Top*
G04 #@! TF.FilePolarity,Positive*
%FSLAX46Y46*%
G04 Gerber Fmt 4.6, Leading zero omitted, Abs format (unit mm)*
G04 Created by KiCad (PCBNEW (6.0.5)) date 2022-06-13 20:59:20*
%MOMM*%
%LPD*%
G01*
G04 APERTURE LIST*
G04 #@! TA.AperFunction,Profile*
%ADD10C,0.050000*%
G04 #@! TD*
%ADD11C,0.150000*%
%ADD12C,0.300000*%
%ADD13C,0.304800*%
%ADD14C,0.120000*%
%ADD15C,0.381000*%
%ADD16C,0.050000*%
G04 APERTURE END LIST*
D10*
X165100000Y-61976000D02*
X165100000Y-64770000D01*
X252730000Y-64770000D02*
X252730000Y-61976000D01*
X171323000Y-85852000D02*
X171323000Y-90805000D01*
X165100000Y-64770000D02*
X165100000Y-85852000D01*
X165100000Y-135890000D02*
X165100000Y-114046000D01*
X241808000Y-135890000D02*
X252730000Y-135890000D01*
X241808000Y-145542000D02*
X241300000Y-145542000D01*
X175260000Y-135890000D02*
X176022000Y-135890000D01*
X241808000Y-145542000D02*
X241808000Y-135890000D01*
X171323000Y-85852000D02*
X165100000Y-85852000D01*
X165100000Y-114046000D02*
X171323000Y-114046000D01*
X171323000Y-114046000D02*
X171323000Y-90805000D01*
X176022000Y-145542000D02*
X241300000Y-145542000D01*
X252730000Y-64770000D02*
X252730000Y-135890000D01*
X165100000Y-61976000D02*
X252730000Y-61976000D01*
X165100000Y-135890000D02*
X175260000Y-135890000D01*
X176022000Y-135890000D02*
X176022000Y-145542000D01*
D11*
X246044642Y-117800380D02*
X245711309Y-117324190D01*
X245473214Y-117800380D02*
X245473214Y-116800380D01*
X245854166Y-116800380D01*
X245949404Y-116848000D01*
X245997023Y-116895619D01*
X246044642Y-116990857D01*
X246044642Y-117133714D01*
X245997023Y-117228952D01*
X245949404Y-117276571D01*
X245854166Y-117324190D01*
X245473214Y-117324190D01*
X246377976Y-116800380D02*
X247044642Y-117800380D01*
X247044642Y-116800380D02*
X246377976Y-117800380D01*
X247425595Y-117800380D02*
X247425595Y-116800380D01*
X247663690Y-116800380D01*
X247806547Y-116848000D01*
X247901785Y-116943238D01*
X247949404Y-117038476D01*
X247997023Y-117228952D01*
X247997023Y-117371809D01*
X247949404Y-117562285D01*
X247901785Y-117657523D01*
X247806547Y-117752761D01*
X247663690Y-117800380D01*
X247425595Y-117800380D01*
X198278714Y-116149380D02*
X197707285Y-116149380D01*
X197993000Y-116149380D02*
X197993000Y-115149380D01*
X197897761Y-115292238D01*
X197802523Y-115387476D01*
X197707285Y-115435095D01*
X240490523Y-118122571D02*
X240823857Y-118122571D01*
X240966714Y-118646380D02*
X240490523Y-118646380D01*
X240490523Y-117646380D01*
X240966714Y-117646380D01*
X241347666Y-118598761D02*
X241490523Y-118646380D01*
X241728619Y-118646380D01*
X241823857Y-118598761D01*
X241871476Y-118551142D01*
X241919095Y-118455904D01*
X241919095Y-118360666D01*
X241871476Y-118265428D01*
X241823857Y-118217809D01*
X241728619Y-118170190D01*
X241538142Y-118122571D01*
X241442904Y-118074952D01*
X241395285Y-118027333D01*
X241347666Y-117932095D01*
X241347666Y-117836857D01*
X241395285Y-117741619D01*
X241442904Y-117694000D01*
X241538142Y-117646380D01*
X241776238Y-117646380D01*
X241919095Y-117694000D01*
X242347666Y-118646380D02*
X242347666Y-117646380D01*
X242728619Y-117646380D01*
X242823857Y-117694000D01*
X242871476Y-117741619D01*
X242919095Y-117836857D01*
X242919095Y-117979714D01*
X242871476Y-118074952D01*
X242823857Y-118122571D01*
X242728619Y-118170190D01*
X242347666Y-118170190D01*
X241133380Y-120256380D02*
X240800047Y-119780190D01*
X240561952Y-120256380D02*
X240561952Y-119256380D01*
X240942904Y-119256380D01*
X241038142Y-119304000D01*
X241085761Y-119351619D01*
X241133380Y-119446857D01*
X241133380Y-119589714D01*
X241085761Y-119684952D01*
X241038142Y-119732571D01*
X240942904Y-119780190D01*
X240561952Y-119780190D01*
X241514333Y-120208761D02*
X241657190Y-120256380D01*
X241895285Y-120256380D01*
X241990523Y-120208761D01*
X242038142Y-120161142D01*
X242085761Y-120065904D01*
X242085761Y-119970666D01*
X242038142Y-119875428D01*
X241990523Y-119827809D01*
X241895285Y-119780190D01*
X241704809Y-119732571D01*
X241609571Y-119684952D01*
X241561952Y-119637333D01*
X241514333Y-119542095D01*
X241514333Y-119446857D01*
X241561952Y-119351619D01*
X241609571Y-119304000D01*
X241704809Y-119256380D01*
X241942904Y-119256380D01*
X242085761Y-119304000D01*
X242371476Y-119256380D02*
X242942904Y-119256380D01*
X242657190Y-120256380D02*
X242657190Y-119256380D01*
X231171952Y-118646380D02*
X231171952Y-117646380D01*
X231552904Y-117646380D01*
X231648142Y-117694000D01*
X231695761Y-117741619D01*
X231743380Y-117836857D01*
X231743380Y-117979714D01*
X231695761Y-118074952D01*
X231648142Y-118122571D01*
X231552904Y-118170190D01*
X231171952Y-118170190D01*
X232029095Y-117646380D02*
X232600523Y-117646380D01*
X232314809Y-118646380D02*
X232314809Y-117646380D01*
X233505285Y-118646380D02*
X233171952Y-118170190D01*
X232933857Y-118646380D02*
X232933857Y-117646380D01*
X233314809Y-117646380D01*
X233410047Y-117694000D01*
X233457666Y-117741619D01*
X233505285Y-117836857D01*
X233505285Y-117979714D01*
X233457666Y-118074952D01*
X233410047Y-118122571D01*
X233314809Y-118170190D01*
X232933857Y-118170190D01*
X233886238Y-118598761D02*
X234029095Y-118646380D01*
X234267190Y-118646380D01*
X234362428Y-118598761D01*
X234410047Y-118551142D01*
X234457666Y-118455904D01*
X234457666Y-118360666D01*
X234410047Y-118265428D01*
X234362428Y-118217809D01*
X234267190Y-118170190D01*
X234076714Y-118122571D01*
X233981476Y-118074952D01*
X233933857Y-118027333D01*
X233886238Y-117932095D01*
X233886238Y-117836857D01*
X233933857Y-117741619D01*
X233981476Y-117694000D01*
X234076714Y-117646380D01*
X234314809Y-117646380D01*
X234457666Y-117694000D01*
X232243380Y-120256380D02*
X231910047Y-119780190D01*
X231671952Y-120256380D02*
X231671952Y-119256380D01*
X232052904Y-119256380D01*
X232148142Y-119304000D01*
X232195761Y-119351619D01*
X232243380Y-119446857D01*
X232243380Y-119589714D01*
X232195761Y-119684952D01*
X232148142Y-119732571D01*
X232052904Y-119780190D01*
X231671952Y-119780190D01*
X232624333Y-120208761D02*
X232767190Y-120256380D01*
X233005285Y-120256380D01*
X233100523Y-120208761D01*
X233148142Y-120161142D01*
X233195761Y-120065904D01*
X233195761Y-119970666D01*
X233148142Y-119875428D01*
X233100523Y-119827809D01*
X233005285Y-119780190D01*
X232814809Y-119732571D01*
X232719571Y-119684952D01*
X232671952Y-119637333D01*
X232624333Y-119542095D01*
X232624333Y-119446857D01*
X232671952Y-119351619D01*
X232719571Y-119304000D01*
X232814809Y-119256380D01*
X233052904Y-119256380D01*
X233195761Y-119304000D01*
X233481476Y-119256380D02*
X234052904Y-119256380D01*
X233767190Y-120256380D02*
X233767190Y-119256380D01*
X175514000Y-118848142D02*
X175561619Y-118895761D01*
X175514000Y-118943380D01*
X175466380Y-118895761D01*
X175514000Y-118848142D01*
X175514000Y-118943380D01*
X229362000Y-88749142D02*
X229409619Y-88796761D01*
X229362000Y-88844380D01*
X229314380Y-88796761D01*
X229362000Y-88749142D01*
X229362000Y-88844380D01*
X245536690Y-115196880D02*
X245536690Y-114196880D01*
X245774785Y-114196880D01*
X245917642Y-114244500D01*
X246012880Y-114339738D01*
X246060500Y-114434976D01*
X246108119Y-114625452D01*
X246108119Y-114768309D01*
X246060500Y-114958785D01*
X246012880Y-115054023D01*
X245917642Y-115149261D01*
X245774785Y-115196880D01*
X245536690Y-115196880D01*
X246393833Y-114196880D02*
X246965261Y-114196880D01*
X246679547Y-115196880D02*
X246679547Y-114196880D01*
X247870023Y-115196880D02*
X247536690Y-114720690D01*
X247298595Y-115196880D02*
X247298595Y-114196880D01*
X247679547Y-114196880D01*
X247774785Y-114244500D01*
X247822404Y-114292119D01*
X247870023Y-114387357D01*
X247870023Y-114530214D01*
X247822404Y-114625452D01*
X247774785Y-114673071D01*
X247679547Y-114720690D01*
X247298595Y-114720690D01*
X228473000Y-81891142D02*
X228520619Y-81938761D01*
X228473000Y-81986380D01*
X228425380Y-81938761D01*
X228473000Y-81891142D01*
X228473000Y-81986380D01*
X192944714Y-78684380D02*
X192373285Y-78684380D01*
X192659000Y-78684380D02*
X192659000Y-77684380D01*
X192563761Y-77827238D01*
X192468523Y-77922476D01*
X192373285Y-77970095D01*
X240442714Y-136469380D02*
X239871285Y-136469380D01*
X240157000Y-136469380D02*
X240157000Y-135469380D01*
X240061761Y-135612238D01*
X239966523Y-135707476D01*
X239871285Y-135755095D01*
X214153714Y-123388380D02*
X213582285Y-123388380D01*
X213868000Y-123388380D02*
X213868000Y-122388380D01*
X213772761Y-122531238D01*
X213677523Y-122626476D01*
X213582285Y-122674095D01*
X244473214Y-121880380D02*
X244806547Y-122880380D01*
X245139880Y-121880380D01*
X246044642Y-122785142D02*
X245997023Y-122832761D01*
X245854166Y-122880380D01*
X245758928Y-122880380D01*
X245616071Y-122832761D01*
X245520833Y-122737523D01*
X245473214Y-122642285D01*
X245425595Y-122451809D01*
X245425595Y-122308952D01*
X245473214Y-122118476D01*
X245520833Y-122023238D01*
X245616071Y-121928000D01*
X245758928Y-121880380D01*
X245854166Y-121880380D01*
X245997023Y-121928000D01*
X246044642Y-121975619D01*
X247044642Y-122785142D02*
X246997023Y-122832761D01*
X246854166Y-122880380D01*
X246758928Y-122880380D01*
X246616071Y-122832761D01*
X246520833Y-122737523D01*
X246473214Y-122642285D01*
X246425595Y-122451809D01*
X246425595Y-122308952D01*
X246473214Y-122118476D01*
X246520833Y-122023238D01*
X246616071Y-121928000D01*
X246758928Y-121880380D01*
X246854166Y-121880380D01*
X246997023Y-121928000D01*
X247044642Y-121975619D01*
X247949404Y-121880380D02*
X247473214Y-121880380D01*
X247425595Y-122356571D01*
X247473214Y-122308952D01*
X247568452Y-122261333D01*
X247806547Y-122261333D01*
X247901785Y-122308952D01*
X247949404Y-122356571D01*
X247997023Y-122451809D01*
X247997023Y-122689904D01*
X247949404Y-122785142D01*
X247901785Y-122832761D01*
X247806547Y-122880380D01*
X247568452Y-122880380D01*
X247473214Y-122832761D01*
X247425595Y-122785142D01*
X246155738Y-112656880D02*
X245822404Y-112180690D01*
X245584309Y-112656880D02*
X245584309Y-111656880D01*
X245965261Y-111656880D01*
X246060500Y-111704500D01*
X246108119Y-111752119D01*
X246155738Y-111847357D01*
X246155738Y-111990214D01*
X246108119Y-112085452D01*
X246060500Y-112133071D01*
X245965261Y-112180690D01*
X245584309Y-112180690D01*
X246441452Y-111656880D02*
X247012880Y-111656880D01*
X246727166Y-112656880D02*
X246727166Y-111656880D01*
X247298595Y-112609261D02*
X247441452Y-112656880D01*
X247679547Y-112656880D01*
X247774785Y-112609261D01*
X247822404Y-112561642D01*
X247870023Y-112466404D01*
X247870023Y-112371166D01*
X247822404Y-112275928D01*
X247774785Y-112228309D01*
X247679547Y-112180690D01*
X247489071Y-112133071D01*
X247393833Y-112085452D01*
X247346214Y-112037833D01*
X247298595Y-111942595D01*
X247298595Y-111847357D01*
X247346214Y-111752119D01*
X247393833Y-111704500D01*
X247489071Y-111656880D01*
X247727166Y-111656880D01*
X247870023Y-111704500D01*
X245745000Y-81002142D02*
X245792619Y-81049761D01*
X245745000Y-81097380D01*
X245697380Y-81049761D01*
X245745000Y-81002142D01*
X245745000Y-81097380D01*
X176752285Y-135802714D02*
X176752285Y-136469380D01*
X176514190Y-135421761D02*
X176276095Y-136136047D01*
X176895142Y-136136047D01*
X177323714Y-136469380D02*
X177514190Y-136469380D01*
X177609428Y-136421761D01*
X177657047Y-136374142D01*
X177752285Y-136231285D01*
X177799904Y-136040809D01*
X177799904Y-135659857D01*
X177752285Y-135564619D01*
X177704666Y-135517000D01*
X177609428Y-135469380D01*
X177418952Y-135469380D01*
X177323714Y-135517000D01*
X177276095Y-135564619D01*
X177228476Y-135659857D01*
X177228476Y-135897952D01*
X177276095Y-135993190D01*
X177323714Y-136040809D01*
X177418952Y-136088428D01*
X177609428Y-136088428D01*
X177704666Y-136040809D01*
X177752285Y-135993190D01*
X177799904Y-135897952D01*
X245774785Y-124404500D02*
X245679547Y-124356880D01*
X245536690Y-124356880D01*
X245393833Y-124404500D01*
X245298595Y-124499738D01*
X245250976Y-124594976D01*
X245203357Y-124785452D01*
X245203357Y-124928309D01*
X245250976Y-125118785D01*
X245298595Y-125214023D01*
X245393833Y-125309261D01*
X245536690Y-125356880D01*
X245631928Y-125356880D01*
X245774785Y-125309261D01*
X245822404Y-125261642D01*
X245822404Y-124928309D01*
X245631928Y-124928309D01*
X246250976Y-125356880D02*
X246250976Y-124356880D01*
X246822404Y-125356880D01*
X246822404Y-124356880D01*
X247298595Y-125356880D02*
X247298595Y-124356880D01*
X247536690Y-124356880D01*
X247679547Y-124404500D01*
X247774785Y-124499738D01*
X247822404Y-124594976D01*
X247870023Y-124785452D01*
X247870023Y-124928309D01*
X247822404Y-125118785D01*
X247774785Y-125214023D01*
X247679547Y-125309261D01*
X247536690Y-125356880D01*
X247298595Y-125356880D01*
X239268000Y-90019142D02*
X239315619Y-90066761D01*
X239268000Y-90114380D01*
X239220380Y-90066761D01*
X239268000Y-90019142D01*
X239268000Y-90114380D01*
X172878714Y-106751380D02*
X172307285Y-106751380D01*
X172593000Y-106751380D02*
X172593000Y-105751380D01*
X172497761Y-105894238D01*
X172402523Y-105989476D01*
X172307285Y-106037095D01*
D12*
X203780571Y-109199071D02*
X203780571Y-107699071D01*
X204352000Y-107699071D01*
X204494857Y-107770500D01*
X204566285Y-107841928D01*
X204637714Y-107984785D01*
X204637714Y-108199071D01*
X204566285Y-108341928D01*
X204494857Y-108413357D01*
X204352000Y-108484785D01*
X203780571Y-108484785D01*
X205494857Y-109199071D02*
X205352000Y-109127642D01*
X205280571Y-109056214D01*
X205209142Y-108913357D01*
X205209142Y-108484785D01*
X205280571Y-108341928D01*
X205352000Y-108270500D01*
X205494857Y-108199071D01*
X205709142Y-108199071D01*
X205852000Y-108270500D01*
X205923428Y-108341928D01*
X205994857Y-108484785D01*
X205994857Y-108913357D01*
X205923428Y-109056214D01*
X205852000Y-109127642D01*
X205709142Y-109199071D01*
X205494857Y-109199071D01*
X207280571Y-109127642D02*
X207137714Y-109199071D01*
X206852000Y-109199071D01*
X206709142Y-109127642D01*
X206637714Y-109056214D01*
X206566285Y-108913357D01*
X206566285Y-108484785D01*
X206637714Y-108341928D01*
X206709142Y-108270500D01*
X206852000Y-108199071D01*
X207137714Y-108199071D01*
X207280571Y-108270500D01*
X207923428Y-109199071D02*
X207923428Y-107699071D01*
X208066285Y-108627642D02*
X208494857Y-109199071D01*
X208494857Y-108199071D02*
X207923428Y-108770500D01*
X209709142Y-109127642D02*
X209566285Y-109199071D01*
X209280571Y-109199071D01*
X209137714Y-109127642D01*
X209066285Y-108984785D01*
X209066285Y-108413357D01*
X209137714Y-108270500D01*
X209280571Y-108199071D01*
X209566285Y-108199071D01*
X209709142Y-108270500D01*
X209780571Y-108413357D01*
X209780571Y-108556214D01*
X209066285Y-108699071D01*
X210209142Y-108199071D02*
X210780571Y-108199071D01*
X210423428Y-107699071D02*
X210423428Y-108984785D01*
X210494857Y-109127642D01*
X210637714Y-109199071D01*
X210780571Y-109199071D01*
X211066285Y-107699071D02*
X211923428Y-107699071D01*
X211494857Y-109199071D02*
X211494857Y-107699071D01*
X213280571Y-109199071D02*
X212780571Y-108484785D01*
X212423428Y-109199071D02*
X212423428Y-107699071D01*
X212994857Y-107699071D01*
X213137714Y-107770500D01*
X213209142Y-107841928D01*
X213280571Y-107984785D01*
X213280571Y-108199071D01*
X213209142Y-108341928D01*
X213137714Y-108413357D01*
X212994857Y-108484785D01*
X212423428Y-108484785D01*
X213852000Y-109127642D02*
X214066285Y-109199071D01*
X214423428Y-109199071D01*
X214566285Y-109127642D01*
X214637714Y-109056214D01*
X214709142Y-108913357D01*
X214709142Y-108770500D01*
X214637714Y-108627642D01*
X214566285Y-108556214D01*
X214423428Y-108484785D01*
X214137714Y-108413357D01*
X213994857Y-108341928D01*
X213923428Y-108270500D01*
X213852000Y-108127642D01*
X213852000Y-107984785D01*
X213923428Y-107841928D01*
X213994857Y-107770500D01*
X214137714Y-107699071D01*
X214494857Y-107699071D01*
X214709142Y-107770500D01*
X216280571Y-107699071D02*
X216780571Y-109199071D01*
X217280571Y-107699071D01*
X217709142Y-107841928D02*
X217780571Y-107770500D01*
X217923428Y-107699071D01*
X218280571Y-107699071D01*
X218423428Y-107770500D01*
X218494857Y-107841928D01*
X218566285Y-107984785D01*
X218566285Y-108127642D01*
X218494857Y-108341928D01*
X217637714Y-109199071D01*
X218566285Y-109199071D01*
X219209142Y-109056214D02*
X219280571Y-109127642D01*
X219209142Y-109199071D01*
X219137714Y-109127642D01*
X219209142Y-109056214D01*
X219209142Y-109199071D01*
X219780571Y-107699071D02*
X220709142Y-107699071D01*
X220209142Y-108270500D01*
X220423428Y-108270500D01*
X220566285Y-108341928D01*
X220637714Y-108413357D01*
X220709142Y-108556214D01*
X220709142Y-108913357D01*
X220637714Y-109056214D01*
X220566285Y-109127642D01*
X220423428Y-109199071D01*
X219994857Y-109199071D01*
X219852000Y-109127642D01*
X219780571Y-109056214D01*
X221994857Y-109127642D02*
X221852000Y-109199071D01*
X221566285Y-109199071D01*
X221423428Y-109127642D01*
X221352000Y-109056214D01*
X221280571Y-108913357D01*
X221280571Y-108484785D01*
X221352000Y-108341928D01*
X221423428Y-108270500D01*
X221566285Y-108199071D01*
X221852000Y-108199071D01*
X221994857Y-108270500D01*
X207637714Y-110114071D02*
X207637714Y-111185500D01*
X207566285Y-111399785D01*
X207423428Y-111542642D01*
X207209142Y-111614071D01*
X207066285Y-111614071D01*
X208994857Y-110614071D02*
X208994857Y-111614071D01*
X208352000Y-110614071D02*
X208352000Y-111399785D01*
X208423428Y-111542642D01*
X208566285Y-111614071D01*
X208780571Y-111614071D01*
X208923428Y-111542642D01*
X208994857Y-111471214D01*
X209709142Y-110614071D02*
X209709142Y-111614071D01*
X209709142Y-110756928D02*
X209780571Y-110685500D01*
X209923428Y-110614071D01*
X210137714Y-110614071D01*
X210280571Y-110685500D01*
X210352000Y-110828357D01*
X210352000Y-111614071D01*
X211637714Y-111542642D02*
X211494857Y-111614071D01*
X211209142Y-111614071D01*
X211066285Y-111542642D01*
X210994857Y-111399785D01*
X210994857Y-110828357D01*
X211066285Y-110685500D01*
X211209142Y-110614071D01*
X211494857Y-110614071D01*
X211637714Y-110685500D01*
X211709142Y-110828357D01*
X211709142Y-110971214D01*
X210994857Y-111114071D01*
X213423428Y-110256928D02*
X213494857Y-110185500D01*
X213637714Y-110114071D01*
X213994857Y-110114071D01*
X214137714Y-110185500D01*
X214209142Y-110256928D01*
X214280571Y-110399785D01*
X214280571Y-110542642D01*
X214209142Y-110756928D01*
X213352000Y-111614071D01*
X214280571Y-111614071D01*
X215209142Y-110114071D02*
X215352000Y-110114071D01*
X215494857Y-110185500D01*
X215566285Y-110256928D01*
X215637714Y-110399785D01*
X215709142Y-110685500D01*
X215709142Y-111042642D01*
X215637714Y-111328357D01*
X215566285Y-111471214D01*
X215494857Y-111542642D01*
X215352000Y-111614071D01*
X215209142Y-111614071D01*
X215066285Y-111542642D01*
X214994857Y-111471214D01*
X214923428Y-111328357D01*
X214852000Y-111042642D01*
X214852000Y-110685500D01*
X214923428Y-110399785D01*
X214994857Y-110256928D01*
X215066285Y-110185500D01*
X215209142Y-110114071D01*
X216280571Y-110256928D02*
X216352000Y-110185500D01*
X216494857Y-110114071D01*
X216852000Y-110114071D01*
X216994857Y-110185500D01*
X217066285Y-110256928D01*
X217137714Y-110399785D01*
X217137714Y-110542642D01*
X217066285Y-110756928D01*
X216209142Y-111614071D01*
X217137714Y-111614071D01*
X217709142Y-110256928D02*
X217780571Y-110185500D01*
X217923428Y-110114071D01*
X218280571Y-110114071D01*
X218423428Y-110185500D01*
X218494857Y-110256928D01*
X218566285Y-110399785D01*
X218566285Y-110542642D01*
X218494857Y-110756928D01*
X217637714Y-111614071D01*
X218566285Y-111614071D01*
D11*
X245441452Y-119403880D02*
X246012880Y-119403880D01*
X245727166Y-120403880D02*
X245727166Y-119403880D01*
X246250976Y-119403880D02*
X246917642Y-120403880D01*
X246917642Y-119403880D02*
X246250976Y-120403880D01*
X247298595Y-120403880D02*
X247298595Y-119403880D01*
X247536690Y-119403880D01*
X247679547Y-119451500D01*
X247774785Y-119546738D01*
X247822404Y-119641976D01*
X247870023Y-119832452D01*
X247870023Y-119975309D01*
X247822404Y-120165785D01*
X247774785Y-120261023D01*
X247679547Y-120356261D01*
X247536690Y-120403880D01*
X247298595Y-120403880D01*
D12*
X212017428Y-101854000D02*
X211872285Y-101781428D01*
X211654571Y-101781428D01*
X211436857Y-101854000D01*
X211291714Y-101999142D01*
X211219142Y-102144285D01*
X211146571Y-102434571D01*
X211146571Y-102652285D01*
X211219142Y-102942571D01*
X211291714Y-103087714D01*
X211436857Y-103232857D01*
X211654571Y-103305428D01*
X211799714Y-103305428D01*
X212017428Y-103232857D01*
X212090000Y-103160285D01*
X212090000Y-102652285D01*
X211799714Y-102652285D01*
X212960857Y-101781428D02*
X212960857Y-102144285D01*
X212598000Y-101999142D02*
X212960857Y-102144285D01*
X213323714Y-101999142D01*
X212743142Y-102434571D02*
X212960857Y-102144285D01*
X213178571Y-102434571D01*
X214122000Y-101781428D02*
X214122000Y-102144285D01*
X213759142Y-101999142D02*
X214122000Y-102144285D01*
X214484857Y-101999142D01*
X213904285Y-102434571D02*
X214122000Y-102144285D01*
X214339714Y-102434571D01*
X215283142Y-101781428D02*
X215283142Y-102144285D01*
X214920285Y-101999142D02*
X215283142Y-102144285D01*
X215646000Y-101999142D01*
X215065428Y-102434571D02*
X215283142Y-102144285D01*
X215500857Y-102434571D01*
D11*
X249602666Y-109390380D02*
X249602666Y-110104666D01*
X249555047Y-110247523D01*
X249459809Y-110342761D01*
X249316952Y-110390380D01*
X249221714Y-110390380D01*
X250555047Y-109390380D02*
X250078857Y-109390380D01*
X250031238Y-109866571D01*
X250078857Y-109818952D01*
X250174095Y-109771333D01*
X250412190Y-109771333D01*
X250507428Y-109818952D01*
X250555047Y-109866571D01*
X250602666Y-109961809D01*
X250602666Y-110199904D01*
X250555047Y-110295142D01*
X250507428Y-110342761D01*
X250412190Y-110390380D01*
X250174095Y-110390380D01*
X250078857Y-110342761D01*
X250031238Y-110295142D01*
X240030095Y-83653380D02*
X240030095Y-84462904D01*
X240077714Y-84558142D01*
X240125333Y-84605761D01*
X240220571Y-84653380D01*
X240411047Y-84653380D01*
X240506285Y-84605761D01*
X240553904Y-84558142D01*
X240601523Y-84462904D01*
X240601523Y-83653380D01*
X241506285Y-83986714D02*
X241506285Y-84653380D01*
X241268190Y-83605761D02*
X241030095Y-84320047D01*
X241649142Y-84320047D01*
X230465333Y-96750142D02*
X230417714Y-96797761D01*
X230274857Y-96845380D01*
X230179619Y-96845380D01*
X230036761Y-96797761D01*
X229941523Y-96702523D01*
X229893904Y-96607285D01*
X229846285Y-96416809D01*
X229846285Y-96273952D01*
X229893904Y-96083476D01*
X229941523Y-95988238D01*
X230036761Y-95893000D01*
X230179619Y-95845380D01*
X230274857Y-95845380D01*
X230417714Y-95893000D01*
X230465333Y-95940619D01*
X230798666Y-95845380D02*
X231417714Y-95845380D01*
X231084380Y-96226333D01*
X231227238Y-96226333D01*
X231322476Y-96273952D01*
X231370095Y-96321571D01*
X231417714Y-96416809D01*
X231417714Y-96654904D01*
X231370095Y-96750142D01*
X231322476Y-96797761D01*
X231227238Y-96845380D01*
X230941523Y-96845380D01*
X230846285Y-96797761D01*
X230798666Y-96750142D01*
X248880333Y-78335142D02*
X248832714Y-78382761D01*
X248689857Y-78430380D01*
X248594619Y-78430380D01*
X248451761Y-78382761D01*
X248356523Y-78287523D01*
X248308904Y-78192285D01*
X248261285Y-78001809D01*
X248261285Y-77858952D01*
X248308904Y-77668476D01*
X248356523Y-77573238D01*
X248451761Y-77478000D01*
X248594619Y-77430380D01*
X248689857Y-77430380D01*
X248832714Y-77478000D01*
X248880333Y-77525619D01*
X249737476Y-77763714D02*
X249737476Y-78430380D01*
X249499380Y-77382761D02*
X249261285Y-78097047D01*
X249880333Y-78097047D01*
X242403333Y-91543142D02*
X242355714Y-91590761D01*
X242212857Y-91638380D01*
X242117619Y-91638380D01*
X241974761Y-91590761D01*
X241879523Y-91495523D01*
X241831904Y-91400285D01*
X241784285Y-91209809D01*
X241784285Y-91066952D01*
X241831904Y-90876476D01*
X241879523Y-90781238D01*
X241974761Y-90686000D01*
X242117619Y-90638380D01*
X242212857Y-90638380D01*
X242355714Y-90686000D01*
X242403333Y-90733619D01*
X243308095Y-90638380D02*
X242831904Y-90638380D01*
X242784285Y-91114571D01*
X242831904Y-91066952D01*
X242927142Y-91019333D01*
X243165238Y-91019333D01*
X243260476Y-91066952D01*
X243308095Y-91114571D01*
X243355714Y-91209809D01*
X243355714Y-91447904D01*
X243308095Y-91543142D01*
X243260476Y-91590761D01*
X243165238Y-91638380D01*
X242927142Y-91638380D01*
X242831904Y-91590761D01*
X242784285Y-91543142D01*
X187793333Y-118848142D02*
X187745714Y-118895761D01*
X187602857Y-118943380D01*
X187507619Y-118943380D01*
X187364761Y-118895761D01*
X187269523Y-118800523D01*
X187221904Y-118705285D01*
X187174285Y-118514809D01*
X187174285Y-118371952D01*
X187221904Y-118181476D01*
X187269523Y-118086238D01*
X187364761Y-117991000D01*
X187507619Y-117943380D01*
X187602857Y-117943380D01*
X187745714Y-117991000D01*
X187793333Y-118038619D01*
X188650476Y-117943380D02*
X188460000Y-117943380D01*
X188364761Y-117991000D01*
X188317142Y-118038619D01*
X188221904Y-118181476D01*
X188174285Y-118371952D01*
X188174285Y-118752904D01*
X188221904Y-118848142D01*
X188269523Y-118895761D01*
X188364761Y-118943380D01*
X188555238Y-118943380D01*
X188650476Y-118895761D01*
X188698095Y-118848142D01*
X188745714Y-118752904D01*
X188745714Y-118514809D01*
X188698095Y-118419571D01*
X188650476Y-118371952D01*
X188555238Y-118324333D01*
X188364761Y-118324333D01*
X188269523Y-118371952D01*
X188221904Y-118419571D01*
X188174285Y-118514809D01*
X235144333Y-126722142D02*
X235096714Y-126769761D01*
X234953857Y-126817380D01*
X234858619Y-126817380D01*
X234715761Y-126769761D01*
X234620523Y-126674523D01*
X234572904Y-126579285D01*
X234525285Y-126388809D01*
X234525285Y-126245952D01*
X234572904Y-126055476D01*
X234620523Y-125960238D01*
X234715761Y-125865000D01*
X234858619Y-125817380D01*
X234953857Y-125817380D01*
X235096714Y-125865000D01*
X235144333Y-125912619D01*
X235477666Y-125817380D02*
X236144333Y-125817380D01*
X235715761Y-126817380D01*
X196957333Y-80014142D02*
X196909714Y-80061761D01*
X196766857Y-80109380D01*
X196671619Y-80109380D01*
X196528761Y-80061761D01*
X196433523Y-79966523D01*
X196385904Y-79871285D01*
X196338285Y-79680809D01*
X196338285Y-79537952D01*
X196385904Y-79347476D01*
X196433523Y-79252238D01*
X196528761Y-79157000D01*
X196671619Y-79109380D01*
X196766857Y-79109380D01*
X196909714Y-79157000D01*
X196957333Y-79204619D01*
X197528761Y-79537952D02*
X197433523Y-79490333D01*
X197385904Y-79442714D01*
X197338285Y-79347476D01*
X197338285Y-79299857D01*
X197385904Y-79204619D01*
X197433523Y-79157000D01*
X197528761Y-79109380D01*
X197719238Y-79109380D01*
X197814476Y-79157000D01*
X197862095Y-79204619D01*
X197909714Y-79299857D01*
X197909714Y-79347476D01*
X197862095Y-79442714D01*
X197814476Y-79490333D01*
X197719238Y-79537952D01*
X197528761Y-79537952D01*
X197433523Y-79585571D01*
X197385904Y-79633190D01*
X197338285Y-79728428D01*
X197338285Y-79918904D01*
X197385904Y-80014142D01*
X197433523Y-80061761D01*
X197528761Y-80109380D01*
X197719238Y-80109380D01*
X197814476Y-80061761D01*
X197862095Y-80014142D01*
X197909714Y-79918904D01*
X197909714Y-79728428D01*
X197862095Y-79633190D01*
X197814476Y-79585571D01*
X197719238Y-79537952D01*
X168997333Y-117451142D02*
X168949714Y-117498761D01*
X168806857Y-117546380D01*
X168711619Y-117546380D01*
X168568761Y-117498761D01*
X168473523Y-117403523D01*
X168425904Y-117308285D01*
X168378285Y-117117809D01*
X168378285Y-116974952D01*
X168425904Y-116784476D01*
X168473523Y-116689238D01*
X168568761Y-116594000D01*
X168711619Y-116546380D01*
X168806857Y-116546380D01*
X168949714Y-116594000D01*
X168997333Y-116641619D01*
X169473523Y-117546380D02*
X169664000Y-117546380D01*
X169759238Y-117498761D01*
X169806857Y-117451142D01*
X169902095Y-117308285D01*
X169949714Y-117117809D01*
X169949714Y-116736857D01*
X169902095Y-116641619D01*
X169854476Y-116594000D01*
X169759238Y-116546380D01*
X169568761Y-116546380D01*
X169473523Y-116594000D01*
X169425904Y-116641619D01*
X169378285Y-116736857D01*
X169378285Y-116974952D01*
X169425904Y-117070190D01*
X169473523Y-117117809D01*
X169568761Y-117165428D01*
X169759238Y-117165428D01*
X169854476Y-117117809D01*
X169902095Y-117070190D01*
X169949714Y-116974952D01*
X170807142Y-125960142D02*
X170759523Y-126007761D01*
X170616666Y-126055380D01*
X170521428Y-126055380D01*
X170378571Y-126007761D01*
X170283333Y-125912523D01*
X170235714Y-125817285D01*
X170188095Y-125626809D01*
X170188095Y-125483952D01*
X170235714Y-125293476D01*
X170283333Y-125198238D01*
X170378571Y-125103000D01*
X170521428Y-125055380D01*
X170616666Y-125055380D01*
X170759523Y-125103000D01*
X170807142Y-125150619D01*
X171759523Y-126055380D02*
X171188095Y-126055380D01*
X171473809Y-126055380D02*
X171473809Y-125055380D01*
X171378571Y-125198238D01*
X171283333Y-125293476D01*
X171188095Y-125341095D01*
X172378571Y-125055380D02*
X172473809Y-125055380D01*
X172569047Y-125103000D01*
X172616666Y-125150619D01*
X172664285Y-125245857D01*
X172711904Y-125436333D01*
X172711904Y-125674428D01*
X172664285Y-125864904D01*
X172616666Y-125960142D01*
X172569047Y-126007761D01*
X172473809Y-126055380D01*
X172378571Y-126055380D01*
X172283333Y-126007761D01*
X172235714Y-125960142D01*
X172188095Y-125864904D01*
X172140476Y-125674428D01*
X172140476Y-125436333D01*
X172188095Y-125245857D01*
X172235714Y-125150619D01*
X172283333Y-125103000D01*
X172378571Y-125055380D01*
X213701333Y-80335380D02*
X213368000Y-79859190D01*
X213129904Y-80335380D02*
X213129904Y-79335380D01*
X213510857Y-79335380D01*
X213606095Y-79383000D01*
X213653714Y-79430619D01*
X213701333Y-79525857D01*
X213701333Y-79668714D01*
X213653714Y-79763952D01*
X213606095Y-79811571D01*
X213510857Y-79859190D01*
X213129904Y-79859190D01*
X214558476Y-79668714D02*
X214558476Y-80335380D01*
X214320380Y-79287761D02*
X214082285Y-80002047D01*
X214701333Y-80002047D01*
X217765333Y-80335380D02*
X217432000Y-79859190D01*
X217193904Y-80335380D02*
X217193904Y-79335380D01*
X217574857Y-79335380D01*
X217670095Y-79383000D01*
X217717714Y-79430619D01*
X217765333Y-79525857D01*
X217765333Y-79668714D01*
X217717714Y-79763952D01*
X217670095Y-79811571D01*
X217574857Y-79859190D01*
X217193904Y-79859190D01*
X218670095Y-79335380D02*
X218193904Y-79335380D01*
X218146285Y-79811571D01*
X218193904Y-79763952D01*
X218289142Y-79716333D01*
X218527238Y-79716333D01*
X218622476Y-79763952D01*
X218670095Y-79811571D01*
X218717714Y-79906809D01*
X218717714Y-80144904D01*
X218670095Y-80240142D01*
X218622476Y-80287761D01*
X218527238Y-80335380D01*
X218289142Y-80335380D01*
X218193904Y-80287761D01*
X218146285Y-80240142D01*
X220813333Y-90114380D02*
X220480000Y-89638190D01*
X220241904Y-90114380D02*
X220241904Y-89114380D01*
X220622857Y-89114380D01*
X220718095Y-89162000D01*
X220765714Y-89209619D01*
X220813333Y-89304857D01*
X220813333Y-89447714D01*
X220765714Y-89542952D01*
X220718095Y-89590571D01*
X220622857Y-89638190D01*
X220241904Y-89638190D01*
X221670476Y-89114380D02*
X221480000Y-89114380D01*
X221384761Y-89162000D01*
X221337142Y-89209619D01*
X221241904Y-89352476D01*
X221194285Y-89542952D01*
X221194285Y-89923904D01*
X221241904Y-90019142D01*
X221289523Y-90066761D01*
X221384761Y-90114380D01*
X221575238Y-90114380D01*
X221670476Y-90066761D01*
X221718095Y-90019142D01*
X221765714Y-89923904D01*
X221765714Y-89685809D01*
X221718095Y-89590571D01*
X221670476Y-89542952D01*
X221575238Y-89495333D01*
X221384761Y-89495333D01*
X221289523Y-89542952D01*
X221241904Y-89590571D01*
X221194285Y-89685809D01*
X223607333Y-90114380D02*
X223274000Y-89638190D01*
X223035904Y-90114380D02*
X223035904Y-89114380D01*
X223416857Y-89114380D01*
X223512095Y-89162000D01*
X223559714Y-89209619D01*
X223607333Y-89304857D01*
X223607333Y-89447714D01*
X223559714Y-89542952D01*
X223512095Y-89590571D01*
X223416857Y-89638190D01*
X223035904Y-89638190D01*
X223940666Y-89114380D02*
X224607333Y-89114380D01*
X224178761Y-90114380D01*
X233386333Y-90114380D02*
X233053000Y-89638190D01*
X232814904Y-90114380D02*
X232814904Y-89114380D01*
X233195857Y-89114380D01*
X233291095Y-89162000D01*
X233338714Y-89209619D01*
X233386333Y-89304857D01*
X233386333Y-89447714D01*
X233338714Y-89542952D01*
X233291095Y-89590571D01*
X233195857Y-89638190D01*
X232814904Y-89638190D01*
X233957761Y-89542952D02*
X233862523Y-89495333D01*
X233814904Y-89447714D01*
X233767285Y-89352476D01*
X233767285Y-89304857D01*
X233814904Y-89209619D01*
X233862523Y-89162000D01*
X233957761Y-89114380D01*
X234148238Y-89114380D01*
X234243476Y-89162000D01*
X234291095Y-89209619D01*
X234338714Y-89304857D01*
X234338714Y-89352476D01*
X234291095Y-89447714D01*
X234243476Y-89495333D01*
X234148238Y-89542952D01*
X233957761Y-89542952D01*
X233862523Y-89590571D01*
X233814904Y-89638190D01*
X233767285Y-89733428D01*
X233767285Y-89923904D01*
X233814904Y-90019142D01*
X233862523Y-90066761D01*
X233957761Y-90114380D01*
X234148238Y-90114380D01*
X234243476Y-90066761D01*
X234291095Y-90019142D01*
X234338714Y-89923904D01*
X234338714Y-89733428D01*
X234291095Y-89638190D01*
X234243476Y-89590571D01*
X234148238Y-89542952D01*
X215130142Y-86812380D02*
X214796809Y-86336190D01*
X214558714Y-86812380D02*
X214558714Y-85812380D01*
X214939666Y-85812380D01*
X215034904Y-85860000D01*
X215082523Y-85907619D01*
X215130142Y-86002857D01*
X215130142Y-86145714D01*
X215082523Y-86240952D01*
X215034904Y-86288571D01*
X214939666Y-86336190D01*
X214558714Y-86336190D01*
X216082523Y-86812380D02*
X215511095Y-86812380D01*
X215796809Y-86812380D02*
X215796809Y-85812380D01*
X215701571Y-85955238D01*
X215606333Y-86050476D01*
X215511095Y-86098095D01*
X216701571Y-85812380D02*
X216796809Y-85812380D01*
X216892047Y-85860000D01*
X216939666Y-85907619D01*
X216987285Y-86002857D01*
X217034904Y-86193333D01*
X217034904Y-86431428D01*
X216987285Y-86621904D01*
X216939666Y-86717142D01*
X216892047Y-86764761D01*
X216796809Y-86812380D01*
X216701571Y-86812380D01*
X216606333Y-86764761D01*
X216558714Y-86717142D01*
X216511095Y-86621904D01*
X216463476Y-86431428D01*
X216463476Y-86193333D01*
X216511095Y-86002857D01*
X216558714Y-85907619D01*
X216606333Y-85860000D01*
X216701571Y-85812380D01*
X215130142Y-84526380D02*
X214796809Y-84050190D01*
X214558714Y-84526380D02*
X214558714Y-83526380D01*
X214939666Y-83526380D01*
X215034904Y-83574000D01*
X215082523Y-83621619D01*
X215130142Y-83716857D01*
X215130142Y-83859714D01*
X215082523Y-83954952D01*
X215034904Y-84002571D01*
X214939666Y-84050190D01*
X214558714Y-84050190D01*
X216082523Y-84526380D02*
X215511095Y-84526380D01*
X215796809Y-84526380D02*
X215796809Y-83526380D01*
X215701571Y-83669238D01*
X215606333Y-83764476D01*
X215511095Y-83812095D01*
X217034904Y-84526380D02*
X216463476Y-84526380D01*
X216749190Y-84526380D02*
X216749190Y-83526380D01*
X216653952Y-83669238D01*
X216558714Y-83764476D01*
X216463476Y-83812095D01*
X204970142Y-96337380D02*
X204636809Y-95861190D01*
X204398714Y-96337380D02*
X204398714Y-95337380D01*
X204779666Y-95337380D01*
X204874904Y-95385000D01*
X204922523Y-95432619D01*
X204970142Y-95527857D01*
X204970142Y-95670714D01*
X204922523Y-95765952D01*
X204874904Y-95813571D01*
X204779666Y-95861190D01*
X204398714Y-95861190D01*
X205922523Y-96337380D02*
X205351095Y-96337380D01*
X205636809Y-96337380D02*
X205636809Y-95337380D01*
X205541571Y-95480238D01*
X205446333Y-95575476D01*
X205351095Y-95623095D01*
X206303476Y-95432619D02*
X206351095Y-95385000D01*
X206446333Y-95337380D01*
X206684428Y-95337380D01*
X206779666Y-95385000D01*
X206827285Y-95432619D01*
X206874904Y-95527857D01*
X206874904Y-95623095D01*
X206827285Y-95765952D01*
X206255857Y-96337380D01*
X206874904Y-96337380D01*
X170553142Y-123388380D02*
X170219809Y-122912190D01*
X169981714Y-123388380D02*
X169981714Y-122388380D01*
X170362666Y-122388380D01*
X170457904Y-122436000D01*
X170505523Y-122483619D01*
X170553142Y-122578857D01*
X170553142Y-122721714D01*
X170505523Y-122816952D01*
X170457904Y-122864571D01*
X170362666Y-122912190D01*
X169981714Y-122912190D01*
X171505523Y-123388380D02*
X170934095Y-123388380D01*
X171219809Y-123388380D02*
X171219809Y-122388380D01*
X171124571Y-122531238D01*
X171029333Y-122626476D01*
X170934095Y-122674095D01*
X171838857Y-122388380D02*
X172457904Y-122388380D01*
X172124571Y-122769333D01*
X172267428Y-122769333D01*
X172362666Y-122816952D01*
X172410285Y-122864571D01*
X172457904Y-122959809D01*
X172457904Y-123197904D01*
X172410285Y-123293142D01*
X172362666Y-123340761D01*
X172267428Y-123388380D01*
X171981714Y-123388380D01*
X171886476Y-123340761D01*
X171838857Y-123293142D01*
X234895142Y-94305380D02*
X234561809Y-93829190D01*
X234323714Y-94305380D02*
X234323714Y-93305380D01*
X234704666Y-93305380D01*
X234799904Y-93353000D01*
X234847523Y-93400619D01*
X234895142Y-93495857D01*
X234895142Y-93638714D01*
X234847523Y-93733952D01*
X234799904Y-93781571D01*
X234704666Y-93829190D01*
X234323714Y-93829190D01*
X235847523Y-94305380D02*
X235276095Y-94305380D01*
X235561809Y-94305380D02*
X235561809Y-93305380D01*
X235466571Y-93448238D01*
X235371333Y-93543476D01*
X235276095Y-93591095D01*
X236704666Y-93638714D02*
X236704666Y-94305380D01*
X236466571Y-93257761D02*
X236228476Y-93972047D01*
X236847523Y-93972047D01*
X234895142Y-96845380D02*
X234561809Y-96369190D01*
X234323714Y-96845380D02*
X234323714Y-95845380D01*
X234704666Y-95845380D01*
X234799904Y-95893000D01*
X234847523Y-95940619D01*
X234895142Y-96035857D01*
X234895142Y-96178714D01*
X234847523Y-96273952D01*
X234799904Y-96321571D01*
X234704666Y-96369190D01*
X234323714Y-96369190D01*
X235847523Y-96845380D02*
X235276095Y-96845380D01*
X235561809Y-96845380D02*
X235561809Y-95845380D01*
X235466571Y-95988238D01*
X235371333Y-96083476D01*
X235276095Y-96131095D01*
X236752285Y-95845380D02*
X236276095Y-95845380D01*
X236228476Y-96321571D01*
X236276095Y-96273952D01*
X236371333Y-96226333D01*
X236609428Y-96226333D01*
X236704666Y-96273952D01*
X236752285Y-96321571D01*
X236799904Y-96416809D01*
X236799904Y-96654904D01*
X236752285Y-96750142D01*
X236704666Y-96797761D01*
X236609428Y-96845380D01*
X236371333Y-96845380D01*
X236276095Y-96797761D01*
X236228476Y-96750142D01*
X177284142Y-117546380D02*
X176950809Y-117070190D01*
X176712714Y-117546380D02*
X176712714Y-116546380D01*
X177093666Y-116546380D01*
X177188904Y-116594000D01*
X177236523Y-116641619D01*
X177284142Y-116736857D01*
X177284142Y-116879714D01*
X177236523Y-116974952D01*
X177188904Y-117022571D01*
X177093666Y-117070190D01*
X176712714Y-117070190D01*
X178236523Y-117546380D02*
X177665095Y-117546380D01*
X177950809Y-117546380D02*
X177950809Y-116546380D01*
X177855571Y-116689238D01*
X177760333Y-116784476D01*
X177665095Y-116832095D01*
X179093666Y-116546380D02*
X178903190Y-116546380D01*
X178807952Y-116594000D01*
X178760333Y-116641619D01*
X178665095Y-116784476D01*
X178617476Y-116974952D01*
X178617476Y-117355904D01*
X178665095Y-117451142D01*
X178712714Y-117498761D01*
X178807952Y-117546380D01*
X178998428Y-117546380D01*
X179093666Y-117498761D01*
X179141285Y-117451142D01*
X179188904Y-117355904D01*
X179188904Y-117117809D01*
X179141285Y-117022571D01*
X179093666Y-116974952D01*
X178998428Y-116927333D01*
X178807952Y-116927333D01*
X178712714Y-116974952D01*
X178665095Y-117022571D01*
X178617476Y-117117809D01*
X211328095Y-118578380D02*
X211328095Y-119387904D01*
X211375714Y-119483142D01*
X211423333Y-119530761D01*
X211518571Y-119578380D01*
X211709047Y-119578380D01*
X211804285Y-119530761D01*
X211851904Y-119483142D01*
X211899523Y-119387904D01*
X211899523Y-118578380D01*
X212328095Y-118673619D02*
X212375714Y-118626000D01*
X212470952Y-118578380D01*
X212709047Y-118578380D01*
X212804285Y-118626000D01*
X212851904Y-118673619D01*
X212899523Y-118768857D01*
X212899523Y-118864095D01*
X212851904Y-119006952D01*
X212280476Y-119578380D01*
X212899523Y-119578380D01*
X192278095Y-80859380D02*
X192278095Y-81668904D01*
X192325714Y-81764142D01*
X192373333Y-81811761D01*
X192468571Y-81859380D01*
X192659047Y-81859380D01*
X192754285Y-81811761D01*
X192801904Y-81764142D01*
X192849523Y-81668904D01*
X192849523Y-80859380D01*
X193801904Y-80859380D02*
X193325714Y-80859380D01*
X193278095Y-81335571D01*
X193325714Y-81287952D01*
X193420952Y-81240333D01*
X193659047Y-81240333D01*
X193754285Y-81287952D01*
X193801904Y-81335571D01*
X193849523Y-81430809D01*
X193849523Y-81668904D01*
X193801904Y-81764142D01*
X193754285Y-81811761D01*
X193659047Y-81859380D01*
X193420952Y-81859380D01*
X193325714Y-81811761D01*
X193278095Y-81764142D01*
X205771761Y-83391619D02*
X205676523Y-83344000D01*
X205581285Y-83248761D01*
X205438428Y-83105904D01*
X205343190Y-83058285D01*
X205247952Y-83058285D01*
X205295571Y-83296380D02*
X205200333Y-83248761D01*
X205105095Y-83153523D01*
X205057476Y-82963047D01*
X205057476Y-82629714D01*
X205105095Y-82439238D01*
X205200333Y-82344000D01*
X205295571Y-82296380D01*
X205486047Y-82296380D01*
X205581285Y-82344000D01*
X205676523Y-82439238D01*
X205724142Y-82629714D01*
X205724142Y-82963047D01*
X205676523Y-83153523D01*
X205581285Y-83248761D01*
X205486047Y-83296380D01*
X205295571Y-83296380D01*
X206676523Y-83296380D02*
X206105095Y-83296380D01*
X206390809Y-83296380D02*
X206390809Y-82296380D01*
X206295571Y-82439238D01*
X206200333Y-82534476D01*
X206105095Y-82582095D01*
X231552761Y-100877619D02*
X231457523Y-100830000D01*
X231362285Y-100734761D01*
X231219428Y-100591904D01*
X231124190Y-100544285D01*
X231028952Y-100544285D01*
X231076571Y-100782380D02*
X230981333Y-100734761D01*
X230886095Y-100639523D01*
X230838476Y-100449047D01*
X230838476Y-100115714D01*
X230886095Y-99925238D01*
X230981333Y-99830000D01*
X231076571Y-99782380D01*
X231267047Y-99782380D01*
X231362285Y-99830000D01*
X231457523Y-99925238D01*
X231505142Y-100115714D01*
X231505142Y-100449047D01*
X231457523Y-100639523D01*
X231362285Y-100734761D01*
X231267047Y-100782380D01*
X231076571Y-100782380D01*
X231886095Y-99877619D02*
X231933714Y-99830000D01*
X232028952Y-99782380D01*
X232267047Y-99782380D01*
X232362285Y-99830000D01*
X232409904Y-99877619D01*
X232457523Y-99972857D01*
X232457523Y-100068095D01*
X232409904Y-100210952D01*
X231838476Y-100782380D01*
X232457523Y-100782380D01*
X235743761Y-104687619D02*
X235648523Y-104640000D01*
X235553285Y-104544761D01*
X235410428Y-104401904D01*
X235315190Y-104354285D01*
X235219952Y-104354285D01*
X235267571Y-104592380D02*
X235172333Y-104544761D01*
X235077095Y-104449523D01*
X235029476Y-104259047D01*
X235029476Y-103925714D01*
X235077095Y-103735238D01*
X235172333Y-103640000D01*
X235267571Y-103592380D01*
X235458047Y-103592380D01*
X235553285Y-103640000D01*
X235648523Y-103735238D01*
X235696142Y-103925714D01*
X235696142Y-104259047D01*
X235648523Y-104449523D01*
X235553285Y-104544761D01*
X235458047Y-104592380D01*
X235267571Y-104592380D01*
X236029476Y-103592380D02*
X236648523Y-103592380D01*
X236315190Y-103973333D01*
X236458047Y-103973333D01*
X236553285Y-104020952D01*
X236600904Y-104068571D01*
X236648523Y-104163809D01*
X236648523Y-104401904D01*
X236600904Y-104497142D01*
X236553285Y-104544761D01*
X236458047Y-104592380D01*
X236172333Y-104592380D01*
X236077095Y-104544761D01*
X236029476Y-104497142D01*
X236053333Y-90114380D02*
X235720000Y-89638190D01*
X235481904Y-90114380D02*
X235481904Y-89114380D01*
X235862857Y-89114380D01*
X235958095Y-89162000D01*
X236005714Y-89209619D01*
X236053333Y-89304857D01*
X236053333Y-89447714D01*
X236005714Y-89542952D01*
X235958095Y-89590571D01*
X235862857Y-89638190D01*
X235481904Y-89638190D01*
X236529523Y-90114380D02*
X236720000Y-90114380D01*
X236815238Y-90066761D01*
X236862857Y-90019142D01*
X236958095Y-89876285D01*
X237005714Y-89685809D01*
X237005714Y-89304857D01*
X236958095Y-89209619D01*
X236910476Y-89162000D01*
X236815238Y-89114380D01*
X236624761Y-89114380D01*
X236529523Y-89162000D01*
X236481904Y-89209619D01*
X236434285Y-89304857D01*
X236434285Y-89542952D01*
X236481904Y-89638190D01*
X236529523Y-89685809D01*
X236624761Y-89733428D01*
X236815238Y-89733428D01*
X236910476Y-89685809D01*
X236958095Y-89638190D01*
X237005714Y-89542952D01*
X199263095Y-118959380D02*
X199263095Y-119768904D01*
X199310714Y-119864142D01*
X199358333Y-119911761D01*
X199453571Y-119959380D01*
X199644047Y-119959380D01*
X199739285Y-119911761D01*
X199786904Y-119864142D01*
X199834523Y-119768904D01*
X199834523Y-118959380D01*
X200215476Y-118959380D02*
X200834523Y-118959380D01*
X200501190Y-119340333D01*
X200644047Y-119340333D01*
X200739285Y-119387952D01*
X200786904Y-119435571D01*
X200834523Y-119530809D01*
X200834523Y-119768904D01*
X200786904Y-119864142D01*
X200739285Y-119911761D01*
X200644047Y-119959380D01*
X200358333Y-119959380D01*
X200263095Y-119911761D01*
X200215476Y-119864142D01*
X166489142Y-120499142D02*
X166441523Y-120546761D01*
X166298666Y-120594380D01*
X166203428Y-120594380D01*
X166060571Y-120546761D01*
X165965333Y-120451523D01*
X165917714Y-120356285D01*
X165870095Y-120165809D01*
X165870095Y-120022952D01*
X165917714Y-119832476D01*
X165965333Y-119737238D01*
X166060571Y-119642000D01*
X166203428Y-119594380D01*
X166298666Y-119594380D01*
X166441523Y-119642000D01*
X166489142Y-119689619D01*
X167441523Y-120594380D02*
X166870095Y-120594380D01*
X167155809Y-120594380D02*
X167155809Y-119594380D01*
X167060571Y-119737238D01*
X166965333Y-119832476D01*
X166870095Y-119880095D01*
X168393904Y-120594380D02*
X167822476Y-120594380D01*
X168108190Y-120594380D02*
X168108190Y-119594380D01*
X168012952Y-119737238D01*
X167917714Y-119832476D01*
X167822476Y-119880095D01*
X227163333Y-89892142D02*
X227115714Y-89939761D01*
X226972857Y-89987380D01*
X226877619Y-89987380D01*
X226734761Y-89939761D01*
X226639523Y-89844523D01*
X226591904Y-89749285D01*
X226544285Y-89558809D01*
X226544285Y-89415952D01*
X226591904Y-89225476D01*
X226639523Y-89130238D01*
X226734761Y-89035000D01*
X226877619Y-88987380D01*
X226972857Y-88987380D01*
X227115714Y-89035000D01*
X227163333Y-89082619D01*
X228115714Y-89987380D02*
X227544285Y-89987380D01*
X227830000Y-89987380D02*
X227830000Y-88987380D01*
X227734761Y-89130238D01*
X227639523Y-89225476D01*
X227544285Y-89273095D01*
X230338333Y-89892142D02*
X230290714Y-89939761D01*
X230147857Y-89987380D01*
X230052619Y-89987380D01*
X229909761Y-89939761D01*
X229814523Y-89844523D01*
X229766904Y-89749285D01*
X229719285Y-89558809D01*
X229719285Y-89415952D01*
X229766904Y-89225476D01*
X229814523Y-89130238D01*
X229909761Y-89035000D01*
X230052619Y-88987380D01*
X230147857Y-88987380D01*
X230290714Y-89035000D01*
X230338333Y-89082619D01*
X230719285Y-89082619D02*
X230766904Y-89035000D01*
X230862142Y-88987380D01*
X231100238Y-88987380D01*
X231195476Y-89035000D01*
X231243095Y-89082619D01*
X231290714Y-89177857D01*
X231290714Y-89273095D01*
X231243095Y-89415952D01*
X230671666Y-89987380D01*
X231290714Y-89987380D01*
X220591142Y-92559142D02*
X220543523Y-92606761D01*
X220400666Y-92654380D01*
X220305428Y-92654380D01*
X220162571Y-92606761D01*
X220067333Y-92511523D01*
X220019714Y-92416285D01*
X219972095Y-92225809D01*
X219972095Y-92082952D01*
X220019714Y-91892476D01*
X220067333Y-91797238D01*
X220162571Y-91702000D01*
X220305428Y-91654380D01*
X220400666Y-91654380D01*
X220543523Y-91702000D01*
X220591142Y-91749619D01*
X221543523Y-92654380D02*
X220972095Y-92654380D01*
X221257809Y-92654380D02*
X221257809Y-91654380D01*
X221162571Y-91797238D01*
X221067333Y-91892476D01*
X220972095Y-91940095D01*
X221924476Y-91749619D02*
X221972095Y-91702000D01*
X222067333Y-91654380D01*
X222305428Y-91654380D01*
X222400666Y-91702000D01*
X222448285Y-91749619D01*
X222495904Y-91844857D01*
X222495904Y-91940095D01*
X222448285Y-92082952D01*
X221876857Y-92654380D01*
X222495904Y-92654380D01*
D13*
X189484000Y-57966428D02*
X189484000Y-59055000D01*
X189411428Y-59272714D01*
X189266285Y-59417857D01*
X189048571Y-59490428D01*
X188903428Y-59490428D01*
X190862857Y-58474428D02*
X190862857Y-59490428D01*
X190500000Y-57893857D02*
X190137142Y-58982428D01*
X191080571Y-58982428D01*
D11*
X229536666Y-58507380D02*
X229536666Y-59221666D01*
X229489047Y-59364523D01*
X229393809Y-59459761D01*
X229250952Y-59507380D01*
X229155714Y-59507380D01*
X229965238Y-58602619D02*
X230012857Y-58555000D01*
X230108095Y-58507380D01*
X230346190Y-58507380D01*
X230441428Y-58555000D01*
X230489047Y-58602619D01*
X230536666Y-58697857D01*
X230536666Y-58793095D01*
X230489047Y-58935952D01*
X229917619Y-59507380D01*
X230536666Y-59507380D01*
X214677666Y-62571380D02*
X214677666Y-63285666D01*
X214630047Y-63428523D01*
X214534809Y-63523761D01*
X214391952Y-63571380D01*
X214296714Y-63571380D01*
X215058619Y-62571380D02*
X215677666Y-62571380D01*
X215344333Y-62952333D01*
X215487190Y-62952333D01*
X215582428Y-62999952D01*
X215630047Y-63047571D01*
X215677666Y-63142809D01*
X215677666Y-63380904D01*
X215630047Y-63476142D01*
X215582428Y-63523761D01*
X215487190Y-63571380D01*
X215201476Y-63571380D01*
X215106238Y-63523761D01*
X215058619Y-63476142D01*
X241855666Y-130770380D02*
X241855666Y-131484666D01*
X241808047Y-131627523D01*
X241712809Y-131722761D01*
X241569952Y-131770380D01*
X241474714Y-131770380D01*
X242855666Y-131770380D02*
X242284238Y-131770380D01*
X242569952Y-131770380D02*
X242569952Y-130770380D01*
X242474714Y-130913238D01*
X242379476Y-131008476D01*
X242284238Y-131056095D01*
X172212095Y-93305380D02*
X172212095Y-94114904D01*
X172259714Y-94210142D01*
X172307333Y-94257761D01*
X172402571Y-94305380D01*
X172593047Y-94305380D01*
X172688285Y-94257761D01*
X172735904Y-94210142D01*
X172783523Y-94114904D01*
X172783523Y-93305380D01*
X173783523Y-94305380D02*
X173212095Y-94305380D01*
X173497809Y-94305380D02*
X173497809Y-93305380D01*
X173402571Y-93448238D01*
X173307333Y-93543476D01*
X173212095Y-93591095D01*
X209669142Y-89098380D02*
X209335809Y-88622190D01*
X209097714Y-89098380D02*
X209097714Y-88098380D01*
X209478666Y-88098380D01*
X209573904Y-88146000D01*
X209621523Y-88193619D01*
X209669142Y-88288857D01*
X209669142Y-88431714D01*
X209621523Y-88526952D01*
X209573904Y-88574571D01*
X209478666Y-88622190D01*
X209097714Y-88622190D01*
X210050095Y-88193619D02*
X210097714Y-88146000D01*
X210192952Y-88098380D01*
X210431047Y-88098380D01*
X210526285Y-88146000D01*
X210573904Y-88193619D01*
X210621523Y-88288857D01*
X210621523Y-88384095D01*
X210573904Y-88526952D01*
X210002476Y-89098380D01*
X210621523Y-89098380D01*
X211573904Y-89098380D02*
X211002476Y-89098380D01*
X211288190Y-89098380D02*
X211288190Y-88098380D01*
X211192952Y-88241238D01*
X211097714Y-88336476D01*
X211002476Y-88384095D01*
G36*
X226791414Y-99690346D02*
G01*
X226791414Y-105674639D01*
X199928587Y-105674639D01*
X199928587Y-105142702D01*
X200327539Y-105142702D01*
X200460252Y-105167748D01*
X200857324Y-105190228D01*
X201517162Y-105210123D01*
X202438169Y-105227419D01*
X203618750Y-105242099D01*
X205057308Y-105254146D01*
X206752249Y-105263545D01*
X208701976Y-105270279D01*
X210904894Y-105274331D01*
X213359407Y-105275686D01*
X226392461Y-105275686D01*
X226392461Y-100089298D01*
X213360000Y-100089298D01*
X210905430Y-100090653D01*
X208702454Y-100094704D01*
X206752668Y-100101437D01*
X205057669Y-100110835D01*
X203619051Y-100122882D01*
X202438411Y-100137561D01*
X201517344Y-100154857D01*
X200857446Y-100174752D01*
X200460313Y-100197231D01*
X200327539Y-100222277D01*
X200327539Y-100222283D01*
X200459804Y-100255914D01*
X200853803Y-100284799D01*
X201505340Y-100308853D01*
X202410223Y-100327994D01*
X203564258Y-100342139D01*
X204963249Y-100351204D01*
X206603003Y-100355108D01*
X207043246Y-100355267D01*
X213758953Y-100355267D01*
X213758953Y-105009717D01*
X207043246Y-105009717D01*
X205344849Y-105012336D01*
X203886182Y-105020138D01*
X202671439Y-105033040D01*
X201704814Y-105050958D01*
X200990502Y-105073811D01*
X200532696Y-105101513D01*
X200335591Y-105133984D01*
X200327539Y-105142702D01*
X199928587Y-105142702D01*
X199928587Y-104292531D01*
X200593508Y-104292531D01*
X200669969Y-104402542D01*
X200927411Y-104461030D01*
X201391414Y-104477780D01*
X201865252Y-104460028D01*
X202117174Y-104400258D01*
X202189319Y-104292531D01*
X202082051Y-104087235D01*
X201989843Y-104030737D01*
X201838894Y-103837442D01*
X201790367Y-103476544D01*
X201805661Y-103165146D01*
X201904160Y-103039655D01*
X202164788Y-103030596D01*
X202286094Y-103040171D01*
X202595440Y-103084126D01*
X202757143Y-103199642D01*
X202844229Y-103463979D01*
X202881618Y-103670230D01*
X203003263Y-104132821D01*
X203201176Y-104382913D01*
X203522870Y-104472418D01*
X203618901Y-104475744D01*
X203853670Y-104389804D01*
X203920195Y-104198837D01*
X203785131Y-104012335D01*
X203680402Y-103828147D01*
X203652147Y-103620266D01*
X203569448Y-103288221D01*
X203503025Y-103174367D01*
X204212566Y-103174367D01*
X204308717Y-103695035D01*
X204583279Y-104127351D01*
X204672408Y-104206049D01*
X205087231Y-104400972D01*
X205615859Y-104481806D01*
X206124746Y-104432219D01*
X206234464Y-104397060D01*
X206414909Y-104211229D01*
X206444817Y-104077254D01*
X206404300Y-103927784D01*
X206236797Y-103880939D01*
X205914152Y-103909344D01*
X205432777Y-103903203D01*
X205107503Y-103752608D01*
X204982222Y-103478523D01*
X204981990Y-103464115D01*
X205061195Y-103354869D01*
X205325783Y-103296921D01*
X205779895Y-103280921D01*
X206577801Y-103280921D01*
X206577801Y-102840552D01*
X206463912Y-102336061D01*
X206204361Y-102017571D01*
X206843770Y-102017571D01*
X206942511Y-102194049D01*
X207028239Y-102217047D01*
X207138580Y-102301656D01*
X207213345Y-102578883D01*
X207261598Y-103083829D01*
X207264387Y-103131626D01*
X207331123Y-103762036D01*
X207462991Y-104169430D01*
X207685507Y-104393792D01*
X208024184Y-104475106D01*
X208123404Y-104477780D01*
X208437314Y-104445616D01*
X208560494Y-104321326D01*
X208572566Y-104211811D01*
X208478531Y-103989554D01*
X208306597Y-103945843D01*
X208162659Y-103918902D01*
X208082410Y-103798900D01*
X208047767Y-103527067D01*
X208040628Y-103081445D01*
X208053946Y-102596591D01*
X208101531Y-102327108D01*
X208194834Y-102223377D01*
X208240105Y-102217047D01*
X208416411Y-102110598D01*
X208439581Y-102017571D01*
X208838534Y-102017571D01*
X208944984Y-102193877D01*
X209038011Y-102217047D01*
X209150341Y-102275141D01*
X209212539Y-102482549D01*
X209236176Y-102888959D01*
X209237487Y-103073597D01*
X209218277Y-103527554D01*
X209168139Y-103867882D01*
X209104503Y-104012335D01*
X208982140Y-104204747D01*
X208971518Y-104286152D01*
X209051461Y-104408263D01*
X209320418Y-104467272D01*
X209636440Y-104477780D01*
X210060148Y-104454741D01*
X210264900Y-104377228D01*
X210301361Y-104286152D01*
X210220314Y-104059740D01*
X210168377Y-104012335D01*
X210094289Y-103843452D01*
X210046012Y-103497237D01*
X210035393Y-103209115D01*
X210038849Y-103085623D01*
X211016062Y-103085623D01*
X211076277Y-103611543D01*
X211307602Y-104061176D01*
X211461262Y-104211284D01*
X211909526Y-104420393D01*
X212439812Y-104467965D01*
X212929773Y-104349170D01*
X213059273Y-104274383D01*
X213334051Y-103943270D01*
X213507035Y-103461187D01*
X213544569Y-102934257D01*
X213527238Y-102798755D01*
X213316251Y-102285344D01*
X212931352Y-101919024D01*
X212437006Y-101735671D01*
X211897677Y-101771162D01*
X211764736Y-101817868D01*
X211370026Y-102112013D01*
X211117223Y-102560189D01*
X211016062Y-103085623D01*
X210038849Y-103085623D01*
X210047190Y-102787537D01*
X210102558Y-102558134D01*
X210231458Y-102447457D01*
X210363088Y-102405837D01*
X210621589Y-102256261D01*
X210790641Y-102015093D01*
X210813200Y-101779676D01*
X210770364Y-101710831D01*
X210608855Y-101710970D01*
X210329882Y-101826963D01*
X210292776Y-101847652D01*
X210034394Y-101963992D01*
X209905649Y-101959350D01*
X209902408Y-101944893D01*
X209784416Y-101865487D01*
X209489661Y-101821325D01*
X209370471Y-101818094D01*
X209000599Y-101851033D01*
X208848188Y-101960223D01*
X208838534Y-102017571D01*
X208439581Y-102017571D01*
X208333132Y-101841264D01*
X208240105Y-101818094D01*
X208079671Y-101702491D01*
X208040628Y-101485633D01*
X207997690Y-101248033D01*
X207815164Y-101161112D01*
X207641676Y-101153173D01*
X207356555Y-101188955D01*
X207252250Y-101341059D01*
X207242723Y-101485633D01*
X207173360Y-101753024D01*
X207043246Y-101818094D01*
X206866940Y-101924544D01*
X206843770Y-102017571D01*
X206204361Y-102017571D01*
X206160867Y-101964200D01*
X205726604Y-101759185D01*
X205219058Y-101755233D01*
X204914547Y-101858258D01*
X204523484Y-102178377D01*
X204286823Y-102642947D01*
X204212566Y-103174367D01*
X203503025Y-103174367D01*
X203402553Y-103002152D01*
X203241434Y-102776765D01*
X203239202Y-102606998D01*
X203397483Y-102363199D01*
X203410783Y-102345193D01*
X203588316Y-101909550D01*
X203526698Y-101470125D01*
X203238539Y-101105531D01*
X203208409Y-101083578D01*
X202940499Y-100980576D01*
X202524737Y-100911686D01*
X202028733Y-100876827D01*
X201520100Y-100875921D01*
X201066449Y-100908886D01*
X200735394Y-100975643D01*
X200594544Y-101076110D01*
X200593508Y-101086681D01*
X200699958Y-101262987D01*
X200792984Y-101286157D01*
X200892498Y-101407162D01*
X200962434Y-101725556D01*
X201002792Y-102174413D01*
X201013572Y-102686801D01*
X200994775Y-103195794D01*
X200946399Y-103634463D01*
X200868446Y-103935877D01*
X200792984Y-104030737D01*
X200616245Y-104198176D01*
X200593508Y-104292531D01*
X199928587Y-104292531D01*
X199928587Y-99690346D01*
X226791414Y-99690346D01*
G37*
G36*
X215752706Y-100805948D02*
G01*
X216232311Y-100968849D01*
X216548765Y-101166839D01*
X216672945Y-101408445D01*
X216684607Y-101567278D01*
X216645385Y-101845353D01*
X216481167Y-101943855D01*
X216352147Y-101951078D01*
X216088191Y-101885667D01*
X216019686Y-101700613D01*
X215905081Y-101491585D01*
X215617036Y-101372857D01*
X215239208Y-101366601D01*
X214995789Y-101429222D01*
X214720820Y-101608271D01*
X214691695Y-101823900D01*
X214895138Y-102052712D01*
X215317875Y-102271309D01*
X215512686Y-102340271D01*
X216152470Y-102625494D01*
X216541420Y-102990254D01*
X216683747Y-103438647D01*
X216684607Y-103480398D01*
X216571576Y-103948651D01*
X216240951Y-104274703D01*
X215705435Y-104449403D01*
X215299928Y-104477780D01*
X214788408Y-104432720D01*
X214393782Y-104313599D01*
X214320480Y-104270763D01*
X214114936Y-104029524D01*
X214020070Y-103727457D01*
X214041322Y-103452654D01*
X214184130Y-103293209D01*
X214259356Y-103280921D01*
X214488615Y-103390678D01*
X214625063Y-103580136D01*
X214832413Y-103815916D01*
X215140735Y-103926141D01*
X215477587Y-103922665D01*
X215770527Y-103817340D01*
X215947114Y-103622020D01*
X215941445Y-103364750D01*
X215775924Y-103200050D01*
X215443193Y-103014995D01*
X215198077Y-102915696D01*
X214600411Y-102658540D01*
X214231573Y-102373967D01*
X214054591Y-102025066D01*
X214024922Y-101744467D01*
X214072748Y-101393406D01*
X214263856Y-101150461D01*
X214457121Y-101018731D01*
X215079620Y-100788096D01*
X215752706Y-100805948D01*
G37*
G36*
X218032847Y-101188180D02*
G01*
X218137157Y-101340622D01*
X218147435Y-101499861D01*
X218189609Y-101746946D01*
X218333743Y-101774792D01*
X218346911Y-101770004D01*
X218501587Y-101786892D01*
X218546388Y-102017571D01*
X218499463Y-102250885D01*
X218346911Y-102265138D01*
X218238598Y-102266711D01*
X218177320Y-102407499D01*
X218151195Y-102735281D01*
X218147435Y-103067217D01*
X218155464Y-103539657D01*
X218191326Y-103804674D01*
X218272686Y-103920616D01*
X218413403Y-103945843D01*
X218635661Y-104039877D01*
X218679372Y-104211811D01*
X218626016Y-104396606D01*
X218418939Y-104469991D01*
X218223426Y-104477780D01*
X217848082Y-104418896D01*
X217566433Y-104276432D01*
X217558504Y-104268805D01*
X217430937Y-104034286D01*
X217364493Y-103621549D01*
X217349529Y-103138438D01*
X217338606Y-102640324D01*
X217298031Y-102356002D01*
X217216094Y-102233902D01*
X217140302Y-102217047D01*
X216983638Y-102120761D01*
X216981969Y-101984325D01*
X217097773Y-101803878D01*
X217191197Y-101784848D01*
X217310713Y-101698306D01*
X217349529Y-101485633D01*
X217392467Y-101248033D01*
X217574993Y-101161112D01*
X217748482Y-101153173D01*
X218032847Y-101188180D01*
G37*
G36*
X218902423Y-102730848D02*
G01*
X219085841Y-102338656D01*
X219422468Y-101982779D01*
X219822250Y-101742347D01*
X220092514Y-101685110D01*
X220632893Y-101799583D01*
X221054917Y-102104977D01*
X221336439Y-102544255D01*
X221455314Y-103060381D01*
X221389395Y-103596316D01*
X221116535Y-104095025D01*
X221055174Y-104164389D01*
X220675917Y-104396337D01*
X220179683Y-104482629D01*
X219676601Y-104416038D01*
X219379051Y-104274383D01*
X219111868Y-103951872D01*
X218933485Y-103477266D01*
X218918176Y-103336038D01*
X219632974Y-103336038D01*
X219739958Y-103673730D01*
X219987953Y-103905136D01*
X220304900Y-103917029D01*
X220514555Y-103786262D01*
X220639718Y-103508531D01*
X220668338Y-103106583D01*
X220605342Y-102702053D01*
X220459203Y-102420065D01*
X220204787Y-102293183D01*
X219963323Y-102376476D01*
X219766445Y-102614808D01*
X219645784Y-102953041D01*
X219632974Y-103336038D01*
X218918176Y-103336038D01*
X218877263Y-102958598D01*
X218902423Y-102730848D01*
G37*
G36*
X223696735Y-101787012D02*
G01*
X223732775Y-101957996D01*
X223611010Y-102219811D01*
X223333822Y-102369958D01*
X223100972Y-102471343D01*
X222982423Y-102618346D01*
X222939900Y-102891872D01*
X222934869Y-103213211D01*
X222963065Y-103683899D01*
X223054657Y-103935051D01*
X223134346Y-103993934D01*
X223311252Y-104171657D01*
X223333822Y-104274130D01*
X223271863Y-104396286D01*
X223051300Y-104459335D01*
X222620107Y-104477765D01*
X222602408Y-104477780D01*
X222179726Y-104466236D01*
X221959532Y-104416323D01*
X221878796Y-104305121D01*
X221870995Y-104211811D01*
X221926685Y-103995716D01*
X222003979Y-103945843D01*
X222073471Y-103823711D01*
X222121050Y-103500178D01*
X222136963Y-103081445D01*
X222124761Y-102601387D01*
X222079684Y-102334050D01*
X221989030Y-102226954D01*
X221927736Y-102217047D01*
X221767956Y-102117342D01*
X221761506Y-101995350D01*
X221891898Y-101831545D01*
X222225452Y-101774301D01*
X222280031Y-101773710D01*
X222633424Y-101794614D01*
X222869523Y-101845666D01*
X222884809Y-101853648D01*
X223095361Y-101861051D01*
X223207187Y-101811356D01*
X223514761Y-101692896D01*
X223696735Y-101787012D01*
G37*
G36*
X224214770Y-102154846D02*
G01*
X224557912Y-101870504D01*
X225092515Y-101714935D01*
X225581605Y-101786084D01*
X225972074Y-102053533D01*
X226210815Y-102486865D01*
X226259477Y-102845066D01*
X226259477Y-103280921D01*
X225461571Y-103280921D01*
X224985749Y-103299106D01*
X224733350Y-103359854D01*
X224663665Y-103464115D01*
X224778027Y-103744350D01*
X225091173Y-103896853D01*
X225558196Y-103900445D01*
X225581302Y-103896895D01*
X225950485Y-103868082D01*
X226135546Y-103944469D01*
X226174059Y-104010969D01*
X226148190Y-104225460D01*
X225927693Y-104379003D01*
X225578090Y-104465993D01*
X225164898Y-104480824D01*
X224753639Y-104417891D01*
X224409833Y-104271586D01*
X224289939Y-104172172D01*
X224002725Y-103702943D01*
X223900319Y-103159985D01*
X223966152Y-102675972D01*
X224686147Y-102675972D01*
X224740518Y-102823645D01*
X225041802Y-102880506D01*
X225129110Y-102881969D01*
X225476981Y-102836811D01*
X225594360Y-102695562D01*
X225594555Y-102687171D01*
X225486794Y-102441920D01*
X225238203Y-102319582D01*
X224960823Y-102360633D01*
X224872377Y-102426286D01*
X224686147Y-102675972D01*
X223966152Y-102675972D01*
X223973930Y-102618790D01*
X224214770Y-102154846D01*
G37*
G36*
X202289058Y-101444360D02*
G01*
X202630624Y-101503311D01*
X202788728Y-101640479D01*
X202833624Y-101810643D01*
X202766469Y-102156381D01*
X202494881Y-102397517D01*
X202097410Y-102483016D01*
X201899929Y-102449995D01*
X201811466Y-102302135D01*
X201790397Y-101966240D01*
X201790367Y-101943051D01*
X201790367Y-101403086D01*
X202289058Y-101444360D01*
G37*
G36*
X205721904Y-102357086D02*
G01*
X205910770Y-102601677D01*
X205851954Y-102785760D01*
X205562217Y-102877284D01*
X205447435Y-102881969D01*
X205099564Y-102836811D01*
X204982184Y-102695562D01*
X204981990Y-102687171D01*
X205093734Y-102450835D01*
X205349563Y-102305972D01*
X205630372Y-102305718D01*
X205721904Y-102357086D01*
G37*
G36*
X212538142Y-102336359D02*
G01*
X212730358Y-102639623D01*
X212825034Y-103044831D01*
X212828063Y-103130839D01*
X212753577Y-103614263D01*
X212535656Y-103887029D01*
X212296126Y-103945843D01*
X212016895Y-103857121D01*
X211923770Y-103786262D01*
X211783670Y-103500719D01*
X211765065Y-103116293D01*
X211847671Y-102718460D01*
X212011208Y-102392696D01*
X212235391Y-102224479D01*
X212296126Y-102217047D01*
X212538142Y-102336359D01*
G37*
D14*
X248606000Y-113538000D02*
X251266000Y-113538000D01*
X248606000Y-113538000D02*
X248606000Y-126298000D01*
X248606000Y-126298000D02*
X251266000Y-126298000D01*
X248606000Y-110938000D02*
X249936000Y-110938000D01*
X248606000Y-112268000D02*
X248606000Y-110938000D01*
X251266000Y-113538000D02*
X251266000Y-126298000D01*
X237255000Y-76890000D02*
X237255000Y-80650000D01*
X237255000Y-80650000D02*
X238515000Y-80650000D01*
X244075000Y-74640000D02*
X244075000Y-80650000D01*
X244075000Y-80650000D02*
X242815000Y-80650000D01*
X231482000Y-93591000D02*
X231482000Y-92591000D01*
X229782000Y-92591000D02*
X229782000Y-93591000D01*
X247908000Y-78597000D02*
X247908000Y-76597000D01*
X245868000Y-76597000D02*
X245868000Y-78597000D01*
X241729000Y-89793000D02*
X243729000Y-89793000D01*
X243729000Y-87753000D02*
X241729000Y-87753000D01*
X188810000Y-122293000D02*
X188810000Y-121293000D01*
X187110000Y-121293000D02*
X187110000Y-122293000D01*
X232275000Y-125515000D02*
X231275000Y-125515000D01*
X231275000Y-127215000D02*
X232275000Y-127215000D01*
X196624000Y-82257000D02*
X197624000Y-82257000D01*
X197624000Y-80557000D02*
X196624000Y-80557000D01*
X173093000Y-116244000D02*
X172093000Y-116244000D01*
X172093000Y-117944000D02*
X173093000Y-117944000D01*
X174887000Y-126326000D02*
X175887000Y-126326000D01*
X175887000Y-124626000D02*
X174887000Y-124626000D01*
X211083000Y-80483000D02*
X211083000Y-79283000D01*
X212843000Y-79283000D02*
X212843000Y-80483000D01*
X216907000Y-79283000D02*
X216907000Y-80483000D01*
X215147000Y-80483000D02*
X215147000Y-79283000D01*
X220100000Y-86706000D02*
X220100000Y-85506000D01*
X221860000Y-85506000D02*
X221860000Y-86706000D01*
X224654000Y-85506000D02*
X224654000Y-86706000D01*
X222894000Y-86706000D02*
X222894000Y-85506000D01*
X234433000Y-85459000D02*
X234433000Y-86659000D01*
X232673000Y-86659000D02*
X232673000Y-85459000D01*
X212182000Y-87240000D02*
X210982000Y-87240000D01*
X210982000Y-85480000D02*
X212182000Y-85480000D01*
X212182000Y-84827000D02*
X210982000Y-84827000D01*
X210982000Y-83067000D02*
X212182000Y-83067000D01*
X201076000Y-95005000D02*
X202276000Y-95005000D01*
X202276000Y-96765000D02*
X201076000Y-96765000D01*
X175860000Y-123816000D02*
X174660000Y-123816000D01*
X174660000Y-122056000D02*
X175860000Y-122056000D01*
X240122000Y-94733000D02*
X238922000Y-94733000D01*
X238922000Y-92973000D02*
X240122000Y-92973000D01*
X238922000Y-95513000D02*
X240122000Y-95513000D01*
X240122000Y-97273000D02*
X238922000Y-97273000D01*
X179460000Y-115408000D02*
X179460000Y-114208000D01*
X181220000Y-114208000D02*
X181220000Y-115408000D01*
D11*
X224527000Y-116251000D02*
X223877000Y-116251000D01*
X213877000Y-116251000D02*
X214527000Y-116251000D01*
X213877000Y-122001000D02*
X213877000Y-116251000D01*
X213877000Y-122001000D02*
X214452000Y-122001000D01*
X224527000Y-122001000D02*
X223877000Y-122001000D01*
X214452000Y-122001000D02*
X214452000Y-123601000D01*
X224527000Y-122001000D02*
X224527000Y-116251000D01*
X191791000Y-77530000D02*
X191791000Y-83505000D01*
X184891000Y-79055000D02*
X184891000Y-83505000D01*
D14*
X206627000Y-83764000D02*
X206627000Y-84694000D01*
X206627000Y-86924000D02*
X206627000Y-85994000D01*
X206627000Y-83764000D02*
X204467000Y-83764000D01*
X206627000Y-86924000D02*
X205167000Y-86924000D01*
X236530000Y-99443000D02*
X236530000Y-100903000D01*
X236530000Y-99443000D02*
X235600000Y-99443000D01*
X233370000Y-99443000D02*
X233370000Y-101603000D01*
X233370000Y-99443000D02*
X234300000Y-99443000D01*
X237434000Y-103507000D02*
X237434000Y-105667000D01*
X237434000Y-103507000D02*
X238364000Y-103507000D01*
X240594000Y-103507000D02*
X240594000Y-104967000D01*
X240594000Y-103507000D02*
X239664000Y-103507000D01*
X235340000Y-86659000D02*
X235340000Y-85459000D01*
X237100000Y-85459000D02*
X237100000Y-86659000D01*
D11*
X189850000Y-122382000D02*
X190300000Y-122382000D01*
X197150000Y-116632000D02*
X197150000Y-115032000D01*
X197500000Y-116632000D02*
X197150000Y-116632000D01*
X197500000Y-116632000D02*
X197500000Y-122382000D01*
X189850000Y-116632000D02*
X189850000Y-122382000D01*
X189850000Y-116632000D02*
X190300000Y-116632000D01*
X197500000Y-122382000D02*
X197050000Y-122382000D01*
D14*
X170958000Y-121162000D02*
X172958000Y-121162000D01*
X172958000Y-119122000D02*
X170958000Y-119122000D01*
X244514000Y-114570000D02*
X244514000Y-110070000D01*
X238014000Y-110070000D02*
X238014000Y-114570000D01*
X242014000Y-108820000D02*
X240514000Y-108820000D01*
X240514000Y-115820000D02*
X242014000Y-115820000D01*
X229450000Y-110093000D02*
X229450000Y-114593000D01*
X235950000Y-114593000D02*
X235950000Y-110093000D01*
X231950000Y-115843000D02*
X233450000Y-115843000D01*
X233450000Y-108843000D02*
X231950000Y-108843000D01*
X226183000Y-84344000D02*
X226183000Y-86344000D01*
X228223000Y-86344000D02*
X228223000Y-84344000D01*
X229485000Y-84344000D02*
X229485000Y-86344000D01*
X231525000Y-86344000D02*
X231525000Y-84344000D01*
X223008000Y-93361000D02*
X223008000Y-95361000D01*
X225048000Y-95361000D02*
X225048000Y-93361000D01*
D15*
X205486000Y-62230000D02*
X174498000Y-62230000D01*
X181864000Y-56388000D02*
X181864000Y-62230000D01*
X179705000Y-64516000D02*
X179705000Y-64262000D01*
X205486000Y-62230000D02*
X205486000Y-70612000D01*
X175895000Y-65913000D02*
X175133000Y-64516000D01*
X175133000Y-64262000D02*
X175133000Y-64516000D01*
X179959000Y-56388000D02*
X174879000Y-56388000D01*
X178943000Y-62230000D02*
X178943000Y-56388000D01*
X201422000Y-66675000D02*
X201422000Y-64135000D01*
X200914000Y-65913000D02*
X200152000Y-64516000D01*
X178562000Y-66675000D02*
X176276000Y-66675000D01*
X174879000Y-56388000D02*
X174879000Y-62103000D01*
X203708000Y-66675000D02*
X201422000Y-66675000D01*
X175133000Y-64516000D02*
X179705000Y-64516000D01*
X175895000Y-62230000D02*
X175895000Y-56388000D01*
X200152000Y-64262000D02*
X200152000Y-64516000D01*
X174498000Y-70612000D02*
X174498000Y-62230000D01*
X204978000Y-64262000D02*
X200152000Y-64262000D01*
X178562000Y-64135000D02*
X178562000Y-66675000D01*
X203708000Y-64135000D02*
X203708000Y-66675000D01*
X179070000Y-65913000D02*
X179705000Y-64516000D01*
X176276000Y-66675000D02*
X176276000Y-64135000D01*
X198120000Y-62230000D02*
X198120000Y-56388000D01*
X205105000Y-56388000D02*
X200025000Y-56388000D01*
X204089000Y-65913000D02*
X204978000Y-64516000D01*
X179705000Y-64262000D02*
X175133000Y-64262000D01*
X179070000Y-65913000D02*
X175895000Y-65913000D01*
X204089000Y-65913000D02*
X200914000Y-65913000D01*
X180975000Y-62255400D02*
X180975000Y-70612000D01*
X204978000Y-64516000D02*
X204978000Y-64262000D01*
X199009000Y-70612000D02*
X199009000Y-62255400D01*
X200152000Y-64516000D02*
X204978000Y-64516000D01*
X174498000Y-70612000D02*
X205486000Y-70612000D01*
X201041000Y-62230000D02*
X201041000Y-56388000D01*
X198120000Y-56388000D02*
X181864000Y-56388000D01*
X200025000Y-62230000D02*
X200025000Y-56388000D01*
X205105000Y-62230000D02*
X205105000Y-56388000D01*
X179959000Y-62230000D02*
X179959000Y-56388000D01*
X204089000Y-62230000D02*
X204089000Y-56388000D01*
D14*
X225750000Y-76166000D02*
X225750000Y-61926000D01*
X233890000Y-57926000D02*
X233890000Y-61926000D01*
X225750000Y-61926000D02*
X227650000Y-61926000D01*
X234190000Y-76166000D02*
X230870000Y-76166000D01*
X227650000Y-61926000D02*
X227650000Y-57926000D01*
X227650000Y-57926000D02*
X233890000Y-57926000D01*
X228620000Y-76166000D02*
X225750000Y-76166000D01*
X233890000Y-61926000D02*
X234190000Y-61926000D01*
X234190000Y-61926000D02*
X234190000Y-76166000D01*
D11*
X222011000Y-74576000D02*
X222011000Y-62076000D01*
X208011000Y-62076000D02*
X208011000Y-74576000D01*
X208011000Y-74576000D02*
X222011000Y-74576000D01*
X208011000Y-63976000D02*
X222011000Y-63976000D01*
X222011000Y-62076000D02*
X208011000Y-62076000D01*
X241665000Y-68270000D02*
X242365000Y-68270000D01*
X236865000Y-65970000D02*
X236865000Y-67770000D01*
X244465000Y-66170000D02*
X244465000Y-67770000D01*
X244465000Y-67770000D02*
X243865000Y-67770000D01*
X236865000Y-67770000D02*
X237465000Y-67770000D01*
X242365000Y-68270000D02*
X242365000Y-67770000D01*
D14*
X238125000Y-131318000D02*
X240725000Y-131318000D01*
X238125000Y-128718000D02*
X177105000Y-128718000D01*
X239395000Y-128718000D02*
X240725000Y-128718000D01*
X177105000Y-128718000D02*
X177105000Y-133918000D01*
X240725000Y-131318000D02*
X240725000Y-133918000D01*
X240725000Y-128718000D02*
X240725000Y-130048000D01*
X238125000Y-128718000D02*
X238125000Y-131318000D01*
X240725000Y-133918000D02*
X177105000Y-133918000D01*
D11*
X165100000Y-90932000D02*
X165100000Y-108966000D01*
D16*
X196654000Y-108949000D02*
X171124000Y-108949000D01*
D11*
X171069000Y-108966000D02*
X165100000Y-108966000D01*
X171069000Y-90932000D02*
X165100000Y-90932000D01*
D16*
X171124000Y-90949000D02*
X196654000Y-90949000D01*
X196654000Y-90949000D02*
X196654000Y-108949000D01*
X171124000Y-108949000D02*
X171124000Y-90949000D01*
D14*
X213712500Y-87766000D02*
X214912500Y-87766000D01*
X214912500Y-89526000D02*
X213712500Y-89526000D01*
M02*
