M48
; DRILL file {KiCad (5.1.5)-3} date 25/08/2021 5:47:26 PM
; FORMAT={-:-/ absolute / inch / decimal}
; #@! TF.CreationDate,2021-08-25T17:47:26+12:00
; #@! TF.GenerationSoftware,Kicad,Pcbnew,(5.1.5)-3
; #@! TF.FileFunction,Plated,1,2,PTH
FMAT,2
INCH
T1C0.0118
T2C0.0157
T3C0.0197
T4C0.0236
T5C0.0256
T6C0.0276
T7C0.0354
T8C0.0394
T9C0.0433
T10C0.0787
T11C0.0866
T12C0.1260
%
G90
G05
T1
X6.9891Y-3.872
X6.9891Y-3.9114
X6.9891Y-3.9507
X6.9891Y-3.9901
X6.9891Y-4.0295
X7.0285Y-3.872
X7.0285Y-3.9114
X7.0285Y-3.9507
X7.0285Y-3.9901
X7.0285Y-4.0295
X7.0679Y-3.872
X7.0679Y-3.9114
X7.0679Y-3.9507
X7.0679Y-3.9901
X7.0679Y-4.0295
X7.1072Y-3.872
X7.1072Y-3.9114
X7.1072Y-3.9507
X7.1072Y-3.9901
X7.1072Y-4.0295
X7.1466Y-3.872
X7.1466Y-3.9114
X7.1466Y-3.9507
X7.1466Y-3.9901
X7.1466Y-4.0295
T2
X6.69Y-4.815
X6.7958Y-4.3942
X6.855Y-5.02
X6.86Y-3.455
X6.905Y-3.405
X6.9525Y-4.4625
X6.9531Y-4.675
X7.055Y-3.155
X7.145Y-4.21
X7.155Y-3.485
X7.195Y-3.695
X7.195Y-4.165
X7.205Y-3.95
X7.275Y-4.1527
X7.3Y-3.14
X7.3Y-3.395
X7.325Y-4.2035
X7.34Y-4.845
X7.345Y-4.38
X7.345Y-4.47
X7.35Y-4.0779
X7.351Y-3.382
X7.36Y-3.005
X7.3751Y-3.8875
X7.3756Y-3.2044
X7.395Y-3.42
X7.4265Y-3.265
X7.45Y-3.02
X7.455Y-3.215
X7.475Y-4.49
X7.479Y-3.382
X7.495Y-4.3701
X7.53Y-3.455
X7.535Y-3.136
X7.535Y-3.1754
X7.5922Y-4.4297
X7.5922Y-4.5
X7.5935Y-3.135
X7.5946Y-3.1754
X7.6075Y-3.695
X7.6175Y-3.85
X7.62Y-3.215
X7.6265Y-3.485
X7.6378Y-4.5012
X7.645Y-4.175
X7.655Y-3.035
X7.68Y-4.3701
X7.69Y-4.5
X7.74Y-4.41
X7.74Y-4.5
X7.76Y-4.9109
X7.8Y-3.965
X7.8Y-4.425
X7.815Y-3.765
X7.835Y-3.8663
X7.8775Y-3.205
X7.9276Y-4.5774
X7.98Y-4.5965
X8.005Y-3.325
X8.035Y-4.626
X8.1Y-3.775
X8.1Y-4.06
X8.165Y-4.19
X8.215Y-4.175
X8.245Y-3.135
X8.2769Y-3.2456
X8.285Y-3.09
X8.3381Y-4.1981
X8.42Y-3.04
X8.455Y-3.305
X8.555Y-3.85
X8.5625Y-4.3775
X8.61Y-3.85
X8.615Y-3.155
X8.615Y-3.235
X8.615Y-3.49
X8.6225Y-4.4225
X8.6713Y-4.9838
X8.675Y-5.075
X8.685Y-3.205
X8.695Y-4.7725
X8.7Y-3.535
X8.7Y-4.085
X8.7152Y-4.9813
X8.72Y-4.25
X8.72Y-4.485
X8.75Y-4.2058
X8.7589Y-4.9625
X8.7707Y-4.4762
X8.7742Y-4.9262
X8.778Y-3.5144
X8.7963Y-4.8937
X8.8075Y-4.7625
X8.81Y-3.26
X8.845Y-3.925
X8.8594Y-3.5144
X8.865Y-4.56
X8.9273Y-4.2073
X8.93Y-2.85
X8.95Y-3.925
X8.9558Y-4.1658
X8.96Y-3.515
X8.98Y-3.695
X9.0075Y-3.3625
X9.0225Y-3.5375
X9.0275Y-3.985
X9.0728Y-4.4747
X9.075Y-4.925
X9.075Y-5.03
X9.08Y-3.785
X9.1175Y-4.1527
X9.1375Y-4.3775
X9.1375Y-4.4225
X9.1475Y-3.655
X9.148Y-3.4864
X9.1509Y-4.1241
X9.175Y-5.03
X9.195Y-3.27
X9.2325Y-3.655
X9.25Y-3.5
X9.3Y-3.205
X9.3Y-3.26
X9.3125Y-4.1675
X9.33Y-4.3
X9.3375Y-4.4525
X9.3675Y-4.0625
X9.375Y-4.2073
X9.3825Y-3.96
X9.385Y-2.875
X9.4225Y-3.6175
X9.425Y-2.735
X9.4775Y-4.04
X9.4775Y-3.4125
X9.51Y-4.1125
X9.54Y-3.695
X9.54Y-3.795
X9.545Y-3.6175
X9.5612Y-4.1437
X9.5656Y-2.8506
X9.5925Y-4.7175
X9.5925Y-4.82
X9.6225Y-4.0975
X9.6225Y-4.1975
X9.635Y-3.42
X9.72Y-2.85
X9.72Y-4.89
T5
X7.3103Y-2.895
T6
X7.2652Y-2.8255
X7.3103Y-2.755
X7.3555Y-2.8255
X7.4005Y-2.755
X7.4005Y-2.895
X7.446Y-2.8255
X7.4905Y-2.895
X7.4906Y-2.755
X7.5365Y-2.8255
X7.5808Y-2.755
X7.5808Y-2.895
X7.626Y-2.8255
X7.6709Y-2.895
X7.671Y-2.755
T7
X8.3311Y-2.7836
X8.3311Y-2.882
X8.4138Y-2.7836
X8.5162Y-2.7836
X8.5989Y-2.7836
X8.5989Y-2.882
T8
X7.025Y-5.12
X7.025Y-5.22
X7.125Y-5.12
X7.125Y-5.22
X7.225Y-5.12
X7.225Y-5.22
X7.325Y-5.12
X7.325Y-5.22
X7.425Y-5.12
X7.425Y-5.22
X7.525Y-5.12
X7.525Y-5.22
X7.625Y-5.12
X7.625Y-5.22
X7.725Y-5.12
X7.725Y-5.22
X7.825Y-5.12
X7.825Y-5.22
X7.925Y-5.12
X7.925Y-5.22
X8.025Y-5.12
X8.025Y-5.22
X8.125Y-5.12
X8.125Y-5.22
X8.225Y-5.12
X8.225Y-5.22
X8.325Y-5.12
X8.325Y-5.22
X8.425Y-5.12
X8.425Y-5.22
X8.525Y-5.12
X8.525Y-5.22
X8.625Y-5.12
X8.625Y-5.22
X8.725Y-5.12
X8.725Y-5.22
X8.825Y-5.12
X8.825Y-5.22
X8.925Y-5.12
X8.925Y-5.22
X9.025Y-5.12
X9.025Y-5.22
X9.125Y-5.12
X9.125Y-5.22
X9.225Y-5.12
X9.225Y-5.22
X9.325Y-5.12
X9.325Y-5.22
X9.425Y-5.12
X9.425Y-5.22
X8.2681Y-2.882
X8.3666Y-2.5828
X8.5634Y-2.5828
X8.6619Y-2.882
X9.84Y-4.42
X9.84Y-4.52
X9.84Y-4.62
X9.84Y-4.72
X9.84Y-4.82
X9.84Y-4.92
T9
X9.41Y-4.2941
X9.41Y-4.55
X9.5872Y-4.2941
X9.5872Y-4.55
X9.0728Y-4.295
X9.0728Y-4.5509
X9.25Y-4.295
X9.25Y-4.5509
T10
X9.05Y-2.66
X9.05Y-2.9002
X9.05Y-3.1167
X9.1287Y-2.7545
X9.1287Y-2.971
X8.1894Y-2.6655
X8.7406Y-2.6655
T11
X8.465Y-2.634
T12
X6.9881Y-2.8273
X7.9719Y-2.8273
T3
G00X9.3343Y-2.5638
M15
G01X9.3343Y-2.5362
M16
G05
G00X9.6157Y-2.5638
M15
G01X9.6157Y-2.5362
M16
G05
T4
G00X9.3795Y-2.6622
M15
G01X9.3795Y-2.6543
M16
G05
G00X9.5705Y-2.6622
M15
G01X9.5705Y-2.6543
M16
G05
T0
M30
