G04 #@! TF.GenerationSoftware,KiCad,Pcbnew,(5.1.5)-3*
G04 #@! TF.CreationDate,2021-01-31T13:17:02+13:00*
G04 #@! TF.ProjectId,PocketTRS,506f636b-6574-4545-9253-2e6b69636164,rev?*
G04 #@! TF.SameCoordinates,Original*
G04 #@! TF.FileFunction,Copper,L1,Top*
G04 #@! TF.FilePolarity,Positive*
%FSLAX46Y46*%
G04 Gerber Fmt 4.6, Leading zero omitted, Abs format (unit mm)*
G04 Created by KiCad (PCBNEW (5.1.5)-3) date 2021-01-31 13:17:02*
%MOMM*%
%LPD*%
G04 APERTURE LIST*
%ADD10C,0.050000*%
%ADD11O,1.700000X1.700000*%
%ADD12R,1.700000X1.700000*%
%ADD13C,0.800000*%
%ADD14O,0.900000X3.000000*%
%ADD15R,5.000000X5.000000*%
%ADD16R,1.500000X2.000000*%
%ADD17R,3.800000X2.000000*%
%ADD18R,1.250000X1.500000*%
%ADD19R,1.600000X2.000000*%
%ADD20R,2.000000X1.600000*%
%ADD21R,1.500000X1.250000*%
%ADD22R,1.300000X1.500000*%
%ADD23R,1.500000X1.300000*%
%ADD24R,0.450000X1.750000*%
%ADD25R,0.450000X1.450000*%
%ADD26R,0.900000X0.800000*%
%ADD27R,0.800000X0.900000*%
%ADD28C,2.000000*%
%ADD29C,5.001260*%
%ADD30C,1.198880*%
%ADD31C,2.400000*%
%ADD32C,1.000000*%
%ADD33C,2.900000*%
%ADD34C,2.700000*%
%ADD35C,1.600000*%
%ADD36O,1.200000X2.000000*%
%ADD37R,2.000000X2.000000*%
%ADD38R,0.400000X2.500000*%
%ADD39R,0.400000X1.350000*%
%ADD40O,1.100000X1.300000*%
%ADD41C,0.250000*%
%ADD42C,0.500000*%
G04 APERTURE END LIST*
D10*
X165100000Y-135890000D02*
X165100000Y-114046000D01*
X165100000Y-64770000D02*
X165100000Y-85852000D01*
X171323000Y-85852000D02*
X171323000Y-90805000D01*
X171323000Y-85852000D02*
X165100000Y-85852000D01*
X171323000Y-114046000D02*
X171323000Y-90805000D01*
X165100000Y-114046000D02*
X171323000Y-114046000D01*
X252730000Y-64770000D02*
X252730000Y-61976000D01*
X165100000Y-61976000D02*
X165100000Y-64770000D01*
X252730000Y-135890000D02*
X165100000Y-135890000D01*
X252730000Y-64770000D02*
X252730000Y-135890000D01*
X165100000Y-61976000D02*
X252730000Y-61976000D01*
D11*
X178435000Y-132588000D03*
X178435000Y-130048000D03*
X180975000Y-132588000D03*
X180975000Y-130048000D03*
X183515000Y-132588000D03*
X183515000Y-130048000D03*
X186055000Y-132588000D03*
X186055000Y-130048000D03*
X188595000Y-132588000D03*
X188595000Y-130048000D03*
X191135000Y-132588000D03*
X191135000Y-130048000D03*
X193675000Y-132588000D03*
X193675000Y-130048000D03*
X196215000Y-132588000D03*
X196215000Y-130048000D03*
X198755000Y-132588000D03*
X198755000Y-130048000D03*
X201295000Y-132588000D03*
X201295000Y-130048000D03*
X203835000Y-132588000D03*
X203835000Y-130048000D03*
X206375000Y-132588000D03*
X206375000Y-130048000D03*
X208915000Y-132588000D03*
X208915000Y-130048000D03*
X211455000Y-132588000D03*
X211455000Y-130048000D03*
X213995000Y-132588000D03*
X213995000Y-130048000D03*
X216535000Y-132588000D03*
X216535000Y-130048000D03*
X219075000Y-132588000D03*
X219075000Y-130048000D03*
X221615000Y-132588000D03*
X221615000Y-130048000D03*
X224155000Y-132588000D03*
X224155000Y-130048000D03*
X226695000Y-132588000D03*
X226695000Y-130048000D03*
X229235000Y-132588000D03*
X229235000Y-130048000D03*
X231775000Y-132588000D03*
X231775000Y-130048000D03*
X234315000Y-132588000D03*
X234315000Y-130048000D03*
X236855000Y-132588000D03*
X236855000Y-130048000D03*
X239395000Y-132588000D03*
D12*
X239395000Y-130048000D03*
D13*
X177524000Y-98349000D03*
X178524000Y-98349000D03*
X179524000Y-98349000D03*
X180524000Y-98349000D03*
X181524000Y-98349000D03*
X177524000Y-100349000D03*
X178524000Y-100349000D03*
X179524000Y-100349000D03*
X180524000Y-100349000D03*
X181524000Y-100349000D03*
X181524000Y-99349000D03*
X180524000Y-99349000D03*
X179524000Y-99349000D03*
X178524000Y-99349000D03*
X177524000Y-99349000D03*
X177524000Y-101349000D03*
X178524000Y-101349000D03*
X179524000Y-101349000D03*
X180524000Y-101349000D03*
X181524000Y-101349000D03*
X181524000Y-102349000D03*
X180524000Y-102349000D03*
X179524000Y-102349000D03*
X178524000Y-102349000D03*
D14*
X172614000Y-90919000D03*
X173884000Y-90919000D03*
X175154000Y-90919000D03*
X176424000Y-90919000D03*
X177694000Y-90919000D03*
X178964000Y-90919000D03*
X180234000Y-90919000D03*
X181504000Y-90919000D03*
X182774000Y-90919000D03*
X184044000Y-90919000D03*
X185314000Y-90919000D03*
X186584000Y-90919000D03*
X187854000Y-90919000D03*
X189124000Y-90919000D03*
X190424000Y-90949000D03*
X191694000Y-90949000D03*
X192964000Y-90949000D03*
X194234000Y-90949000D03*
X195504000Y-90949000D03*
X195504000Y-108949000D03*
X194234000Y-108949000D03*
X192964000Y-108949000D03*
X191694000Y-108949000D03*
X190424000Y-108949000D03*
X189124000Y-108949000D03*
X187854000Y-108949000D03*
X186584000Y-108949000D03*
X185314000Y-108949000D03*
X184044000Y-108949000D03*
X182774000Y-108949000D03*
X181504000Y-108949000D03*
X180234000Y-108949000D03*
X178964000Y-108949000D03*
X177694000Y-108949000D03*
X176424000Y-108949000D03*
X175154000Y-108949000D03*
X173884000Y-108949000D03*
X172614000Y-108949000D03*
D15*
X179534000Y-100349000D03*
D13*
X177524000Y-102349000D03*
D11*
X249936000Y-106553000D03*
X249936000Y-104013000D03*
X249936000Y-101473000D03*
X249936000Y-98933000D03*
X249936000Y-96393000D03*
D12*
X249936000Y-93853000D03*
D16*
X242965000Y-75590000D03*
X238365000Y-75590000D03*
X240665000Y-75590000D03*
D17*
X240665000Y-81890000D03*
D18*
X230632000Y-91841000D03*
X230632000Y-94341000D03*
D19*
X246888000Y-79597000D03*
X246888000Y-75597000D03*
D20*
X244729000Y-88773000D03*
X240729000Y-88773000D03*
D18*
X187960000Y-120543000D03*
X187960000Y-123043000D03*
D21*
X233025000Y-126365000D03*
X230525000Y-126365000D03*
X195874000Y-81407000D03*
X198374000Y-81407000D03*
X171343000Y-117094000D03*
X173843000Y-117094000D03*
X174137000Y-125476000D03*
X176637000Y-125476000D03*
D22*
X211963000Y-78533000D03*
X211963000Y-81233000D03*
X216027000Y-81233000D03*
X216027000Y-78533000D03*
X220980000Y-87456000D03*
X220980000Y-84756000D03*
X223774000Y-87456000D03*
X223774000Y-84756000D03*
X233553000Y-87409000D03*
X233553000Y-84756000D03*
X236220000Y-84709000D03*
X236220000Y-87409000D03*
D23*
X210232000Y-86360000D03*
X212932000Y-86360000D03*
X212932000Y-83947000D03*
X210232000Y-83947000D03*
X200326000Y-95885000D03*
X203026000Y-95885000D03*
X176610000Y-122936000D03*
X173910000Y-122936000D03*
X238172000Y-93853000D03*
X240872000Y-93853000D03*
X238172000Y-96393000D03*
X240872000Y-96393000D03*
D22*
X180340000Y-113458000D03*
X180340000Y-116158000D03*
D24*
X214977000Y-115526000D03*
X215627000Y-115526000D03*
X216277000Y-115526000D03*
X216927000Y-115526000D03*
X217577000Y-115526000D03*
X218227000Y-115526000D03*
X218877000Y-115526000D03*
X219527000Y-115526000D03*
X220177000Y-115526000D03*
X220827000Y-115526000D03*
X221477000Y-115526000D03*
X222127000Y-115526000D03*
X222777000Y-115526000D03*
X223427000Y-115526000D03*
X223427000Y-122726000D03*
X222777000Y-122726000D03*
X222127000Y-122726000D03*
X221477000Y-122726000D03*
X220827000Y-122726000D03*
X220177000Y-122726000D03*
X219527000Y-122726000D03*
X218877000Y-122726000D03*
X218227000Y-122726000D03*
X217577000Y-122726000D03*
X216927000Y-122726000D03*
X216277000Y-122726000D03*
X215627000Y-122726000D03*
X214977000Y-122726000D03*
D25*
X191266000Y-84230000D03*
X190616000Y-84230000D03*
X189966000Y-84230000D03*
X189316000Y-84230000D03*
X188666000Y-84230000D03*
X188016000Y-84230000D03*
X187366000Y-84230000D03*
X186716000Y-84230000D03*
X186066000Y-84230000D03*
X185416000Y-84230000D03*
X185416000Y-78330000D03*
X186066000Y-78330000D03*
X186716000Y-78330000D03*
X187366000Y-78330000D03*
X188016000Y-78330000D03*
X188666000Y-78330000D03*
X189316000Y-78330000D03*
X189966000Y-78330000D03*
X190616000Y-78330000D03*
X191266000Y-78330000D03*
D26*
X206867000Y-85344000D03*
X204867000Y-86294000D03*
X204867000Y-84394000D03*
D27*
X234000000Y-101203000D03*
X235900000Y-101203000D03*
X234950000Y-99203000D03*
X239014000Y-103267000D03*
X239964000Y-105267000D03*
X238064000Y-105267000D03*
D24*
X196600000Y-123107000D03*
X195950000Y-123107000D03*
X195300000Y-123107000D03*
X194650000Y-123107000D03*
X194000000Y-123107000D03*
X193350000Y-123107000D03*
X192700000Y-123107000D03*
X192050000Y-123107000D03*
X191400000Y-123107000D03*
X190750000Y-123107000D03*
X190750000Y-115907000D03*
X191400000Y-115907000D03*
X192050000Y-115907000D03*
X192700000Y-115907000D03*
X193350000Y-115907000D03*
X194000000Y-115907000D03*
X194650000Y-115907000D03*
X195300000Y-115907000D03*
X195950000Y-115907000D03*
X196600000Y-115907000D03*
D20*
X169958000Y-120142000D03*
X173958000Y-120142000D03*
D28*
X230450000Y-109093000D03*
X234950000Y-109093000D03*
X230450000Y-115593000D03*
X234950000Y-115593000D03*
X239014000Y-109070000D03*
X243514000Y-109070000D03*
X239014000Y-115570000D03*
X243514000Y-115570000D03*
D19*
X227203000Y-83344000D03*
X227203000Y-87344000D03*
X230505000Y-87344000D03*
X230505000Y-83344000D03*
X224028000Y-96361000D03*
X224028000Y-92361000D03*
D29*
X177497740Y-71813420D03*
D30*
X190258700Y-73532400D03*
X187972700Y-73532400D03*
X185681620Y-73532400D03*
X192552320Y-73532400D03*
X194840860Y-73532400D03*
X191427100Y-71767700D03*
X189128400Y-71767700D03*
X186829700Y-71767700D03*
X184536080Y-71767700D03*
D29*
X202486260Y-71813420D03*
D30*
X193700400Y-71767700D03*
X185681620Y-69976400D03*
X187972700Y-69976400D03*
X190261240Y-69976400D03*
X192552320Y-69976400D03*
X194843400Y-69976400D03*
D31*
X229657868Y-67776132D02*
X230082132Y-67351868D01*
X231657868Y-70176132D02*
X232082132Y-69751868D01*
X231657868Y-75676132D02*
X232082132Y-75251868D01*
X229657868Y-79376132D02*
X230082132Y-78951868D01*
X229657868Y-73876132D02*
X230082132Y-73451868D01*
D32*
X212511000Y-65603000D03*
X217511000Y-65603000D03*
D33*
X215011000Y-66903000D03*
D34*
X208011000Y-67703000D03*
X222011000Y-67703000D03*
D32*
X210011000Y-73203000D03*
X220011000Y-73203000D03*
D35*
X213711000Y-70703000D03*
X216311000Y-70703000D03*
X211611000Y-70703000D03*
X218411000Y-70703000D03*
X211611000Y-73203000D03*
X218411000Y-73203000D03*
D36*
X244240000Y-64770000D03*
D37*
X240665000Y-64770000D03*
D36*
X237090000Y-64770000D03*
D38*
X241965000Y-68021200D03*
D39*
X241315000Y-67445000D03*
X240665000Y-67445000D03*
X240015000Y-67445000D03*
D38*
X239365000Y-68021200D03*
D40*
X243090000Y-67520000D03*
X238240000Y-67520000D03*
D13*
X226822000Y-72390000D03*
X220980000Y-89789000D03*
X220980000Y-103759000D03*
X244729000Y-86868000D03*
X246888000Y-72390000D03*
X242965000Y-72404000D03*
X236220000Y-82804000D03*
X223774000Y-82804000D03*
X222777000Y-113696700D03*
X194000000Y-114330600D03*
X186715400Y-85902800D03*
X189966000Y-85902200D03*
X186944000Y-76327000D03*
X220853000Y-121031000D03*
X200088500Y-81407000D03*
X224663000Y-99695000D03*
X239395000Y-69469000D03*
X233045000Y-127762000D03*
X187340999Y-81391001D03*
X172614000Y-111612000D03*
X186436000Y-123063000D03*
X190373000Y-111000000D03*
X227330000Y-99695000D03*
X230632000Y-96139000D03*
X189865000Y-114046000D03*
X169926000Y-122301000D03*
X174117000Y-127508000D03*
X238379000Y-73025000D03*
X214757000Y-83947000D03*
X220252000Y-126588074D03*
X197104000Y-124736000D03*
X230505000Y-127762000D03*
X230505000Y-125095000D03*
X246888000Y-124206000D03*
X236220000Y-81407000D03*
X220599000Y-81407000D03*
X189357000Y-81661000D03*
X193548000Y-81661000D03*
X203327000Y-84455000D03*
X205740000Y-103124000D03*
X205740000Y-95885000D03*
X213868000Y-77216000D03*
X186055000Y-106770000D03*
X181483000Y-106934000D03*
X207391000Y-106426000D03*
X210439000Y-78486000D03*
X184785000Y-105477961D03*
X182753000Y-105791000D03*
X208661000Y-106045000D03*
X194437000Y-77089000D03*
X194183000Y-106045000D03*
X229108000Y-89535000D03*
X232156000Y-89535000D03*
X244221000Y-101473000D03*
X229662701Y-90367051D03*
X232156000Y-90535003D03*
X242697000Y-91313000D03*
X244475000Y-91567000D03*
X244856000Y-98933000D03*
X221488000Y-113919000D03*
X221488000Y-107950000D03*
X176593500Y-113347500D03*
X176610000Y-118745000D03*
X198501000Y-95631000D03*
X199009000Y-98203010D03*
X181737000Y-88519000D03*
X193712000Y-88519000D03*
X223427000Y-124299000D03*
X210232000Y-82439500D03*
X204089000Y-117500980D03*
X188595000Y-82677000D03*
X192532000Y-82677000D03*
X175387000Y-86487000D03*
X185420000Y-86233000D03*
X185420000Y-79756000D03*
X179197000Y-80137000D03*
X191262000Y-87757000D03*
X174244000Y-87757000D03*
X233553000Y-83058000D03*
X233321039Y-104752961D03*
X182753000Y-93853000D03*
X183007000Y-100330000D03*
X198120000Y-100711000D03*
X198120000Y-112395000D03*
X192843062Y-112513112D03*
X192843062Y-114300000D03*
X221364840Y-126526260D03*
X228092000Y-93853000D03*
X222864178Y-125125580D03*
X202692000Y-116750000D03*
X191389000Y-80655005D03*
X192902995Y-80655005D03*
X218821000Y-80137000D03*
X218821000Y-82169000D03*
X218821000Y-88646000D03*
X222250000Y-106827991D03*
X226752990Y-106864990D03*
X195072000Y-111000001D03*
X195326000Y-114300000D03*
X222477272Y-126047701D03*
X201361368Y-116265033D03*
X211788500Y-106632500D03*
X191389000Y-79655002D03*
X192876000Y-79629000D03*
X209423000Y-79629000D03*
X227477990Y-105811990D03*
X196596000Y-112014000D03*
X196596000Y-114300000D03*
X186563000Y-113538000D03*
X186563000Y-111252000D03*
X242316000Y-96393000D03*
X242316000Y-93853000D03*
X189230000Y-76708000D03*
X187833000Y-86868000D03*
D41*
X220980000Y-87456000D02*
X223774000Y-87456000D01*
X226551000Y-87456000D02*
X226568000Y-87439000D01*
X223774000Y-87456000D02*
X226551000Y-87456000D01*
X220980000Y-89789000D02*
X220980000Y-87456000D01*
X223774000Y-91726000D02*
X224028000Y-91980000D01*
X223774000Y-87456000D02*
X223774000Y-91726000D01*
X176424000Y-104754000D02*
X176424000Y-108949000D01*
X220980000Y-103759000D02*
X220436049Y-104302951D01*
X176875049Y-104302951D02*
X176424000Y-104754000D01*
X220436049Y-104302951D02*
X176875049Y-104302951D01*
X235320000Y-87409000D02*
X233553000Y-87409000D01*
X236220000Y-87409000D02*
X235320000Y-87409000D01*
X230662000Y-87409000D02*
X230632000Y-87439000D01*
X233553000Y-87409000D02*
X230662000Y-87409000D01*
X230632000Y-88689000D02*
X230632000Y-91841000D01*
X230632000Y-87439000D02*
X230632000Y-88689000D01*
D42*
X246881000Y-75590000D02*
X246888000Y-75597000D01*
X242965000Y-75590000D02*
X246881000Y-75590000D01*
X246888000Y-75597000D02*
X246888000Y-74097000D01*
X246888000Y-74097000D02*
X246888000Y-73406000D01*
X244729000Y-88773000D02*
X244729000Y-87473000D01*
X244729000Y-87473000D02*
X244729000Y-86868000D01*
X242965000Y-74090000D02*
X242951000Y-74076000D01*
X242965000Y-75590000D02*
X242965000Y-74090000D01*
X246888000Y-73406000D02*
X246888000Y-72390000D01*
X242965000Y-74090000D02*
X242965000Y-72404000D01*
X236220000Y-84709000D02*
X236220000Y-82804000D01*
X223774000Y-84756000D02*
X223774000Y-83506000D01*
X223774000Y-83506000D02*
X223774000Y-82804000D01*
X223427000Y-115526000D02*
X222777000Y-115526000D01*
X222777000Y-115526000D02*
X222152001Y-115526000D01*
D41*
X222777000Y-115526000D02*
X222777000Y-113696700D01*
X194000000Y-116034000D02*
X194650000Y-116034000D01*
X194000000Y-116034000D02*
X194000000Y-114330600D01*
X186716000Y-85205000D02*
X186715400Y-85205600D01*
X186716000Y-84230000D02*
X186716000Y-85205000D01*
X186715400Y-85205600D02*
X186715400Y-85902800D01*
X189966000Y-84230000D02*
X189966000Y-85902200D01*
X186716000Y-78330000D02*
X187366000Y-78330000D01*
X186716000Y-77355000D02*
X186715400Y-77354400D01*
X186716000Y-78330000D02*
X186716000Y-77355000D01*
X186715400Y-77354400D02*
X186715400Y-76669900D01*
X186715400Y-76669900D02*
X186715400Y-76555600D01*
X186715400Y-76555600D02*
X186944000Y-76327000D01*
X220853000Y-122700000D02*
X220827000Y-122726000D01*
X220853000Y-121031000D02*
X220853000Y-122700000D01*
D42*
X198374000Y-81407000D02*
X200088500Y-81407000D01*
X187340999Y-81428814D02*
X187340999Y-81391001D01*
X225171000Y-99695000D02*
X227272315Y-99695000D01*
X239365000Y-68620000D02*
X239395000Y-68650000D01*
X239365000Y-67445000D02*
X239365000Y-68620000D01*
X239395000Y-68650000D02*
X239395000Y-69469000D01*
X225298000Y-99695000D02*
X224732315Y-99695000D01*
X224028000Y-99060000D02*
X224663000Y-99695000D01*
X224028000Y-95980000D02*
X224028000Y-99060000D01*
X233025000Y-127490000D02*
X233045000Y-127510000D01*
X233025000Y-126365000D02*
X233025000Y-127490000D01*
X233045000Y-127510000D02*
X233045000Y-127762000D01*
X187340999Y-81391001D02*
X187340999Y-78330000D01*
X172614000Y-108949000D02*
X172614000Y-111612000D01*
X186835000Y-123043000D02*
X186815000Y-123063000D01*
X187960000Y-123043000D02*
X186835000Y-123043000D01*
X186815000Y-123063000D02*
X186436000Y-123063000D01*
X190424000Y-110949000D02*
X190373000Y-111000000D01*
X190424000Y-108949000D02*
X190424000Y-110949000D01*
X230632000Y-94341000D02*
X230632000Y-96139000D01*
D41*
X190881000Y-114046000D02*
X189865000Y-114046000D01*
X191333000Y-116288000D02*
X191333000Y-114584600D01*
X191333000Y-114244000D02*
X191333000Y-114584600D01*
X190881000Y-114046000D02*
X191135000Y-114046000D01*
X191135000Y-114046000D02*
X191333000Y-114244000D01*
D42*
X189965400Y-85902800D02*
X189966000Y-85902200D01*
X186715400Y-85902800D02*
X189965400Y-85902800D01*
X172614000Y-111612000D02*
X172614000Y-114152000D01*
X171343000Y-115423000D02*
X171343000Y-117094000D01*
X172614000Y-114152000D02*
X171343000Y-115423000D01*
X171343000Y-118757000D02*
X169958000Y-120142000D01*
X171343000Y-117094000D02*
X171343000Y-118757000D01*
X169926000Y-120174000D02*
X169958000Y-120142000D01*
X169926000Y-122301000D02*
X169926000Y-120174000D01*
X174117000Y-125496000D02*
X174137000Y-125476000D01*
X174117000Y-127508000D02*
X174117000Y-125496000D01*
X212932000Y-83947000D02*
X214757000Y-83947000D01*
D41*
X220177000Y-126596500D02*
X220185426Y-126588074D01*
X220177000Y-122726000D02*
X220177000Y-126596500D01*
X220185426Y-126588074D02*
X220252000Y-126588074D01*
X238461200Y-73025000D02*
X238379000Y-73025000D01*
X196600000Y-124232000D02*
X197104000Y-124736000D01*
X196600000Y-123107000D02*
X196600000Y-124232000D01*
D42*
X246888000Y-81915000D02*
X246888000Y-84709000D01*
X238379000Y-75576000D02*
X238365000Y-75590000D01*
X238379000Y-73025000D02*
X238379000Y-75576000D01*
X241965000Y-69439000D02*
X238379000Y-73025000D01*
X241965000Y-67445000D02*
X241965000Y-69439000D01*
X246888000Y-81915000D02*
X246888000Y-79597000D01*
X246888000Y-78097000D02*
X246888000Y-79597000D01*
X238999000Y-77724000D02*
X246515000Y-77724000D01*
X238365000Y-77090000D02*
X238999000Y-77724000D01*
X246515000Y-77724000D02*
X246888000Y-78097000D01*
X238365000Y-75590000D02*
X238365000Y-77090000D01*
X230505000Y-126385000D02*
X230525000Y-126365000D01*
X230505000Y-127762000D02*
X230505000Y-126385000D01*
X230505000Y-126345000D02*
X230525000Y-126365000D01*
X230505000Y-125095000D02*
X230505000Y-126345000D01*
X248733919Y-104013000D02*
X246888000Y-104013000D01*
X249936000Y-104013000D02*
X248733919Y-104013000D01*
X246888000Y-84709000D02*
X246888000Y-104013000D01*
X246888000Y-104013000D02*
X246888000Y-115062000D01*
X196625001Y-121871999D02*
X196625001Y-123107000D01*
X190867000Y-120543000D02*
X190887000Y-120523000D01*
X190887000Y-120523000D02*
X196469000Y-120523000D01*
X187960000Y-120543000D02*
X190867000Y-120543000D01*
X196469000Y-120523000D02*
X196625001Y-120679001D01*
X196625001Y-120679001D02*
X196625001Y-121871999D01*
X246888000Y-124206000D02*
X246888000Y-115062000D01*
X211963000Y-81233000D02*
X216027000Y-81233000D01*
X240729000Y-81954000D02*
X240665000Y-81890000D01*
X240729000Y-88773000D02*
X240729000Y-81954000D01*
X216027000Y-81233000D02*
X220298000Y-81233000D01*
X220980000Y-81915000D02*
X220980000Y-84756000D01*
X220298000Y-81233000D02*
X220980000Y-81915000D01*
X238265000Y-81890000D02*
X237782000Y-81407000D01*
X240665000Y-81890000D02*
X238265000Y-81890000D01*
X237782000Y-81407000D02*
X236220000Y-81407000D01*
X216027000Y-81233000D02*
X216027000Y-85979000D01*
X215646000Y-86360000D02*
X212932000Y-86360000D01*
X216027000Y-85979000D02*
X215646000Y-86360000D01*
D41*
X189293500Y-84207500D02*
X189316000Y-84230000D01*
D42*
X211963000Y-81233000D02*
X205406000Y-81233000D01*
X196146000Y-82804000D02*
X204851000Y-82804000D01*
X195874000Y-81407000D02*
X195874000Y-82532000D01*
X195874000Y-82532000D02*
X196146000Y-82804000D01*
X204867000Y-82820000D02*
X204851000Y-82804000D01*
X204867000Y-84394000D02*
X204867000Y-82820000D01*
X204867000Y-81772000D02*
X205406000Y-81233000D01*
X204867000Y-82820000D02*
X204867000Y-81772000D01*
X195620000Y-81661000D02*
X195874000Y-81407000D01*
X193548000Y-81661000D02*
X195620000Y-81661000D01*
D41*
X189357000Y-84189000D02*
X189316000Y-84230000D01*
X189357000Y-81661000D02*
X189357000Y-84189000D01*
D42*
X173884000Y-110001806D02*
X173863000Y-110022806D01*
X173884000Y-108949000D02*
X173884000Y-110001806D01*
X203073000Y-95584000D02*
X203026000Y-95631000D01*
X203073000Y-95838000D02*
X203026000Y-95885000D01*
X204806000Y-84455000D02*
X204867000Y-84394000D01*
X203327000Y-84455000D02*
X204806000Y-84455000D01*
X173884000Y-106949000D02*
X173863000Y-106928000D01*
X173884000Y-108949000D02*
X173884000Y-106949000D01*
X173863000Y-106928000D02*
X173863000Y-104521000D01*
X173863000Y-104521000D02*
X174752000Y-103632000D01*
X174752000Y-103632000D02*
X182499000Y-103632000D01*
X182499000Y-103632000D02*
X201422000Y-103632000D01*
X201422000Y-103632000D02*
X201549000Y-103632000D01*
X201549000Y-103632000D02*
X205232000Y-103632000D01*
X205232000Y-103632000D02*
X205740000Y-103124000D01*
X205740000Y-95885000D02*
X203026000Y-95885000D01*
X180260000Y-116078000D02*
X180340000Y-116158000D01*
X173958000Y-122888000D02*
X173910000Y-122936000D01*
X173958000Y-120142000D02*
X173958000Y-122888000D01*
X173843000Y-120027000D02*
X173958000Y-120142000D01*
X173843000Y-117094000D02*
X173843000Y-120027000D01*
X173884000Y-117053000D02*
X173843000Y-117094000D01*
X173884000Y-108949000D02*
X173884000Y-117053000D01*
X173843000Y-117094000D02*
X175768000Y-117094000D01*
X176704000Y-116158000D02*
X180340000Y-116158000D01*
X175768000Y-117094000D02*
X176704000Y-116158000D01*
D41*
X178435000Y-125222000D02*
X178435000Y-130048000D01*
X191400000Y-123107000D02*
X191400000Y-124830000D01*
X178631010Y-125025990D02*
X178435000Y-125222000D01*
X191204010Y-125025990D02*
X178631010Y-125025990D01*
X191400000Y-124830000D02*
X191204010Y-125025990D01*
X180975000Y-125730000D02*
X180975000Y-130048000D01*
X181229000Y-125476000D02*
X180975000Y-125730000D01*
X191897000Y-125476000D02*
X181229000Y-125476000D01*
X192050000Y-123107000D02*
X192050000Y-125323000D01*
X192050000Y-125323000D02*
X191897000Y-125476000D01*
X186309000Y-125984000D02*
X186055000Y-126238000D01*
X192532000Y-125984000D02*
X186309000Y-125984000D01*
X186055000Y-126238000D02*
X186055000Y-130048000D01*
X192700000Y-123107000D02*
X192700000Y-125816000D01*
X192700000Y-125816000D02*
X192532000Y-125984000D01*
X188595000Y-127000000D02*
X188595000Y-130048000D01*
X188779990Y-126434010D02*
X188595000Y-126619000D01*
X193350000Y-126182000D02*
X193097990Y-126434010D01*
X193350000Y-123107000D02*
X193350000Y-126182000D01*
X193097990Y-126434010D02*
X188779990Y-126434010D01*
X188595000Y-126619000D02*
X188595000Y-127000000D01*
X194000000Y-126675000D02*
X194000000Y-123107000D01*
X193790980Y-126884020D02*
X194000000Y-126675000D01*
X191135000Y-130048000D02*
X191135000Y-127000000D01*
X191250980Y-126884020D02*
X193790980Y-126884020D01*
X191135000Y-127000000D02*
X191250980Y-126884020D01*
X194650000Y-129073000D02*
X193675000Y-130048000D01*
X194650000Y-123107000D02*
X194650000Y-129073000D01*
X195300000Y-129133000D02*
X196215000Y-130048000D01*
X195300000Y-123107000D02*
X195300000Y-129133000D01*
X198755000Y-130048000D02*
X198755000Y-127762000D01*
X198755000Y-127762000D02*
X198501000Y-127508000D01*
X196088000Y-127508000D02*
X196469000Y-127508000D01*
X195950000Y-127370000D02*
X196088000Y-127508000D01*
X195950000Y-123107000D02*
X195950000Y-127370000D01*
X198501000Y-127508000D02*
X196469000Y-127508000D01*
X196469000Y-127508000D02*
X196320000Y-127508000D01*
X219527000Y-127071000D02*
X219527000Y-122726000D01*
X201295000Y-131064000D02*
X201549000Y-131318000D01*
X201295000Y-130048000D02*
X201295000Y-131064000D01*
X220345000Y-127889000D02*
X219527000Y-127071000D01*
X201549000Y-131318000D02*
X220091000Y-131318000D01*
X220091000Y-131318000D02*
X220345000Y-131064000D01*
X220345000Y-131064000D02*
X220345000Y-127889000D01*
X204089001Y-118675989D02*
X216092040Y-118675990D01*
X218877000Y-121460950D02*
X218877000Y-122726000D01*
X216092040Y-118675990D02*
X218877000Y-121460950D01*
X203835000Y-130048000D02*
X203835000Y-118929990D01*
X203835000Y-118929990D02*
X204089001Y-118675989D01*
X218227000Y-121447360D02*
X215905640Y-119126000D01*
X218227000Y-122726000D02*
X218227000Y-121447360D01*
X215905640Y-119126000D02*
X206629000Y-119126000D01*
X206375000Y-119380000D02*
X206375000Y-130048000D01*
X206629000Y-119126000D02*
X206375000Y-119380000D01*
X217577000Y-121433770D02*
X215777230Y-119634000D01*
X217577000Y-122726000D02*
X217577000Y-121433770D01*
X215777230Y-119634000D02*
X209169000Y-119634000D01*
X208915000Y-119888000D02*
X208915000Y-130048000D01*
X209169000Y-119634000D02*
X208915000Y-119888000D01*
X216927000Y-122726000D02*
X216927000Y-121420180D01*
X216927000Y-121420180D02*
X215637800Y-120130980D01*
X215637800Y-120130980D02*
X211720020Y-120130980D01*
X211455000Y-120396000D02*
X211455000Y-130048000D01*
X211720020Y-120130980D02*
X211455000Y-120396000D01*
X212344000Y-125603000D02*
X213741000Y-125603000D01*
X216277000Y-121406590D02*
X215451400Y-120580990D01*
X213995000Y-125857000D02*
X213995000Y-130048000D01*
X213741000Y-125603000D02*
X213995000Y-125857000D01*
X216277000Y-122726000D02*
X216277000Y-121406590D01*
X212090000Y-125349000D02*
X212344000Y-125603000D01*
X212090000Y-120777000D02*
X212090000Y-125349000D01*
X215451400Y-120580990D02*
X212286010Y-120580990D01*
X212286010Y-120580990D02*
X212090000Y-120777000D01*
X216281000Y-124968000D02*
X216535000Y-125222000D01*
X213106000Y-124968000D02*
X216281000Y-124968000D01*
X212852000Y-124714000D02*
X213106000Y-124968000D01*
X216535000Y-125222000D02*
X216535000Y-130048000D01*
X215627000Y-121393000D02*
X215265000Y-121031000D01*
X215627000Y-122726000D02*
X215627000Y-121393000D01*
X215265000Y-121031000D02*
X212979000Y-121031000D01*
X212979000Y-121031000D02*
X212852000Y-121158000D01*
X212852000Y-121158000D02*
X212852000Y-124714000D01*
X214884000Y-122819000D02*
X214977000Y-122726000D01*
X214977000Y-122726000D02*
X214977000Y-124299000D01*
X214977000Y-124299000D02*
X215138000Y-124460000D01*
X215138000Y-124460000D02*
X218821000Y-124460000D01*
X218821000Y-124460000D02*
X219075000Y-124714000D01*
X219075000Y-124714000D02*
X219075000Y-125730000D01*
X219075000Y-125730000D02*
X219075000Y-130048000D01*
X224282000Y-127000000D02*
X222250000Y-127000000D01*
X224536000Y-126746000D02*
X224282000Y-127000000D01*
X224536000Y-120523000D02*
X224536000Y-126746000D01*
X224130070Y-120117070D02*
X224536000Y-120523000D01*
X214977000Y-116651000D02*
X215163401Y-116837401D01*
X215163401Y-116837401D02*
X215176991Y-116837401D01*
X222250000Y-127000000D02*
X221615000Y-127635000D01*
X214977000Y-115526000D02*
X214977000Y-116651000D01*
X215176991Y-116837401D02*
X218456659Y-120117069D01*
X221615000Y-127635000D02*
X221615000Y-130048000D01*
X218456659Y-120117069D02*
X224130070Y-120117070D01*
X224155000Y-127762000D02*
X224155000Y-130048000D01*
X224282000Y-127635000D02*
X224155000Y-127762000D01*
X225298000Y-127635000D02*
X224282000Y-127635000D01*
X215627000Y-116651000D02*
X218643060Y-119667060D01*
X215627000Y-115526000D02*
X215627000Y-116651000D01*
X225552000Y-127381000D02*
X225298000Y-127635000D01*
X218643060Y-119667060D02*
X225331060Y-119667060D01*
X225331060Y-119667060D02*
X225552000Y-119888000D01*
X225552000Y-119888000D02*
X225552000Y-127381000D01*
X216277000Y-115526000D02*
X216277000Y-116583050D01*
X216277000Y-116583050D02*
X218911000Y-119217050D01*
X224755461Y-119217051D02*
X224536000Y-119217051D01*
X218911000Y-119217050D02*
X224536000Y-119217050D01*
X226695000Y-130048000D02*
X226695000Y-119471052D01*
X226440999Y-119217051D02*
X224755461Y-119217051D01*
X226695000Y-119471052D02*
X226440999Y-119217051D01*
X219097402Y-118767042D02*
X216927000Y-116596640D01*
X216927000Y-116596640D02*
X216927000Y-115526000D01*
X229235000Y-118999000D02*
X229003040Y-118767040D01*
X229235000Y-130048000D02*
X229235000Y-118999000D01*
X228749044Y-118767040D02*
X228749042Y-118767042D01*
X229003040Y-118767040D02*
X228749044Y-118767040D01*
X228749042Y-118767042D02*
X219097402Y-118767042D01*
X217577000Y-116610230D02*
X217577000Y-115526000D01*
X231474030Y-118317030D02*
X219283800Y-118317030D01*
X219283800Y-118317030D02*
X217577000Y-116610230D01*
X231775000Y-130048000D02*
X231775000Y-118618000D01*
X231775000Y-118618000D02*
X231474030Y-118317030D01*
X219470200Y-117867020D02*
X218227000Y-116623820D01*
X234061000Y-117867020D02*
X219470200Y-117867020D01*
X218227000Y-116623820D02*
X218227000Y-115526000D01*
X234315000Y-130048000D02*
X234315000Y-118121020D01*
X234315000Y-118121020D02*
X234061000Y-117867020D01*
X218877000Y-116637410D02*
X218877000Y-115526000D01*
X236601000Y-117417010D02*
X219656600Y-117417010D01*
X219656600Y-117417010D02*
X218877000Y-116637410D01*
X236855000Y-130048000D02*
X236855000Y-117671010D01*
X236855000Y-117671010D02*
X236601000Y-117417010D01*
X239141000Y-116967000D02*
X219843000Y-116967000D01*
X239395000Y-130048000D02*
X239395000Y-117221000D01*
X219527000Y-116651000D02*
X219527000Y-115526000D01*
X219843000Y-116967000D02*
X219527000Y-116651000D01*
X239395000Y-117221000D02*
X239141000Y-116967000D01*
X216027000Y-77533000D02*
X215710000Y-77216000D01*
X216027000Y-78533000D02*
X216027000Y-77533000D01*
X215710000Y-77216000D02*
X213868000Y-77216000D01*
X213868000Y-70860000D02*
X213711000Y-70703000D01*
X213868000Y-77216000D02*
X213868000Y-70860000D01*
X186055000Y-106680000D02*
X186055000Y-106770000D01*
X181483000Y-108928000D02*
X181504000Y-108949000D01*
X181483000Y-106934000D02*
X181483000Y-108928000D01*
X186055000Y-106770000D02*
X203925000Y-106770000D01*
X203925000Y-106770000D02*
X206031000Y-106770000D01*
X206031000Y-106770000D02*
X207047000Y-106770000D01*
X207047000Y-106770000D02*
X207391000Y-106426000D01*
X211063000Y-78533000D02*
X211016000Y-78486000D01*
X211963000Y-78533000D02*
X211063000Y-78533000D01*
X211016000Y-78486000D02*
X210439000Y-78486000D01*
X211611000Y-78181000D02*
X211963000Y-78533000D01*
X211611000Y-73203000D02*
X211611000Y-78181000D01*
X207321002Y-105283000D02*
X184785000Y-105283000D01*
X184785000Y-105283000D02*
X184785000Y-105477961D01*
X182753000Y-108928000D02*
X182774000Y-108949000D01*
X182753000Y-105791000D02*
X182753000Y-108928000D01*
X207321002Y-105283000D02*
X207899000Y-105283000D01*
X207899000Y-105283000D02*
X208661000Y-106045000D01*
X185314000Y-106278000D02*
X185314000Y-108949000D01*
X185547000Y-106045000D02*
X185314000Y-106278000D01*
X190246000Y-72009000D02*
X190261240Y-71993760D01*
X191389000Y-73152000D02*
X190246000Y-72009000D01*
X192786000Y-75438000D02*
X191389000Y-74041000D01*
X190261240Y-71993760D02*
X190261240Y-69976400D01*
X191389000Y-74041000D02*
X191389000Y-73152000D01*
X192786000Y-75438000D02*
X194183000Y-76835000D01*
X194183000Y-76835000D02*
X194437000Y-77089000D01*
X185547000Y-106045000D02*
X188341000Y-106045000D01*
X188341000Y-106045000D02*
X194183000Y-106045000D01*
X194183000Y-106045000D02*
X194183000Y-106045000D01*
X184044000Y-89169000D02*
X183007000Y-88132000D01*
X184044000Y-90919000D02*
X184044000Y-89169000D01*
X183007000Y-88132000D02*
X183007000Y-69342000D01*
X183007000Y-69342000D02*
X183515000Y-68834000D01*
X192257656Y-68834000D02*
X192024000Y-68834000D01*
X192552320Y-69128664D02*
X192257656Y-68834000D01*
X192552320Y-69976400D02*
X192552320Y-69128664D01*
X183515000Y-68834000D02*
X192024000Y-68834000D01*
X192024000Y-68834000D02*
X192151000Y-68834000D01*
X177673000Y-92690000D02*
X177694000Y-92669000D01*
X177673000Y-95758000D02*
X177673000Y-92690000D01*
X193548000Y-96081010D02*
X177996010Y-96081010D01*
X177694000Y-92669000D02*
X177694000Y-90919000D01*
X177996010Y-96081010D02*
X177673000Y-95758000D01*
X193548000Y-96081010D02*
X195268010Y-96081010D01*
X195268010Y-96081010D02*
X196215000Y-97028000D01*
X196215000Y-97028000D02*
X211455000Y-97028000D01*
X211455000Y-97028000D02*
X216789000Y-97028000D01*
X216789000Y-97028000D02*
X217170000Y-96647000D01*
X217170000Y-94742000D02*
X217608990Y-94303010D01*
X217170000Y-96647000D02*
X217170000Y-94742000D01*
X217608990Y-94303010D02*
X226637010Y-94303010D01*
X228440001Y-94578001D02*
X228854000Y-94164002D01*
X226637010Y-94303010D02*
X227469008Y-94303010D01*
X227743999Y-94578001D02*
X228440001Y-94578001D01*
X227469008Y-94303010D02*
X227743999Y-94578001D01*
X228854000Y-94164002D02*
X228854000Y-89789000D01*
X228854000Y-89789000D02*
X229108000Y-89535000D01*
X232721685Y-89535000D02*
X233610685Y-90424000D01*
X232156000Y-89535000D02*
X232721685Y-89535000D01*
X233610685Y-90424000D02*
X243332000Y-90424000D01*
X243332000Y-90424000D02*
X243713000Y-90805000D01*
X243713000Y-90805000D02*
X243713000Y-100965000D01*
X243713000Y-100965000D02*
X244221000Y-101473000D01*
X176424000Y-92669000D02*
X176424000Y-90919000D01*
X176403000Y-92690000D02*
X176424000Y-92669000D01*
X176403000Y-96139000D02*
X176403000Y-92690000D01*
X183134000Y-96531020D02*
X176795020Y-96531020D01*
X176795020Y-96531020D02*
X176403000Y-96139000D01*
X183134000Y-96531020D02*
X195081610Y-96531020D01*
X195081610Y-96531020D02*
X196028600Y-97478010D01*
X196028600Y-97478010D02*
X205740000Y-97478010D01*
X205740000Y-97478010D02*
X211582000Y-97478010D01*
X216975401Y-97478009D02*
X217620010Y-96833400D01*
X211582000Y-97478010D02*
X216975401Y-97478009D01*
X217620010Y-95053990D02*
X217920980Y-94753020D01*
X217620010Y-96833400D02*
X217620010Y-95053990D01*
X217920980Y-94753020D02*
X220345000Y-94753020D01*
X220345000Y-94753020D02*
X226452020Y-94753020D01*
X228626402Y-95028010D02*
X229304010Y-94350402D01*
X226452020Y-94753020D02*
X227282608Y-94753020D01*
X227557599Y-95028011D02*
X228626402Y-95028010D01*
X227282608Y-94753020D02*
X227557599Y-95028011D01*
X229304010Y-94350402D02*
X229304010Y-90608990D01*
X229304010Y-90608990D02*
X229545949Y-90367051D01*
X229545949Y-90367051D02*
X229662701Y-90367051D01*
X232721685Y-90535003D02*
X233118682Y-90932000D01*
X232156000Y-90535003D02*
X232721685Y-90535003D01*
X233118682Y-90932000D02*
X242316000Y-90932000D01*
X242316000Y-90932000D02*
X242697000Y-91313000D01*
X244475000Y-91567000D02*
X244475000Y-98552000D01*
X244475000Y-98552000D02*
X244856000Y-98933000D01*
X221477000Y-114401000D02*
X221488000Y-114390000D01*
X221477000Y-115526000D02*
X221477000Y-114401000D01*
X221488000Y-114390000D02*
X221488000Y-113919000D01*
X193350000Y-117159000D02*
X193350000Y-116034000D01*
X175154000Y-111908000D02*
X175154000Y-108949000D01*
X176610000Y-113364000D02*
X176593500Y-113347500D01*
X213614000Y-113919000D02*
X221488000Y-113919000D01*
X213233000Y-114300000D02*
X213614000Y-113919000D01*
X212990020Y-118225980D02*
X213233000Y-117983000D01*
X199261590Y-118745000D02*
X199780609Y-118225981D01*
X199780609Y-118225981D02*
X212990020Y-118225980D01*
X213233000Y-117983000D02*
X213233000Y-114300000D01*
X193350000Y-118674000D02*
X193421000Y-118745000D01*
X193350000Y-118420000D02*
X193350000Y-118674000D01*
X193350000Y-118547000D02*
X193350000Y-118420000D01*
X193350000Y-118420000D02*
X193350000Y-117159000D01*
X193421000Y-118745000D02*
X199261590Y-118745000D01*
X176610000Y-118745000D02*
X193421000Y-118745000D01*
X239014000Y-103267000D02*
X239014000Y-106426000D01*
X239014000Y-107569000D02*
X239014000Y-109070000D01*
X238993009Y-107589991D02*
X239014000Y-107569000D01*
X221488000Y-107950000D02*
X221488000Y-107950000D01*
X239014000Y-106426000D02*
X239014000Y-107569000D01*
X221848009Y-107589991D02*
X238993009Y-107589991D01*
X239014000Y-109070000D02*
X239014000Y-115570000D01*
X221488000Y-113919000D02*
X221488000Y-113919000D01*
X221488000Y-107950000D02*
X221848009Y-107589991D01*
X176593500Y-113347500D02*
X175154000Y-111908000D01*
X176610000Y-125449000D02*
X176637000Y-125476000D01*
X176610000Y-122936000D02*
X176610000Y-125449000D01*
X176610000Y-118745000D02*
X176610000Y-122936000D01*
X189124000Y-95144000D02*
X189124000Y-90919000D01*
X200326000Y-95631000D02*
X198501000Y-95631000D01*
X189611000Y-95631000D02*
X189124000Y-95144000D01*
X198501000Y-95631000D02*
X189611000Y-95631000D01*
X234569000Y-102489000D02*
X234950000Y-102108000D01*
X211868010Y-98203010D02*
X212090000Y-98425000D01*
X199009000Y-98203010D02*
X211868010Y-98203010D01*
X212090000Y-98425000D02*
X212090000Y-101981000D01*
X234950000Y-102108000D02*
X234950000Y-99203000D01*
X212090000Y-101981000D02*
X212598000Y-102489000D01*
X212598000Y-102489000D02*
X234569000Y-102489000D01*
X180234000Y-113352000D02*
X180340000Y-113458000D01*
X230450000Y-114178787D02*
X230450000Y-109093000D01*
X230450000Y-115593000D02*
X230450000Y-114178787D01*
X180702998Y-113175002D02*
X180420000Y-113458000D01*
X180420000Y-113458000D02*
X180340000Y-113458000D01*
X180895000Y-112903000D02*
X180340000Y-113458000D01*
X230450000Y-113737000D02*
X229616000Y-112903000D01*
X180340000Y-112649000D02*
X180234000Y-112543000D01*
X230450000Y-115593000D02*
X230450000Y-113737000D01*
X229616000Y-112903000D02*
X221430998Y-112903000D01*
X180234000Y-108949000D02*
X180234000Y-112543000D01*
X221430998Y-112903000D02*
X221049998Y-113284000D01*
X180234000Y-112543000D02*
X180234000Y-113352000D01*
X221049998Y-113284000D02*
X192540948Y-113284000D01*
X192159948Y-112903000D02*
X192151000Y-112903000D01*
X192540948Y-113284000D02*
X192159948Y-112903000D01*
X191897000Y-112649000D02*
X180340000Y-112649000D01*
X192151000Y-112903000D02*
X191897000Y-112649000D01*
X210166000Y-86294000D02*
X210232000Y-86360000D01*
X204867000Y-86294000D02*
X210166000Y-86294000D01*
X181504000Y-89169000D02*
X181483000Y-89148000D01*
X181504000Y-90919000D02*
X181504000Y-89169000D01*
X181483000Y-89148000D02*
X181483000Y-88773000D01*
X181483000Y-88773000D02*
X181737000Y-88519000D01*
X193712000Y-88519000D02*
X204470000Y-88519000D01*
X204867000Y-88122000D02*
X204867000Y-86294000D01*
X204470000Y-88519000D02*
X204867000Y-88122000D01*
X206867000Y-84694000D02*
X206867000Y-85344000D01*
X207614000Y-83947000D02*
X206867000Y-84694000D01*
X210232000Y-83947000D02*
X207614000Y-83947000D01*
X223427000Y-122726000D02*
X223427000Y-124299000D01*
X210232000Y-83947000D02*
X210232000Y-82439500D01*
X195300000Y-117159000D02*
X195300000Y-116034000D01*
X204089000Y-117500980D02*
X199618020Y-117500980D01*
X199618020Y-117500980D02*
X198882000Y-118237000D01*
X198882000Y-118237000D02*
X195580000Y-118237000D01*
X195300000Y-117957000D02*
X195300000Y-117159000D01*
X195580000Y-118237000D02*
X195300000Y-117957000D01*
X206867000Y-85344000D02*
X206167000Y-85344000D01*
X206167000Y-85344000D02*
X198501000Y-85344000D01*
X188595000Y-84159000D02*
X188666000Y-84230000D01*
X188595000Y-82677000D02*
X188595000Y-84159000D01*
X194564000Y-82931000D02*
X194564000Y-85217000D01*
X194691000Y-85344000D02*
X198501000Y-85344000D01*
X194564000Y-85217000D02*
X194691000Y-85344000D01*
X194310000Y-82677000D02*
X194310000Y-82677000D01*
X194310000Y-82677000D02*
X194564000Y-82931000D01*
X194310000Y-82677000D02*
X192532000Y-82677000D01*
X185416000Y-84230000D02*
X185416000Y-86419500D01*
X175154000Y-89169000D02*
X175133000Y-89148000D01*
X175154000Y-90919000D02*
X175154000Y-89169000D01*
X175133000Y-89148000D02*
X175133000Y-86741000D01*
X175133000Y-86741000D02*
X175387000Y-86487000D01*
X185416000Y-79305000D02*
X185420000Y-79309000D01*
X185416000Y-78330000D02*
X185416000Y-79305000D01*
X185420000Y-79309000D02*
X185420000Y-79756000D01*
X178964000Y-89169000D02*
X178943000Y-89148000D01*
X178964000Y-90919000D02*
X178964000Y-89169000D01*
X178943000Y-89148000D02*
X178943000Y-80391000D01*
X178943000Y-80391000D02*
X179197000Y-80137000D01*
X179197000Y-80137000D02*
X179197000Y-80137000D01*
X191262000Y-84234000D02*
X191266000Y-84230000D01*
X173863000Y-90898000D02*
X173884000Y-90919000D01*
X173884000Y-90919000D02*
X173884000Y-88159000D01*
X191266000Y-87499000D02*
X191262000Y-87503000D01*
X191266000Y-87753000D02*
X191262000Y-87757000D01*
X191266000Y-84230000D02*
X191266000Y-87753000D01*
X174244000Y-87799000D02*
X173884000Y-88159000D01*
X174244000Y-87757000D02*
X174244000Y-87799000D01*
X233553000Y-83058000D02*
X233553000Y-84756000D01*
X208003961Y-104752961D02*
X184426039Y-104752961D01*
X184044000Y-105135000D02*
X184044000Y-108949000D01*
X184426039Y-104752961D02*
X184044000Y-105135000D01*
X208003961Y-104752961D02*
X225402961Y-104752961D01*
X225402961Y-104752961D02*
X227307961Y-104752961D01*
X227307961Y-104752961D02*
X233321039Y-104752961D01*
X198120000Y-112649000D02*
X198120000Y-112649000D01*
X182774000Y-92669000D02*
X182753000Y-92690000D01*
X182774000Y-90919000D02*
X182774000Y-92669000D01*
X182753000Y-92690000D02*
X182753000Y-93853000D01*
X183007000Y-100330000D02*
X197739000Y-100330000D01*
X197739000Y-100330000D02*
X198120000Y-100711000D01*
X198120000Y-112395000D02*
X197775999Y-112739001D01*
X196247999Y-112739001D02*
X195834000Y-112325002D01*
X197775999Y-112739001D02*
X196247999Y-112739001D01*
X195834000Y-112325002D02*
X192982998Y-112325002D01*
X192982998Y-112325002D02*
X192843062Y-112464938D01*
X192843062Y-112464938D02*
X192843062Y-112513112D01*
X192700000Y-114443062D02*
X192843062Y-114300000D01*
X192700000Y-115907000D02*
X192700000Y-114443062D01*
X221477000Y-122726000D02*
X221477000Y-126249000D01*
X221477000Y-126249000D02*
X221477000Y-126414100D01*
X221477000Y-126414100D02*
X221364840Y-126526260D01*
X191694000Y-93650000D02*
X191694000Y-90949000D01*
X227838000Y-93853000D02*
X191897000Y-93853000D01*
X191897000Y-93853000D02*
X191694000Y-93650000D01*
X222701999Y-123119001D02*
X222701999Y-124911999D01*
X222777000Y-122726000D02*
X222777000Y-123044000D01*
X222777000Y-123044000D02*
X222701999Y-123119001D01*
X222701999Y-124911999D02*
X222864178Y-125074178D01*
X222864178Y-125074178D02*
X222864178Y-125125580D01*
X195950000Y-117159000D02*
X195950000Y-116034000D01*
X196088000Y-117602000D02*
X195950000Y-117464000D01*
X199179030Y-117050970D02*
X198628000Y-117602000D01*
X201950002Y-116750000D02*
X201860002Y-116840000D01*
X201803000Y-116840000D02*
X201592030Y-117050970D01*
X198628000Y-117602000D02*
X196088000Y-117602000D01*
X202692000Y-116750000D02*
X201950002Y-116750000D01*
X195950000Y-117464000D02*
X195950000Y-117159000D01*
X201860002Y-116840000D02*
X201803000Y-116840000D01*
X201592030Y-117050970D02*
X199179030Y-117050970D01*
X188016000Y-79305000D02*
X189356000Y-80645000D01*
X188016000Y-78330000D02*
X188016000Y-79305000D01*
X189356000Y-80645000D02*
X191378995Y-80645000D01*
X191378995Y-80645000D02*
X191389000Y-80655005D01*
X193468680Y-80655005D02*
X194044675Y-80079010D01*
X192902995Y-80655005D02*
X193468680Y-80655005D01*
X194044675Y-80079010D02*
X204851000Y-80079010D01*
X204851000Y-80079010D02*
X207587010Y-80079010D01*
X207587010Y-80079010D02*
X207899000Y-80391000D01*
X207899000Y-80391000D02*
X210185000Y-80391000D01*
X210185000Y-80391000D02*
X210693000Y-79883000D01*
X210693000Y-79883000D02*
X213487000Y-79883000D01*
X213487000Y-79883000D02*
X218567000Y-79883000D01*
X218567000Y-79883000D02*
X218821000Y-80137000D01*
X218821000Y-82169000D02*
X218821000Y-88519000D01*
X218821000Y-88519000D02*
X218821000Y-88646000D01*
X222815685Y-106827991D02*
X222836676Y-106807000D01*
X222250000Y-106827991D02*
X222815685Y-106827991D01*
X222836676Y-106807000D02*
X226949000Y-106807000D01*
X191694000Y-110699000D02*
X192120000Y-111125000D01*
X191694000Y-108949000D02*
X191694000Y-110699000D01*
X192120000Y-111125000D02*
X195072000Y-111125000D01*
X195072000Y-111125000D02*
X195072000Y-111000001D01*
X195326000Y-114300000D02*
X195468000Y-114300000D01*
X195950000Y-114782000D02*
X195950000Y-115907000D01*
X195468000Y-114300000D02*
X195950000Y-114782000D01*
X222127000Y-122726000D02*
X222127000Y-125607000D01*
X222127000Y-125607000D02*
X222477272Y-125957272D01*
X222477272Y-125957272D02*
X222477272Y-126047701D01*
X212318009Y-106102991D02*
X227135401Y-106102991D01*
X196644000Y-116078000D02*
X196600000Y-116034000D01*
X201549000Y-116078000D02*
X196644000Y-116078000D01*
X211788500Y-106632500D02*
X212318009Y-106102991D01*
X188666000Y-78684000D02*
X188658500Y-78691500D01*
X188666000Y-78330000D02*
X188666000Y-78684000D01*
X188658500Y-78691500D02*
X188658500Y-79248000D01*
X188658500Y-79248000D02*
X189039500Y-79629000D01*
X189039500Y-79629000D02*
X191362998Y-79629000D01*
X191362998Y-79629000D02*
X191389000Y-79655002D01*
X192876000Y-79629000D02*
X208915000Y-79629000D01*
X208915000Y-79629000D02*
X209423000Y-79629000D01*
X187854000Y-110699000D02*
X187833000Y-110720000D01*
X187854000Y-108949000D02*
X187854000Y-110699000D01*
X187833000Y-110720000D02*
X187833000Y-111506000D01*
X188052001Y-111725001D02*
X194148001Y-111725001D01*
X187833000Y-111506000D02*
X188052001Y-111725001D01*
X196675000Y-115832000D02*
X196600000Y-115907000D01*
X227426402Y-105811990D02*
X227135401Y-106102991D01*
X227477990Y-105811990D02*
X227426402Y-105811990D01*
X194148001Y-111725001D02*
X196307001Y-111725001D01*
X196307001Y-111725001D02*
X196596000Y-112014000D01*
X196596000Y-115903000D02*
X196600000Y-115907000D01*
X196596000Y-114427000D02*
X196596000Y-115903000D01*
X192050000Y-115907000D02*
X192050000Y-114072000D01*
X192050000Y-114072000D02*
X191135000Y-113157000D01*
X191135000Y-113157000D02*
X186944000Y-113157000D01*
X186944000Y-113157000D02*
X186563000Y-113538000D01*
X186563000Y-108970000D02*
X186584000Y-108949000D01*
X186563000Y-111252000D02*
X186563000Y-108970000D01*
X190616000Y-83255000D02*
X192151000Y-81720000D01*
X190616000Y-84230000D02*
X190616000Y-83255000D01*
X192151000Y-75704700D02*
X190258700Y-73812400D01*
X192151000Y-81720000D02*
X192151000Y-75704700D01*
X186066000Y-75719100D02*
X187972700Y-73812400D01*
X186066000Y-78330000D02*
X186066000Y-75719100D01*
X186066000Y-83255000D02*
X184404000Y-81593000D01*
X186066000Y-84230000D02*
X186066000Y-83255000D01*
X184404000Y-75090020D02*
X185681620Y-73812400D01*
X184404000Y-81593000D02*
X184404000Y-75090020D01*
X240872000Y-95493000D02*
X240502000Y-95123000D01*
X240872000Y-96393000D02*
X240872000Y-95493000D01*
X240502000Y-95123000D02*
X236474000Y-95123000D01*
X235900000Y-95697000D02*
X235900000Y-101203000D01*
X236474000Y-95123000D02*
X235900000Y-95697000D01*
X242316000Y-96393000D02*
X240872000Y-96393000D01*
X240872000Y-93853000D02*
X241872000Y-93853000D01*
X242316000Y-93853000D02*
X240872000Y-93853000D01*
X242840000Y-105267000D02*
X239964000Y-105267000D01*
X243041001Y-105065999D02*
X242840000Y-105267000D01*
X242316000Y-93853000D02*
X243041001Y-94578001D01*
X243041001Y-94578001D02*
X243041001Y-105065999D01*
X189316000Y-77355000D02*
X189230000Y-77269000D01*
X189316000Y-78330000D02*
X189316000Y-77355000D01*
X189230000Y-77269000D02*
X189230000Y-76708000D01*
X187833000Y-90898000D02*
X187854000Y-90919000D01*
X187833000Y-86741000D02*
X187833000Y-90898000D01*
X234000000Y-94422000D02*
X234000000Y-101203000D01*
X238172000Y-93853000D02*
X234569000Y-93853000D01*
X234569000Y-93853000D02*
X234000000Y-94422000D01*
X238172000Y-105159000D02*
X238064000Y-105267000D01*
X238172000Y-96393000D02*
X238172000Y-105159000D01*
X231743000Y-75591000D02*
X231743000Y-75597000D01*
X227203000Y-82094000D02*
X227203000Y-83344000D01*
X227203000Y-78373000D02*
X227203000Y-82094000D01*
X230112000Y-75464000D02*
X227203000Y-78373000D01*
X231870000Y-75464000D02*
X230112000Y-75464000D01*
X232591528Y-70939528D02*
X232610528Y-70939528D01*
X231743000Y-70091000D02*
X232591528Y-70939528D01*
X232610528Y-70939528D02*
X234061000Y-72390000D01*
X231682000Y-83439000D02*
X230632000Y-83439000D01*
X234061000Y-81060000D02*
X231682000Y-83439000D01*
X234061000Y-72390000D02*
X234061000Y-81060000D01*
M02*
