G04 #@! TF.GenerationSoftware,KiCad,Pcbnew,(5.1.5)-3*
G04 #@! TF.CreationDate,2021-08-25T17:47:22+12:00*
G04 #@! TF.ProjectId,PocketTRS,506f636b-6574-4545-9253-2e6b69636164,rev?*
G04 #@! TF.SameCoordinates,Original*
G04 #@! TF.FileFunction,Legend,Top*
G04 #@! TF.FilePolarity,Positive*
%FSLAX46Y46*%
G04 Gerber Fmt 4.6, Leading zero omitted, Abs format (unit mm)*
G04 Created by KiCad (PCBNEW (5.1.5)-3) date 2021-08-25 17:47:22*
%MOMM*%
%LPD*%
G04 APERTURE LIST*
%ADD10C,0.150000*%
%ADD11C,0.050000*%
%ADD12C,0.300000*%
%ADD13C,0.120000*%
%ADD14C,0.381000*%
%ADD15C,0.304800*%
G04 APERTURE END LIST*
D10*
X176752285Y-135802714D02*
X176752285Y-136469380D01*
X176514190Y-135421761D02*
X176276095Y-136136047D01*
X176895142Y-136136047D01*
X177323714Y-136469380D02*
X177514190Y-136469380D01*
X177609428Y-136421761D01*
X177657047Y-136374142D01*
X177752285Y-136231285D01*
X177799904Y-136040809D01*
X177799904Y-135659857D01*
X177752285Y-135564619D01*
X177704666Y-135517000D01*
X177609428Y-135469380D01*
X177418952Y-135469380D01*
X177323714Y-135517000D01*
X177276095Y-135564619D01*
X177228476Y-135659857D01*
X177228476Y-135897952D01*
X177276095Y-135993190D01*
X177323714Y-136040809D01*
X177418952Y-136088428D01*
X177609428Y-136088428D01*
X177704666Y-136040809D01*
X177752285Y-135993190D01*
X177799904Y-135897952D01*
X240442714Y-136469380D02*
X239871285Y-136469380D01*
X240157000Y-136469380D02*
X240157000Y-135469380D01*
X240061761Y-135612238D01*
X239966523Y-135707476D01*
X239871285Y-135755095D01*
D11*
X175260000Y-135890000D02*
X176022000Y-135890000D01*
X241808000Y-145542000D02*
X241300000Y-145542000D01*
X241808000Y-135890000D02*
X252730000Y-135890000D01*
X241808000Y-145542000D02*
X241808000Y-135890000D01*
X176022000Y-145542000D02*
X241300000Y-145542000D01*
X176022000Y-135890000D02*
X176022000Y-145542000D01*
X165100000Y-135890000D02*
X175260000Y-135890000D01*
D10*
X229362000Y-88749142D02*
X229409619Y-88796761D01*
X229362000Y-88844380D01*
X229314380Y-88796761D01*
X229362000Y-88749142D01*
X229362000Y-88844380D01*
X175514000Y-118848142D02*
X175561619Y-118895761D01*
X175514000Y-118943380D01*
X175466380Y-118895761D01*
X175514000Y-118848142D01*
X175514000Y-118943380D01*
X245745000Y-81002142D02*
X245792619Y-81049761D01*
X245745000Y-81097380D01*
X245697380Y-81049761D01*
X245745000Y-81002142D01*
X245745000Y-81097380D01*
D11*
X165100000Y-135890000D02*
X165100000Y-114046000D01*
X165100000Y-64770000D02*
X165100000Y-85852000D01*
X171323000Y-85852000D02*
X171323000Y-90805000D01*
X171323000Y-85852000D02*
X165100000Y-85852000D01*
X171323000Y-114046000D02*
X171323000Y-90805000D01*
X165100000Y-114046000D02*
X171323000Y-114046000D01*
D10*
X231171952Y-118626380D02*
X231171952Y-117626380D01*
X231552904Y-117626380D01*
X231648142Y-117674000D01*
X231695761Y-117721619D01*
X231743380Y-117816857D01*
X231743380Y-117959714D01*
X231695761Y-118054952D01*
X231648142Y-118102571D01*
X231552904Y-118150190D01*
X231171952Y-118150190D01*
X232029095Y-117626380D02*
X232600523Y-117626380D01*
X232314809Y-118626380D02*
X232314809Y-117626380D01*
X233505285Y-118626380D02*
X233171952Y-118150190D01*
X232933857Y-118626380D02*
X232933857Y-117626380D01*
X233314809Y-117626380D01*
X233410047Y-117674000D01*
X233457666Y-117721619D01*
X233505285Y-117816857D01*
X233505285Y-117959714D01*
X233457666Y-118054952D01*
X233410047Y-118102571D01*
X233314809Y-118150190D01*
X232933857Y-118150190D01*
X233886238Y-118578761D02*
X234029095Y-118626380D01*
X234267190Y-118626380D01*
X234362428Y-118578761D01*
X234410047Y-118531142D01*
X234457666Y-118435904D01*
X234457666Y-118340666D01*
X234410047Y-118245428D01*
X234362428Y-118197809D01*
X234267190Y-118150190D01*
X234076714Y-118102571D01*
X233981476Y-118054952D01*
X233933857Y-118007333D01*
X233886238Y-117912095D01*
X233886238Y-117816857D01*
X233933857Y-117721619D01*
X233981476Y-117674000D01*
X234076714Y-117626380D01*
X234314809Y-117626380D01*
X234457666Y-117674000D01*
X232243380Y-120276380D02*
X231910047Y-119800190D01*
X231671952Y-120276380D02*
X231671952Y-119276380D01*
X232052904Y-119276380D01*
X232148142Y-119324000D01*
X232195761Y-119371619D01*
X232243380Y-119466857D01*
X232243380Y-119609714D01*
X232195761Y-119704952D01*
X232148142Y-119752571D01*
X232052904Y-119800190D01*
X231671952Y-119800190D01*
X232624333Y-120228761D02*
X232767190Y-120276380D01*
X233005285Y-120276380D01*
X233100523Y-120228761D01*
X233148142Y-120181142D01*
X233195761Y-120085904D01*
X233195761Y-119990666D01*
X233148142Y-119895428D01*
X233100523Y-119847809D01*
X233005285Y-119800190D01*
X232814809Y-119752571D01*
X232719571Y-119704952D01*
X232671952Y-119657333D01*
X232624333Y-119562095D01*
X232624333Y-119466857D01*
X232671952Y-119371619D01*
X232719571Y-119324000D01*
X232814809Y-119276380D01*
X233052904Y-119276380D01*
X233195761Y-119324000D01*
X233481476Y-119276380D02*
X234052904Y-119276380D01*
X233767190Y-120276380D02*
X233767190Y-119276380D01*
X240490523Y-118102571D02*
X240823857Y-118102571D01*
X240966714Y-118626380D02*
X240490523Y-118626380D01*
X240490523Y-117626380D01*
X240966714Y-117626380D01*
X241347666Y-118578761D02*
X241490523Y-118626380D01*
X241728619Y-118626380D01*
X241823857Y-118578761D01*
X241871476Y-118531142D01*
X241919095Y-118435904D01*
X241919095Y-118340666D01*
X241871476Y-118245428D01*
X241823857Y-118197809D01*
X241728619Y-118150190D01*
X241538142Y-118102571D01*
X241442904Y-118054952D01*
X241395285Y-118007333D01*
X241347666Y-117912095D01*
X241347666Y-117816857D01*
X241395285Y-117721619D01*
X241442904Y-117674000D01*
X241538142Y-117626380D01*
X241776238Y-117626380D01*
X241919095Y-117674000D01*
X242347666Y-118626380D02*
X242347666Y-117626380D01*
X242728619Y-117626380D01*
X242823857Y-117674000D01*
X242871476Y-117721619D01*
X242919095Y-117816857D01*
X242919095Y-117959714D01*
X242871476Y-118054952D01*
X242823857Y-118102571D01*
X242728619Y-118150190D01*
X242347666Y-118150190D01*
X241133380Y-120276380D02*
X240800047Y-119800190D01*
X240561952Y-120276380D02*
X240561952Y-119276380D01*
X240942904Y-119276380D01*
X241038142Y-119324000D01*
X241085761Y-119371619D01*
X241133380Y-119466857D01*
X241133380Y-119609714D01*
X241085761Y-119704952D01*
X241038142Y-119752571D01*
X240942904Y-119800190D01*
X240561952Y-119800190D01*
X241514333Y-120228761D02*
X241657190Y-120276380D01*
X241895285Y-120276380D01*
X241990523Y-120228761D01*
X242038142Y-120181142D01*
X242085761Y-120085904D01*
X242085761Y-119990666D01*
X242038142Y-119895428D01*
X241990523Y-119847809D01*
X241895285Y-119800190D01*
X241704809Y-119752571D01*
X241609571Y-119704952D01*
X241561952Y-119657333D01*
X241514333Y-119562095D01*
X241514333Y-119466857D01*
X241561952Y-119371619D01*
X241609571Y-119324000D01*
X241704809Y-119276380D01*
X241942904Y-119276380D01*
X242085761Y-119324000D01*
X242371476Y-119276380D02*
X242942904Y-119276380D01*
X242657190Y-120276380D02*
X242657190Y-119276380D01*
X228473000Y-81891142D02*
X228520619Y-81938761D01*
X228473000Y-81986380D01*
X228425380Y-81938761D01*
X228473000Y-81891142D01*
X228473000Y-81986380D01*
X239268000Y-90019142D02*
X239315619Y-90066761D01*
X239268000Y-90114380D01*
X239220380Y-90066761D01*
X239268000Y-90019142D01*
X239268000Y-90114380D01*
X192944714Y-78684380D02*
X192373285Y-78684380D01*
X192659000Y-78684380D02*
X192659000Y-77684380D01*
X192563761Y-77827238D01*
X192468523Y-77922476D01*
X192373285Y-77970095D01*
X198278714Y-116149380D02*
X197707285Y-116149380D01*
X197993000Y-116149380D02*
X197993000Y-115149380D01*
X197897761Y-115292238D01*
X197802523Y-115387476D01*
X197707285Y-115435095D01*
X214153714Y-123388380D02*
X213582285Y-123388380D01*
X213868000Y-123388380D02*
X213868000Y-122388380D01*
X213772761Y-122531238D01*
X213677523Y-122626476D01*
X213582285Y-122674095D01*
X172878714Y-106751380D02*
X172307285Y-106751380D01*
X172593000Y-106751380D02*
X172593000Y-105751380D01*
X172497761Y-105894238D01*
X172402523Y-105989476D01*
X172307285Y-106037095D01*
D11*
X252730000Y-64770000D02*
X252730000Y-61976000D01*
X165100000Y-61976000D02*
X165100000Y-64770000D01*
D12*
X201502428Y-109639571D02*
X201502428Y-108139571D01*
X202073857Y-108139571D01*
X202216714Y-108211000D01*
X202288142Y-108282428D01*
X202359571Y-108425285D01*
X202359571Y-108639571D01*
X202288142Y-108782428D01*
X202216714Y-108853857D01*
X202073857Y-108925285D01*
X201502428Y-108925285D01*
X203216714Y-109639571D02*
X203073857Y-109568142D01*
X203002428Y-109496714D01*
X202931000Y-109353857D01*
X202931000Y-108925285D01*
X203002428Y-108782428D01*
X203073857Y-108711000D01*
X203216714Y-108639571D01*
X203431000Y-108639571D01*
X203573857Y-108711000D01*
X203645285Y-108782428D01*
X203716714Y-108925285D01*
X203716714Y-109353857D01*
X203645285Y-109496714D01*
X203573857Y-109568142D01*
X203431000Y-109639571D01*
X203216714Y-109639571D01*
X205002428Y-109568142D02*
X204859571Y-109639571D01*
X204573857Y-109639571D01*
X204431000Y-109568142D01*
X204359571Y-109496714D01*
X204288142Y-109353857D01*
X204288142Y-108925285D01*
X204359571Y-108782428D01*
X204431000Y-108711000D01*
X204573857Y-108639571D01*
X204859571Y-108639571D01*
X205002428Y-108711000D01*
X205645285Y-109639571D02*
X205645285Y-108139571D01*
X205788142Y-109068142D02*
X206216714Y-109639571D01*
X206216714Y-108639571D02*
X205645285Y-109211000D01*
X207431000Y-109568142D02*
X207288142Y-109639571D01*
X207002428Y-109639571D01*
X206859571Y-109568142D01*
X206788142Y-109425285D01*
X206788142Y-108853857D01*
X206859571Y-108711000D01*
X207002428Y-108639571D01*
X207288142Y-108639571D01*
X207431000Y-108711000D01*
X207502428Y-108853857D01*
X207502428Y-108996714D01*
X206788142Y-109139571D01*
X207931000Y-108639571D02*
X208502428Y-108639571D01*
X208145285Y-108139571D02*
X208145285Y-109425285D01*
X208216714Y-109568142D01*
X208359571Y-109639571D01*
X208502428Y-109639571D01*
X208788142Y-108139571D02*
X209645285Y-108139571D01*
X209216714Y-109639571D02*
X209216714Y-108139571D01*
X211002428Y-109639571D02*
X210502428Y-108925285D01*
X210145285Y-109639571D02*
X210145285Y-108139571D01*
X210716714Y-108139571D01*
X210859571Y-108211000D01*
X210931000Y-108282428D01*
X211002428Y-108425285D01*
X211002428Y-108639571D01*
X210931000Y-108782428D01*
X210859571Y-108853857D01*
X210716714Y-108925285D01*
X210145285Y-108925285D01*
X211573857Y-109568142D02*
X211788142Y-109639571D01*
X212145285Y-109639571D01*
X212288142Y-109568142D01*
X212359571Y-109496714D01*
X212431000Y-109353857D01*
X212431000Y-109211000D01*
X212359571Y-109068142D01*
X212288142Y-108996714D01*
X212145285Y-108925285D01*
X211859571Y-108853857D01*
X211716714Y-108782428D01*
X211645285Y-108711000D01*
X211573857Y-108568142D01*
X211573857Y-108425285D01*
X211645285Y-108282428D01*
X211716714Y-108211000D01*
X211859571Y-108139571D01*
X212216714Y-108139571D01*
X212431000Y-108211000D01*
X214002428Y-108139571D02*
X214502428Y-109639571D01*
X215002428Y-108139571D01*
X215431000Y-108282428D02*
X215502428Y-108211000D01*
X215645285Y-108139571D01*
X216002428Y-108139571D01*
X216145285Y-108211000D01*
X216216714Y-108282428D01*
X216288142Y-108425285D01*
X216288142Y-108568142D01*
X216216714Y-108782428D01*
X215359571Y-109639571D01*
X216288142Y-109639571D01*
X216931000Y-109496714D02*
X217002428Y-109568142D01*
X216931000Y-109639571D01*
X216859571Y-109568142D01*
X216931000Y-109496714D01*
X216931000Y-109639571D01*
X217502428Y-108139571D02*
X218431000Y-108139571D01*
X217931000Y-108711000D01*
X218145285Y-108711000D01*
X218288142Y-108782428D01*
X218359571Y-108853857D01*
X218431000Y-108996714D01*
X218431000Y-109353857D01*
X218359571Y-109496714D01*
X218288142Y-109568142D01*
X218145285Y-109639571D01*
X217716714Y-109639571D01*
X217573857Y-109568142D01*
X217502428Y-109496714D01*
X203073857Y-111761000D02*
X203788142Y-111761000D01*
X202931000Y-112189571D02*
X203431000Y-110689571D01*
X203931000Y-112189571D01*
X205073857Y-111189571D02*
X205073857Y-112189571D01*
X204431000Y-111189571D02*
X204431000Y-111975285D01*
X204502428Y-112118142D01*
X204645285Y-112189571D01*
X204859571Y-112189571D01*
X205002428Y-112118142D01*
X205073857Y-112046714D01*
X206431000Y-111189571D02*
X206431000Y-112403857D01*
X206359571Y-112546714D01*
X206288142Y-112618142D01*
X206145285Y-112689571D01*
X205931000Y-112689571D01*
X205788142Y-112618142D01*
X206431000Y-112118142D02*
X206288142Y-112189571D01*
X206002428Y-112189571D01*
X205859571Y-112118142D01*
X205788142Y-112046714D01*
X205716714Y-111903857D01*
X205716714Y-111475285D01*
X205788142Y-111332428D01*
X205859571Y-111261000D01*
X206002428Y-111189571D01*
X206288142Y-111189571D01*
X206431000Y-111261000D01*
X207788142Y-111189571D02*
X207788142Y-112189571D01*
X207145285Y-111189571D02*
X207145285Y-111975285D01*
X207216714Y-112118142D01*
X207359571Y-112189571D01*
X207573857Y-112189571D01*
X207716714Y-112118142D01*
X207788142Y-112046714D01*
X208431000Y-112118142D02*
X208573857Y-112189571D01*
X208859571Y-112189571D01*
X209002428Y-112118142D01*
X209073857Y-111975285D01*
X209073857Y-111903857D01*
X209002428Y-111761000D01*
X208859571Y-111689571D01*
X208645285Y-111689571D01*
X208502428Y-111618142D01*
X208431000Y-111475285D01*
X208431000Y-111403857D01*
X208502428Y-111261000D01*
X208645285Y-111189571D01*
X208859571Y-111189571D01*
X209002428Y-111261000D01*
X209502428Y-111189571D02*
X210073857Y-111189571D01*
X209716714Y-110689571D02*
X209716714Y-111975285D01*
X209788142Y-112118142D01*
X209931000Y-112189571D01*
X210073857Y-112189571D01*
X211645285Y-110832428D02*
X211716714Y-110761000D01*
X211859571Y-110689571D01*
X212216714Y-110689571D01*
X212359571Y-110761000D01*
X212431000Y-110832428D01*
X212502428Y-110975285D01*
X212502428Y-111118142D01*
X212431000Y-111332428D01*
X211573857Y-112189571D01*
X212502428Y-112189571D01*
X213431000Y-110689571D02*
X213573857Y-110689571D01*
X213716714Y-110761000D01*
X213788142Y-110832428D01*
X213859571Y-110975285D01*
X213931000Y-111261000D01*
X213931000Y-111618142D01*
X213859571Y-111903857D01*
X213788142Y-112046714D01*
X213716714Y-112118142D01*
X213573857Y-112189571D01*
X213431000Y-112189571D01*
X213288142Y-112118142D01*
X213216714Y-112046714D01*
X213145285Y-111903857D01*
X213073857Y-111618142D01*
X213073857Y-111261000D01*
X213145285Y-110975285D01*
X213216714Y-110832428D01*
X213288142Y-110761000D01*
X213431000Y-110689571D01*
X214502428Y-110832428D02*
X214573857Y-110761000D01*
X214716714Y-110689571D01*
X215073857Y-110689571D01*
X215216714Y-110761000D01*
X215288142Y-110832428D01*
X215359571Y-110975285D01*
X215359571Y-111118142D01*
X215288142Y-111332428D01*
X214431000Y-112189571D01*
X215359571Y-112189571D01*
X216788142Y-112189571D02*
X215931000Y-112189571D01*
X216359571Y-112189571D02*
X216359571Y-110689571D01*
X216216714Y-110903857D01*
X216073857Y-111046714D01*
X215931000Y-111118142D01*
D11*
X252730000Y-64770000D02*
X252730000Y-135890000D01*
D10*
X244473214Y-121880380D02*
X244806547Y-122880380D01*
X245139880Y-121880380D01*
X246044642Y-122785142D02*
X245997023Y-122832761D01*
X245854166Y-122880380D01*
X245758928Y-122880380D01*
X245616071Y-122832761D01*
X245520833Y-122737523D01*
X245473214Y-122642285D01*
X245425595Y-122451809D01*
X245425595Y-122308952D01*
X245473214Y-122118476D01*
X245520833Y-122023238D01*
X245616071Y-121928000D01*
X245758928Y-121880380D01*
X245854166Y-121880380D01*
X245997023Y-121928000D01*
X246044642Y-121975619D01*
X247044642Y-122785142D02*
X246997023Y-122832761D01*
X246854166Y-122880380D01*
X246758928Y-122880380D01*
X246616071Y-122832761D01*
X246520833Y-122737523D01*
X246473214Y-122642285D01*
X246425595Y-122451809D01*
X246425595Y-122308952D01*
X246473214Y-122118476D01*
X246520833Y-122023238D01*
X246616071Y-121928000D01*
X246758928Y-121880380D01*
X246854166Y-121880380D01*
X246997023Y-121928000D01*
X247044642Y-121975619D01*
X247949404Y-121880380D02*
X247473214Y-121880380D01*
X247425595Y-122356571D01*
X247473214Y-122308952D01*
X247568452Y-122261333D01*
X247806547Y-122261333D01*
X247901785Y-122308952D01*
X247949404Y-122356571D01*
X247997023Y-122451809D01*
X247997023Y-122689904D01*
X247949404Y-122785142D01*
X247901785Y-122832761D01*
X247806547Y-122880380D01*
X247568452Y-122880380D01*
X247473214Y-122832761D01*
X247425595Y-122785142D01*
X245441452Y-119403880D02*
X246012880Y-119403880D01*
X245727166Y-120403880D02*
X245727166Y-119403880D01*
X246250976Y-119403880D02*
X246917642Y-120403880D01*
X246917642Y-119403880D02*
X246250976Y-120403880D01*
X247298595Y-120403880D02*
X247298595Y-119403880D01*
X247536690Y-119403880D01*
X247679547Y-119451500D01*
X247774785Y-119546738D01*
X247822404Y-119641976D01*
X247870023Y-119832452D01*
X247870023Y-119975309D01*
X247822404Y-120165785D01*
X247774785Y-120261023D01*
X247679547Y-120356261D01*
X247536690Y-120403880D01*
X247298595Y-120403880D01*
X246044642Y-117800380D02*
X245711309Y-117324190D01*
X245473214Y-117800380D02*
X245473214Y-116800380D01*
X245854166Y-116800380D01*
X245949404Y-116848000D01*
X245997023Y-116895619D01*
X246044642Y-116990857D01*
X246044642Y-117133714D01*
X245997023Y-117228952D01*
X245949404Y-117276571D01*
X245854166Y-117324190D01*
X245473214Y-117324190D01*
X246377976Y-116800380D02*
X247044642Y-117800380D01*
X247044642Y-116800380D02*
X246377976Y-117800380D01*
X247425595Y-117800380D02*
X247425595Y-116800380D01*
X247663690Y-116800380D01*
X247806547Y-116848000D01*
X247901785Y-116943238D01*
X247949404Y-117038476D01*
X247997023Y-117228952D01*
X247997023Y-117371809D01*
X247949404Y-117562285D01*
X247901785Y-117657523D01*
X247806547Y-117752761D01*
X247663690Y-117800380D01*
X247425595Y-117800380D01*
X245774785Y-124404500D02*
X245679547Y-124356880D01*
X245536690Y-124356880D01*
X245393833Y-124404500D01*
X245298595Y-124499738D01*
X245250976Y-124594976D01*
X245203357Y-124785452D01*
X245203357Y-124928309D01*
X245250976Y-125118785D01*
X245298595Y-125214023D01*
X245393833Y-125309261D01*
X245536690Y-125356880D01*
X245631928Y-125356880D01*
X245774785Y-125309261D01*
X245822404Y-125261642D01*
X245822404Y-124928309D01*
X245631928Y-124928309D01*
X246250976Y-125356880D02*
X246250976Y-124356880D01*
X246822404Y-125356880D01*
X246822404Y-124356880D01*
X247298595Y-125356880D02*
X247298595Y-124356880D01*
X247536690Y-124356880D01*
X247679547Y-124404500D01*
X247774785Y-124499738D01*
X247822404Y-124594976D01*
X247870023Y-124785452D01*
X247870023Y-124928309D01*
X247822404Y-125118785D01*
X247774785Y-125214023D01*
X247679547Y-125309261D01*
X247536690Y-125356880D01*
X247298595Y-125356880D01*
X245536690Y-115196880D02*
X245536690Y-114196880D01*
X245774785Y-114196880D01*
X245917642Y-114244500D01*
X246012880Y-114339738D01*
X246060500Y-114434976D01*
X246108119Y-114625452D01*
X246108119Y-114768309D01*
X246060500Y-114958785D01*
X246012880Y-115054023D01*
X245917642Y-115149261D01*
X245774785Y-115196880D01*
X245536690Y-115196880D01*
X246393833Y-114196880D02*
X246965261Y-114196880D01*
X246679547Y-115196880D02*
X246679547Y-114196880D01*
X247870023Y-115196880D02*
X247536690Y-114720690D01*
X247298595Y-115196880D02*
X247298595Y-114196880D01*
X247679547Y-114196880D01*
X247774785Y-114244500D01*
X247822404Y-114292119D01*
X247870023Y-114387357D01*
X247870023Y-114530214D01*
X247822404Y-114625452D01*
X247774785Y-114673071D01*
X247679547Y-114720690D01*
X247298595Y-114720690D01*
X246155738Y-112656880D02*
X245822404Y-112180690D01*
X245584309Y-112656880D02*
X245584309Y-111656880D01*
X245965261Y-111656880D01*
X246060500Y-111704500D01*
X246108119Y-111752119D01*
X246155738Y-111847357D01*
X246155738Y-111990214D01*
X246108119Y-112085452D01*
X246060500Y-112133071D01*
X245965261Y-112180690D01*
X245584309Y-112180690D01*
X246441452Y-111656880D02*
X247012880Y-111656880D01*
X246727166Y-112656880D02*
X246727166Y-111656880D01*
X247298595Y-112609261D02*
X247441452Y-112656880D01*
X247679547Y-112656880D01*
X247774785Y-112609261D01*
X247822404Y-112561642D01*
X247870023Y-112466404D01*
X247870023Y-112371166D01*
X247822404Y-112275928D01*
X247774785Y-112228309D01*
X247679547Y-112180690D01*
X247489071Y-112133071D01*
X247393833Y-112085452D01*
X247346214Y-112037833D01*
X247298595Y-111942595D01*
X247298595Y-111847357D01*
X247346214Y-111752119D01*
X247393833Y-111704500D01*
X247489071Y-111656880D01*
X247727166Y-111656880D01*
X247870023Y-111704500D01*
D11*
X165100000Y-61976000D02*
X252730000Y-61976000D01*
D13*
X240725000Y-128718000D02*
X240725000Y-130048000D01*
X239395000Y-128718000D02*
X240725000Y-128718000D01*
X240725000Y-131318000D02*
X240725000Y-133918000D01*
X238125000Y-131318000D02*
X240725000Y-131318000D01*
X238125000Y-128718000D02*
X238125000Y-131318000D01*
X240725000Y-133918000D02*
X177105000Y-133918000D01*
X238125000Y-128718000D02*
X177105000Y-128718000D01*
X177105000Y-128718000D02*
X177105000Y-133918000D01*
D10*
X165100000Y-90932000D02*
X165100000Y-108966000D01*
X171069000Y-90932000D02*
X165100000Y-90932000D01*
X171069000Y-108966000D02*
X165100000Y-108966000D01*
D11*
X196654000Y-108949000D02*
X171124000Y-108949000D01*
X171124000Y-108949000D02*
X171124000Y-90949000D01*
X171124000Y-90949000D02*
X196654000Y-90949000D01*
X196654000Y-90949000D02*
X196654000Y-108949000D01*
D13*
X248606000Y-110938000D02*
X249936000Y-110938000D01*
X248606000Y-112268000D02*
X248606000Y-110938000D01*
X248606000Y-113538000D02*
X251266000Y-113538000D01*
X251266000Y-113538000D02*
X251266000Y-126298000D01*
X248606000Y-113538000D02*
X248606000Y-126298000D01*
X248606000Y-126298000D02*
X251266000Y-126298000D01*
X244075000Y-74640000D02*
X244075000Y-80650000D01*
X237255000Y-76890000D02*
X237255000Y-80650000D01*
X244075000Y-80650000D02*
X242815000Y-80650000D01*
X237255000Y-80650000D02*
X238515000Y-80650000D01*
X231482000Y-93591000D02*
X231482000Y-92591000D01*
X229782000Y-92591000D02*
X229782000Y-93591000D01*
X245868000Y-76597000D02*
X245868000Y-78597000D01*
X247908000Y-78597000D02*
X247908000Y-76597000D01*
X241729000Y-89793000D02*
X243729000Y-89793000D01*
X243729000Y-87753000D02*
X241729000Y-87753000D01*
X188810000Y-122293000D02*
X188810000Y-121293000D01*
X187110000Y-121293000D02*
X187110000Y-122293000D01*
X231275000Y-127215000D02*
X232275000Y-127215000D01*
X232275000Y-125515000D02*
X231275000Y-125515000D01*
X197624000Y-80557000D02*
X196624000Y-80557000D01*
X196624000Y-82257000D02*
X197624000Y-82257000D01*
X173093000Y-116244000D02*
X172093000Y-116244000D01*
X172093000Y-117944000D02*
X173093000Y-117944000D01*
X175887000Y-124626000D02*
X174887000Y-124626000D01*
X174887000Y-126326000D02*
X175887000Y-126326000D01*
X211083000Y-80483000D02*
X211083000Y-79283000D01*
X212843000Y-79283000D02*
X212843000Y-80483000D01*
X216907000Y-79283000D02*
X216907000Y-80483000D01*
X215147000Y-80483000D02*
X215147000Y-79283000D01*
X221860000Y-85506000D02*
X221860000Y-86706000D01*
X220100000Y-86706000D02*
X220100000Y-85506000D01*
X224654000Y-85506000D02*
X224654000Y-86706000D01*
X222894000Y-86706000D02*
X222894000Y-85506000D01*
X234433000Y-85459000D02*
X234433000Y-86659000D01*
X232673000Y-86659000D02*
X232673000Y-85459000D01*
X235340000Y-86659000D02*
X235340000Y-85459000D01*
X237100000Y-85459000D02*
X237100000Y-86659000D01*
X212182000Y-87240000D02*
X210982000Y-87240000D01*
X210982000Y-85480000D02*
X212182000Y-85480000D01*
X210982000Y-83067000D02*
X212182000Y-83067000D01*
X212182000Y-84827000D02*
X210982000Y-84827000D01*
X202276000Y-96765000D02*
X201076000Y-96765000D01*
X201076000Y-95005000D02*
X202276000Y-95005000D01*
X174660000Y-122056000D02*
X175860000Y-122056000D01*
X175860000Y-123816000D02*
X174660000Y-123816000D01*
X240122000Y-94733000D02*
X238922000Y-94733000D01*
X238922000Y-92973000D02*
X240122000Y-92973000D01*
X240122000Y-97273000D02*
X238922000Y-97273000D01*
X238922000Y-95513000D02*
X240122000Y-95513000D01*
X179460000Y-115408000D02*
X179460000Y-114208000D01*
X181220000Y-114208000D02*
X181220000Y-115408000D01*
D10*
X214452000Y-122001000D02*
X214452000Y-123601000D01*
X224527000Y-122001000D02*
X224527000Y-116251000D01*
X213877000Y-122001000D02*
X213877000Y-116251000D01*
X224527000Y-122001000D02*
X223877000Y-122001000D01*
X224527000Y-116251000D02*
X223877000Y-116251000D01*
X213877000Y-116251000D02*
X214527000Y-116251000D01*
X213877000Y-122001000D02*
X214452000Y-122001000D01*
X191791000Y-77530000D02*
X191791000Y-83505000D01*
X184891000Y-79055000D02*
X184891000Y-83505000D01*
D13*
X206627000Y-86924000D02*
X205167000Y-86924000D01*
X206627000Y-83764000D02*
X204467000Y-83764000D01*
X206627000Y-83764000D02*
X206627000Y-84694000D01*
X206627000Y-86924000D02*
X206627000Y-85994000D01*
X236530000Y-99443000D02*
X235600000Y-99443000D01*
X233370000Y-99443000D02*
X234300000Y-99443000D01*
X233370000Y-99443000D02*
X233370000Y-101603000D01*
X236530000Y-99443000D02*
X236530000Y-100903000D01*
X240594000Y-103507000D02*
X240594000Y-104967000D01*
X237434000Y-103507000D02*
X237434000Y-105667000D01*
X237434000Y-103507000D02*
X238364000Y-103507000D01*
X240594000Y-103507000D02*
X239664000Y-103507000D01*
D10*
X197150000Y-116632000D02*
X197150000Y-115032000D01*
X189850000Y-116632000D02*
X189850000Y-122382000D01*
X197500000Y-116632000D02*
X197500000Y-122382000D01*
X189850000Y-116632000D02*
X190300000Y-116632000D01*
X189850000Y-122382000D02*
X190300000Y-122382000D01*
X197500000Y-122382000D02*
X197050000Y-122382000D01*
X197500000Y-116632000D02*
X197150000Y-116632000D01*
D13*
X172958000Y-119122000D02*
X170958000Y-119122000D01*
X170958000Y-121162000D02*
X172958000Y-121162000D01*
X229450000Y-110093000D02*
X229450000Y-114593000D01*
X233450000Y-108843000D02*
X231950000Y-108843000D01*
X235950000Y-114593000D02*
X235950000Y-110093000D01*
X231950000Y-115843000D02*
X233450000Y-115843000D01*
X242014000Y-108820000D02*
X240514000Y-108820000D01*
X238014000Y-110070000D02*
X238014000Y-114570000D01*
X240514000Y-115820000D02*
X242014000Y-115820000D01*
X244514000Y-114570000D02*
X244514000Y-110070000D01*
X228223000Y-86344000D02*
X228223000Y-84344000D01*
X226183000Y-84344000D02*
X226183000Y-86344000D01*
X229485000Y-84344000D02*
X229485000Y-86344000D01*
X231525000Y-86344000D02*
X231525000Y-84344000D01*
X223008000Y-93361000D02*
X223008000Y-95361000D01*
X225048000Y-95361000D02*
X225048000Y-93361000D01*
D14*
X200025000Y-68072000D02*
X200025000Y-62230000D01*
X200914000Y-71755000D02*
X200152000Y-70358000D01*
X204089000Y-71755000D02*
X204978000Y-70358000D01*
X199009000Y-76454000D02*
X199009000Y-68097400D01*
X205486000Y-68072000D02*
X205486000Y-76454000D01*
X174498000Y-76454000D02*
X174498000Y-68072000D01*
X174498000Y-76454000D02*
X205486000Y-76454000D01*
X180975000Y-68097400D02*
X180975000Y-76454000D01*
X175895000Y-71755000D02*
X175133000Y-70358000D01*
X179070000Y-71755000D02*
X179705000Y-70358000D01*
X179070000Y-71755000D02*
X175895000Y-71755000D01*
X204089000Y-71755000D02*
X200914000Y-71755000D01*
X175133000Y-70358000D02*
X179705000Y-70358000D01*
X179705000Y-70358000D02*
X179705000Y-70104000D01*
X179705000Y-70104000D02*
X175133000Y-70104000D01*
X175133000Y-70104000D02*
X175133000Y-70358000D01*
X200152000Y-70358000D02*
X204978000Y-70358000D01*
X204978000Y-70358000D02*
X204978000Y-70104000D01*
X204978000Y-70104000D02*
X200152000Y-70104000D01*
X200152000Y-70104000D02*
X200152000Y-70358000D01*
X178562000Y-69977000D02*
X178562000Y-72517000D01*
X178562000Y-72517000D02*
X176276000Y-72517000D01*
X176276000Y-72517000D02*
X176276000Y-69977000D01*
X203708000Y-69977000D02*
X203708000Y-72517000D01*
X203708000Y-72517000D02*
X201422000Y-72517000D01*
X201422000Y-72517000D02*
X201422000Y-69977000D01*
X201041000Y-68072000D02*
X201041000Y-62230000D01*
X204089000Y-68072000D02*
X204089000Y-62230000D01*
X175895000Y-68072000D02*
X175895000Y-62230000D01*
X178943000Y-68072000D02*
X178943000Y-62230000D01*
X179959000Y-68072000D02*
X179959000Y-62230000D01*
X179959000Y-62230000D02*
X174879000Y-62230000D01*
X174879000Y-62230000D02*
X174879000Y-67945000D01*
X205105000Y-68072000D02*
X205105000Y-62230000D01*
X205105000Y-62230000D02*
X200025000Y-62230000D01*
X198120000Y-68072000D02*
X198120000Y-62230000D01*
X198120000Y-62230000D02*
X181864000Y-62230000D01*
X181864000Y-62230000D02*
X181864000Y-68072000D01*
X205486000Y-68072000D02*
X174498000Y-68072000D01*
D13*
X228620000Y-80484000D02*
X225750000Y-80484000D01*
X225750000Y-80484000D02*
X225750000Y-66244000D01*
X225750000Y-66244000D02*
X227650000Y-66244000D01*
X227650000Y-66244000D02*
X227650000Y-62244000D01*
X227650000Y-62244000D02*
X233890000Y-62244000D01*
X233890000Y-62244000D02*
X233890000Y-66244000D01*
X233890000Y-66244000D02*
X234190000Y-66244000D01*
X234190000Y-66244000D02*
X234190000Y-80484000D01*
X234190000Y-80484000D02*
X230870000Y-80484000D01*
D10*
X208011000Y-62203000D02*
X208011000Y-74703000D01*
X208011000Y-74703000D02*
X222011000Y-74703000D01*
X222011000Y-74703000D02*
X222011000Y-62203000D01*
X222011000Y-62203000D02*
X208011000Y-62203000D01*
X208011000Y-64103000D02*
X222011000Y-64103000D01*
X241665000Y-68270000D02*
X242365000Y-68270000D01*
X242365000Y-68270000D02*
X242365000Y-67770000D01*
X236865000Y-65970000D02*
X236865000Y-67770000D01*
X236865000Y-67770000D02*
X237465000Y-67770000D01*
X244465000Y-66170000D02*
X244465000Y-67770000D01*
X244465000Y-67770000D02*
X243865000Y-67770000D01*
D13*
X189900000Y-97291000D02*
X191100000Y-97291000D01*
X191100000Y-99051000D02*
X189900000Y-99051000D01*
X213712500Y-87766000D02*
X214912500Y-87766000D01*
X214912500Y-89526000D02*
X213712500Y-89526000D01*
D10*
X241855666Y-130770380D02*
X241855666Y-131484666D01*
X241808047Y-131627523D01*
X241712809Y-131722761D01*
X241569952Y-131770380D01*
X241474714Y-131770380D01*
X242855666Y-131770380D02*
X242284238Y-131770380D01*
X242569952Y-131770380D02*
X242569952Y-130770380D01*
X242474714Y-130913238D01*
X242379476Y-131008476D01*
X242284238Y-131056095D01*
X172212095Y-93305380D02*
X172212095Y-94114904D01*
X172259714Y-94210142D01*
X172307333Y-94257761D01*
X172402571Y-94305380D01*
X172593047Y-94305380D01*
X172688285Y-94257761D01*
X172735904Y-94210142D01*
X172783523Y-94114904D01*
X172783523Y-93305380D01*
X173783523Y-94305380D02*
X173212095Y-94305380D01*
X173497809Y-94305380D02*
X173497809Y-93305380D01*
X173402571Y-93448238D01*
X173307333Y-93543476D01*
X173212095Y-93591095D01*
X249602666Y-109390380D02*
X249602666Y-110104666D01*
X249555047Y-110247523D01*
X249459809Y-110342761D01*
X249316952Y-110390380D01*
X249221714Y-110390380D01*
X250555047Y-109390380D02*
X250078857Y-109390380D01*
X250031238Y-109866571D01*
X250078857Y-109818952D01*
X250174095Y-109771333D01*
X250412190Y-109771333D01*
X250507428Y-109818952D01*
X250555047Y-109866571D01*
X250602666Y-109961809D01*
X250602666Y-110199904D01*
X250555047Y-110295142D01*
X250507428Y-110342761D01*
X250412190Y-110390380D01*
X250174095Y-110390380D01*
X250078857Y-110342761D01*
X250031238Y-110295142D01*
X240030095Y-83653380D02*
X240030095Y-84462904D01*
X240077714Y-84558142D01*
X240125333Y-84605761D01*
X240220571Y-84653380D01*
X240411047Y-84653380D01*
X240506285Y-84605761D01*
X240553904Y-84558142D01*
X240601523Y-84462904D01*
X240601523Y-83653380D01*
X241506285Y-83986714D02*
X241506285Y-84653380D01*
X241268190Y-83605761D02*
X241030095Y-84320047D01*
X241649142Y-84320047D01*
X230465333Y-96750142D02*
X230417714Y-96797761D01*
X230274857Y-96845380D01*
X230179619Y-96845380D01*
X230036761Y-96797761D01*
X229941523Y-96702523D01*
X229893904Y-96607285D01*
X229846285Y-96416809D01*
X229846285Y-96273952D01*
X229893904Y-96083476D01*
X229941523Y-95988238D01*
X230036761Y-95893000D01*
X230179619Y-95845380D01*
X230274857Y-95845380D01*
X230417714Y-95893000D01*
X230465333Y-95940619D01*
X230798666Y-95845380D02*
X231417714Y-95845380D01*
X231084380Y-96226333D01*
X231227238Y-96226333D01*
X231322476Y-96273952D01*
X231370095Y-96321571D01*
X231417714Y-96416809D01*
X231417714Y-96654904D01*
X231370095Y-96750142D01*
X231322476Y-96797761D01*
X231227238Y-96845380D01*
X230941523Y-96845380D01*
X230846285Y-96797761D01*
X230798666Y-96750142D01*
X248880333Y-78335142D02*
X248832714Y-78382761D01*
X248689857Y-78430380D01*
X248594619Y-78430380D01*
X248451761Y-78382761D01*
X248356523Y-78287523D01*
X248308904Y-78192285D01*
X248261285Y-78001809D01*
X248261285Y-77858952D01*
X248308904Y-77668476D01*
X248356523Y-77573238D01*
X248451761Y-77478000D01*
X248594619Y-77430380D01*
X248689857Y-77430380D01*
X248832714Y-77478000D01*
X248880333Y-77525619D01*
X249737476Y-77763714D02*
X249737476Y-78430380D01*
X249499380Y-77382761D02*
X249261285Y-78097047D01*
X249880333Y-78097047D01*
X242403333Y-91543142D02*
X242355714Y-91590761D01*
X242212857Y-91638380D01*
X242117619Y-91638380D01*
X241974761Y-91590761D01*
X241879523Y-91495523D01*
X241831904Y-91400285D01*
X241784285Y-91209809D01*
X241784285Y-91066952D01*
X241831904Y-90876476D01*
X241879523Y-90781238D01*
X241974761Y-90686000D01*
X242117619Y-90638380D01*
X242212857Y-90638380D01*
X242355714Y-90686000D01*
X242403333Y-90733619D01*
X243308095Y-90638380D02*
X242831904Y-90638380D01*
X242784285Y-91114571D01*
X242831904Y-91066952D01*
X242927142Y-91019333D01*
X243165238Y-91019333D01*
X243260476Y-91066952D01*
X243308095Y-91114571D01*
X243355714Y-91209809D01*
X243355714Y-91447904D01*
X243308095Y-91543142D01*
X243260476Y-91590761D01*
X243165238Y-91638380D01*
X242927142Y-91638380D01*
X242831904Y-91590761D01*
X242784285Y-91543142D01*
X187793333Y-118848142D02*
X187745714Y-118895761D01*
X187602857Y-118943380D01*
X187507619Y-118943380D01*
X187364761Y-118895761D01*
X187269523Y-118800523D01*
X187221904Y-118705285D01*
X187174285Y-118514809D01*
X187174285Y-118371952D01*
X187221904Y-118181476D01*
X187269523Y-118086238D01*
X187364761Y-117991000D01*
X187507619Y-117943380D01*
X187602857Y-117943380D01*
X187745714Y-117991000D01*
X187793333Y-118038619D01*
X188650476Y-117943380D02*
X188460000Y-117943380D01*
X188364761Y-117991000D01*
X188317142Y-118038619D01*
X188221904Y-118181476D01*
X188174285Y-118371952D01*
X188174285Y-118752904D01*
X188221904Y-118848142D01*
X188269523Y-118895761D01*
X188364761Y-118943380D01*
X188555238Y-118943380D01*
X188650476Y-118895761D01*
X188698095Y-118848142D01*
X188745714Y-118752904D01*
X188745714Y-118514809D01*
X188698095Y-118419571D01*
X188650476Y-118371952D01*
X188555238Y-118324333D01*
X188364761Y-118324333D01*
X188269523Y-118371952D01*
X188221904Y-118419571D01*
X188174285Y-118514809D01*
X235144333Y-126722142D02*
X235096714Y-126769761D01*
X234953857Y-126817380D01*
X234858619Y-126817380D01*
X234715761Y-126769761D01*
X234620523Y-126674523D01*
X234572904Y-126579285D01*
X234525285Y-126388809D01*
X234525285Y-126245952D01*
X234572904Y-126055476D01*
X234620523Y-125960238D01*
X234715761Y-125865000D01*
X234858619Y-125817380D01*
X234953857Y-125817380D01*
X235096714Y-125865000D01*
X235144333Y-125912619D01*
X235477666Y-125817380D02*
X236144333Y-125817380D01*
X235715761Y-126817380D01*
X196957333Y-80014142D02*
X196909714Y-80061761D01*
X196766857Y-80109380D01*
X196671619Y-80109380D01*
X196528761Y-80061761D01*
X196433523Y-79966523D01*
X196385904Y-79871285D01*
X196338285Y-79680809D01*
X196338285Y-79537952D01*
X196385904Y-79347476D01*
X196433523Y-79252238D01*
X196528761Y-79157000D01*
X196671619Y-79109380D01*
X196766857Y-79109380D01*
X196909714Y-79157000D01*
X196957333Y-79204619D01*
X197528761Y-79537952D02*
X197433523Y-79490333D01*
X197385904Y-79442714D01*
X197338285Y-79347476D01*
X197338285Y-79299857D01*
X197385904Y-79204619D01*
X197433523Y-79157000D01*
X197528761Y-79109380D01*
X197719238Y-79109380D01*
X197814476Y-79157000D01*
X197862095Y-79204619D01*
X197909714Y-79299857D01*
X197909714Y-79347476D01*
X197862095Y-79442714D01*
X197814476Y-79490333D01*
X197719238Y-79537952D01*
X197528761Y-79537952D01*
X197433523Y-79585571D01*
X197385904Y-79633190D01*
X197338285Y-79728428D01*
X197338285Y-79918904D01*
X197385904Y-80014142D01*
X197433523Y-80061761D01*
X197528761Y-80109380D01*
X197719238Y-80109380D01*
X197814476Y-80061761D01*
X197862095Y-80014142D01*
X197909714Y-79918904D01*
X197909714Y-79728428D01*
X197862095Y-79633190D01*
X197814476Y-79585571D01*
X197719238Y-79537952D01*
X168997333Y-117451142D02*
X168949714Y-117498761D01*
X168806857Y-117546380D01*
X168711619Y-117546380D01*
X168568761Y-117498761D01*
X168473523Y-117403523D01*
X168425904Y-117308285D01*
X168378285Y-117117809D01*
X168378285Y-116974952D01*
X168425904Y-116784476D01*
X168473523Y-116689238D01*
X168568761Y-116594000D01*
X168711619Y-116546380D01*
X168806857Y-116546380D01*
X168949714Y-116594000D01*
X168997333Y-116641619D01*
X169473523Y-117546380D02*
X169664000Y-117546380D01*
X169759238Y-117498761D01*
X169806857Y-117451142D01*
X169902095Y-117308285D01*
X169949714Y-117117809D01*
X169949714Y-116736857D01*
X169902095Y-116641619D01*
X169854476Y-116594000D01*
X169759238Y-116546380D01*
X169568761Y-116546380D01*
X169473523Y-116594000D01*
X169425904Y-116641619D01*
X169378285Y-116736857D01*
X169378285Y-116974952D01*
X169425904Y-117070190D01*
X169473523Y-117117809D01*
X169568761Y-117165428D01*
X169759238Y-117165428D01*
X169854476Y-117117809D01*
X169902095Y-117070190D01*
X169949714Y-116974952D01*
X170807142Y-125960142D02*
X170759523Y-126007761D01*
X170616666Y-126055380D01*
X170521428Y-126055380D01*
X170378571Y-126007761D01*
X170283333Y-125912523D01*
X170235714Y-125817285D01*
X170188095Y-125626809D01*
X170188095Y-125483952D01*
X170235714Y-125293476D01*
X170283333Y-125198238D01*
X170378571Y-125103000D01*
X170521428Y-125055380D01*
X170616666Y-125055380D01*
X170759523Y-125103000D01*
X170807142Y-125150619D01*
X171759523Y-126055380D02*
X171188095Y-126055380D01*
X171473809Y-126055380D02*
X171473809Y-125055380D01*
X171378571Y-125198238D01*
X171283333Y-125293476D01*
X171188095Y-125341095D01*
X172378571Y-125055380D02*
X172473809Y-125055380D01*
X172569047Y-125103000D01*
X172616666Y-125150619D01*
X172664285Y-125245857D01*
X172711904Y-125436333D01*
X172711904Y-125674428D01*
X172664285Y-125864904D01*
X172616666Y-125960142D01*
X172569047Y-126007761D01*
X172473809Y-126055380D01*
X172378571Y-126055380D01*
X172283333Y-126007761D01*
X172235714Y-125960142D01*
X172188095Y-125864904D01*
X172140476Y-125674428D01*
X172140476Y-125436333D01*
X172188095Y-125245857D01*
X172235714Y-125150619D01*
X172283333Y-125103000D01*
X172378571Y-125055380D01*
X213701333Y-80335380D02*
X213368000Y-79859190D01*
X213129904Y-80335380D02*
X213129904Y-79335380D01*
X213510857Y-79335380D01*
X213606095Y-79383000D01*
X213653714Y-79430619D01*
X213701333Y-79525857D01*
X213701333Y-79668714D01*
X213653714Y-79763952D01*
X213606095Y-79811571D01*
X213510857Y-79859190D01*
X213129904Y-79859190D01*
X214558476Y-79668714D02*
X214558476Y-80335380D01*
X214320380Y-79287761D02*
X214082285Y-80002047D01*
X214701333Y-80002047D01*
X217765333Y-80335380D02*
X217432000Y-79859190D01*
X217193904Y-80335380D02*
X217193904Y-79335380D01*
X217574857Y-79335380D01*
X217670095Y-79383000D01*
X217717714Y-79430619D01*
X217765333Y-79525857D01*
X217765333Y-79668714D01*
X217717714Y-79763952D01*
X217670095Y-79811571D01*
X217574857Y-79859190D01*
X217193904Y-79859190D01*
X218670095Y-79335380D02*
X218193904Y-79335380D01*
X218146285Y-79811571D01*
X218193904Y-79763952D01*
X218289142Y-79716333D01*
X218527238Y-79716333D01*
X218622476Y-79763952D01*
X218670095Y-79811571D01*
X218717714Y-79906809D01*
X218717714Y-80144904D01*
X218670095Y-80240142D01*
X218622476Y-80287761D01*
X218527238Y-80335380D01*
X218289142Y-80335380D01*
X218193904Y-80287761D01*
X218146285Y-80240142D01*
X220813333Y-90114380D02*
X220480000Y-89638190D01*
X220241904Y-90114380D02*
X220241904Y-89114380D01*
X220622857Y-89114380D01*
X220718095Y-89162000D01*
X220765714Y-89209619D01*
X220813333Y-89304857D01*
X220813333Y-89447714D01*
X220765714Y-89542952D01*
X220718095Y-89590571D01*
X220622857Y-89638190D01*
X220241904Y-89638190D01*
X221670476Y-89114380D02*
X221480000Y-89114380D01*
X221384761Y-89162000D01*
X221337142Y-89209619D01*
X221241904Y-89352476D01*
X221194285Y-89542952D01*
X221194285Y-89923904D01*
X221241904Y-90019142D01*
X221289523Y-90066761D01*
X221384761Y-90114380D01*
X221575238Y-90114380D01*
X221670476Y-90066761D01*
X221718095Y-90019142D01*
X221765714Y-89923904D01*
X221765714Y-89685809D01*
X221718095Y-89590571D01*
X221670476Y-89542952D01*
X221575238Y-89495333D01*
X221384761Y-89495333D01*
X221289523Y-89542952D01*
X221241904Y-89590571D01*
X221194285Y-89685809D01*
X223607333Y-90114380D02*
X223274000Y-89638190D01*
X223035904Y-90114380D02*
X223035904Y-89114380D01*
X223416857Y-89114380D01*
X223512095Y-89162000D01*
X223559714Y-89209619D01*
X223607333Y-89304857D01*
X223607333Y-89447714D01*
X223559714Y-89542952D01*
X223512095Y-89590571D01*
X223416857Y-89638190D01*
X223035904Y-89638190D01*
X223940666Y-89114380D02*
X224607333Y-89114380D01*
X224178761Y-90114380D01*
X233386333Y-90114380D02*
X233053000Y-89638190D01*
X232814904Y-90114380D02*
X232814904Y-89114380D01*
X233195857Y-89114380D01*
X233291095Y-89162000D01*
X233338714Y-89209619D01*
X233386333Y-89304857D01*
X233386333Y-89447714D01*
X233338714Y-89542952D01*
X233291095Y-89590571D01*
X233195857Y-89638190D01*
X232814904Y-89638190D01*
X233957761Y-89542952D02*
X233862523Y-89495333D01*
X233814904Y-89447714D01*
X233767285Y-89352476D01*
X233767285Y-89304857D01*
X233814904Y-89209619D01*
X233862523Y-89162000D01*
X233957761Y-89114380D01*
X234148238Y-89114380D01*
X234243476Y-89162000D01*
X234291095Y-89209619D01*
X234338714Y-89304857D01*
X234338714Y-89352476D01*
X234291095Y-89447714D01*
X234243476Y-89495333D01*
X234148238Y-89542952D01*
X233957761Y-89542952D01*
X233862523Y-89590571D01*
X233814904Y-89638190D01*
X233767285Y-89733428D01*
X233767285Y-89923904D01*
X233814904Y-90019142D01*
X233862523Y-90066761D01*
X233957761Y-90114380D01*
X234148238Y-90114380D01*
X234243476Y-90066761D01*
X234291095Y-90019142D01*
X234338714Y-89923904D01*
X234338714Y-89733428D01*
X234291095Y-89638190D01*
X234243476Y-89590571D01*
X234148238Y-89542952D01*
X236053333Y-90114380D02*
X235720000Y-89638190D01*
X235481904Y-90114380D02*
X235481904Y-89114380D01*
X235862857Y-89114380D01*
X235958095Y-89162000D01*
X236005714Y-89209619D01*
X236053333Y-89304857D01*
X236053333Y-89447714D01*
X236005714Y-89542952D01*
X235958095Y-89590571D01*
X235862857Y-89638190D01*
X235481904Y-89638190D01*
X236529523Y-90114380D02*
X236720000Y-90114380D01*
X236815238Y-90066761D01*
X236862857Y-90019142D01*
X236958095Y-89876285D01*
X237005714Y-89685809D01*
X237005714Y-89304857D01*
X236958095Y-89209619D01*
X236910476Y-89162000D01*
X236815238Y-89114380D01*
X236624761Y-89114380D01*
X236529523Y-89162000D01*
X236481904Y-89209619D01*
X236434285Y-89304857D01*
X236434285Y-89542952D01*
X236481904Y-89638190D01*
X236529523Y-89685809D01*
X236624761Y-89733428D01*
X236815238Y-89733428D01*
X236910476Y-89685809D01*
X236958095Y-89638190D01*
X237005714Y-89542952D01*
X215130142Y-86812380D02*
X214796809Y-86336190D01*
X214558714Y-86812380D02*
X214558714Y-85812380D01*
X214939666Y-85812380D01*
X215034904Y-85860000D01*
X215082523Y-85907619D01*
X215130142Y-86002857D01*
X215130142Y-86145714D01*
X215082523Y-86240952D01*
X215034904Y-86288571D01*
X214939666Y-86336190D01*
X214558714Y-86336190D01*
X216082523Y-86812380D02*
X215511095Y-86812380D01*
X215796809Y-86812380D02*
X215796809Y-85812380D01*
X215701571Y-85955238D01*
X215606333Y-86050476D01*
X215511095Y-86098095D01*
X216701571Y-85812380D02*
X216796809Y-85812380D01*
X216892047Y-85860000D01*
X216939666Y-85907619D01*
X216987285Y-86002857D01*
X217034904Y-86193333D01*
X217034904Y-86431428D01*
X216987285Y-86621904D01*
X216939666Y-86717142D01*
X216892047Y-86764761D01*
X216796809Y-86812380D01*
X216701571Y-86812380D01*
X216606333Y-86764761D01*
X216558714Y-86717142D01*
X216511095Y-86621904D01*
X216463476Y-86431428D01*
X216463476Y-86193333D01*
X216511095Y-86002857D01*
X216558714Y-85907619D01*
X216606333Y-85860000D01*
X216701571Y-85812380D01*
X215130142Y-84526380D02*
X214796809Y-84050190D01*
X214558714Y-84526380D02*
X214558714Y-83526380D01*
X214939666Y-83526380D01*
X215034904Y-83574000D01*
X215082523Y-83621619D01*
X215130142Y-83716857D01*
X215130142Y-83859714D01*
X215082523Y-83954952D01*
X215034904Y-84002571D01*
X214939666Y-84050190D01*
X214558714Y-84050190D01*
X216082523Y-84526380D02*
X215511095Y-84526380D01*
X215796809Y-84526380D02*
X215796809Y-83526380D01*
X215701571Y-83669238D01*
X215606333Y-83764476D01*
X215511095Y-83812095D01*
X217034904Y-84526380D02*
X216463476Y-84526380D01*
X216749190Y-84526380D02*
X216749190Y-83526380D01*
X216653952Y-83669238D01*
X216558714Y-83764476D01*
X216463476Y-83812095D01*
X204970142Y-96337380D02*
X204636809Y-95861190D01*
X204398714Y-96337380D02*
X204398714Y-95337380D01*
X204779666Y-95337380D01*
X204874904Y-95385000D01*
X204922523Y-95432619D01*
X204970142Y-95527857D01*
X204970142Y-95670714D01*
X204922523Y-95765952D01*
X204874904Y-95813571D01*
X204779666Y-95861190D01*
X204398714Y-95861190D01*
X205922523Y-96337380D02*
X205351095Y-96337380D01*
X205636809Y-96337380D02*
X205636809Y-95337380D01*
X205541571Y-95480238D01*
X205446333Y-95575476D01*
X205351095Y-95623095D01*
X206303476Y-95432619D02*
X206351095Y-95385000D01*
X206446333Y-95337380D01*
X206684428Y-95337380D01*
X206779666Y-95385000D01*
X206827285Y-95432619D01*
X206874904Y-95527857D01*
X206874904Y-95623095D01*
X206827285Y-95765952D01*
X206255857Y-96337380D01*
X206874904Y-96337380D01*
X170553142Y-123388380D02*
X170219809Y-122912190D01*
X169981714Y-123388380D02*
X169981714Y-122388380D01*
X170362666Y-122388380D01*
X170457904Y-122436000D01*
X170505523Y-122483619D01*
X170553142Y-122578857D01*
X170553142Y-122721714D01*
X170505523Y-122816952D01*
X170457904Y-122864571D01*
X170362666Y-122912190D01*
X169981714Y-122912190D01*
X171505523Y-123388380D02*
X170934095Y-123388380D01*
X171219809Y-123388380D02*
X171219809Y-122388380D01*
X171124571Y-122531238D01*
X171029333Y-122626476D01*
X170934095Y-122674095D01*
X171838857Y-122388380D02*
X172457904Y-122388380D01*
X172124571Y-122769333D01*
X172267428Y-122769333D01*
X172362666Y-122816952D01*
X172410285Y-122864571D01*
X172457904Y-122959809D01*
X172457904Y-123197904D01*
X172410285Y-123293142D01*
X172362666Y-123340761D01*
X172267428Y-123388380D01*
X171981714Y-123388380D01*
X171886476Y-123340761D01*
X171838857Y-123293142D01*
X234895142Y-94305380D02*
X234561809Y-93829190D01*
X234323714Y-94305380D02*
X234323714Y-93305380D01*
X234704666Y-93305380D01*
X234799904Y-93353000D01*
X234847523Y-93400619D01*
X234895142Y-93495857D01*
X234895142Y-93638714D01*
X234847523Y-93733952D01*
X234799904Y-93781571D01*
X234704666Y-93829190D01*
X234323714Y-93829190D01*
X235847523Y-94305380D02*
X235276095Y-94305380D01*
X235561809Y-94305380D02*
X235561809Y-93305380D01*
X235466571Y-93448238D01*
X235371333Y-93543476D01*
X235276095Y-93591095D01*
X236704666Y-93638714D02*
X236704666Y-94305380D01*
X236466571Y-93257761D02*
X236228476Y-93972047D01*
X236847523Y-93972047D01*
X234895142Y-96845380D02*
X234561809Y-96369190D01*
X234323714Y-96845380D02*
X234323714Y-95845380D01*
X234704666Y-95845380D01*
X234799904Y-95893000D01*
X234847523Y-95940619D01*
X234895142Y-96035857D01*
X234895142Y-96178714D01*
X234847523Y-96273952D01*
X234799904Y-96321571D01*
X234704666Y-96369190D01*
X234323714Y-96369190D01*
X235847523Y-96845380D02*
X235276095Y-96845380D01*
X235561809Y-96845380D02*
X235561809Y-95845380D01*
X235466571Y-95988238D01*
X235371333Y-96083476D01*
X235276095Y-96131095D01*
X236752285Y-95845380D02*
X236276095Y-95845380D01*
X236228476Y-96321571D01*
X236276095Y-96273952D01*
X236371333Y-96226333D01*
X236609428Y-96226333D01*
X236704666Y-96273952D01*
X236752285Y-96321571D01*
X236799904Y-96416809D01*
X236799904Y-96654904D01*
X236752285Y-96750142D01*
X236704666Y-96797761D01*
X236609428Y-96845380D01*
X236371333Y-96845380D01*
X236276095Y-96797761D01*
X236228476Y-96750142D01*
X177284142Y-117546380D02*
X176950809Y-117070190D01*
X176712714Y-117546380D02*
X176712714Y-116546380D01*
X177093666Y-116546380D01*
X177188904Y-116594000D01*
X177236523Y-116641619D01*
X177284142Y-116736857D01*
X177284142Y-116879714D01*
X177236523Y-116974952D01*
X177188904Y-117022571D01*
X177093666Y-117070190D01*
X176712714Y-117070190D01*
X178236523Y-117546380D02*
X177665095Y-117546380D01*
X177950809Y-117546380D02*
X177950809Y-116546380D01*
X177855571Y-116689238D01*
X177760333Y-116784476D01*
X177665095Y-116832095D01*
X179093666Y-116546380D02*
X178903190Y-116546380D01*
X178807952Y-116594000D01*
X178760333Y-116641619D01*
X178665095Y-116784476D01*
X178617476Y-116974952D01*
X178617476Y-117355904D01*
X178665095Y-117451142D01*
X178712714Y-117498761D01*
X178807952Y-117546380D01*
X178998428Y-117546380D01*
X179093666Y-117498761D01*
X179141285Y-117451142D01*
X179188904Y-117355904D01*
X179188904Y-117117809D01*
X179141285Y-117022571D01*
X179093666Y-116974952D01*
X178998428Y-116927333D01*
X178807952Y-116927333D01*
X178712714Y-116974952D01*
X178665095Y-117022571D01*
X178617476Y-117117809D01*
X211328095Y-118578380D02*
X211328095Y-119387904D01*
X211375714Y-119483142D01*
X211423333Y-119530761D01*
X211518571Y-119578380D01*
X211709047Y-119578380D01*
X211804285Y-119530761D01*
X211851904Y-119483142D01*
X211899523Y-119387904D01*
X211899523Y-118578380D01*
X212328095Y-118673619D02*
X212375714Y-118626000D01*
X212470952Y-118578380D01*
X212709047Y-118578380D01*
X212804285Y-118626000D01*
X212851904Y-118673619D01*
X212899523Y-118768857D01*
X212899523Y-118864095D01*
X212851904Y-119006952D01*
X212280476Y-119578380D01*
X212899523Y-119578380D01*
X192278095Y-80859380D02*
X192278095Y-81668904D01*
X192325714Y-81764142D01*
X192373333Y-81811761D01*
X192468571Y-81859380D01*
X192659047Y-81859380D01*
X192754285Y-81811761D01*
X192801904Y-81764142D01*
X192849523Y-81668904D01*
X192849523Y-80859380D01*
X193801904Y-80859380D02*
X193325714Y-80859380D01*
X193278095Y-81335571D01*
X193325714Y-81287952D01*
X193420952Y-81240333D01*
X193659047Y-81240333D01*
X193754285Y-81287952D01*
X193801904Y-81335571D01*
X193849523Y-81430809D01*
X193849523Y-81668904D01*
X193801904Y-81764142D01*
X193754285Y-81811761D01*
X193659047Y-81859380D01*
X193420952Y-81859380D01*
X193325714Y-81811761D01*
X193278095Y-81764142D01*
X205771761Y-83391619D02*
X205676523Y-83344000D01*
X205581285Y-83248761D01*
X205438428Y-83105904D01*
X205343190Y-83058285D01*
X205247952Y-83058285D01*
X205295571Y-83296380D02*
X205200333Y-83248761D01*
X205105095Y-83153523D01*
X205057476Y-82963047D01*
X205057476Y-82629714D01*
X205105095Y-82439238D01*
X205200333Y-82344000D01*
X205295571Y-82296380D01*
X205486047Y-82296380D01*
X205581285Y-82344000D01*
X205676523Y-82439238D01*
X205724142Y-82629714D01*
X205724142Y-82963047D01*
X205676523Y-83153523D01*
X205581285Y-83248761D01*
X205486047Y-83296380D01*
X205295571Y-83296380D01*
X206676523Y-83296380D02*
X206105095Y-83296380D01*
X206390809Y-83296380D02*
X206390809Y-82296380D01*
X206295571Y-82439238D01*
X206200333Y-82534476D01*
X206105095Y-82582095D01*
X231552761Y-100877619D02*
X231457523Y-100830000D01*
X231362285Y-100734761D01*
X231219428Y-100591904D01*
X231124190Y-100544285D01*
X231028952Y-100544285D01*
X231076571Y-100782380D02*
X230981333Y-100734761D01*
X230886095Y-100639523D01*
X230838476Y-100449047D01*
X230838476Y-100115714D01*
X230886095Y-99925238D01*
X230981333Y-99830000D01*
X231076571Y-99782380D01*
X231267047Y-99782380D01*
X231362285Y-99830000D01*
X231457523Y-99925238D01*
X231505142Y-100115714D01*
X231505142Y-100449047D01*
X231457523Y-100639523D01*
X231362285Y-100734761D01*
X231267047Y-100782380D01*
X231076571Y-100782380D01*
X231886095Y-99877619D02*
X231933714Y-99830000D01*
X232028952Y-99782380D01*
X232267047Y-99782380D01*
X232362285Y-99830000D01*
X232409904Y-99877619D01*
X232457523Y-99972857D01*
X232457523Y-100068095D01*
X232409904Y-100210952D01*
X231838476Y-100782380D01*
X232457523Y-100782380D01*
X235743761Y-104687619D02*
X235648523Y-104640000D01*
X235553285Y-104544761D01*
X235410428Y-104401904D01*
X235315190Y-104354285D01*
X235219952Y-104354285D01*
X235267571Y-104592380D02*
X235172333Y-104544761D01*
X235077095Y-104449523D01*
X235029476Y-104259047D01*
X235029476Y-103925714D01*
X235077095Y-103735238D01*
X235172333Y-103640000D01*
X235267571Y-103592380D01*
X235458047Y-103592380D01*
X235553285Y-103640000D01*
X235648523Y-103735238D01*
X235696142Y-103925714D01*
X235696142Y-104259047D01*
X235648523Y-104449523D01*
X235553285Y-104544761D01*
X235458047Y-104592380D01*
X235267571Y-104592380D01*
X236029476Y-103592380D02*
X236648523Y-103592380D01*
X236315190Y-103973333D01*
X236458047Y-103973333D01*
X236553285Y-104020952D01*
X236600904Y-104068571D01*
X236648523Y-104163809D01*
X236648523Y-104401904D01*
X236600904Y-104497142D01*
X236553285Y-104544761D01*
X236458047Y-104592380D01*
X236172333Y-104592380D01*
X236077095Y-104544761D01*
X236029476Y-104497142D01*
X199263095Y-118959380D02*
X199263095Y-119768904D01*
X199310714Y-119864142D01*
X199358333Y-119911761D01*
X199453571Y-119959380D01*
X199644047Y-119959380D01*
X199739285Y-119911761D01*
X199786904Y-119864142D01*
X199834523Y-119768904D01*
X199834523Y-118959380D01*
X200215476Y-118959380D02*
X200834523Y-118959380D01*
X200501190Y-119340333D01*
X200644047Y-119340333D01*
X200739285Y-119387952D01*
X200786904Y-119435571D01*
X200834523Y-119530809D01*
X200834523Y-119768904D01*
X200786904Y-119864142D01*
X200739285Y-119911761D01*
X200644047Y-119959380D01*
X200358333Y-119959380D01*
X200263095Y-119911761D01*
X200215476Y-119864142D01*
X166489142Y-120499142D02*
X166441523Y-120546761D01*
X166298666Y-120594380D01*
X166203428Y-120594380D01*
X166060571Y-120546761D01*
X165965333Y-120451523D01*
X165917714Y-120356285D01*
X165870095Y-120165809D01*
X165870095Y-120022952D01*
X165917714Y-119832476D01*
X165965333Y-119737238D01*
X166060571Y-119642000D01*
X166203428Y-119594380D01*
X166298666Y-119594380D01*
X166441523Y-119642000D01*
X166489142Y-119689619D01*
X167441523Y-120594380D02*
X166870095Y-120594380D01*
X167155809Y-120594380D02*
X167155809Y-119594380D01*
X167060571Y-119737238D01*
X166965333Y-119832476D01*
X166870095Y-119880095D01*
X168393904Y-120594380D02*
X167822476Y-120594380D01*
X168108190Y-120594380D02*
X168108190Y-119594380D01*
X168012952Y-119737238D01*
X167917714Y-119832476D01*
X167822476Y-119880095D01*
X227163333Y-89892142D02*
X227115714Y-89939761D01*
X226972857Y-89987380D01*
X226877619Y-89987380D01*
X226734761Y-89939761D01*
X226639523Y-89844523D01*
X226591904Y-89749285D01*
X226544285Y-89558809D01*
X226544285Y-89415952D01*
X226591904Y-89225476D01*
X226639523Y-89130238D01*
X226734761Y-89035000D01*
X226877619Y-88987380D01*
X226972857Y-88987380D01*
X227115714Y-89035000D01*
X227163333Y-89082619D01*
X228115714Y-89987380D02*
X227544285Y-89987380D01*
X227830000Y-89987380D02*
X227830000Y-88987380D01*
X227734761Y-89130238D01*
X227639523Y-89225476D01*
X227544285Y-89273095D01*
X230338333Y-89892142D02*
X230290714Y-89939761D01*
X230147857Y-89987380D01*
X230052619Y-89987380D01*
X229909761Y-89939761D01*
X229814523Y-89844523D01*
X229766904Y-89749285D01*
X229719285Y-89558809D01*
X229719285Y-89415952D01*
X229766904Y-89225476D01*
X229814523Y-89130238D01*
X229909761Y-89035000D01*
X230052619Y-88987380D01*
X230147857Y-88987380D01*
X230290714Y-89035000D01*
X230338333Y-89082619D01*
X230719285Y-89082619D02*
X230766904Y-89035000D01*
X230862142Y-88987380D01*
X231100238Y-88987380D01*
X231195476Y-89035000D01*
X231243095Y-89082619D01*
X231290714Y-89177857D01*
X231290714Y-89273095D01*
X231243095Y-89415952D01*
X230671666Y-89987380D01*
X231290714Y-89987380D01*
X223385142Y-98782142D02*
X223337523Y-98829761D01*
X223194666Y-98877380D01*
X223099428Y-98877380D01*
X222956571Y-98829761D01*
X222861333Y-98734523D01*
X222813714Y-98639285D01*
X222766095Y-98448809D01*
X222766095Y-98305952D01*
X222813714Y-98115476D01*
X222861333Y-98020238D01*
X222956571Y-97925000D01*
X223099428Y-97877380D01*
X223194666Y-97877380D01*
X223337523Y-97925000D01*
X223385142Y-97972619D01*
X224337523Y-98877380D02*
X223766095Y-98877380D01*
X224051809Y-98877380D02*
X224051809Y-97877380D01*
X223956571Y-98020238D01*
X223861333Y-98115476D01*
X223766095Y-98163095D01*
X224718476Y-97972619D02*
X224766095Y-97925000D01*
X224861333Y-97877380D01*
X225099428Y-97877380D01*
X225194666Y-97925000D01*
X225242285Y-97972619D01*
X225289904Y-98067857D01*
X225289904Y-98163095D01*
X225242285Y-98305952D01*
X224670857Y-98877380D01*
X225289904Y-98877380D01*
D15*
X189484000Y-63808428D02*
X189484000Y-64897000D01*
X189411428Y-65114714D01*
X189266285Y-65259857D01*
X189048571Y-65332428D01*
X188903428Y-65332428D01*
X190862857Y-64316428D02*
X190862857Y-65332428D01*
X190500000Y-63735857D02*
X190137142Y-64824428D01*
X191080571Y-64824428D01*
D10*
X229536666Y-62825380D02*
X229536666Y-63539666D01*
X229489047Y-63682523D01*
X229393809Y-63777761D01*
X229250952Y-63825380D01*
X229155714Y-63825380D01*
X229965238Y-62920619D02*
X230012857Y-62873000D01*
X230108095Y-62825380D01*
X230346190Y-62825380D01*
X230441428Y-62873000D01*
X230489047Y-62920619D01*
X230536666Y-63015857D01*
X230536666Y-63111095D01*
X230489047Y-63253952D01*
X229917619Y-63825380D01*
X230536666Y-63825380D01*
X214677666Y-62698380D02*
X214677666Y-63412666D01*
X214630047Y-63555523D01*
X214534809Y-63650761D01*
X214391952Y-63698380D01*
X214296714Y-63698380D01*
X215058619Y-62698380D02*
X215677666Y-62698380D01*
X215344333Y-63079333D01*
X215487190Y-63079333D01*
X215582428Y-63126952D01*
X215630047Y-63174571D01*
X215677666Y-63269809D01*
X215677666Y-63507904D01*
X215630047Y-63603142D01*
X215582428Y-63650761D01*
X215487190Y-63698380D01*
X215201476Y-63698380D01*
X215106238Y-63650761D01*
X215058619Y-63603142D01*
X189857142Y-96923380D02*
X189523809Y-96447190D01*
X189285714Y-96923380D02*
X189285714Y-95923380D01*
X189666666Y-95923380D01*
X189761904Y-95971000D01*
X189809523Y-96018619D01*
X189857142Y-96113857D01*
X189857142Y-96256714D01*
X189809523Y-96351952D01*
X189761904Y-96399571D01*
X189666666Y-96447190D01*
X189285714Y-96447190D01*
X190809523Y-96923380D02*
X190238095Y-96923380D01*
X190523809Y-96923380D02*
X190523809Y-95923380D01*
X190428571Y-96066238D01*
X190333333Y-96161476D01*
X190238095Y-96209095D01*
X191142857Y-95923380D02*
X191809523Y-95923380D01*
X191380952Y-96923380D01*
X209669142Y-89098380D02*
X209335809Y-88622190D01*
X209097714Y-89098380D02*
X209097714Y-88098380D01*
X209478666Y-88098380D01*
X209573904Y-88146000D01*
X209621523Y-88193619D01*
X209669142Y-88288857D01*
X209669142Y-88431714D01*
X209621523Y-88526952D01*
X209573904Y-88574571D01*
X209478666Y-88622190D01*
X209097714Y-88622190D01*
X210050095Y-88193619D02*
X210097714Y-88146000D01*
X210192952Y-88098380D01*
X210431047Y-88098380D01*
X210526285Y-88146000D01*
X210573904Y-88193619D01*
X210621523Y-88288857D01*
X210621523Y-88384095D01*
X210573904Y-88526952D01*
X210002476Y-89098380D01*
X210621523Y-89098380D01*
X211573904Y-89098380D02*
X211002476Y-89098380D01*
X211288190Y-89098380D02*
X211288190Y-88098380D01*
X211192952Y-88241238D01*
X211097714Y-88336476D01*
X211002476Y-88384095D01*
M02*
