G04 #@! TF.GenerationSoftware,KiCad,Pcbnew,(5.1.5)-3*
G04 #@! TF.CreationDate,2020-08-02T17:39:33+12:00*
G04 #@! TF.ProjectId,PocketTRS,506f636b-6574-4545-9253-2e6b69636164,rev?*
G04 #@! TF.SameCoordinates,Original*
G04 #@! TF.FileFunction,Legend,Top*
G04 #@! TF.FilePolarity,Positive*
%FSLAX46Y46*%
G04 Gerber Fmt 4.6, Leading zero omitted, Abs format (unit mm)*
G04 Created by KiCad (PCBNEW (5.1.5)-3) date 2020-08-02 17:39:33*
%MOMM*%
%LPD*%
G04 APERTURE LIST*
%ADD10C,0.050000*%
%ADD11C,0.300000*%
%ADD12C,0.150000*%
%ADD13C,0.120000*%
%ADD14C,0.381000*%
G04 APERTURE END LIST*
D10*
X252730000Y-64770000D02*
X252730000Y-61976000D01*
X165100000Y-61976000D02*
X165100000Y-64770000D01*
D11*
X248323571Y-116704142D02*
X246823571Y-116704142D01*
X246823571Y-116132714D01*
X246895000Y-115989857D01*
X246966428Y-115918428D01*
X247109285Y-115847000D01*
X247323571Y-115847000D01*
X247466428Y-115918428D01*
X247537857Y-115989857D01*
X247609285Y-116132714D01*
X247609285Y-116704142D01*
X248323571Y-114989857D02*
X248252142Y-115132714D01*
X248180714Y-115204142D01*
X248037857Y-115275571D01*
X247609285Y-115275571D01*
X247466428Y-115204142D01*
X247395000Y-115132714D01*
X247323571Y-114989857D01*
X247323571Y-114775571D01*
X247395000Y-114632714D01*
X247466428Y-114561285D01*
X247609285Y-114489857D01*
X248037857Y-114489857D01*
X248180714Y-114561285D01*
X248252142Y-114632714D01*
X248323571Y-114775571D01*
X248323571Y-114989857D01*
X248252142Y-113204142D02*
X248323571Y-113347000D01*
X248323571Y-113632714D01*
X248252142Y-113775571D01*
X248180714Y-113847000D01*
X248037857Y-113918428D01*
X247609285Y-113918428D01*
X247466428Y-113847000D01*
X247395000Y-113775571D01*
X247323571Y-113632714D01*
X247323571Y-113347000D01*
X247395000Y-113204142D01*
X248323571Y-112561285D02*
X246823571Y-112561285D01*
X247752142Y-112418428D02*
X248323571Y-111989857D01*
X247323571Y-111989857D02*
X247895000Y-112561285D01*
X248252142Y-110775571D02*
X248323571Y-110918428D01*
X248323571Y-111204142D01*
X248252142Y-111347000D01*
X248109285Y-111418428D01*
X247537857Y-111418428D01*
X247395000Y-111347000D01*
X247323571Y-111204142D01*
X247323571Y-110918428D01*
X247395000Y-110775571D01*
X247537857Y-110704142D01*
X247680714Y-110704142D01*
X247823571Y-111418428D01*
X247323571Y-110275571D02*
X247323571Y-109704142D01*
X246823571Y-110061285D02*
X248109285Y-110061285D01*
X248252142Y-109989857D01*
X248323571Y-109847000D01*
X248323571Y-109704142D01*
X246823571Y-109418428D02*
X246823571Y-108561285D01*
X248323571Y-108989857D02*
X246823571Y-108989857D01*
X248323571Y-107204142D02*
X247609285Y-107704142D01*
X248323571Y-108061285D02*
X246823571Y-108061285D01*
X246823571Y-107489857D01*
X246895000Y-107347000D01*
X246966428Y-107275571D01*
X247109285Y-107204142D01*
X247323571Y-107204142D01*
X247466428Y-107275571D01*
X247537857Y-107347000D01*
X247609285Y-107489857D01*
X247609285Y-108061285D01*
X248252142Y-106632714D02*
X248323571Y-106418428D01*
X248323571Y-106061285D01*
X248252142Y-105918428D01*
X248180714Y-105847000D01*
X248037857Y-105775571D01*
X247895000Y-105775571D01*
X247752142Y-105847000D01*
X247680714Y-105918428D01*
X247609285Y-106061285D01*
X247537857Y-106347000D01*
X247466428Y-106489857D01*
X247395000Y-106561285D01*
X247252142Y-106632714D01*
X247109285Y-106632714D01*
X246966428Y-106561285D01*
X246895000Y-106489857D01*
X246823571Y-106347000D01*
X246823571Y-105989857D01*
X246895000Y-105775571D01*
X246823571Y-104204142D02*
X248323571Y-103704142D01*
X246823571Y-103204142D01*
X246966428Y-102775571D02*
X246895000Y-102704142D01*
X246823571Y-102561285D01*
X246823571Y-102204142D01*
X246895000Y-102061285D01*
X246966428Y-101989857D01*
X247109285Y-101918428D01*
X247252142Y-101918428D01*
X247466428Y-101989857D01*
X248323571Y-102847000D01*
X248323571Y-101918428D01*
X249373571Y-114204142D02*
X250445000Y-114204142D01*
X250659285Y-114275571D01*
X250802142Y-114418428D01*
X250873571Y-114632714D01*
X250873571Y-114775571D01*
X249873571Y-112847000D02*
X250873571Y-112847000D01*
X249873571Y-113489857D02*
X250659285Y-113489857D01*
X250802142Y-113418428D01*
X250873571Y-113275571D01*
X250873571Y-113061285D01*
X250802142Y-112918428D01*
X250730714Y-112847000D01*
X250873571Y-111918428D02*
X250802142Y-112061285D01*
X250659285Y-112132714D01*
X249373571Y-112132714D01*
X249873571Y-111489857D02*
X250873571Y-111132714D01*
X249873571Y-110775571D02*
X250873571Y-111132714D01*
X251230714Y-111275571D01*
X251302142Y-111347000D01*
X251373571Y-111489857D01*
X249516428Y-109132714D02*
X249445000Y-109061285D01*
X249373571Y-108918428D01*
X249373571Y-108561285D01*
X249445000Y-108418428D01*
X249516428Y-108347000D01*
X249659285Y-108275571D01*
X249802142Y-108275571D01*
X250016428Y-108347000D01*
X250873571Y-109204142D01*
X250873571Y-108275571D01*
X249373571Y-107347000D02*
X249373571Y-107204142D01*
X249445000Y-107061285D01*
X249516428Y-106989857D01*
X249659285Y-106918428D01*
X249945000Y-106847000D01*
X250302142Y-106847000D01*
X250587857Y-106918428D01*
X250730714Y-106989857D01*
X250802142Y-107061285D01*
X250873571Y-107204142D01*
X250873571Y-107347000D01*
X250802142Y-107489857D01*
X250730714Y-107561285D01*
X250587857Y-107632714D01*
X250302142Y-107704142D01*
X249945000Y-107704142D01*
X249659285Y-107632714D01*
X249516428Y-107561285D01*
X249445000Y-107489857D01*
X249373571Y-107347000D01*
X249516428Y-106275571D02*
X249445000Y-106204142D01*
X249373571Y-106061285D01*
X249373571Y-105704142D01*
X249445000Y-105561285D01*
X249516428Y-105489857D01*
X249659285Y-105418428D01*
X249802142Y-105418428D01*
X250016428Y-105489857D01*
X250873571Y-106347000D01*
X250873571Y-105418428D01*
X249373571Y-104489857D02*
X249373571Y-104347000D01*
X249445000Y-104204142D01*
X249516428Y-104132714D01*
X249659285Y-104061285D01*
X249945000Y-103989857D01*
X250302142Y-103989857D01*
X250587857Y-104061285D01*
X250730714Y-104132714D01*
X250802142Y-104204142D01*
X250873571Y-104347000D01*
X250873571Y-104489857D01*
X250802142Y-104632714D01*
X250730714Y-104704142D01*
X250587857Y-104775571D01*
X250302142Y-104847000D01*
X249945000Y-104847000D01*
X249659285Y-104775571D01*
X249516428Y-104704142D01*
X249445000Y-104632714D01*
X249373571Y-104489857D01*
D10*
X252730000Y-135890000D02*
X165100000Y-135890000D01*
X252730000Y-64770000D02*
X252730000Y-135890000D01*
D12*
X170372738Y-102703380D02*
X170706071Y-103703380D01*
X171039404Y-102703380D01*
X171944166Y-103608142D02*
X171896547Y-103655761D01*
X171753690Y-103703380D01*
X171658452Y-103703380D01*
X171515595Y-103655761D01*
X171420357Y-103560523D01*
X171372738Y-103465285D01*
X171325119Y-103274809D01*
X171325119Y-103131952D01*
X171372738Y-102941476D01*
X171420357Y-102846238D01*
X171515595Y-102751000D01*
X171658452Y-102703380D01*
X171753690Y-102703380D01*
X171896547Y-102751000D01*
X171944166Y-102798619D01*
X172944166Y-103608142D02*
X172896547Y-103655761D01*
X172753690Y-103703380D01*
X172658452Y-103703380D01*
X172515595Y-103655761D01*
X172420357Y-103560523D01*
X172372738Y-103465285D01*
X172325119Y-103274809D01*
X172325119Y-103131952D01*
X172372738Y-102941476D01*
X172420357Y-102846238D01*
X172515595Y-102751000D01*
X172658452Y-102703380D01*
X172753690Y-102703380D01*
X172896547Y-102751000D01*
X172944166Y-102798619D01*
X173848928Y-102703380D02*
X173372738Y-102703380D01*
X173325119Y-103179571D01*
X173372738Y-103131952D01*
X173467976Y-103084333D01*
X173706071Y-103084333D01*
X173801309Y-103131952D01*
X173848928Y-103179571D01*
X173896547Y-103274809D01*
X173896547Y-103512904D01*
X173848928Y-103608142D01*
X173801309Y-103655761D01*
X173706071Y-103703380D01*
X173467976Y-103703380D01*
X173372738Y-103655761D01*
X173325119Y-103608142D01*
X170245738Y-100036380D02*
X170817166Y-100036380D01*
X170531452Y-101036380D02*
X170531452Y-100036380D01*
X171055261Y-100036380D02*
X171721928Y-101036380D01*
X171721928Y-100036380D02*
X171055261Y-101036380D01*
X172102880Y-101036380D02*
X172102880Y-100036380D01*
X172340976Y-100036380D01*
X172483833Y-100084000D01*
X172579071Y-100179238D01*
X172626690Y-100274476D01*
X172674309Y-100464952D01*
X172674309Y-100607809D01*
X172626690Y-100798285D01*
X172579071Y-100893523D01*
X172483833Y-100988761D01*
X172340976Y-101036380D01*
X172102880Y-101036380D01*
X171087023Y-98623380D02*
X170753690Y-98147190D01*
X170515595Y-98623380D02*
X170515595Y-97623380D01*
X170896547Y-97623380D01*
X170991785Y-97671000D01*
X171039404Y-97718619D01*
X171087023Y-97813857D01*
X171087023Y-97956714D01*
X171039404Y-98051952D01*
X170991785Y-98099571D01*
X170896547Y-98147190D01*
X170515595Y-98147190D01*
X171420357Y-97623380D02*
X172087023Y-98623380D01*
X172087023Y-97623380D02*
X171420357Y-98623380D01*
X172467976Y-98623380D02*
X172467976Y-97623380D01*
X172706071Y-97623380D01*
X172848928Y-97671000D01*
X172944166Y-97766238D01*
X172991785Y-97861476D01*
X173039404Y-98051952D01*
X173039404Y-98194809D01*
X172991785Y-98385285D01*
X172944166Y-98480523D01*
X172848928Y-98575761D01*
X172706071Y-98623380D01*
X172467976Y-98623380D01*
X170912404Y-105291000D02*
X170817166Y-105243380D01*
X170674309Y-105243380D01*
X170531452Y-105291000D01*
X170436214Y-105386238D01*
X170388595Y-105481476D01*
X170340976Y-105671952D01*
X170340976Y-105814809D01*
X170388595Y-106005285D01*
X170436214Y-106100523D01*
X170531452Y-106195761D01*
X170674309Y-106243380D01*
X170769547Y-106243380D01*
X170912404Y-106195761D01*
X170960023Y-106148142D01*
X170960023Y-105814809D01*
X170769547Y-105814809D01*
X171388595Y-106243380D02*
X171388595Y-105243380D01*
X171960023Y-106243380D01*
X171960023Y-105243380D01*
X172436214Y-106243380D02*
X172436214Y-105243380D01*
X172674309Y-105243380D01*
X172817166Y-105291000D01*
X172912404Y-105386238D01*
X172960023Y-105481476D01*
X173007642Y-105671952D01*
X173007642Y-105814809D01*
X172960023Y-106005285D01*
X172912404Y-106100523D01*
X172817166Y-106195761D01*
X172674309Y-106243380D01*
X172436214Y-106243380D01*
X170388595Y-95956380D02*
X170388595Y-94956380D01*
X170626690Y-94956380D01*
X170769547Y-95004000D01*
X170864785Y-95099238D01*
X170912404Y-95194476D01*
X170960023Y-95384952D01*
X170960023Y-95527809D01*
X170912404Y-95718285D01*
X170864785Y-95813523D01*
X170769547Y-95908761D01*
X170626690Y-95956380D01*
X170388595Y-95956380D01*
X171245738Y-94956380D02*
X171817166Y-94956380D01*
X171531452Y-95956380D02*
X171531452Y-94956380D01*
X172721928Y-95956380D02*
X172388595Y-95480190D01*
X172150500Y-95956380D02*
X172150500Y-94956380D01*
X172531452Y-94956380D01*
X172626690Y-95004000D01*
X172674309Y-95051619D01*
X172721928Y-95146857D01*
X172721928Y-95289714D01*
X172674309Y-95384952D01*
X172626690Y-95432571D01*
X172531452Y-95480190D01*
X172150500Y-95480190D01*
X170960023Y-93543380D02*
X170626690Y-93067190D01*
X170388595Y-93543380D02*
X170388595Y-92543380D01*
X170769547Y-92543380D01*
X170864785Y-92591000D01*
X170912404Y-92638619D01*
X170960023Y-92733857D01*
X170960023Y-92876714D01*
X170912404Y-92971952D01*
X170864785Y-93019571D01*
X170769547Y-93067190D01*
X170388595Y-93067190D01*
X171245738Y-92543380D02*
X171817166Y-92543380D01*
X171531452Y-93543380D02*
X171531452Y-92543380D01*
X172102880Y-93495761D02*
X172245738Y-93543380D01*
X172483833Y-93543380D01*
X172579071Y-93495761D01*
X172626690Y-93448142D01*
X172674309Y-93352904D01*
X172674309Y-93257666D01*
X172626690Y-93162428D01*
X172579071Y-93114809D01*
X172483833Y-93067190D01*
X172293357Y-93019571D01*
X172198119Y-92971952D01*
X172150500Y-92924333D01*
X172102880Y-92829095D01*
X172102880Y-92733857D01*
X172150500Y-92638619D01*
X172198119Y-92591000D01*
X172293357Y-92543380D01*
X172531452Y-92543380D01*
X172674309Y-92591000D01*
D13*
X168783000Y-125222000D02*
X168783000Y-135382000D01*
D12*
X169146309Y-126373380D02*
X169146309Y-125373380D01*
X169527261Y-125373380D01*
X169622500Y-125421000D01*
X169670119Y-125468619D01*
X169717738Y-125563857D01*
X169717738Y-125706714D01*
X169670119Y-125801952D01*
X169622500Y-125849571D01*
X169527261Y-125897190D01*
X169146309Y-125897190D01*
X170003452Y-125373380D02*
X170574880Y-125373380D01*
X170289166Y-126373380D02*
X170289166Y-125373380D01*
X171479642Y-126373380D02*
X171146309Y-125897190D01*
X170908214Y-126373380D02*
X170908214Y-125373380D01*
X171289166Y-125373380D01*
X171384404Y-125421000D01*
X171432023Y-125468619D01*
X171479642Y-125563857D01*
X171479642Y-125706714D01*
X171432023Y-125801952D01*
X171384404Y-125849571D01*
X171289166Y-125897190D01*
X170908214Y-125897190D01*
X171860595Y-126325761D02*
X172003452Y-126373380D01*
X172241547Y-126373380D01*
X172336785Y-126325761D01*
X172384404Y-126278142D01*
X172432023Y-126182904D01*
X172432023Y-126087666D01*
X172384404Y-125992428D01*
X172336785Y-125944809D01*
X172241547Y-125897190D01*
X172051071Y-125849571D01*
X171955833Y-125801952D01*
X171908214Y-125754333D01*
X171860595Y-125659095D01*
X171860595Y-125563857D01*
X171908214Y-125468619D01*
X171955833Y-125421000D01*
X172051071Y-125373380D01*
X172289166Y-125373380D01*
X172432023Y-125421000D01*
X170717738Y-128023380D02*
X170384404Y-127547190D01*
X170146309Y-128023380D02*
X170146309Y-127023380D01*
X170527261Y-127023380D01*
X170622500Y-127071000D01*
X170670119Y-127118619D01*
X170717738Y-127213857D01*
X170717738Y-127356714D01*
X170670119Y-127451952D01*
X170622500Y-127499571D01*
X170527261Y-127547190D01*
X170146309Y-127547190D01*
X171098690Y-127975761D02*
X171241547Y-128023380D01*
X171479642Y-128023380D01*
X171574880Y-127975761D01*
X171622500Y-127928142D01*
X171670119Y-127832904D01*
X171670119Y-127737666D01*
X171622500Y-127642428D01*
X171574880Y-127594809D01*
X171479642Y-127547190D01*
X171289166Y-127499571D01*
X171193928Y-127451952D01*
X171146309Y-127404333D01*
X171098690Y-127309095D01*
X171098690Y-127213857D01*
X171146309Y-127118619D01*
X171193928Y-127071000D01*
X171289166Y-127023380D01*
X171527261Y-127023380D01*
X171670119Y-127071000D01*
X171955833Y-127023380D02*
X172527261Y-127023380D01*
X172241547Y-128023380D02*
X172241547Y-127023380D01*
X165562595Y-125849571D02*
X165895928Y-125849571D01*
X166038785Y-126373380D02*
X165562595Y-126373380D01*
X165562595Y-125373380D01*
X166038785Y-125373380D01*
X166419738Y-126325761D02*
X166562595Y-126373380D01*
X166800690Y-126373380D01*
X166895928Y-126325761D01*
X166943547Y-126278142D01*
X166991166Y-126182904D01*
X166991166Y-126087666D01*
X166943547Y-125992428D01*
X166895928Y-125944809D01*
X166800690Y-125897190D01*
X166610214Y-125849571D01*
X166514976Y-125801952D01*
X166467357Y-125754333D01*
X166419738Y-125659095D01*
X166419738Y-125563857D01*
X166467357Y-125468619D01*
X166514976Y-125421000D01*
X166610214Y-125373380D01*
X166848309Y-125373380D01*
X166991166Y-125421000D01*
X167419738Y-126373380D02*
X167419738Y-125373380D01*
X167800690Y-125373380D01*
X167895928Y-125421000D01*
X167943547Y-125468619D01*
X167991166Y-125563857D01*
X167991166Y-125706714D01*
X167943547Y-125801952D01*
X167895928Y-125849571D01*
X167800690Y-125897190D01*
X167419738Y-125897190D01*
X166134023Y-128023380D02*
X165800690Y-127547190D01*
X165562595Y-128023380D02*
X165562595Y-127023380D01*
X165943547Y-127023380D01*
X166038785Y-127071000D01*
X166086404Y-127118619D01*
X166134023Y-127213857D01*
X166134023Y-127356714D01*
X166086404Y-127451952D01*
X166038785Y-127499571D01*
X165943547Y-127547190D01*
X165562595Y-127547190D01*
X166514976Y-127975761D02*
X166657833Y-128023380D01*
X166895928Y-128023380D01*
X166991166Y-127975761D01*
X167038785Y-127928142D01*
X167086404Y-127832904D01*
X167086404Y-127737666D01*
X167038785Y-127642428D01*
X166991166Y-127594809D01*
X166895928Y-127547190D01*
X166705452Y-127499571D01*
X166610214Y-127451952D01*
X166562595Y-127404333D01*
X166514976Y-127309095D01*
X166514976Y-127213857D01*
X166562595Y-127118619D01*
X166610214Y-127071000D01*
X166705452Y-127023380D01*
X166943547Y-127023380D01*
X167086404Y-127071000D01*
X167372119Y-127023380D02*
X167943547Y-127023380D01*
X167657833Y-128023380D02*
X167657833Y-127023380D01*
X241000595Y-126627380D02*
X241000595Y-125627380D01*
X241381547Y-125627380D01*
X241476785Y-125675000D01*
X241524404Y-125722619D01*
X241572023Y-125817857D01*
X241572023Y-125960714D01*
X241524404Y-126055952D01*
X241476785Y-126103571D01*
X241381547Y-126151190D01*
X241000595Y-126151190D01*
X241857738Y-125627380D02*
X242429166Y-125627380D01*
X242143452Y-126627380D02*
X242143452Y-125627380D01*
X243333928Y-126627380D02*
X243000595Y-126151190D01*
X242762500Y-126627380D02*
X242762500Y-125627380D01*
X243143452Y-125627380D01*
X243238690Y-125675000D01*
X243286309Y-125722619D01*
X243333928Y-125817857D01*
X243333928Y-125960714D01*
X243286309Y-126055952D01*
X243238690Y-126103571D01*
X243143452Y-126151190D01*
X242762500Y-126151190D01*
X243714880Y-126579761D02*
X243857738Y-126627380D01*
X244095833Y-126627380D01*
X244191071Y-126579761D01*
X244238690Y-126532142D01*
X244286309Y-126436904D01*
X244286309Y-126341666D01*
X244238690Y-126246428D01*
X244191071Y-126198809D01*
X244095833Y-126151190D01*
X243905357Y-126103571D01*
X243810119Y-126055952D01*
X243762500Y-126008333D01*
X243714880Y-125913095D01*
X243714880Y-125817857D01*
X243762500Y-125722619D01*
X243810119Y-125675000D01*
X243905357Y-125627380D01*
X244143452Y-125627380D01*
X244286309Y-125675000D01*
X241572023Y-128277380D02*
X241238690Y-127801190D01*
X241000595Y-128277380D02*
X241000595Y-127277380D01*
X241381547Y-127277380D01*
X241476785Y-127325000D01*
X241524404Y-127372619D01*
X241572023Y-127467857D01*
X241572023Y-127610714D01*
X241524404Y-127705952D01*
X241476785Y-127753571D01*
X241381547Y-127801190D01*
X241000595Y-127801190D01*
X241952976Y-128229761D02*
X242095833Y-128277380D01*
X242333928Y-128277380D01*
X242429166Y-128229761D01*
X242476785Y-128182142D01*
X242524404Y-128086904D01*
X242524404Y-127991666D01*
X242476785Y-127896428D01*
X242429166Y-127848809D01*
X242333928Y-127801190D01*
X242143452Y-127753571D01*
X242048214Y-127705952D01*
X242000595Y-127658333D01*
X241952976Y-127563095D01*
X241952976Y-127467857D01*
X242000595Y-127372619D01*
X242048214Y-127325000D01*
X242143452Y-127277380D01*
X242381547Y-127277380D01*
X242524404Y-127325000D01*
X242810119Y-127277380D02*
X243381547Y-127277380D01*
X243095833Y-128277380D02*
X243095833Y-127277380D01*
D10*
X165100000Y-135890000D02*
X165100000Y-64770000D01*
X165100000Y-61976000D02*
X252730000Y-61976000D01*
D14*
X205486000Y-68072000D02*
X174498000Y-68072000D01*
X181864000Y-62230000D02*
X181864000Y-68072000D01*
X198120000Y-62230000D02*
X181864000Y-62230000D01*
X198120000Y-68072000D02*
X198120000Y-62230000D01*
X205105000Y-62230000D02*
X200025000Y-62230000D01*
X205105000Y-68072000D02*
X205105000Y-62230000D01*
X174879000Y-62230000D02*
X174879000Y-67945000D01*
X179959000Y-62230000D02*
X174879000Y-62230000D01*
X179959000Y-68072000D02*
X179959000Y-62230000D01*
X178943000Y-68072000D02*
X178943000Y-62230000D01*
X175895000Y-68072000D02*
X175895000Y-62230000D01*
X204089000Y-68072000D02*
X204089000Y-62230000D01*
X201041000Y-68072000D02*
X201041000Y-62230000D01*
X201422000Y-72517000D02*
X201422000Y-69977000D01*
X203708000Y-72517000D02*
X201422000Y-72517000D01*
X203708000Y-69977000D02*
X203708000Y-72517000D01*
X176276000Y-72517000D02*
X176276000Y-69977000D01*
X178562000Y-72517000D02*
X176276000Y-72517000D01*
X178562000Y-69977000D02*
X178562000Y-72517000D01*
X200152000Y-70104000D02*
X200152000Y-70358000D01*
X204978000Y-70104000D02*
X200152000Y-70104000D01*
X204978000Y-70358000D02*
X204978000Y-70104000D01*
X200152000Y-70358000D02*
X204978000Y-70358000D01*
X175133000Y-70104000D02*
X175133000Y-70358000D01*
X179705000Y-70104000D02*
X175133000Y-70104000D01*
X179705000Y-70358000D02*
X179705000Y-70104000D01*
X175133000Y-70358000D02*
X179705000Y-70358000D01*
X204089000Y-71755000D02*
X200914000Y-71755000D01*
X179070000Y-71755000D02*
X175895000Y-71755000D01*
X179070000Y-71755000D02*
X179705000Y-70358000D01*
X175895000Y-71755000D02*
X175133000Y-70358000D01*
X180975000Y-68097400D02*
X180975000Y-76454000D01*
X174498000Y-76454000D02*
X205486000Y-76454000D01*
X174498000Y-76454000D02*
X174498000Y-68072000D01*
X205486000Y-68072000D02*
X205486000Y-76454000D01*
X199009000Y-76454000D02*
X199009000Y-68097400D01*
X204089000Y-71755000D02*
X204978000Y-70358000D01*
X200914000Y-71755000D02*
X200152000Y-70358000D01*
X200025000Y-68072000D02*
X200025000Y-62230000D01*
D12*
X244465000Y-67770000D02*
X243865000Y-67770000D01*
X244465000Y-66170000D02*
X244465000Y-67770000D01*
X236865000Y-67770000D02*
X237465000Y-67770000D01*
X236865000Y-65970000D02*
X236865000Y-67770000D01*
X242365000Y-68270000D02*
X242365000Y-67770000D01*
X241665000Y-68270000D02*
X242365000Y-68270000D01*
X188468000Y-90932000D02*
X188468000Y-108966000D01*
X194437000Y-90932000D02*
X188468000Y-90932000D01*
X194437000Y-108966000D02*
X188468000Y-108966000D01*
D10*
X220022000Y-108949000D02*
X194492000Y-108949000D01*
X194492000Y-108949000D02*
X194492000Y-90949000D01*
X194492000Y-90949000D02*
X220022000Y-90949000D01*
X220022000Y-90949000D02*
X220022000Y-108949000D01*
D13*
X236534000Y-128718000D02*
X236534000Y-130048000D01*
X235204000Y-128718000D02*
X236534000Y-128718000D01*
X236534000Y-131318000D02*
X236534000Y-133918000D01*
X233934000Y-131318000D02*
X236534000Y-131318000D01*
X233934000Y-128718000D02*
X233934000Y-131318000D01*
X236534000Y-133918000D02*
X172914000Y-133918000D01*
X233934000Y-128718000D02*
X172914000Y-128718000D01*
X172914000Y-128718000D02*
X172914000Y-133918000D01*
X166945000Y-91634000D02*
X168275000Y-91634000D01*
X166945000Y-92964000D02*
X166945000Y-91634000D01*
X166945000Y-94234000D02*
X169605000Y-94234000D01*
X169605000Y-94234000D02*
X169605000Y-106994000D01*
X166945000Y-94234000D02*
X166945000Y-106994000D01*
X166945000Y-106994000D02*
X169605000Y-106994000D01*
X169231000Y-128718000D02*
X170561000Y-128718000D01*
X169231000Y-130048000D02*
X169231000Y-128718000D01*
X169231000Y-131318000D02*
X171891000Y-131318000D01*
X171891000Y-131318000D02*
X171891000Y-133918000D01*
X169231000Y-131318000D02*
X169231000Y-133918000D01*
X169231000Y-133918000D02*
X171891000Y-133918000D01*
X165548000Y-133918000D02*
X168208000Y-133918000D01*
X165548000Y-131318000D02*
X165548000Y-133918000D01*
X168208000Y-131318000D02*
X168208000Y-133918000D01*
X165548000Y-131318000D02*
X168208000Y-131318000D01*
X165548000Y-130048000D02*
X165548000Y-128718000D01*
X165548000Y-128718000D02*
X166878000Y-128718000D01*
X244075000Y-74640000D02*
X244075000Y-80650000D01*
X237255000Y-76890000D02*
X237255000Y-80650000D01*
X244075000Y-80650000D02*
X242815000Y-80650000D01*
X237255000Y-80650000D02*
X238515000Y-80650000D01*
X247354000Y-132126000D02*
X243954000Y-132126000D01*
X248994000Y-132126000D02*
X248454000Y-132126000D01*
X241794000Y-129296000D02*
X241794000Y-128786000D01*
X242314000Y-128786000D02*
X241794000Y-128786000D01*
X242314000Y-129296000D02*
X242314000Y-128786000D01*
X242854000Y-132126000D02*
X242314000Y-132126000D01*
X249514000Y-129296000D02*
X249514000Y-128786000D01*
X248994000Y-129296000D02*
X248994000Y-128786000D01*
X242314000Y-132126000D02*
X242314000Y-131896000D01*
X249514000Y-135796000D02*
X249514000Y-131896000D01*
X249514000Y-128786000D02*
X248994000Y-128786000D01*
X241794000Y-135796000D02*
X241794000Y-131896000D01*
X249514000Y-135796000D02*
X241794000Y-135796000D01*
X248994000Y-132126000D02*
X248994000Y-131896000D01*
X228493000Y-80611000D02*
X225623000Y-80611000D01*
X225623000Y-80611000D02*
X225623000Y-66371000D01*
X225623000Y-66371000D02*
X227523000Y-66371000D01*
X227523000Y-66371000D02*
X227523000Y-62371000D01*
X227523000Y-62371000D02*
X233763000Y-62371000D01*
X233763000Y-62371000D02*
X233763000Y-66371000D01*
X233763000Y-66371000D02*
X234063000Y-66371000D01*
X234063000Y-66371000D02*
X234063000Y-80611000D01*
X234063000Y-80611000D02*
X230743000Y-80611000D01*
D12*
X208392000Y-62457000D02*
X208392000Y-74957000D01*
X208392000Y-74957000D02*
X222392000Y-74957000D01*
X222392000Y-74957000D02*
X222392000Y-62457000D01*
X222392000Y-62457000D02*
X208392000Y-62457000D01*
X208392000Y-64357000D02*
X222392000Y-64357000D01*
D13*
X225548000Y-84439000D02*
X225548000Y-86439000D01*
X227588000Y-86439000D02*
X227588000Y-84439000D01*
X229612000Y-84439000D02*
X229612000Y-86439000D01*
X231652000Y-86439000D02*
X231652000Y-84439000D01*
X231482000Y-93591000D02*
X231482000Y-92591000D01*
X229782000Y-92591000D02*
X229782000Y-93591000D01*
X245868000Y-76597000D02*
X245868000Y-78597000D01*
X247908000Y-78597000D02*
X247908000Y-76597000D01*
X241729000Y-89793000D02*
X243729000Y-89793000D01*
X243729000Y-87753000D02*
X241729000Y-87753000D01*
X197624000Y-125515000D02*
X196624000Y-125515000D01*
X196624000Y-127215000D02*
X197624000Y-127215000D01*
X229624000Y-127215000D02*
X230624000Y-127215000D01*
X230624000Y-125515000D02*
X229624000Y-125515000D01*
X197624000Y-80557000D02*
X196624000Y-80557000D01*
X196624000Y-82257000D02*
X197624000Y-82257000D01*
X200287000Y-114261000D02*
X201287000Y-114261000D01*
X201287000Y-112561000D02*
X200287000Y-112561000D01*
X177380000Y-83050000D02*
X177380000Y-82050000D01*
X175680000Y-82050000D02*
X175680000Y-83050000D01*
X211083000Y-80483000D02*
X211083000Y-79283000D01*
X212843000Y-79283000D02*
X212843000Y-80483000D01*
X216907000Y-79283000D02*
X216907000Y-80483000D01*
X215147000Y-80483000D02*
X215147000Y-79283000D01*
X221860000Y-85506000D02*
X221860000Y-86706000D01*
X220100000Y-86706000D02*
X220100000Y-85506000D01*
X224654000Y-85506000D02*
X224654000Y-86706000D01*
X222894000Y-86706000D02*
X222894000Y-85506000D01*
X234433000Y-85459000D02*
X234433000Y-86659000D01*
X232673000Y-86659000D02*
X232673000Y-85459000D01*
X235340000Y-86659000D02*
X235340000Y-85459000D01*
X237100000Y-85459000D02*
X237100000Y-86659000D01*
X212182000Y-87240000D02*
X210982000Y-87240000D01*
X210982000Y-85480000D02*
X212182000Y-85480000D01*
X210982000Y-83067000D02*
X212182000Y-83067000D01*
X212182000Y-84827000D02*
X210982000Y-84827000D01*
X178444000Y-106518000D02*
X178444000Y-105318000D01*
X180204000Y-105318000D02*
X180204000Y-106518000D01*
X180331000Y-81823000D02*
X180331000Y-83023000D01*
X178571000Y-83023000D02*
X178571000Y-81823000D01*
X178423000Y-94624000D02*
X179623000Y-94624000D01*
X179623000Y-96384000D02*
X178423000Y-96384000D01*
X178423000Y-91957000D02*
X179623000Y-91957000D01*
X179623000Y-93717000D02*
X178423000Y-93717000D01*
X174489000Y-121320000D02*
X174489000Y-122520000D01*
X172729000Y-122520000D02*
X172729000Y-121320000D01*
D12*
X214452000Y-122001000D02*
X214452000Y-123601000D01*
X224527000Y-122001000D02*
X224527000Y-116251000D01*
X213877000Y-122001000D02*
X213877000Y-116251000D01*
X224527000Y-122001000D02*
X223877000Y-122001000D01*
X224527000Y-116251000D02*
X223877000Y-116251000D01*
X213877000Y-116251000D02*
X214527000Y-116251000D01*
X213877000Y-122001000D02*
X214452000Y-122001000D01*
X197150000Y-116759000D02*
X197150000Y-115159000D01*
X189850000Y-116759000D02*
X189850000Y-122509000D01*
X197500000Y-116759000D02*
X197500000Y-122509000D01*
X189850000Y-116759000D02*
X190300000Y-116759000D01*
X189850000Y-122509000D02*
X190300000Y-122509000D01*
X197500000Y-122509000D02*
X197050000Y-122509000D01*
X197500000Y-116759000D02*
X197150000Y-116759000D01*
X191791000Y-77530000D02*
X191791000Y-83505000D01*
X184891000Y-79055000D02*
X184891000Y-83505000D01*
D13*
X206627000Y-86924000D02*
X205167000Y-86924000D01*
X206627000Y-83764000D02*
X204467000Y-83764000D01*
X206627000Y-83764000D02*
X206627000Y-84694000D01*
X206627000Y-86924000D02*
X206627000Y-85994000D01*
X177744000Y-100963000D02*
X178674000Y-100963000D01*
X180904000Y-100963000D02*
X179974000Y-100963000D01*
X180904000Y-100963000D02*
X180904000Y-98803000D01*
X177744000Y-100963000D02*
X177744000Y-99503000D01*
X177871000Y-88898000D02*
X177871000Y-87438000D01*
X181031000Y-88898000D02*
X181031000Y-86738000D01*
X181031000Y-88898000D02*
X180101000Y-88898000D01*
X177871000Y-88898000D02*
X178801000Y-88898000D01*
D12*
X172894666Y-75398380D02*
X172894666Y-76112666D01*
X172847047Y-76255523D01*
X172751809Y-76350761D01*
X172608952Y-76398380D01*
X172513714Y-76398380D01*
X173799428Y-75731714D02*
X173799428Y-76398380D01*
X173561333Y-75350761D02*
X173323238Y-76065047D01*
X173942285Y-76065047D01*
X190500095Y-89368380D02*
X190500095Y-90177904D01*
X190547714Y-90273142D01*
X190595333Y-90320761D01*
X190690571Y-90368380D01*
X190881047Y-90368380D01*
X190976285Y-90320761D01*
X191023904Y-90273142D01*
X191071523Y-90177904D01*
X191071523Y-89368380D01*
X192071523Y-90368380D02*
X191500095Y-90368380D01*
X191785809Y-90368380D02*
X191785809Y-89368380D01*
X191690571Y-89511238D01*
X191595333Y-89606476D01*
X191500095Y-89654095D01*
X237664666Y-130770380D02*
X237664666Y-131484666D01*
X237617047Y-131627523D01*
X237521809Y-131722761D01*
X237378952Y-131770380D01*
X237283714Y-131770380D01*
X238664666Y-131770380D02*
X238093238Y-131770380D01*
X238378952Y-131770380D02*
X238378952Y-130770380D01*
X238283714Y-130913238D01*
X238188476Y-131008476D01*
X238093238Y-131056095D01*
X167941666Y-90086380D02*
X167941666Y-90800666D01*
X167894047Y-90943523D01*
X167798809Y-91038761D01*
X167655952Y-91086380D01*
X167560714Y-91086380D01*
X168894047Y-90086380D02*
X168417857Y-90086380D01*
X168370238Y-90562571D01*
X168417857Y-90514952D01*
X168513095Y-90467333D01*
X168751190Y-90467333D01*
X168846428Y-90514952D01*
X168894047Y-90562571D01*
X168941666Y-90657809D01*
X168941666Y-90895904D01*
X168894047Y-90991142D01*
X168846428Y-91038761D01*
X168751190Y-91086380D01*
X168513095Y-91086380D01*
X168417857Y-91038761D01*
X168370238Y-90991142D01*
X170227666Y-134453380D02*
X170227666Y-135167666D01*
X170180047Y-135310523D01*
X170084809Y-135405761D01*
X169941952Y-135453380D01*
X169846714Y-135453380D01*
X170608619Y-134453380D02*
X171275285Y-134453380D01*
X170846714Y-135453380D01*
X166417666Y-134453380D02*
X166417666Y-135167666D01*
X166370047Y-135310523D01*
X166274809Y-135405761D01*
X166131952Y-135453380D01*
X166036714Y-135453380D01*
X167036714Y-134881952D02*
X166941476Y-134834333D01*
X166893857Y-134786714D01*
X166846238Y-134691476D01*
X166846238Y-134643857D01*
X166893857Y-134548619D01*
X166941476Y-134501000D01*
X167036714Y-134453380D01*
X167227190Y-134453380D01*
X167322428Y-134501000D01*
X167370047Y-134548619D01*
X167417666Y-134643857D01*
X167417666Y-134691476D01*
X167370047Y-134786714D01*
X167322428Y-134834333D01*
X167227190Y-134881952D01*
X167036714Y-134881952D01*
X166941476Y-134929571D01*
X166893857Y-134977190D01*
X166846238Y-135072428D01*
X166846238Y-135262904D01*
X166893857Y-135358142D01*
X166941476Y-135405761D01*
X167036714Y-135453380D01*
X167227190Y-135453380D01*
X167322428Y-135405761D01*
X167370047Y-135358142D01*
X167417666Y-135262904D01*
X167417666Y-135072428D01*
X167370047Y-134977190D01*
X167322428Y-134929571D01*
X167227190Y-134881952D01*
X240030095Y-83653380D02*
X240030095Y-84462904D01*
X240077714Y-84558142D01*
X240125333Y-84605761D01*
X240220571Y-84653380D01*
X240411047Y-84653380D01*
X240506285Y-84605761D01*
X240553904Y-84558142D01*
X240601523Y-84462904D01*
X240601523Y-83653380D01*
X241506285Y-83986714D02*
X241506285Y-84653380D01*
X241268190Y-83605761D02*
X241030095Y-84320047D01*
X241649142Y-84320047D01*
X247713666Y-128166761D02*
X247856523Y-128214380D01*
X248094619Y-128214380D01*
X248189857Y-128166761D01*
X248237476Y-128119142D01*
X248285095Y-128023904D01*
X248285095Y-127928666D01*
X248237476Y-127833428D01*
X248189857Y-127785809D01*
X248094619Y-127738190D01*
X247904142Y-127690571D01*
X247808904Y-127642952D01*
X247761285Y-127595333D01*
X247713666Y-127500095D01*
X247713666Y-127404857D01*
X247761285Y-127309619D01*
X247808904Y-127262000D01*
X247904142Y-127214380D01*
X248142238Y-127214380D01*
X248285095Y-127262000D01*
X248618428Y-127214380D02*
X248856523Y-128214380D01*
X249047000Y-127500095D01*
X249237476Y-128214380D01*
X249475571Y-127214380D01*
X250380333Y-128214380D02*
X249808904Y-128214380D01*
X250094619Y-128214380D02*
X250094619Y-127214380D01*
X249999380Y-127357238D01*
X249904142Y-127452476D01*
X249808904Y-127500095D01*
X223694666Y-79843380D02*
X223694666Y-80557666D01*
X223647047Y-80700523D01*
X223551809Y-80795761D01*
X223408952Y-80843380D01*
X223313714Y-80843380D01*
X224123238Y-79938619D02*
X224170857Y-79891000D01*
X224266095Y-79843380D01*
X224504190Y-79843380D01*
X224599428Y-79891000D01*
X224647047Y-79938619D01*
X224694666Y-80033857D01*
X224694666Y-80129095D01*
X224647047Y-80271952D01*
X224075619Y-80843380D01*
X224694666Y-80843380D01*
X221408666Y-75652380D02*
X221408666Y-76366666D01*
X221361047Y-76509523D01*
X221265809Y-76604761D01*
X221122952Y-76652380D01*
X221027714Y-76652380D01*
X221789619Y-75652380D02*
X222408666Y-75652380D01*
X222075333Y-76033333D01*
X222218190Y-76033333D01*
X222313428Y-76080952D01*
X222361047Y-76128571D01*
X222408666Y-76223809D01*
X222408666Y-76461904D01*
X222361047Y-76557142D01*
X222313428Y-76604761D01*
X222218190Y-76652380D01*
X221932476Y-76652380D01*
X221837238Y-76604761D01*
X221789619Y-76557142D01*
X226401333Y-90019142D02*
X226353714Y-90066761D01*
X226210857Y-90114380D01*
X226115619Y-90114380D01*
X225972761Y-90066761D01*
X225877523Y-89971523D01*
X225829904Y-89876285D01*
X225782285Y-89685809D01*
X225782285Y-89542952D01*
X225829904Y-89352476D01*
X225877523Y-89257238D01*
X225972761Y-89162000D01*
X226115619Y-89114380D01*
X226210857Y-89114380D01*
X226353714Y-89162000D01*
X226401333Y-89209619D01*
X227353714Y-90114380D02*
X226782285Y-90114380D01*
X227068000Y-90114380D02*
X227068000Y-89114380D01*
X226972761Y-89257238D01*
X226877523Y-89352476D01*
X226782285Y-89400095D01*
X230338333Y-90114142D02*
X230290714Y-90161761D01*
X230147857Y-90209380D01*
X230052619Y-90209380D01*
X229909761Y-90161761D01*
X229814523Y-90066523D01*
X229766904Y-89971285D01*
X229719285Y-89780809D01*
X229719285Y-89637952D01*
X229766904Y-89447476D01*
X229814523Y-89352238D01*
X229909761Y-89257000D01*
X230052619Y-89209380D01*
X230147857Y-89209380D01*
X230290714Y-89257000D01*
X230338333Y-89304619D01*
X230719285Y-89304619D02*
X230766904Y-89257000D01*
X230862142Y-89209380D01*
X231100238Y-89209380D01*
X231195476Y-89257000D01*
X231243095Y-89304619D01*
X231290714Y-89399857D01*
X231290714Y-89495095D01*
X231243095Y-89637952D01*
X230671666Y-90209380D01*
X231290714Y-90209380D01*
X230465333Y-96750142D02*
X230417714Y-96797761D01*
X230274857Y-96845380D01*
X230179619Y-96845380D01*
X230036761Y-96797761D01*
X229941523Y-96702523D01*
X229893904Y-96607285D01*
X229846285Y-96416809D01*
X229846285Y-96273952D01*
X229893904Y-96083476D01*
X229941523Y-95988238D01*
X230036761Y-95893000D01*
X230179619Y-95845380D01*
X230274857Y-95845380D01*
X230417714Y-95893000D01*
X230465333Y-95940619D01*
X230798666Y-95845380D02*
X231417714Y-95845380D01*
X231084380Y-96226333D01*
X231227238Y-96226333D01*
X231322476Y-96273952D01*
X231370095Y-96321571D01*
X231417714Y-96416809D01*
X231417714Y-96654904D01*
X231370095Y-96750142D01*
X231322476Y-96797761D01*
X231227238Y-96845380D01*
X230941523Y-96845380D01*
X230846285Y-96797761D01*
X230798666Y-96750142D01*
X248880333Y-78335142D02*
X248832714Y-78382761D01*
X248689857Y-78430380D01*
X248594619Y-78430380D01*
X248451761Y-78382761D01*
X248356523Y-78287523D01*
X248308904Y-78192285D01*
X248261285Y-78001809D01*
X248261285Y-77858952D01*
X248308904Y-77668476D01*
X248356523Y-77573238D01*
X248451761Y-77478000D01*
X248594619Y-77430380D01*
X248689857Y-77430380D01*
X248832714Y-77478000D01*
X248880333Y-77525619D01*
X249737476Y-77763714D02*
X249737476Y-78430380D01*
X249499380Y-77382761D02*
X249261285Y-78097047D01*
X249880333Y-78097047D01*
X242403333Y-91543142D02*
X242355714Y-91590761D01*
X242212857Y-91638380D01*
X242117619Y-91638380D01*
X241974761Y-91590761D01*
X241879523Y-91495523D01*
X241831904Y-91400285D01*
X241784285Y-91209809D01*
X241784285Y-91066952D01*
X241831904Y-90876476D01*
X241879523Y-90781238D01*
X241974761Y-90686000D01*
X242117619Y-90638380D01*
X242212857Y-90638380D01*
X242355714Y-90686000D01*
X242403333Y-90733619D01*
X243308095Y-90638380D02*
X242831904Y-90638380D01*
X242784285Y-91114571D01*
X242831904Y-91066952D01*
X242927142Y-91019333D01*
X243165238Y-91019333D01*
X243260476Y-91066952D01*
X243308095Y-91114571D01*
X243355714Y-91209809D01*
X243355714Y-91447904D01*
X243308095Y-91543142D01*
X243260476Y-91590761D01*
X243165238Y-91638380D01*
X242927142Y-91638380D01*
X242831904Y-91590761D01*
X242784285Y-91543142D01*
X200620333Y-126722142D02*
X200572714Y-126769761D01*
X200429857Y-126817380D01*
X200334619Y-126817380D01*
X200191761Y-126769761D01*
X200096523Y-126674523D01*
X200048904Y-126579285D01*
X200001285Y-126388809D01*
X200001285Y-126245952D01*
X200048904Y-126055476D01*
X200096523Y-125960238D01*
X200191761Y-125865000D01*
X200334619Y-125817380D01*
X200429857Y-125817380D01*
X200572714Y-125865000D01*
X200620333Y-125912619D01*
X201477476Y-125817380D02*
X201287000Y-125817380D01*
X201191761Y-125865000D01*
X201144142Y-125912619D01*
X201048904Y-126055476D01*
X201001285Y-126245952D01*
X201001285Y-126626904D01*
X201048904Y-126722142D01*
X201096523Y-126769761D01*
X201191761Y-126817380D01*
X201382238Y-126817380D01*
X201477476Y-126769761D01*
X201525095Y-126722142D01*
X201572714Y-126626904D01*
X201572714Y-126388809D01*
X201525095Y-126293571D01*
X201477476Y-126245952D01*
X201382238Y-126198333D01*
X201191761Y-126198333D01*
X201096523Y-126245952D01*
X201048904Y-126293571D01*
X201001285Y-126388809D01*
X233493333Y-126722142D02*
X233445714Y-126769761D01*
X233302857Y-126817380D01*
X233207619Y-126817380D01*
X233064761Y-126769761D01*
X232969523Y-126674523D01*
X232921904Y-126579285D01*
X232874285Y-126388809D01*
X232874285Y-126245952D01*
X232921904Y-126055476D01*
X232969523Y-125960238D01*
X233064761Y-125865000D01*
X233207619Y-125817380D01*
X233302857Y-125817380D01*
X233445714Y-125865000D01*
X233493333Y-125912619D01*
X233826666Y-125817380D02*
X234493333Y-125817380D01*
X234064761Y-126817380D01*
X196957333Y-80014142D02*
X196909714Y-80061761D01*
X196766857Y-80109380D01*
X196671619Y-80109380D01*
X196528761Y-80061761D01*
X196433523Y-79966523D01*
X196385904Y-79871285D01*
X196338285Y-79680809D01*
X196338285Y-79537952D01*
X196385904Y-79347476D01*
X196433523Y-79252238D01*
X196528761Y-79157000D01*
X196671619Y-79109380D01*
X196766857Y-79109380D01*
X196909714Y-79157000D01*
X196957333Y-79204619D01*
X197528761Y-79537952D02*
X197433523Y-79490333D01*
X197385904Y-79442714D01*
X197338285Y-79347476D01*
X197338285Y-79299857D01*
X197385904Y-79204619D01*
X197433523Y-79157000D01*
X197528761Y-79109380D01*
X197719238Y-79109380D01*
X197814476Y-79157000D01*
X197862095Y-79204619D01*
X197909714Y-79299857D01*
X197909714Y-79347476D01*
X197862095Y-79442714D01*
X197814476Y-79490333D01*
X197719238Y-79537952D01*
X197528761Y-79537952D01*
X197433523Y-79585571D01*
X197385904Y-79633190D01*
X197338285Y-79728428D01*
X197338285Y-79918904D01*
X197385904Y-80014142D01*
X197433523Y-80061761D01*
X197528761Y-80109380D01*
X197719238Y-80109380D01*
X197814476Y-80061761D01*
X197862095Y-80014142D01*
X197909714Y-79918904D01*
X197909714Y-79728428D01*
X197862095Y-79633190D01*
X197814476Y-79585571D01*
X197719238Y-79537952D01*
X204303333Y-113895142D02*
X204255714Y-113942761D01*
X204112857Y-113990380D01*
X204017619Y-113990380D01*
X203874761Y-113942761D01*
X203779523Y-113847523D01*
X203731904Y-113752285D01*
X203684285Y-113561809D01*
X203684285Y-113418952D01*
X203731904Y-113228476D01*
X203779523Y-113133238D01*
X203874761Y-113038000D01*
X204017619Y-112990380D01*
X204112857Y-112990380D01*
X204255714Y-113038000D01*
X204303333Y-113085619D01*
X204779523Y-113990380D02*
X204970000Y-113990380D01*
X205065238Y-113942761D01*
X205112857Y-113895142D01*
X205208095Y-113752285D01*
X205255714Y-113561809D01*
X205255714Y-113180857D01*
X205208095Y-113085619D01*
X205160476Y-113038000D01*
X205065238Y-112990380D01*
X204874761Y-112990380D01*
X204779523Y-113038000D01*
X204731904Y-113085619D01*
X204684285Y-113180857D01*
X204684285Y-113418952D01*
X204731904Y-113514190D01*
X204779523Y-113561809D01*
X204874761Y-113609428D01*
X205065238Y-113609428D01*
X205160476Y-113561809D01*
X205208095Y-113514190D01*
X205255714Y-113418952D01*
X172966142Y-83034142D02*
X172918523Y-83081761D01*
X172775666Y-83129380D01*
X172680428Y-83129380D01*
X172537571Y-83081761D01*
X172442333Y-82986523D01*
X172394714Y-82891285D01*
X172347095Y-82700809D01*
X172347095Y-82557952D01*
X172394714Y-82367476D01*
X172442333Y-82272238D01*
X172537571Y-82177000D01*
X172680428Y-82129380D01*
X172775666Y-82129380D01*
X172918523Y-82177000D01*
X172966142Y-82224619D01*
X173918523Y-83129380D02*
X173347095Y-83129380D01*
X173632809Y-83129380D02*
X173632809Y-82129380D01*
X173537571Y-82272238D01*
X173442333Y-82367476D01*
X173347095Y-82415095D01*
X174537571Y-82129380D02*
X174632809Y-82129380D01*
X174728047Y-82177000D01*
X174775666Y-82224619D01*
X174823285Y-82319857D01*
X174870904Y-82510333D01*
X174870904Y-82748428D01*
X174823285Y-82938904D01*
X174775666Y-83034142D01*
X174728047Y-83081761D01*
X174632809Y-83129380D01*
X174537571Y-83129380D01*
X174442333Y-83081761D01*
X174394714Y-83034142D01*
X174347095Y-82938904D01*
X174299476Y-82748428D01*
X174299476Y-82510333D01*
X174347095Y-82319857D01*
X174394714Y-82224619D01*
X174442333Y-82177000D01*
X174537571Y-82129380D01*
X213701333Y-80335380D02*
X213368000Y-79859190D01*
X213129904Y-80335380D02*
X213129904Y-79335380D01*
X213510857Y-79335380D01*
X213606095Y-79383000D01*
X213653714Y-79430619D01*
X213701333Y-79525857D01*
X213701333Y-79668714D01*
X213653714Y-79763952D01*
X213606095Y-79811571D01*
X213510857Y-79859190D01*
X213129904Y-79859190D01*
X214558476Y-79668714D02*
X214558476Y-80335380D01*
X214320380Y-79287761D02*
X214082285Y-80002047D01*
X214701333Y-80002047D01*
X217765333Y-80335380D02*
X217432000Y-79859190D01*
X217193904Y-80335380D02*
X217193904Y-79335380D01*
X217574857Y-79335380D01*
X217670095Y-79383000D01*
X217717714Y-79430619D01*
X217765333Y-79525857D01*
X217765333Y-79668714D01*
X217717714Y-79763952D01*
X217670095Y-79811571D01*
X217574857Y-79859190D01*
X217193904Y-79859190D01*
X218670095Y-79335380D02*
X218193904Y-79335380D01*
X218146285Y-79811571D01*
X218193904Y-79763952D01*
X218289142Y-79716333D01*
X218527238Y-79716333D01*
X218622476Y-79763952D01*
X218670095Y-79811571D01*
X218717714Y-79906809D01*
X218717714Y-80144904D01*
X218670095Y-80240142D01*
X218622476Y-80287761D01*
X218527238Y-80335380D01*
X218289142Y-80335380D01*
X218193904Y-80287761D01*
X218146285Y-80240142D01*
X220813333Y-90114380D02*
X220480000Y-89638190D01*
X220241904Y-90114380D02*
X220241904Y-89114380D01*
X220622857Y-89114380D01*
X220718095Y-89162000D01*
X220765714Y-89209619D01*
X220813333Y-89304857D01*
X220813333Y-89447714D01*
X220765714Y-89542952D01*
X220718095Y-89590571D01*
X220622857Y-89638190D01*
X220241904Y-89638190D01*
X221670476Y-89114380D02*
X221480000Y-89114380D01*
X221384761Y-89162000D01*
X221337142Y-89209619D01*
X221241904Y-89352476D01*
X221194285Y-89542952D01*
X221194285Y-89923904D01*
X221241904Y-90019142D01*
X221289523Y-90066761D01*
X221384761Y-90114380D01*
X221575238Y-90114380D01*
X221670476Y-90066761D01*
X221718095Y-90019142D01*
X221765714Y-89923904D01*
X221765714Y-89685809D01*
X221718095Y-89590571D01*
X221670476Y-89542952D01*
X221575238Y-89495333D01*
X221384761Y-89495333D01*
X221289523Y-89542952D01*
X221241904Y-89590571D01*
X221194285Y-89685809D01*
X223607333Y-90114380D02*
X223274000Y-89638190D01*
X223035904Y-90114380D02*
X223035904Y-89114380D01*
X223416857Y-89114380D01*
X223512095Y-89162000D01*
X223559714Y-89209619D01*
X223607333Y-89304857D01*
X223607333Y-89447714D01*
X223559714Y-89542952D01*
X223512095Y-89590571D01*
X223416857Y-89638190D01*
X223035904Y-89638190D01*
X223940666Y-89114380D02*
X224607333Y-89114380D01*
X224178761Y-90114380D01*
X233386333Y-90114380D02*
X233053000Y-89638190D01*
X232814904Y-90114380D02*
X232814904Y-89114380D01*
X233195857Y-89114380D01*
X233291095Y-89162000D01*
X233338714Y-89209619D01*
X233386333Y-89304857D01*
X233386333Y-89447714D01*
X233338714Y-89542952D01*
X233291095Y-89590571D01*
X233195857Y-89638190D01*
X232814904Y-89638190D01*
X233957761Y-89542952D02*
X233862523Y-89495333D01*
X233814904Y-89447714D01*
X233767285Y-89352476D01*
X233767285Y-89304857D01*
X233814904Y-89209619D01*
X233862523Y-89162000D01*
X233957761Y-89114380D01*
X234148238Y-89114380D01*
X234243476Y-89162000D01*
X234291095Y-89209619D01*
X234338714Y-89304857D01*
X234338714Y-89352476D01*
X234291095Y-89447714D01*
X234243476Y-89495333D01*
X234148238Y-89542952D01*
X233957761Y-89542952D01*
X233862523Y-89590571D01*
X233814904Y-89638190D01*
X233767285Y-89733428D01*
X233767285Y-89923904D01*
X233814904Y-90019142D01*
X233862523Y-90066761D01*
X233957761Y-90114380D01*
X234148238Y-90114380D01*
X234243476Y-90066761D01*
X234291095Y-90019142D01*
X234338714Y-89923904D01*
X234338714Y-89733428D01*
X234291095Y-89638190D01*
X234243476Y-89590571D01*
X234148238Y-89542952D01*
X236053333Y-90114380D02*
X235720000Y-89638190D01*
X235481904Y-90114380D02*
X235481904Y-89114380D01*
X235862857Y-89114380D01*
X235958095Y-89162000D01*
X236005714Y-89209619D01*
X236053333Y-89304857D01*
X236053333Y-89447714D01*
X236005714Y-89542952D01*
X235958095Y-89590571D01*
X235862857Y-89638190D01*
X235481904Y-89638190D01*
X236529523Y-90114380D02*
X236720000Y-90114380D01*
X236815238Y-90066761D01*
X236862857Y-90019142D01*
X236958095Y-89876285D01*
X237005714Y-89685809D01*
X237005714Y-89304857D01*
X236958095Y-89209619D01*
X236910476Y-89162000D01*
X236815238Y-89114380D01*
X236624761Y-89114380D01*
X236529523Y-89162000D01*
X236481904Y-89209619D01*
X236434285Y-89304857D01*
X236434285Y-89542952D01*
X236481904Y-89638190D01*
X236529523Y-89685809D01*
X236624761Y-89733428D01*
X236815238Y-89733428D01*
X236910476Y-89685809D01*
X236958095Y-89638190D01*
X237005714Y-89542952D01*
X215130142Y-86812380D02*
X214796809Y-86336190D01*
X214558714Y-86812380D02*
X214558714Y-85812380D01*
X214939666Y-85812380D01*
X215034904Y-85860000D01*
X215082523Y-85907619D01*
X215130142Y-86002857D01*
X215130142Y-86145714D01*
X215082523Y-86240952D01*
X215034904Y-86288571D01*
X214939666Y-86336190D01*
X214558714Y-86336190D01*
X216082523Y-86812380D02*
X215511095Y-86812380D01*
X215796809Y-86812380D02*
X215796809Y-85812380D01*
X215701571Y-85955238D01*
X215606333Y-86050476D01*
X215511095Y-86098095D01*
X216701571Y-85812380D02*
X216796809Y-85812380D01*
X216892047Y-85860000D01*
X216939666Y-85907619D01*
X216987285Y-86002857D01*
X217034904Y-86193333D01*
X217034904Y-86431428D01*
X216987285Y-86621904D01*
X216939666Y-86717142D01*
X216892047Y-86764761D01*
X216796809Y-86812380D01*
X216701571Y-86812380D01*
X216606333Y-86764761D01*
X216558714Y-86717142D01*
X216511095Y-86621904D01*
X216463476Y-86431428D01*
X216463476Y-86193333D01*
X216511095Y-86002857D01*
X216558714Y-85907619D01*
X216606333Y-85860000D01*
X216701571Y-85812380D01*
X215130142Y-84526380D02*
X214796809Y-84050190D01*
X214558714Y-84526380D02*
X214558714Y-83526380D01*
X214939666Y-83526380D01*
X215034904Y-83574000D01*
X215082523Y-83621619D01*
X215130142Y-83716857D01*
X215130142Y-83859714D01*
X215082523Y-83954952D01*
X215034904Y-84002571D01*
X214939666Y-84050190D01*
X214558714Y-84050190D01*
X216082523Y-84526380D02*
X215511095Y-84526380D01*
X215796809Y-84526380D02*
X215796809Y-83526380D01*
X215701571Y-83669238D01*
X215606333Y-83764476D01*
X215511095Y-83812095D01*
X217034904Y-84526380D02*
X216463476Y-84526380D01*
X216749190Y-84526380D02*
X216749190Y-83526380D01*
X216653952Y-83669238D01*
X216558714Y-83764476D01*
X216463476Y-83812095D01*
X181348142Y-106370380D02*
X181014809Y-105894190D01*
X180776714Y-106370380D02*
X180776714Y-105370380D01*
X181157666Y-105370380D01*
X181252904Y-105418000D01*
X181300523Y-105465619D01*
X181348142Y-105560857D01*
X181348142Y-105703714D01*
X181300523Y-105798952D01*
X181252904Y-105846571D01*
X181157666Y-105894190D01*
X180776714Y-105894190D01*
X182300523Y-106370380D02*
X181729095Y-106370380D01*
X182014809Y-106370380D02*
X182014809Y-105370380D01*
X181919571Y-105513238D01*
X181824333Y-105608476D01*
X181729095Y-105656095D01*
X182681476Y-105465619D02*
X182729095Y-105418000D01*
X182824333Y-105370380D01*
X183062428Y-105370380D01*
X183157666Y-105418000D01*
X183205285Y-105465619D01*
X183252904Y-105560857D01*
X183252904Y-105656095D01*
X183205285Y-105798952D01*
X182633857Y-106370380D01*
X183252904Y-106370380D01*
X181348142Y-82875380D02*
X181014809Y-82399190D01*
X180776714Y-82875380D02*
X180776714Y-81875380D01*
X181157666Y-81875380D01*
X181252904Y-81923000D01*
X181300523Y-81970619D01*
X181348142Y-82065857D01*
X181348142Y-82208714D01*
X181300523Y-82303952D01*
X181252904Y-82351571D01*
X181157666Y-82399190D01*
X180776714Y-82399190D01*
X182300523Y-82875380D02*
X181729095Y-82875380D01*
X182014809Y-82875380D02*
X182014809Y-81875380D01*
X181919571Y-82018238D01*
X181824333Y-82113476D01*
X181729095Y-82161095D01*
X182633857Y-81875380D02*
X183252904Y-81875380D01*
X182919571Y-82256333D01*
X183062428Y-82256333D01*
X183157666Y-82303952D01*
X183205285Y-82351571D01*
X183252904Y-82446809D01*
X183252904Y-82684904D01*
X183205285Y-82780142D01*
X183157666Y-82827761D01*
X183062428Y-82875380D01*
X182776714Y-82875380D01*
X182681476Y-82827761D01*
X182633857Y-82780142D01*
X182364142Y-95956380D02*
X182030809Y-95480190D01*
X181792714Y-95956380D02*
X181792714Y-94956380D01*
X182173666Y-94956380D01*
X182268904Y-95004000D01*
X182316523Y-95051619D01*
X182364142Y-95146857D01*
X182364142Y-95289714D01*
X182316523Y-95384952D01*
X182268904Y-95432571D01*
X182173666Y-95480190D01*
X181792714Y-95480190D01*
X183316523Y-95956380D02*
X182745095Y-95956380D01*
X183030809Y-95956380D02*
X183030809Y-94956380D01*
X182935571Y-95099238D01*
X182840333Y-95194476D01*
X182745095Y-95242095D01*
X184173666Y-95289714D02*
X184173666Y-95956380D01*
X183935571Y-94908761D02*
X183697476Y-95623047D01*
X184316523Y-95623047D01*
X182364142Y-93289380D02*
X182030809Y-92813190D01*
X181792714Y-93289380D02*
X181792714Y-92289380D01*
X182173666Y-92289380D01*
X182268904Y-92337000D01*
X182316523Y-92384619D01*
X182364142Y-92479857D01*
X182364142Y-92622714D01*
X182316523Y-92717952D01*
X182268904Y-92765571D01*
X182173666Y-92813190D01*
X181792714Y-92813190D01*
X183316523Y-93289380D02*
X182745095Y-93289380D01*
X183030809Y-93289380D02*
X183030809Y-92289380D01*
X182935571Y-92432238D01*
X182840333Y-92527476D01*
X182745095Y-92575095D01*
X184221285Y-92289380D02*
X183745095Y-92289380D01*
X183697476Y-92765571D01*
X183745095Y-92717952D01*
X183840333Y-92670333D01*
X184078428Y-92670333D01*
X184173666Y-92717952D01*
X184221285Y-92765571D01*
X184268904Y-92860809D01*
X184268904Y-93098904D01*
X184221285Y-93194142D01*
X184173666Y-93241761D01*
X184078428Y-93289380D01*
X183840333Y-93289380D01*
X183745095Y-93241761D01*
X183697476Y-93194142D01*
X175761380Y-122562857D02*
X175285190Y-122896190D01*
X175761380Y-123134285D02*
X174761380Y-123134285D01*
X174761380Y-122753333D01*
X174809000Y-122658095D01*
X174856619Y-122610476D01*
X174951857Y-122562857D01*
X175094714Y-122562857D01*
X175189952Y-122610476D01*
X175237571Y-122658095D01*
X175285190Y-122753333D01*
X175285190Y-123134285D01*
X175761380Y-121610476D02*
X175761380Y-122181904D01*
X175761380Y-121896190D02*
X174761380Y-121896190D01*
X174904238Y-121991428D01*
X174999476Y-122086666D01*
X175047095Y-122181904D01*
X174761380Y-120753333D02*
X174761380Y-120943809D01*
X174809000Y-121039047D01*
X174856619Y-121086666D01*
X174999476Y-121181904D01*
X175189952Y-121229523D01*
X175570904Y-121229523D01*
X175666142Y-121181904D01*
X175713761Y-121134285D01*
X175761380Y-121039047D01*
X175761380Y-120848571D01*
X175713761Y-120753333D01*
X175666142Y-120705714D01*
X175570904Y-120658095D01*
X175332809Y-120658095D01*
X175237571Y-120705714D01*
X175189952Y-120753333D01*
X175142333Y-120848571D01*
X175142333Y-121039047D01*
X175189952Y-121134285D01*
X175237571Y-121181904D01*
X175332809Y-121229523D01*
X211328095Y-118578380D02*
X211328095Y-119387904D01*
X211375714Y-119483142D01*
X211423333Y-119530761D01*
X211518571Y-119578380D01*
X211709047Y-119578380D01*
X211804285Y-119530761D01*
X211851904Y-119483142D01*
X211899523Y-119387904D01*
X211899523Y-118578380D01*
X212328095Y-118673619D02*
X212375714Y-118626000D01*
X212470952Y-118578380D01*
X212709047Y-118578380D01*
X212804285Y-118626000D01*
X212851904Y-118673619D01*
X212899523Y-118768857D01*
X212899523Y-118864095D01*
X212851904Y-119006952D01*
X212280476Y-119578380D01*
X212899523Y-119578380D01*
X198120095Y-119086380D02*
X198120095Y-119895904D01*
X198167714Y-119991142D01*
X198215333Y-120038761D01*
X198310571Y-120086380D01*
X198501047Y-120086380D01*
X198596285Y-120038761D01*
X198643904Y-119991142D01*
X198691523Y-119895904D01*
X198691523Y-119086380D01*
X199072476Y-119086380D02*
X199691523Y-119086380D01*
X199358190Y-119467333D01*
X199501047Y-119467333D01*
X199596285Y-119514952D01*
X199643904Y-119562571D01*
X199691523Y-119657809D01*
X199691523Y-119895904D01*
X199643904Y-119991142D01*
X199596285Y-120038761D01*
X199501047Y-120086380D01*
X199215333Y-120086380D01*
X199120095Y-120038761D01*
X199072476Y-119991142D01*
X192278095Y-80859380D02*
X192278095Y-81668904D01*
X192325714Y-81764142D01*
X192373333Y-81811761D01*
X192468571Y-81859380D01*
X192659047Y-81859380D01*
X192754285Y-81811761D01*
X192801904Y-81764142D01*
X192849523Y-81668904D01*
X192849523Y-80859380D01*
X193801904Y-80859380D02*
X193325714Y-80859380D01*
X193278095Y-81335571D01*
X193325714Y-81287952D01*
X193420952Y-81240333D01*
X193659047Y-81240333D01*
X193754285Y-81287952D01*
X193801904Y-81335571D01*
X193849523Y-81430809D01*
X193849523Y-81668904D01*
X193801904Y-81764142D01*
X193754285Y-81811761D01*
X193659047Y-81859380D01*
X193420952Y-81859380D01*
X193325714Y-81811761D01*
X193278095Y-81764142D01*
X205771761Y-83391619D02*
X205676523Y-83344000D01*
X205581285Y-83248761D01*
X205438428Y-83105904D01*
X205343190Y-83058285D01*
X205247952Y-83058285D01*
X205295571Y-83296380D02*
X205200333Y-83248761D01*
X205105095Y-83153523D01*
X205057476Y-82963047D01*
X205057476Y-82629714D01*
X205105095Y-82439238D01*
X205200333Y-82344000D01*
X205295571Y-82296380D01*
X205486047Y-82296380D01*
X205581285Y-82344000D01*
X205676523Y-82439238D01*
X205724142Y-82629714D01*
X205724142Y-82963047D01*
X205676523Y-83153523D01*
X205581285Y-83248761D01*
X205486047Y-83296380D01*
X205295571Y-83296380D01*
X206676523Y-83296380D02*
X206105095Y-83296380D01*
X206390809Y-83296380D02*
X206390809Y-82296380D01*
X206295571Y-82439238D01*
X206200333Y-82534476D01*
X206105095Y-82582095D01*
X182530761Y-100623619D02*
X182435523Y-100576000D01*
X182340285Y-100480761D01*
X182197428Y-100337904D01*
X182102190Y-100290285D01*
X182006952Y-100290285D01*
X182054571Y-100528380D02*
X181959333Y-100480761D01*
X181864095Y-100385523D01*
X181816476Y-100195047D01*
X181816476Y-99861714D01*
X181864095Y-99671238D01*
X181959333Y-99576000D01*
X182054571Y-99528380D01*
X182245047Y-99528380D01*
X182340285Y-99576000D01*
X182435523Y-99671238D01*
X182483142Y-99861714D01*
X182483142Y-100195047D01*
X182435523Y-100385523D01*
X182340285Y-100480761D01*
X182245047Y-100528380D01*
X182054571Y-100528380D01*
X182864095Y-99623619D02*
X182911714Y-99576000D01*
X183006952Y-99528380D01*
X183245047Y-99528380D01*
X183340285Y-99576000D01*
X183387904Y-99623619D01*
X183435523Y-99718857D01*
X183435523Y-99814095D01*
X183387904Y-99956952D01*
X182816476Y-100528380D01*
X183435523Y-100528380D01*
X182530761Y-88812619D02*
X182435523Y-88765000D01*
X182340285Y-88669761D01*
X182197428Y-88526904D01*
X182102190Y-88479285D01*
X182006952Y-88479285D01*
X182054571Y-88717380D02*
X181959333Y-88669761D01*
X181864095Y-88574523D01*
X181816476Y-88384047D01*
X181816476Y-88050714D01*
X181864095Y-87860238D01*
X181959333Y-87765000D01*
X182054571Y-87717380D01*
X182245047Y-87717380D01*
X182340285Y-87765000D01*
X182435523Y-87860238D01*
X182483142Y-88050714D01*
X182483142Y-88384047D01*
X182435523Y-88574523D01*
X182340285Y-88669761D01*
X182245047Y-88717380D01*
X182054571Y-88717380D01*
X182816476Y-87717380D02*
X183435523Y-87717380D01*
X183102190Y-88098333D01*
X183245047Y-88098333D01*
X183340285Y-88145952D01*
X183387904Y-88193571D01*
X183435523Y-88288809D01*
X183435523Y-88526904D01*
X183387904Y-88622142D01*
X183340285Y-88669761D01*
X183245047Y-88717380D01*
X182959333Y-88717380D01*
X182864095Y-88669761D01*
X182816476Y-88622142D01*
M02*
