G04 #@! TF.GenerationSoftware,KiCad,Pcbnew,(5.1.5)-3*
G04 #@! TF.CreationDate,2020-08-02T17:39:33+12:00*
G04 #@! TF.ProjectId,PocketTRS,506f636b-6574-4545-9253-2e6b69636164,rev?*
G04 #@! TF.SameCoordinates,Original*
G04 #@! TF.FileFunction,Paste,Top*
G04 #@! TF.FilePolarity,Positive*
%FSLAX46Y46*%
G04 Gerber Fmt 4.6, Leading zero omitted, Abs format (unit mm)*
G04 Created by KiCad (PCBNEW (5.1.5)-3) date 2020-08-02 17:39:33*
%MOMM*%
%LPD*%
G04 APERTURE LIST*
%ADD10C,0.050000*%
%ADD11R,0.400000X2.500000*%
%ADD12R,0.400000X1.350000*%
%ADD13O,1.200000X2.000000*%
%ADD14R,2.000000X2.000000*%
%ADD15O,0.900000X3.000000*%
%ADD16R,5.000000X5.000000*%
%ADD17R,1.500000X2.000000*%
%ADD18R,3.800000X2.000000*%
%ADD19R,1.600000X2.000000*%
%ADD20R,1.250000X1.500000*%
%ADD21R,2.000000X1.600000*%
%ADD22R,1.500000X1.250000*%
%ADD23R,1.300000X1.500000*%
%ADD24R,1.500000X1.300000*%
%ADD25R,0.450000X1.750000*%
%ADD26R,0.450000X1.450000*%
%ADD27R,0.900000X0.800000*%
%ADD28R,0.800000X0.900000*%
G04 APERTURE END LIST*
D10*
X252730000Y-64770000D02*
X252730000Y-61976000D01*
X165100000Y-61976000D02*
X165100000Y-64770000D01*
X252730000Y-135890000D02*
X165100000Y-135890000D01*
X252730000Y-64770000D02*
X252730000Y-135890000D01*
X165100000Y-135890000D02*
X165100000Y-64770000D01*
X165100000Y-61976000D02*
X252730000Y-61976000D01*
D11*
X239365000Y-68021200D03*
D12*
X240015000Y-67445000D03*
X240665000Y-67445000D03*
X241315000Y-67445000D03*
D11*
X241965000Y-68021200D03*
D13*
X237090000Y-64770000D03*
D14*
X240665000Y-64770000D03*
D13*
X244240000Y-64770000D03*
D15*
X195982000Y-90919000D03*
X197252000Y-90919000D03*
X198522000Y-90919000D03*
X199792000Y-90919000D03*
X201062000Y-90919000D03*
X202332000Y-90919000D03*
X203602000Y-90919000D03*
X204872000Y-90919000D03*
X206142000Y-90919000D03*
X207412000Y-90919000D03*
X208682000Y-90919000D03*
X209952000Y-90919000D03*
X211222000Y-90919000D03*
X212492000Y-90919000D03*
X213792000Y-90949000D03*
X215062000Y-90949000D03*
X216332000Y-90949000D03*
X217602000Y-90949000D03*
X218872000Y-90949000D03*
X218872000Y-108949000D03*
X217602000Y-108949000D03*
X216332000Y-108949000D03*
X215062000Y-108949000D03*
X213792000Y-108949000D03*
X212492000Y-108949000D03*
X211222000Y-108949000D03*
X209952000Y-108949000D03*
X208682000Y-108949000D03*
X207412000Y-108949000D03*
X206142000Y-108949000D03*
X204872000Y-108949000D03*
X203602000Y-108949000D03*
X202332000Y-108949000D03*
X201062000Y-108949000D03*
X199792000Y-108949000D03*
X198522000Y-108949000D03*
X197252000Y-108949000D03*
X195982000Y-108949000D03*
D16*
X202902000Y-100349000D03*
D17*
X242965000Y-75590000D03*
X238365000Y-75590000D03*
X240665000Y-75590000D03*
D18*
X240665000Y-81890000D03*
D19*
X226568000Y-87439000D03*
X226568000Y-83439000D03*
X230632000Y-87439000D03*
X230632000Y-83439000D03*
D20*
X230632000Y-91841000D03*
X230632000Y-94341000D03*
D19*
X246888000Y-79597000D03*
X246888000Y-75597000D03*
D21*
X244729000Y-88773000D03*
X240729000Y-88773000D03*
D22*
X195874000Y-126365000D03*
X198374000Y-126365000D03*
X231374000Y-126365000D03*
X228874000Y-126365000D03*
X195874000Y-81407000D03*
X198374000Y-81407000D03*
X202037000Y-113411000D03*
X199537000Y-113411000D03*
D20*
X176530000Y-81300000D03*
X176530000Y-83800000D03*
D23*
X211963000Y-78533000D03*
X211963000Y-81233000D03*
X216027000Y-81233000D03*
X216027000Y-78533000D03*
X220980000Y-87456000D03*
X220980000Y-84756000D03*
X223774000Y-87456000D03*
X223774000Y-84756000D03*
X233553000Y-87409000D03*
X233553000Y-84756000D03*
X236220000Y-84709000D03*
X236220000Y-87409000D03*
D24*
X210232000Y-86360000D03*
X212932000Y-86360000D03*
X212932000Y-83947000D03*
X210232000Y-83947000D03*
D23*
X179324000Y-104568000D03*
X179324000Y-107268000D03*
X179451000Y-83773000D03*
X179451000Y-81073000D03*
D24*
X180373000Y-95504000D03*
X177673000Y-95504000D03*
X180373000Y-92837000D03*
X177673000Y-92837000D03*
D23*
X173609000Y-123270000D03*
X173609000Y-120570000D03*
D25*
X214977000Y-115526000D03*
X215627000Y-115526000D03*
X216277000Y-115526000D03*
X216927000Y-115526000D03*
X217577000Y-115526000D03*
X218227000Y-115526000D03*
X218877000Y-115526000D03*
X219527000Y-115526000D03*
X220177000Y-115526000D03*
X220827000Y-115526000D03*
X221477000Y-115526000D03*
X222127000Y-115526000D03*
X222777000Y-115526000D03*
X223427000Y-115526000D03*
X223427000Y-122726000D03*
X222777000Y-122726000D03*
X222127000Y-122726000D03*
X221477000Y-122726000D03*
X220827000Y-122726000D03*
X220177000Y-122726000D03*
X219527000Y-122726000D03*
X218877000Y-122726000D03*
X218227000Y-122726000D03*
X217577000Y-122726000D03*
X216927000Y-122726000D03*
X216277000Y-122726000D03*
X215627000Y-122726000D03*
X214977000Y-122726000D03*
X196600000Y-123234000D03*
X195950000Y-123234000D03*
X195300000Y-123234000D03*
X194650000Y-123234000D03*
X194000000Y-123234000D03*
X193350000Y-123234000D03*
X192700000Y-123234000D03*
X192050000Y-123234000D03*
X191400000Y-123234000D03*
X190750000Y-123234000D03*
X190750000Y-116034000D03*
X191400000Y-116034000D03*
X192050000Y-116034000D03*
X192700000Y-116034000D03*
X193350000Y-116034000D03*
X194000000Y-116034000D03*
X194650000Y-116034000D03*
X195300000Y-116034000D03*
X195950000Y-116034000D03*
X196600000Y-116034000D03*
D26*
X191266000Y-84230000D03*
X190616000Y-84230000D03*
X189966000Y-84230000D03*
X189316000Y-84230000D03*
X188666000Y-84230000D03*
X188016000Y-84230000D03*
X187366000Y-84230000D03*
X186716000Y-84230000D03*
X186066000Y-84230000D03*
X185416000Y-84230000D03*
X185416000Y-78330000D03*
X186066000Y-78330000D03*
X186716000Y-78330000D03*
X187366000Y-78330000D03*
X188016000Y-78330000D03*
X188666000Y-78330000D03*
X189316000Y-78330000D03*
X189966000Y-78330000D03*
X190616000Y-78330000D03*
X191266000Y-78330000D03*
D27*
X206867000Y-85344000D03*
X204867000Y-86294000D03*
X204867000Y-84394000D03*
D28*
X180274000Y-99203000D03*
X178374000Y-99203000D03*
X179324000Y-101203000D03*
X179451000Y-89138000D03*
X178501000Y-87138000D03*
X180401000Y-87138000D03*
M02*
