G04 #@! TF.GenerationSoftware,KiCad,Pcbnew,(5.1.5)-3*
G04 #@! TF.CreationDate,2020-04-16T20:55:28+12:00*
G04 #@! TF.ProjectId,PocketTRS,506f636b-6574-4545-9253-2e6b69636164,rev?*
G04 #@! TF.SameCoordinates,Original*
G04 #@! TF.FileFunction,Copper,L1,Top*
G04 #@! TF.FilePolarity,Positive*
%FSLAX46Y46*%
G04 Gerber Fmt 4.6, Leading zero omitted, Abs format (unit mm)*
G04 Created by KiCad (PCBNEW (5.1.5)-3) date 2020-04-16 20:55:28*
%MOMM*%
%LPD*%
G04 APERTURE LIST*
%ADD10C,0.050000*%
%ADD11C,0.800000*%
%ADD12O,0.900000X3.000000*%
%ADD13R,5.000000X5.000000*%
%ADD14R,1.600000X1.600000*%
%ADD15C,1.600000*%
%ADD16O,1.700000X1.700000*%
%ADD17R,1.700000X1.700000*%
%ADD18C,2.400000*%
%ADD19C,1.000000*%
%ADD20C,2.900000*%
%ADD21C,2.700000*%
%ADD22C,5.001260*%
%ADD23C,1.198880*%
%ADD24O,1.200000X2.000000*%
%ADD25R,2.000000X2.000000*%
%ADD26R,0.400000X1.350000*%
%ADD27O,1.100000X1.300000*%
%ADD28R,0.900000X1.500000*%
%ADD29O,0.900000X1.500000*%
%ADD30O,1.600000X1.600000*%
%ADD31R,1.500000X2.000000*%
%ADD32R,3.800000X2.000000*%
%ADD33C,2.100000*%
%ADD34C,1.750000*%
%ADD35C,0.250000*%
%ADD36C,0.500000*%
G04 APERTURE END LIST*
D10*
X252730000Y-64770000D02*
X252730000Y-61976000D01*
X165100000Y-61976000D02*
X165100000Y-64770000D01*
X252730000Y-135890000D02*
X165100000Y-135890000D01*
X252730000Y-64770000D02*
X252730000Y-135890000D01*
X165100000Y-135890000D02*
X165100000Y-64770000D01*
X165100000Y-61976000D02*
X252730000Y-61976000D01*
D11*
X188065000Y-95301000D03*
X189065000Y-95301000D03*
X190065000Y-95301000D03*
X191065000Y-95301000D03*
X192065000Y-95301000D03*
X188065000Y-97301000D03*
X189065000Y-97301000D03*
X190065000Y-97301000D03*
X191065000Y-97301000D03*
X192065000Y-97301000D03*
X192065000Y-96301000D03*
X191065000Y-96301000D03*
X190065000Y-96301000D03*
X189065000Y-96301000D03*
X188065000Y-96301000D03*
X188065000Y-98301000D03*
X189065000Y-98301000D03*
X190065000Y-98301000D03*
X191065000Y-98301000D03*
X192065000Y-98301000D03*
X192065000Y-99301000D03*
X191065000Y-99301000D03*
X190065000Y-99301000D03*
X189065000Y-99301000D03*
D12*
X183155000Y-87871000D03*
X184425000Y-87871000D03*
X185695000Y-87871000D03*
X186965000Y-87871000D03*
X188235000Y-87871000D03*
X189505000Y-87871000D03*
X190775000Y-87871000D03*
X192045000Y-87871000D03*
X193315000Y-87871000D03*
X194585000Y-87871000D03*
X195855000Y-87871000D03*
X197125000Y-87871000D03*
X198395000Y-87871000D03*
X199665000Y-87871000D03*
X200965000Y-87901000D03*
X202235000Y-87901000D03*
X203505000Y-87901000D03*
X204775000Y-87901000D03*
X206045000Y-87901000D03*
X206045000Y-105901000D03*
X204775000Y-105901000D03*
X203505000Y-105901000D03*
X202235000Y-105901000D03*
X200965000Y-105901000D03*
X199665000Y-105901000D03*
X198395000Y-105901000D03*
X197125000Y-105901000D03*
X195855000Y-105901000D03*
X194585000Y-105901000D03*
X193315000Y-105901000D03*
X192045000Y-105901000D03*
X190775000Y-105901000D03*
X189505000Y-105901000D03*
X188235000Y-105901000D03*
X186965000Y-105901000D03*
X185695000Y-105901000D03*
X184425000Y-105901000D03*
X183155000Y-105901000D03*
D13*
X190075000Y-97301000D03*
D11*
X188065000Y-99301000D03*
D14*
X228727000Y-100330000D03*
D15*
X231227000Y-100330000D03*
X231227000Y-89535000D03*
D14*
X228727000Y-89535000D03*
D15*
X215773000Y-94702000D03*
X215773000Y-92202000D03*
X241895000Y-89408000D03*
D14*
X239395000Y-89408000D03*
X239395000Y-100330000D03*
D15*
X241895000Y-100330000D03*
X194564000Y-126706000D03*
X194564000Y-124206000D03*
X214757000Y-110871000D03*
X217257000Y-110871000D03*
D16*
X174244000Y-132588000D03*
X174244000Y-130048000D03*
X176784000Y-132588000D03*
X176784000Y-130048000D03*
X179324000Y-132588000D03*
X179324000Y-130048000D03*
X181864000Y-132588000D03*
X181864000Y-130048000D03*
X184404000Y-132588000D03*
X184404000Y-130048000D03*
X186944000Y-132588000D03*
X186944000Y-130048000D03*
X189484000Y-132588000D03*
X189484000Y-130048000D03*
X192024000Y-132588000D03*
X192024000Y-130048000D03*
X194564000Y-132588000D03*
X194564000Y-130048000D03*
X197104000Y-132588000D03*
X197104000Y-130048000D03*
X199644000Y-132588000D03*
X199644000Y-130048000D03*
X202184000Y-132588000D03*
X202184000Y-130048000D03*
X204724000Y-132588000D03*
X204724000Y-130048000D03*
X207264000Y-132588000D03*
X207264000Y-130048000D03*
X209804000Y-132588000D03*
X209804000Y-130048000D03*
X212344000Y-132588000D03*
X212344000Y-130048000D03*
X214884000Y-132588000D03*
X214884000Y-130048000D03*
X217424000Y-132588000D03*
X217424000Y-130048000D03*
X219964000Y-132588000D03*
X219964000Y-130048000D03*
X222504000Y-132588000D03*
X222504000Y-130048000D03*
X225044000Y-132588000D03*
X225044000Y-130048000D03*
X227584000Y-132588000D03*
X227584000Y-130048000D03*
X230124000Y-132588000D03*
X230124000Y-130048000D03*
X232664000Y-132588000D03*
X232664000Y-130048000D03*
X235204000Y-132588000D03*
D17*
X235204000Y-130048000D03*
D18*
X229530868Y-67903132D02*
X229955132Y-67478868D01*
X231530868Y-70303132D02*
X231955132Y-69878868D01*
X231530868Y-75803132D02*
X231955132Y-75378868D01*
X229530868Y-79503132D02*
X229955132Y-79078868D01*
X229530868Y-74003132D02*
X229955132Y-73578868D01*
D19*
X212892000Y-65857000D03*
X217892000Y-65857000D03*
D20*
X215392000Y-67157000D03*
D21*
X208392000Y-67957000D03*
X222392000Y-67957000D03*
D19*
X210392000Y-73457000D03*
X220392000Y-73457000D03*
D15*
X214092000Y-70957000D03*
X216692000Y-70957000D03*
X211992000Y-70957000D03*
X218792000Y-70957000D03*
X211992000Y-73457000D03*
X218792000Y-73457000D03*
D22*
X177497740Y-71813420D03*
D23*
X190258700Y-73812400D03*
X187972700Y-73812400D03*
X185681620Y-73812400D03*
X192552320Y-73812400D03*
X194840860Y-73812400D03*
X191406780Y-72313800D03*
X189118240Y-72313800D03*
X186827160Y-72313800D03*
X184536080Y-72313800D03*
D22*
X202486260Y-71813420D03*
D23*
X193697860Y-72313800D03*
X185681620Y-70812660D03*
X187972700Y-70812660D03*
X190261240Y-70815200D03*
X192552320Y-70812660D03*
X194840860Y-70812660D03*
D16*
X168275000Y-103944001D03*
X168275000Y-101404001D03*
X168275000Y-98864001D03*
X168275000Y-96324001D03*
X168275000Y-93784001D03*
D17*
X168275000Y-91244001D03*
D24*
X244240000Y-64770000D03*
D25*
X240665000Y-64770000D03*
D24*
X237090000Y-64770000D03*
D26*
X241965000Y-67445000D03*
X241315000Y-67445000D03*
X240665000Y-67445000D03*
X240015000Y-67445000D03*
X239365000Y-67445000D03*
D27*
X243090000Y-67520000D03*
X238240000Y-67520000D03*
D16*
X170561000Y-132588000D03*
D17*
X170561000Y-130048000D03*
X166878000Y-130048000D03*
D16*
X166878000Y-132588000D03*
D28*
X200787000Y-81788000D03*
D29*
X203327000Y-81788000D03*
X202057000Y-81788000D03*
D30*
X185674000Y-82804000D03*
D15*
X178054000Y-82804000D03*
X178054000Y-79502000D03*
D30*
X185674000Y-79502000D03*
X197993000Y-79502000D03*
D15*
X190373000Y-79502000D03*
X211963000Y-79756000D03*
D30*
X211963000Y-87376000D03*
X215519000Y-87376000D03*
D15*
X215519000Y-79756000D03*
D30*
X236728000Y-108077000D03*
D15*
X244348000Y-108077000D03*
X233553000Y-106553000D03*
D30*
X225933000Y-106553000D03*
X223139000Y-97155000D03*
D15*
X223139000Y-89535000D03*
X219710000Y-89535000D03*
D30*
X219710000Y-97155000D03*
D15*
X190373000Y-82804000D03*
D30*
X197993000Y-82804000D03*
X207137000Y-83566000D03*
D15*
X207137000Y-75946000D03*
X244348000Y-111379000D03*
D30*
X236728000Y-111379000D03*
X235077000Y-121666000D03*
X202057000Y-114046000D03*
X232537000Y-121666000D03*
X204597000Y-114046000D03*
X229997000Y-121666000D03*
X207137000Y-114046000D03*
X227457000Y-121666000D03*
X209677000Y-114046000D03*
X224917000Y-121666000D03*
X212217000Y-114046000D03*
X222377000Y-121666000D03*
X214757000Y-114046000D03*
X219837000Y-121666000D03*
X217297000Y-114046000D03*
X217297000Y-121666000D03*
X219837000Y-114046000D03*
X214757000Y-121666000D03*
X222377000Y-114046000D03*
X212217000Y-121666000D03*
X224917000Y-114046000D03*
X209677000Y-121666000D03*
X227457000Y-114046000D03*
X207137000Y-121666000D03*
X229997000Y-114046000D03*
X204597000Y-121666000D03*
X232537000Y-114046000D03*
X202057000Y-121666000D03*
D14*
X235077000Y-114046000D03*
D30*
X194564000Y-121666000D03*
X174244000Y-114046000D03*
X192024000Y-121666000D03*
X176784000Y-114046000D03*
X189484000Y-121666000D03*
X179324000Y-114046000D03*
X186944000Y-121666000D03*
X181864000Y-114046000D03*
X184404000Y-121666000D03*
X184404000Y-114046000D03*
X181864000Y-121666000D03*
X186944000Y-114046000D03*
X179324000Y-121666000D03*
X189484000Y-114046000D03*
X176784000Y-121666000D03*
X192024000Y-114046000D03*
X174244000Y-121666000D03*
D14*
X194564000Y-114046000D03*
D31*
X242965000Y-75590000D03*
X238365000Y-75590000D03*
X240665000Y-75590000D03*
D32*
X240665000Y-81890000D03*
D33*
X249154000Y-130606000D03*
D34*
X247904000Y-133096000D03*
X243404000Y-133096000D03*
D33*
X242144000Y-130606000D03*
D11*
X230124000Y-87884000D03*
X230101999Y-98955001D03*
X229362000Y-98171000D03*
X186944000Y-100330000D03*
X243586000Y-73152000D03*
X238643000Y-71882000D03*
X183155000Y-108183000D03*
X206045000Y-107901000D03*
X200914000Y-110871000D03*
X236499000Y-75590000D03*
X184912000Y-102235000D03*
X211963000Y-85598000D03*
X211963000Y-102235000D03*
X202057000Y-83566000D03*
X235077000Y-127381000D03*
X217424000Y-127381000D03*
X232537000Y-126619000D03*
X219964000Y-126619000D03*
X229997000Y-125857000D03*
X222504000Y-125857000D03*
X227457000Y-124968000D03*
X225044000Y-124968000D03*
X224902579Y-123978048D03*
X226160952Y-123978048D03*
X222377000Y-123190000D03*
X228854000Y-123190000D03*
X231267000Y-120904000D03*
X233807000Y-120904000D03*
X193548000Y-103251000D03*
X212979000Y-103124000D03*
X192532000Y-101219000D03*
X208661000Y-100965000D03*
X208915000Y-79756000D03*
X183769000Y-79248000D03*
X196088000Y-97790000D03*
X210402000Y-97536000D03*
X188468000Y-84111000D03*
X170895082Y-84582000D03*
X170170082Y-81670918D03*
X187452000Y-81788000D03*
X209296000Y-119253000D03*
X173032001Y-93784001D03*
X181356000Y-110490000D03*
X173228000Y-110490000D03*
X166751000Y-110490000D03*
X198882000Y-80772000D03*
X168275000Y-81026000D03*
X190754000Y-111252000D03*
X192568000Y-85598000D03*
X200787000Y-85090000D03*
X207391000Y-109982000D03*
X202057000Y-109982000D03*
X184785000Y-84836000D03*
X194564000Y-84582000D03*
X194564000Y-100330000D03*
X223139000Y-99695000D03*
X202692000Y-91059000D03*
X209386000Y-91059000D03*
X192278000Y-108585000D03*
X202235000Y-108128000D03*
X198374000Y-112141000D03*
X177038000Y-109347000D03*
X197104000Y-109310000D03*
D35*
X231743000Y-77750000D02*
X231743000Y-86265000D01*
X230101999Y-100005001D02*
X229777000Y-100330000D01*
X229777000Y-100330000D02*
X228727000Y-100330000D01*
X231743000Y-86265000D02*
X230124000Y-87884000D01*
X230124000Y-87884000D02*
X230101999Y-87906001D01*
X230101999Y-100005001D02*
X230101999Y-98955001D01*
X231743000Y-77750000D02*
X231743000Y-75591000D01*
X231227000Y-100330000D02*
X233045000Y-100330000D01*
X233553000Y-100838000D02*
X233553000Y-106553000D01*
X233045000Y-100330000D02*
X233553000Y-100838000D01*
X236728000Y-108077000D02*
X233934000Y-108077000D01*
X233553000Y-107696000D02*
X233553000Y-106553000D01*
X233934000Y-108077000D02*
X233553000Y-107696000D01*
X186965000Y-104151000D02*
X186944000Y-104130000D01*
X186965000Y-105901000D02*
X186965000Y-104151000D01*
X186944000Y-104130000D02*
X186944000Y-100838000D01*
X231227000Y-100330000D02*
X231227000Y-99198630D01*
X231227000Y-99198630D02*
X231227000Y-98639000D01*
X231227000Y-98639000D02*
X230886000Y-98298000D01*
X230886000Y-98298000D02*
X230759000Y-98171000D01*
X230759000Y-98171000D02*
X229362000Y-98171000D01*
X186944000Y-100838000D02*
X186944000Y-100330000D01*
X234315000Y-89535000D02*
X231227000Y-89535000D01*
X234823000Y-89027000D02*
X234315000Y-89535000D01*
X231743000Y-70091000D02*
X232591528Y-70939528D01*
X232591528Y-70939528D02*
X232610528Y-70939528D01*
X232610528Y-70939528D02*
X234823000Y-73152000D01*
X234823000Y-73152000D02*
X234823000Y-89027000D01*
X223139000Y-89535000D02*
X228727000Y-89535000D01*
X219710000Y-89535000D02*
X223139000Y-89535000D01*
X216281000Y-89535000D02*
X219710000Y-89535000D01*
X215773000Y-92202000D02*
X215773000Y-90043000D01*
X215773000Y-90043000D02*
X216281000Y-89535000D01*
D36*
X242965000Y-74090000D02*
X242951000Y-74076000D01*
X242965000Y-75590000D02*
X242965000Y-74090000D01*
X242951000Y-74076000D02*
X242951000Y-73787000D01*
X242951000Y-73787000D02*
X243586000Y-73152000D01*
X239365000Y-71160000D02*
X238643000Y-71882000D01*
X239365000Y-69985000D02*
X239365000Y-71160000D01*
X183155000Y-105901000D02*
X183155000Y-108183000D01*
X206045000Y-105901000D02*
X206045000Y-107901000D01*
X205994000Y-107952000D02*
X206045000Y-107901000D01*
X205649000Y-103505000D02*
X206045000Y-103901000D01*
X201361000Y-103505000D02*
X205649000Y-103505000D01*
X200965000Y-103901000D02*
X201361000Y-103505000D01*
X206045000Y-103901000D02*
X206045000Y-105901000D01*
X200965000Y-105901000D02*
X200965000Y-103901000D01*
X239365000Y-69985000D02*
X239365000Y-67445000D01*
X238365000Y-74090000D02*
X239811000Y-72644000D01*
X238365000Y-75590000D02*
X238365000Y-74090000D01*
X239811000Y-72644000D02*
X241427000Y-72644000D01*
X241965000Y-72106000D02*
X241965000Y-69985000D01*
X241427000Y-72644000D02*
X241965000Y-72106000D01*
X238365000Y-77090000D02*
X237236000Y-78219000D01*
X238365000Y-75590000D02*
X238365000Y-77090000D01*
X238095000Y-89408000D02*
X239395000Y-89408000D01*
X237236000Y-88549000D02*
X238095000Y-89408000D01*
X237236000Y-78219000D02*
X237236000Y-88549000D01*
X237115000Y-75590000D02*
X238365000Y-75590000D01*
X194564000Y-121666000D02*
X194564000Y-124206000D01*
X214757000Y-110871000D02*
X214757000Y-114046000D01*
X194564000Y-117221000D02*
X194564000Y-121666000D01*
X200914000Y-110871000D02*
X194564000Y-117221000D01*
X237115000Y-75590000D02*
X236499000Y-75590000D01*
X168910000Y-117221000D02*
X194564000Y-117221000D01*
X168275000Y-103944001D02*
X168275000Y-116586000D01*
X168275000Y-116586000D02*
X168910000Y-117221000D01*
X239395000Y-94742000D02*
X239395000Y-89408000D01*
X214757000Y-96901000D02*
X215392000Y-96266000D01*
X215392000Y-96266000D02*
X217678000Y-96266000D01*
X238760000Y-95377000D02*
X239395000Y-94742000D01*
X214757000Y-110871000D02*
X214757000Y-96901000D01*
X217678000Y-96266000D02*
X218567000Y-95377000D01*
X218567000Y-95377000D02*
X238760000Y-95377000D01*
X241965000Y-69985000D02*
X241965000Y-67445000D01*
X218821000Y-69977000D02*
X218792000Y-70006000D01*
X218792000Y-70006000D02*
X218792000Y-70957000D01*
X218186000Y-69342000D02*
X218821000Y-69977000D01*
X210312000Y-70104000D02*
X211074000Y-69342000D01*
X211074000Y-69342000D02*
X218186000Y-69342000D01*
X207137000Y-70993000D02*
X208026000Y-70104000D01*
X207137000Y-75946000D02*
X207137000Y-70993000D01*
X208026000Y-70104000D02*
X210312000Y-70104000D01*
X240665000Y-75590000D02*
X240665000Y-81890000D01*
X240665000Y-83390000D02*
X241476000Y-84201000D01*
X240665000Y-81890000D02*
X240665000Y-83390000D01*
X241476000Y-84201000D02*
X242824000Y-84201000D01*
X242824000Y-84201000D02*
X243713000Y-85090000D01*
X243713000Y-85090000D02*
X243713000Y-96012000D01*
X243713000Y-96012000D02*
X242697000Y-97028000D01*
X242697000Y-97028000D02*
X240284000Y-97028000D01*
X239395000Y-97917000D02*
X239395000Y-100330000D01*
X240284000Y-97028000D02*
X239395000Y-97917000D01*
X184425000Y-103901000D02*
X184404000Y-103880000D01*
X184425000Y-105901000D02*
X184425000Y-103901000D01*
X184404000Y-103880000D02*
X184404000Y-102743000D01*
X184404000Y-102743000D02*
X184912000Y-102235000D01*
X211963000Y-87376000D02*
X211963000Y-102108000D01*
X211963000Y-87376000D02*
X211963000Y-86244630D01*
X211963000Y-86244630D02*
X211963000Y-85598000D01*
X202057000Y-81788000D02*
X202057000Y-83038000D01*
X239395000Y-101630000D02*
X240127000Y-102362000D01*
X239395000Y-100330000D02*
X239395000Y-101630000D01*
X240127000Y-102362000D02*
X243840000Y-102362000D01*
X244348000Y-102870000D02*
X244348000Y-108077000D01*
X243840000Y-102362000D02*
X244348000Y-102870000D01*
X244348000Y-108077000D02*
X244348000Y-111379000D01*
X202057000Y-83038000D02*
X202057000Y-83566000D01*
D35*
X174244000Y-122797370D02*
X174244000Y-130048000D01*
X174244000Y-121666000D02*
X174244000Y-122797370D01*
X176784000Y-121666000D02*
X176784000Y-130048000D01*
X179324000Y-127508000D02*
X181864000Y-130048000D01*
X179324000Y-121666000D02*
X179324000Y-127508000D01*
X181864000Y-127508000D02*
X184404000Y-130048000D01*
X181864000Y-121666000D02*
X181864000Y-127508000D01*
X184404000Y-127508000D02*
X186944000Y-130048000D01*
X184404000Y-121666000D02*
X184404000Y-127508000D01*
X186944000Y-127508000D02*
X189484000Y-130048000D01*
X186944000Y-121666000D02*
X186944000Y-127508000D01*
X189484000Y-127508000D02*
X192024000Y-130048000D01*
X189484000Y-121666000D02*
X189484000Y-127508000D01*
X192024000Y-127508000D02*
X194564000Y-130048000D01*
X192024000Y-121666000D02*
X192024000Y-127508000D01*
X217297000Y-115177370D02*
X216789000Y-115685370D01*
X217297000Y-114046000D02*
X217297000Y-115177370D01*
X216789000Y-115685370D02*
X197623630Y-115685370D01*
X197104000Y-116205000D02*
X197104000Y-130048000D01*
X197623630Y-115685370D02*
X197104000Y-116205000D01*
X219837000Y-114046000D02*
X219837000Y-115316000D01*
X219837000Y-115316000D02*
X218821000Y-116332000D01*
X218821000Y-116332000D02*
X200279000Y-116332000D01*
X199644000Y-116967000D02*
X199644000Y-130048000D01*
X200279000Y-116332000D02*
X199644000Y-116967000D01*
X222377000Y-114046000D02*
X222377000Y-115951000D01*
X204089000Y-116967000D02*
X203327000Y-117729000D01*
X203327000Y-128905000D02*
X202184000Y-130048000D01*
X221361000Y-116967000D02*
X204089000Y-116967000D01*
X222377000Y-115951000D02*
X221361000Y-116967000D01*
X203327000Y-117729000D02*
X203327000Y-128905000D01*
X224917000Y-114046000D02*
X224917000Y-116713000D01*
X224917000Y-116713000D02*
X224028000Y-117602000D01*
X224028000Y-117602000D02*
X206502000Y-117602000D01*
X206502000Y-117602000D02*
X205867000Y-118237000D01*
X205867000Y-128905000D02*
X204724000Y-130048000D01*
X205867000Y-118237000D02*
X205867000Y-128905000D01*
X227457000Y-117475000D02*
X227457000Y-114046000D01*
X226695000Y-118237000D02*
X227457000Y-117475000D01*
X208915000Y-118237000D02*
X226695000Y-118237000D01*
X208280000Y-127635000D02*
X208262001Y-127617001D01*
X208280000Y-129032000D02*
X208280000Y-127635000D01*
X208262001Y-127617001D02*
X208262001Y-118889999D01*
X207264000Y-130048000D02*
X208280000Y-129032000D01*
X208262001Y-118889999D02*
X208915000Y-118237000D01*
X229997000Y-114046000D02*
X229997000Y-117983000D01*
X229997000Y-117983000D02*
X229108000Y-118872000D01*
X229108000Y-118872000D02*
X211582000Y-118872000D01*
X211582000Y-118872000D02*
X210947000Y-119507000D01*
X210947000Y-128905000D02*
X209804000Y-130048000D01*
X210947000Y-119507000D02*
X210947000Y-128905000D01*
X232537000Y-114046000D02*
X232537000Y-118745000D01*
X232537000Y-118745000D02*
X231775000Y-119507000D01*
X214122000Y-119507000D02*
X213487000Y-120142000D01*
X213487000Y-128905000D02*
X212344000Y-130048000D01*
X231775000Y-119507000D02*
X214122000Y-119507000D01*
X213487000Y-120142000D02*
X213487000Y-128905000D01*
X216027000Y-128905000D02*
X214884000Y-130048000D01*
X235077000Y-118999000D02*
X233934000Y-120142000D01*
X235077000Y-114046000D02*
X235077000Y-118999000D01*
X216408000Y-120142000D02*
X216027000Y-120523000D01*
X233934000Y-120142000D02*
X216408000Y-120142000D01*
X216027000Y-120523000D02*
X216027000Y-128905000D01*
X235077000Y-121666000D02*
X235077000Y-127254000D01*
X235077000Y-127254000D02*
X235077000Y-127381000D01*
X217424000Y-127946685D02*
X217424000Y-130048000D01*
X217424000Y-127381000D02*
X217424000Y-127946685D01*
X232537000Y-121666000D02*
X232537000Y-126619000D01*
X219964000Y-126619000D02*
X219964000Y-130048000D01*
X229997000Y-122797370D02*
X229997000Y-125349000D01*
X229997000Y-121666000D02*
X229997000Y-122797370D01*
X229997000Y-125349000D02*
X229997000Y-125603000D01*
X229997000Y-125603000D02*
X229997000Y-125857000D01*
X222504000Y-126422685D02*
X222504000Y-130048000D01*
X222504000Y-125857000D02*
X222504000Y-126422685D01*
X227457000Y-121666000D02*
X227457000Y-122797370D01*
X227457000Y-122797370D02*
X227457000Y-124968000D01*
X225044000Y-124968000D02*
X225044000Y-130048000D01*
X224917000Y-121666000D02*
X224917000Y-122797370D01*
X224917000Y-122797370D02*
X224917000Y-123963627D01*
X224917000Y-123963627D02*
X224902579Y-123978048D01*
X226160952Y-128624952D02*
X226160952Y-123978048D01*
X227584000Y-130048000D02*
X226160952Y-128624952D01*
X222377000Y-121666000D02*
X222377000Y-122797370D01*
X222377000Y-122797370D02*
X222377000Y-123190000D01*
X228854000Y-128778000D02*
X230124000Y-130048000D01*
X228854000Y-123190000D02*
X228854000Y-128778000D01*
X231267000Y-128651000D02*
X232664000Y-130048000D01*
X231267000Y-120904000D02*
X231267000Y-128651000D01*
X233807000Y-128651000D02*
X235204000Y-130048000D01*
X233807000Y-120904000D02*
X233807000Y-128651000D01*
X215519000Y-74416000D02*
X214092000Y-72989000D01*
X215519000Y-79756000D02*
X215519000Y-74416000D01*
X193315000Y-105901000D02*
X193315000Y-104415000D01*
X193315000Y-104415000D02*
X193294000Y-104394000D01*
X193294000Y-104394000D02*
X193294000Y-103505000D01*
X193294000Y-103505000D02*
X193548000Y-103251000D01*
X213995000Y-79756000D02*
X215519000Y-79756000D01*
X213741000Y-80010000D02*
X213995000Y-79756000D01*
X213741000Y-88519000D02*
X213741000Y-80010000D01*
X212979000Y-103124000D02*
X212979000Y-89281000D01*
X212979000Y-89281000D02*
X213741000Y-88519000D01*
X214092000Y-70957000D02*
X214092000Y-72989000D01*
X211992000Y-79727000D02*
X211963000Y-79756000D01*
X211992000Y-75489000D02*
X211992000Y-79727000D01*
X192045000Y-104151000D02*
X192024000Y-104130000D01*
X192045000Y-105901000D02*
X192045000Y-104151000D01*
X192024000Y-104130000D02*
X192024000Y-101727000D01*
X192024000Y-101727000D02*
X192532000Y-101219000D01*
X208661000Y-100965000D02*
X208661000Y-97282000D01*
X208661000Y-97282000D02*
X208661000Y-97536000D01*
X208661000Y-94488000D02*
X208661000Y-97282000D01*
X208661000Y-80772000D02*
X208661000Y-94488000D01*
X208661000Y-80772000D02*
X208661000Y-80010000D01*
X208661000Y-80010000D02*
X208915000Y-79756000D01*
X208915000Y-79756000D02*
X208915000Y-79756000D01*
X211992000Y-75489000D02*
X211992000Y-73457000D01*
X190373000Y-73926700D02*
X190258700Y-73812400D01*
X190373000Y-79502000D02*
X190373000Y-73926700D01*
X183769000Y-79248000D02*
X183769000Y-75565000D01*
X183769000Y-75565000D02*
X184023000Y-75311000D01*
X184023000Y-75311000D02*
X187706000Y-75311000D01*
X187972700Y-75044300D02*
X187972700Y-73812400D01*
X187706000Y-75311000D02*
X187972700Y-75044300D01*
X178054000Y-82804000D02*
X182499000Y-82804000D01*
X182499000Y-82804000D02*
X182753000Y-82550000D01*
X182753000Y-82550000D02*
X182753000Y-74041000D01*
X182981600Y-73812400D02*
X185681620Y-73812400D01*
X182753000Y-74041000D02*
X182981600Y-73812400D01*
X195855000Y-104151000D02*
X195834000Y-104130000D01*
X195855000Y-105901000D02*
X195855000Y-104151000D01*
X195834000Y-104130000D02*
X195834000Y-98044000D01*
X195834000Y-98044000D02*
X196088000Y-97790000D01*
X210402000Y-78576000D02*
X210402000Y-80936000D01*
X209804000Y-77978000D02*
X210402000Y-78576000D01*
X203835000Y-77470000D02*
X204343000Y-77978000D01*
X204343000Y-77978000D02*
X209804000Y-77978000D01*
X210402000Y-80936000D02*
X210402000Y-97536000D01*
X190261240Y-70815200D02*
X190261240Y-69326760D01*
X196274401Y-69145991D02*
X196792010Y-69663600D01*
X190261240Y-69326760D02*
X190442010Y-69145990D01*
X190442010Y-69145990D02*
X196274401Y-69145991D01*
X196792010Y-69663600D02*
X196792010Y-76777010D01*
X197485000Y-77470000D02*
X203835000Y-77470000D01*
X196792010Y-76777010D02*
X197485000Y-77470000D01*
X194585000Y-86121000D02*
X193681000Y-85217000D01*
X194585000Y-87871000D02*
X194585000Y-86121000D01*
X193681000Y-85217000D02*
X193681000Y-76194000D01*
X193681000Y-76194000D02*
X194056000Y-75819000D01*
X194056000Y-75819000D02*
X196088000Y-75819000D01*
X196088000Y-75819000D02*
X196342000Y-75565000D01*
X196342000Y-75565000D02*
X196342000Y-69850000D01*
X196342000Y-69850000D02*
X196088000Y-69596000D01*
X196088000Y-69596000D02*
X192786000Y-69596000D01*
X192552320Y-69829680D02*
X192552320Y-70812660D01*
X192786000Y-69596000D02*
X192552320Y-69829680D01*
X188235000Y-86121000D02*
X188468000Y-85888000D01*
X188235000Y-87871000D02*
X188235000Y-86121000D01*
X188468000Y-85888000D02*
X188468000Y-84111000D01*
X170895082Y-84582000D02*
X170895082Y-100757918D01*
X170248999Y-101404001D02*
X168275000Y-101404001D01*
X170895082Y-100757918D02*
X170248999Y-101404001D01*
X169477081Y-98864001D02*
X170170082Y-98171000D01*
X168275000Y-98864001D02*
X169477081Y-98864001D01*
X170170082Y-98171000D02*
X170170082Y-81670918D01*
X186965000Y-86121000D02*
X187452000Y-85634000D01*
X186965000Y-87871000D02*
X186965000Y-86121000D01*
X187452000Y-85634000D02*
X187452000Y-81915000D01*
X170170082Y-81670918D02*
X170170082Y-81670918D01*
X187452000Y-81915000D02*
X187452000Y-81788000D01*
X185695000Y-110088000D02*
X185695000Y-105901000D01*
X182372000Y-110490000D02*
X185293000Y-110490000D01*
X185293000Y-110490000D02*
X185695000Y-110088000D01*
X181864000Y-114046000D02*
X181864000Y-110998000D01*
X181864000Y-110998000D02*
X182372000Y-110490000D01*
X209677000Y-121666000D02*
X209677000Y-120534630D01*
X209677000Y-120534630D02*
X209677000Y-119634000D01*
X209677000Y-119634000D02*
X209296000Y-119253000D01*
X181864000Y-110998000D02*
X181356000Y-110490000D01*
X173032001Y-93784001D02*
X173032001Y-93784001D01*
X173228000Y-93980000D02*
X173228000Y-110236000D01*
X173032001Y-93784001D02*
X173228000Y-93980000D01*
X181356000Y-110490000D02*
X181356000Y-110490000D01*
X173228000Y-110236000D02*
X173228000Y-110490000D01*
X167640000Y-132588000D02*
X168402000Y-131826000D01*
X168402000Y-131826000D02*
X168402000Y-128397000D01*
X166878000Y-132588000D02*
X167640000Y-132588000D01*
X168402000Y-128397000D02*
X168402000Y-128143000D01*
X168402000Y-128143000D02*
X166370000Y-126111000D01*
X166370000Y-126111000D02*
X166370000Y-110871000D01*
X166370000Y-110871000D02*
X166751000Y-110490000D01*
X168275000Y-81591685D02*
X168275000Y-91244001D01*
X168275000Y-81026000D02*
X168275000Y-81591685D01*
X199665000Y-86121000D02*
X199665000Y-87871000D01*
X199390000Y-85846000D02*
X199665000Y-86121000D01*
X199390000Y-81280000D02*
X199390000Y-85846000D01*
X199390000Y-81280000D02*
X198882000Y-80772000D01*
X241427000Y-111379000D02*
X236728000Y-111379000D01*
X244221000Y-131041564D02*
X244221000Y-114173000D01*
X244221000Y-114173000D02*
X241427000Y-111379000D01*
X243404000Y-133096000D02*
X243404000Y-131858564D01*
X243404000Y-131858564D02*
X244221000Y-131041564D01*
X190775000Y-107651000D02*
X190754000Y-107672000D01*
X190775000Y-105901000D02*
X190775000Y-107651000D01*
X190754000Y-107672000D02*
X190754000Y-108585000D01*
X190754000Y-111252000D02*
X190754000Y-108585000D01*
X190754000Y-108585000D02*
X190754000Y-108839000D01*
X192045000Y-86121000D02*
X192568000Y-85598000D01*
X192045000Y-87871000D02*
X192045000Y-86121000D01*
X200787000Y-85090000D02*
X200787000Y-81788000D01*
X202057000Y-109982000D02*
X202057000Y-114046000D01*
X207137000Y-82042000D02*
X207137000Y-83566000D01*
X203327000Y-81788000D02*
X206883000Y-81788000D01*
X206883000Y-81788000D02*
X207137000Y-82042000D01*
X207899000Y-84328000D02*
X207137000Y-83566000D01*
X207391000Y-109982000D02*
X207899000Y-109474000D01*
X207899000Y-109474000D02*
X207899000Y-84328000D01*
X185695000Y-82698000D02*
X185674000Y-82677000D01*
X185695000Y-87871000D02*
X185695000Y-82698000D01*
X189505000Y-86121000D02*
X189484000Y-86100000D01*
X189505000Y-87871000D02*
X189505000Y-86121000D01*
X189484000Y-86100000D02*
X189484000Y-83947000D01*
X189484000Y-83947000D02*
X188722000Y-83185000D01*
X185674000Y-79502000D02*
X188468000Y-79502000D01*
X188722000Y-79756000D02*
X188468000Y-79502000D01*
X188722000Y-83185000D02*
X188722000Y-79756000D01*
X184425000Y-86121000D02*
X184404000Y-86100000D01*
X184425000Y-87871000D02*
X184425000Y-86121000D01*
X184404000Y-86100000D02*
X184404000Y-85217000D01*
X184404000Y-85217000D02*
X184785000Y-84836000D01*
X194818000Y-79502000D02*
X197993000Y-79502000D01*
X194564000Y-84582000D02*
X194564000Y-79756000D01*
X194564000Y-79756000D02*
X194818000Y-79502000D01*
X194564000Y-105880000D02*
X194585000Y-105901000D01*
X194564000Y-100330000D02*
X194564000Y-105880000D01*
X223139000Y-98286370D02*
X223139000Y-97155000D01*
X223139000Y-99695000D02*
X223139000Y-98286370D01*
X193315000Y-89621000D02*
X192893000Y-90043000D01*
X193315000Y-87871000D02*
X193315000Y-89621000D01*
X192893000Y-90043000D02*
X182753000Y-90043000D01*
X182753000Y-90043000D02*
X182118000Y-90678000D01*
X182118000Y-90678000D02*
X182118000Y-106426000D01*
X182118000Y-106426000D02*
X181737000Y-106807000D01*
X181737000Y-106807000D02*
X179705000Y-106807000D01*
X179705000Y-106807000D02*
X179324000Y-107188000D01*
X179324000Y-107188000D02*
X179324000Y-109474000D01*
X179324000Y-109474000D02*
X179324000Y-114046000D01*
X202692000Y-91059000D02*
X202235000Y-90602000D01*
X202235000Y-90602000D02*
X202235000Y-87901000D01*
X209677000Y-91350000D02*
X209386000Y-91059000D01*
X209677000Y-114046000D02*
X209677000Y-91350000D01*
X202235000Y-107651000D02*
X202235000Y-105901000D01*
X204597000Y-108712000D02*
X204343000Y-108458000D01*
X204597000Y-114046000D02*
X204597000Y-108712000D01*
X202565000Y-108458000D02*
X202235000Y-108128000D01*
X204343000Y-108458000D02*
X202565000Y-108458000D01*
X202235000Y-108128000D02*
X202235000Y-107651000D01*
X192024000Y-114046000D02*
X192024000Y-112914630D01*
X192024000Y-112914630D02*
X192024000Y-108839000D01*
X192024000Y-108839000D02*
X192278000Y-108585000D01*
X198395000Y-107651000D02*
X198374000Y-107672000D01*
X198395000Y-105901000D02*
X198395000Y-107651000D01*
X198374000Y-107672000D02*
X198374000Y-112141000D01*
X196469000Y-114046000D02*
X194564000Y-114046000D01*
X198374000Y-112141000D02*
X196469000Y-114046000D01*
X197125000Y-107651000D02*
X197104000Y-107672000D01*
X176784000Y-114046000D02*
X176784000Y-112914630D01*
X176784000Y-112914630D02*
X176784000Y-109601000D01*
X176784000Y-109601000D02*
X177038000Y-109347000D01*
X197104000Y-107569000D02*
X197125000Y-107548000D01*
X197104000Y-109310000D02*
X197104000Y-107569000D01*
X197125000Y-105901000D02*
X197125000Y-107548000D01*
X197125000Y-107548000D02*
X197125000Y-107651000D01*
M02*
