G04 #@! TF.GenerationSoftware,KiCad,Pcbnew,(5.1.5)-3*
G04 #@! TF.CreationDate,2021-09-07T21:26:42+12:00*
G04 #@! TF.ProjectId,PocketTRS,506f636b-6574-4545-9253-2e6b69636164,rev?*
G04 #@! TF.SameCoordinates,Original*
G04 #@! TF.FileFunction,Soldermask,Top*
G04 #@! TF.FilePolarity,Negative*
%FSLAX46Y46*%
G04 Gerber Fmt 4.6, Leading zero omitted, Abs format (unit mm)*
G04 Created by KiCad (PCBNEW (5.1.5)-3) date 2021-09-07 21:26:42*
%MOMM*%
%LPD*%
G04 APERTURE LIST*
%ADD10C,0.050000*%
%ADD11C,0.100000*%
G04 APERTURE END LIST*
D10*
X175260000Y-135890000D02*
X176022000Y-135890000D01*
X241808000Y-145542000D02*
X241300000Y-145542000D01*
X241808000Y-135890000D02*
X252730000Y-135890000D01*
X241808000Y-145542000D02*
X241808000Y-135890000D01*
X176022000Y-145542000D02*
X241300000Y-145542000D01*
X176022000Y-135890000D02*
X176022000Y-145542000D01*
X165100000Y-135890000D02*
X175260000Y-135890000D01*
X165100000Y-135890000D02*
X165100000Y-114046000D01*
X165100000Y-64770000D02*
X165100000Y-85852000D01*
X171323000Y-85852000D02*
X171323000Y-90805000D01*
X171323000Y-85852000D02*
X165100000Y-85852000D01*
X171323000Y-114046000D02*
X171323000Y-90805000D01*
X165100000Y-114046000D02*
X171323000Y-114046000D01*
X252730000Y-64770000D02*
X252730000Y-61976000D01*
X165100000Y-61976000D02*
X165100000Y-64770000D01*
X252730000Y-64770000D02*
X252730000Y-135890000D01*
X165100000Y-61976000D02*
X252730000Y-61976000D01*
D11*
G36*
X240335000Y-144831000D02*
G01*
X238455000Y-144831000D01*
X238455000Y-137109000D01*
X240335000Y-137109000D01*
X240335000Y-144831000D01*
G37*
G36*
X209855000Y-144831000D02*
G01*
X207975000Y-144831000D01*
X207975000Y-137109000D01*
X209855000Y-137109000D01*
X209855000Y-144831000D01*
G37*
G36*
X179375000Y-144831000D02*
G01*
X177495000Y-144831000D01*
X177495000Y-137109000D01*
X179375000Y-137109000D01*
X179375000Y-144831000D01*
G37*
G36*
X181915000Y-144831000D02*
G01*
X180035000Y-144831000D01*
X180035000Y-137109000D01*
X181915000Y-137109000D01*
X181915000Y-144831000D01*
G37*
G36*
X184455000Y-144831000D02*
G01*
X182575000Y-144831000D01*
X182575000Y-137109000D01*
X184455000Y-137109000D01*
X184455000Y-144831000D01*
G37*
G36*
X186995000Y-144831000D02*
G01*
X185115000Y-144831000D01*
X185115000Y-137109000D01*
X186995000Y-137109000D01*
X186995000Y-144831000D01*
G37*
G36*
X189535000Y-144831000D02*
G01*
X187655000Y-144831000D01*
X187655000Y-137109000D01*
X189535000Y-137109000D01*
X189535000Y-144831000D01*
G37*
G36*
X192075000Y-144831000D02*
G01*
X190195000Y-144831000D01*
X190195000Y-137109000D01*
X192075000Y-137109000D01*
X192075000Y-144831000D01*
G37*
G36*
X194615000Y-144831000D02*
G01*
X192735000Y-144831000D01*
X192735000Y-137109000D01*
X194615000Y-137109000D01*
X194615000Y-144831000D01*
G37*
G36*
X197155000Y-144831000D02*
G01*
X195275000Y-144831000D01*
X195275000Y-137109000D01*
X197155000Y-137109000D01*
X197155000Y-144831000D01*
G37*
G36*
X199695000Y-144831000D02*
G01*
X197815000Y-144831000D01*
X197815000Y-137109000D01*
X199695000Y-137109000D01*
X199695000Y-144831000D01*
G37*
G36*
X202235000Y-144831000D02*
G01*
X200355000Y-144831000D01*
X200355000Y-137109000D01*
X202235000Y-137109000D01*
X202235000Y-144831000D01*
G37*
G36*
X204775000Y-144831000D02*
G01*
X202895000Y-144831000D01*
X202895000Y-137109000D01*
X204775000Y-137109000D01*
X204775000Y-144831000D01*
G37*
G36*
X212395000Y-144831000D02*
G01*
X210515000Y-144831000D01*
X210515000Y-137109000D01*
X212395000Y-137109000D01*
X212395000Y-144831000D01*
G37*
G36*
X214935000Y-144831000D02*
G01*
X213055000Y-144831000D01*
X213055000Y-137109000D01*
X214935000Y-137109000D01*
X214935000Y-144831000D01*
G37*
G36*
X217475000Y-144831000D02*
G01*
X215595000Y-144831000D01*
X215595000Y-137109000D01*
X217475000Y-137109000D01*
X217475000Y-144831000D01*
G37*
G36*
X220015000Y-144831000D02*
G01*
X218135000Y-144831000D01*
X218135000Y-137109000D01*
X220015000Y-137109000D01*
X220015000Y-144831000D01*
G37*
G36*
X222555000Y-144831000D02*
G01*
X220675000Y-144831000D01*
X220675000Y-137109000D01*
X222555000Y-137109000D01*
X222555000Y-144831000D01*
G37*
G36*
X225095000Y-144831000D02*
G01*
X223215000Y-144831000D01*
X223215000Y-137109000D01*
X225095000Y-137109000D01*
X225095000Y-144831000D01*
G37*
G36*
X227635000Y-144831000D02*
G01*
X225755000Y-144831000D01*
X225755000Y-137109000D01*
X227635000Y-137109000D01*
X227635000Y-144831000D01*
G37*
G36*
X230175000Y-144831000D02*
G01*
X228295000Y-144831000D01*
X228295000Y-137109000D01*
X230175000Y-137109000D01*
X230175000Y-144831000D01*
G37*
G36*
X232715000Y-144831000D02*
G01*
X230835000Y-144831000D01*
X230835000Y-137109000D01*
X232715000Y-137109000D01*
X232715000Y-144831000D01*
G37*
G36*
X235255000Y-144831000D02*
G01*
X233375000Y-144831000D01*
X233375000Y-137109000D01*
X235255000Y-137109000D01*
X235255000Y-144831000D01*
G37*
G36*
X237795000Y-144831000D02*
G01*
X235915000Y-144831000D01*
X235915000Y-137109000D01*
X237795000Y-137109000D01*
X237795000Y-144831000D01*
G37*
G36*
X207315000Y-144831000D02*
G01*
X205435000Y-144831000D01*
X205435000Y-137109000D01*
X207315000Y-137109000D01*
X207315000Y-144831000D01*
G37*
G36*
X249646886Y-130846456D02*
G01*
X249782579Y-130873447D01*
X250083042Y-130997903D01*
X250353451Y-131178585D01*
X250583415Y-131408549D01*
X250583416Y-131408551D01*
X250764098Y-131678960D01*
X250888553Y-131979422D01*
X250952000Y-132298389D01*
X250952000Y-132623611D01*
X250909702Y-132836256D01*
X250888553Y-132942579D01*
X250764097Y-133243042D01*
X250583415Y-133513451D01*
X250353451Y-133743415D01*
X250083042Y-133924097D01*
X249782579Y-134048553D01*
X249676256Y-134069702D01*
X249463611Y-134112000D01*
X249138389Y-134112000D01*
X248925744Y-134069702D01*
X248819421Y-134048553D01*
X248518958Y-133924097D01*
X248248549Y-133743415D01*
X248018585Y-133513451D01*
X247837903Y-133243042D01*
X247713447Y-132942579D01*
X247692298Y-132836256D01*
X247650000Y-132623611D01*
X247650000Y-132298389D01*
X247713447Y-131979422D01*
X247837902Y-131678960D01*
X248018584Y-131408551D01*
X248018585Y-131408549D01*
X248248549Y-131178585D01*
X248518958Y-130997903D01*
X248819421Y-130873447D01*
X248955114Y-130846456D01*
X249138389Y-130810000D01*
X249463611Y-130810000D01*
X249646886Y-130846456D01*
G37*
G36*
X168874886Y-130846456D02*
G01*
X169010579Y-130873447D01*
X169311042Y-130997903D01*
X169581451Y-131178585D01*
X169811415Y-131408549D01*
X169811416Y-131408551D01*
X169992098Y-131678960D01*
X170116553Y-131979422D01*
X170180000Y-132298389D01*
X170180000Y-132623611D01*
X170137702Y-132836256D01*
X170116553Y-132942579D01*
X169992097Y-133243042D01*
X169811415Y-133513451D01*
X169581451Y-133743415D01*
X169311042Y-133924097D01*
X169010579Y-134048553D01*
X168904256Y-134069702D01*
X168691611Y-134112000D01*
X168366389Y-134112000D01*
X168153744Y-134069702D01*
X168047421Y-134048553D01*
X167746958Y-133924097D01*
X167476549Y-133743415D01*
X167246585Y-133513451D01*
X167065903Y-133243042D01*
X166941447Y-132942579D01*
X166920298Y-132836256D01*
X166878000Y-132623611D01*
X166878000Y-132298389D01*
X166941447Y-131979422D01*
X167065902Y-131678960D01*
X167246584Y-131408551D01*
X167246585Y-131408549D01*
X167476549Y-131178585D01*
X167746958Y-130997903D01*
X168047421Y-130873447D01*
X168183114Y-130846456D01*
X168366389Y-130810000D01*
X168691611Y-130810000D01*
X168874886Y-130846456D01*
G37*
G36*
X216648512Y-131691927D02*
G01*
X216797812Y-131721624D01*
X216961784Y-131789544D01*
X217109354Y-131888147D01*
X217234853Y-132013646D01*
X217333456Y-132161216D01*
X217401376Y-132325188D01*
X217436000Y-132499259D01*
X217436000Y-132676741D01*
X217401376Y-132850812D01*
X217333456Y-133014784D01*
X217234853Y-133162354D01*
X217109354Y-133287853D01*
X216961784Y-133386456D01*
X216797812Y-133454376D01*
X216648512Y-133484073D01*
X216623742Y-133489000D01*
X216446258Y-133489000D01*
X216421488Y-133484073D01*
X216272188Y-133454376D01*
X216108216Y-133386456D01*
X215960646Y-133287853D01*
X215835147Y-133162354D01*
X215736544Y-133014784D01*
X215668624Y-132850812D01*
X215634000Y-132676741D01*
X215634000Y-132499259D01*
X215668624Y-132325188D01*
X215736544Y-132161216D01*
X215835147Y-132013646D01*
X215960646Y-131888147D01*
X216108216Y-131789544D01*
X216272188Y-131721624D01*
X216421488Y-131691927D01*
X216446258Y-131687000D01*
X216623742Y-131687000D01*
X216648512Y-131691927D01*
G37*
G36*
X183628512Y-131691927D02*
G01*
X183777812Y-131721624D01*
X183941784Y-131789544D01*
X184089354Y-131888147D01*
X184214853Y-132013646D01*
X184313456Y-132161216D01*
X184381376Y-132325188D01*
X184416000Y-132499259D01*
X184416000Y-132676741D01*
X184381376Y-132850812D01*
X184313456Y-133014784D01*
X184214853Y-133162354D01*
X184089354Y-133287853D01*
X183941784Y-133386456D01*
X183777812Y-133454376D01*
X183628512Y-133484073D01*
X183603742Y-133489000D01*
X183426258Y-133489000D01*
X183401488Y-133484073D01*
X183252188Y-133454376D01*
X183088216Y-133386456D01*
X182940646Y-133287853D01*
X182815147Y-133162354D01*
X182716544Y-133014784D01*
X182648624Y-132850812D01*
X182614000Y-132676741D01*
X182614000Y-132499259D01*
X182648624Y-132325188D01*
X182716544Y-132161216D01*
X182815147Y-132013646D01*
X182940646Y-131888147D01*
X183088216Y-131789544D01*
X183252188Y-131721624D01*
X183401488Y-131691927D01*
X183426258Y-131687000D01*
X183603742Y-131687000D01*
X183628512Y-131691927D01*
G37*
G36*
X186168512Y-131691927D02*
G01*
X186317812Y-131721624D01*
X186481784Y-131789544D01*
X186629354Y-131888147D01*
X186754853Y-132013646D01*
X186853456Y-132161216D01*
X186921376Y-132325188D01*
X186956000Y-132499259D01*
X186956000Y-132676741D01*
X186921376Y-132850812D01*
X186853456Y-133014784D01*
X186754853Y-133162354D01*
X186629354Y-133287853D01*
X186481784Y-133386456D01*
X186317812Y-133454376D01*
X186168512Y-133484073D01*
X186143742Y-133489000D01*
X185966258Y-133489000D01*
X185941488Y-133484073D01*
X185792188Y-133454376D01*
X185628216Y-133386456D01*
X185480646Y-133287853D01*
X185355147Y-133162354D01*
X185256544Y-133014784D01*
X185188624Y-132850812D01*
X185154000Y-132676741D01*
X185154000Y-132499259D01*
X185188624Y-132325188D01*
X185256544Y-132161216D01*
X185355147Y-132013646D01*
X185480646Y-131888147D01*
X185628216Y-131789544D01*
X185792188Y-131721624D01*
X185941488Y-131691927D01*
X185966258Y-131687000D01*
X186143742Y-131687000D01*
X186168512Y-131691927D01*
G37*
G36*
X188708512Y-131691927D02*
G01*
X188857812Y-131721624D01*
X189021784Y-131789544D01*
X189169354Y-131888147D01*
X189294853Y-132013646D01*
X189393456Y-132161216D01*
X189461376Y-132325188D01*
X189496000Y-132499259D01*
X189496000Y-132676741D01*
X189461376Y-132850812D01*
X189393456Y-133014784D01*
X189294853Y-133162354D01*
X189169354Y-133287853D01*
X189021784Y-133386456D01*
X188857812Y-133454376D01*
X188708512Y-133484073D01*
X188683742Y-133489000D01*
X188506258Y-133489000D01*
X188481488Y-133484073D01*
X188332188Y-133454376D01*
X188168216Y-133386456D01*
X188020646Y-133287853D01*
X187895147Y-133162354D01*
X187796544Y-133014784D01*
X187728624Y-132850812D01*
X187694000Y-132676741D01*
X187694000Y-132499259D01*
X187728624Y-132325188D01*
X187796544Y-132161216D01*
X187895147Y-132013646D01*
X188020646Y-131888147D01*
X188168216Y-131789544D01*
X188332188Y-131721624D01*
X188481488Y-131691927D01*
X188506258Y-131687000D01*
X188683742Y-131687000D01*
X188708512Y-131691927D01*
G37*
G36*
X191248512Y-131691927D02*
G01*
X191397812Y-131721624D01*
X191561784Y-131789544D01*
X191709354Y-131888147D01*
X191834853Y-132013646D01*
X191933456Y-132161216D01*
X192001376Y-132325188D01*
X192036000Y-132499259D01*
X192036000Y-132676741D01*
X192001376Y-132850812D01*
X191933456Y-133014784D01*
X191834853Y-133162354D01*
X191709354Y-133287853D01*
X191561784Y-133386456D01*
X191397812Y-133454376D01*
X191248512Y-133484073D01*
X191223742Y-133489000D01*
X191046258Y-133489000D01*
X191021488Y-133484073D01*
X190872188Y-133454376D01*
X190708216Y-133386456D01*
X190560646Y-133287853D01*
X190435147Y-133162354D01*
X190336544Y-133014784D01*
X190268624Y-132850812D01*
X190234000Y-132676741D01*
X190234000Y-132499259D01*
X190268624Y-132325188D01*
X190336544Y-132161216D01*
X190435147Y-132013646D01*
X190560646Y-131888147D01*
X190708216Y-131789544D01*
X190872188Y-131721624D01*
X191021488Y-131691927D01*
X191046258Y-131687000D01*
X191223742Y-131687000D01*
X191248512Y-131691927D01*
G37*
G36*
X193788512Y-131691927D02*
G01*
X193937812Y-131721624D01*
X194101784Y-131789544D01*
X194249354Y-131888147D01*
X194374853Y-132013646D01*
X194473456Y-132161216D01*
X194541376Y-132325188D01*
X194576000Y-132499259D01*
X194576000Y-132676741D01*
X194541376Y-132850812D01*
X194473456Y-133014784D01*
X194374853Y-133162354D01*
X194249354Y-133287853D01*
X194101784Y-133386456D01*
X193937812Y-133454376D01*
X193788512Y-133484073D01*
X193763742Y-133489000D01*
X193586258Y-133489000D01*
X193561488Y-133484073D01*
X193412188Y-133454376D01*
X193248216Y-133386456D01*
X193100646Y-133287853D01*
X192975147Y-133162354D01*
X192876544Y-133014784D01*
X192808624Y-132850812D01*
X192774000Y-132676741D01*
X192774000Y-132499259D01*
X192808624Y-132325188D01*
X192876544Y-132161216D01*
X192975147Y-132013646D01*
X193100646Y-131888147D01*
X193248216Y-131789544D01*
X193412188Y-131721624D01*
X193561488Y-131691927D01*
X193586258Y-131687000D01*
X193763742Y-131687000D01*
X193788512Y-131691927D01*
G37*
G36*
X196328512Y-131691927D02*
G01*
X196477812Y-131721624D01*
X196641784Y-131789544D01*
X196789354Y-131888147D01*
X196914853Y-132013646D01*
X197013456Y-132161216D01*
X197081376Y-132325188D01*
X197116000Y-132499259D01*
X197116000Y-132676741D01*
X197081376Y-132850812D01*
X197013456Y-133014784D01*
X196914853Y-133162354D01*
X196789354Y-133287853D01*
X196641784Y-133386456D01*
X196477812Y-133454376D01*
X196328512Y-133484073D01*
X196303742Y-133489000D01*
X196126258Y-133489000D01*
X196101488Y-133484073D01*
X195952188Y-133454376D01*
X195788216Y-133386456D01*
X195640646Y-133287853D01*
X195515147Y-133162354D01*
X195416544Y-133014784D01*
X195348624Y-132850812D01*
X195314000Y-132676741D01*
X195314000Y-132499259D01*
X195348624Y-132325188D01*
X195416544Y-132161216D01*
X195515147Y-132013646D01*
X195640646Y-131888147D01*
X195788216Y-131789544D01*
X195952188Y-131721624D01*
X196101488Y-131691927D01*
X196126258Y-131687000D01*
X196303742Y-131687000D01*
X196328512Y-131691927D01*
G37*
G36*
X198868512Y-131691927D02*
G01*
X199017812Y-131721624D01*
X199181784Y-131789544D01*
X199329354Y-131888147D01*
X199454853Y-132013646D01*
X199553456Y-132161216D01*
X199621376Y-132325188D01*
X199656000Y-132499259D01*
X199656000Y-132676741D01*
X199621376Y-132850812D01*
X199553456Y-133014784D01*
X199454853Y-133162354D01*
X199329354Y-133287853D01*
X199181784Y-133386456D01*
X199017812Y-133454376D01*
X198868512Y-133484073D01*
X198843742Y-133489000D01*
X198666258Y-133489000D01*
X198641488Y-133484073D01*
X198492188Y-133454376D01*
X198328216Y-133386456D01*
X198180646Y-133287853D01*
X198055147Y-133162354D01*
X197956544Y-133014784D01*
X197888624Y-132850812D01*
X197854000Y-132676741D01*
X197854000Y-132499259D01*
X197888624Y-132325188D01*
X197956544Y-132161216D01*
X198055147Y-132013646D01*
X198180646Y-131888147D01*
X198328216Y-131789544D01*
X198492188Y-131721624D01*
X198641488Y-131691927D01*
X198666258Y-131687000D01*
X198843742Y-131687000D01*
X198868512Y-131691927D01*
G37*
G36*
X201408512Y-131691927D02*
G01*
X201557812Y-131721624D01*
X201721784Y-131789544D01*
X201869354Y-131888147D01*
X201994853Y-132013646D01*
X202093456Y-132161216D01*
X202161376Y-132325188D01*
X202196000Y-132499259D01*
X202196000Y-132676741D01*
X202161376Y-132850812D01*
X202093456Y-133014784D01*
X201994853Y-133162354D01*
X201869354Y-133287853D01*
X201721784Y-133386456D01*
X201557812Y-133454376D01*
X201408512Y-133484073D01*
X201383742Y-133489000D01*
X201206258Y-133489000D01*
X201181488Y-133484073D01*
X201032188Y-133454376D01*
X200868216Y-133386456D01*
X200720646Y-133287853D01*
X200595147Y-133162354D01*
X200496544Y-133014784D01*
X200428624Y-132850812D01*
X200394000Y-132676741D01*
X200394000Y-132499259D01*
X200428624Y-132325188D01*
X200496544Y-132161216D01*
X200595147Y-132013646D01*
X200720646Y-131888147D01*
X200868216Y-131789544D01*
X201032188Y-131721624D01*
X201181488Y-131691927D01*
X201206258Y-131687000D01*
X201383742Y-131687000D01*
X201408512Y-131691927D01*
G37*
G36*
X203948512Y-131691927D02*
G01*
X204097812Y-131721624D01*
X204261784Y-131789544D01*
X204409354Y-131888147D01*
X204534853Y-132013646D01*
X204633456Y-132161216D01*
X204701376Y-132325188D01*
X204736000Y-132499259D01*
X204736000Y-132676741D01*
X204701376Y-132850812D01*
X204633456Y-133014784D01*
X204534853Y-133162354D01*
X204409354Y-133287853D01*
X204261784Y-133386456D01*
X204097812Y-133454376D01*
X203948512Y-133484073D01*
X203923742Y-133489000D01*
X203746258Y-133489000D01*
X203721488Y-133484073D01*
X203572188Y-133454376D01*
X203408216Y-133386456D01*
X203260646Y-133287853D01*
X203135147Y-133162354D01*
X203036544Y-133014784D01*
X202968624Y-132850812D01*
X202934000Y-132676741D01*
X202934000Y-132499259D01*
X202968624Y-132325188D01*
X203036544Y-132161216D01*
X203135147Y-132013646D01*
X203260646Y-131888147D01*
X203408216Y-131789544D01*
X203572188Y-131721624D01*
X203721488Y-131691927D01*
X203746258Y-131687000D01*
X203923742Y-131687000D01*
X203948512Y-131691927D01*
G37*
G36*
X206488512Y-131691927D02*
G01*
X206637812Y-131721624D01*
X206801784Y-131789544D01*
X206949354Y-131888147D01*
X207074853Y-132013646D01*
X207173456Y-132161216D01*
X207241376Y-132325188D01*
X207276000Y-132499259D01*
X207276000Y-132676741D01*
X207241376Y-132850812D01*
X207173456Y-133014784D01*
X207074853Y-133162354D01*
X206949354Y-133287853D01*
X206801784Y-133386456D01*
X206637812Y-133454376D01*
X206488512Y-133484073D01*
X206463742Y-133489000D01*
X206286258Y-133489000D01*
X206261488Y-133484073D01*
X206112188Y-133454376D01*
X205948216Y-133386456D01*
X205800646Y-133287853D01*
X205675147Y-133162354D01*
X205576544Y-133014784D01*
X205508624Y-132850812D01*
X205474000Y-132676741D01*
X205474000Y-132499259D01*
X205508624Y-132325188D01*
X205576544Y-132161216D01*
X205675147Y-132013646D01*
X205800646Y-131888147D01*
X205948216Y-131789544D01*
X206112188Y-131721624D01*
X206261488Y-131691927D01*
X206286258Y-131687000D01*
X206463742Y-131687000D01*
X206488512Y-131691927D01*
G37*
G36*
X178548512Y-131691927D02*
G01*
X178697812Y-131721624D01*
X178861784Y-131789544D01*
X179009354Y-131888147D01*
X179134853Y-132013646D01*
X179233456Y-132161216D01*
X179301376Y-132325188D01*
X179336000Y-132499259D01*
X179336000Y-132676741D01*
X179301376Y-132850812D01*
X179233456Y-133014784D01*
X179134853Y-133162354D01*
X179009354Y-133287853D01*
X178861784Y-133386456D01*
X178697812Y-133454376D01*
X178548512Y-133484073D01*
X178523742Y-133489000D01*
X178346258Y-133489000D01*
X178321488Y-133484073D01*
X178172188Y-133454376D01*
X178008216Y-133386456D01*
X177860646Y-133287853D01*
X177735147Y-133162354D01*
X177636544Y-133014784D01*
X177568624Y-132850812D01*
X177534000Y-132676741D01*
X177534000Y-132499259D01*
X177568624Y-132325188D01*
X177636544Y-132161216D01*
X177735147Y-132013646D01*
X177860646Y-131888147D01*
X178008216Y-131789544D01*
X178172188Y-131721624D01*
X178321488Y-131691927D01*
X178346258Y-131687000D01*
X178523742Y-131687000D01*
X178548512Y-131691927D01*
G37*
G36*
X211568512Y-131691927D02*
G01*
X211717812Y-131721624D01*
X211881784Y-131789544D01*
X212029354Y-131888147D01*
X212154853Y-132013646D01*
X212253456Y-132161216D01*
X212321376Y-132325188D01*
X212356000Y-132499259D01*
X212356000Y-132676741D01*
X212321376Y-132850812D01*
X212253456Y-133014784D01*
X212154853Y-133162354D01*
X212029354Y-133287853D01*
X211881784Y-133386456D01*
X211717812Y-133454376D01*
X211568512Y-133484073D01*
X211543742Y-133489000D01*
X211366258Y-133489000D01*
X211341488Y-133484073D01*
X211192188Y-133454376D01*
X211028216Y-133386456D01*
X210880646Y-133287853D01*
X210755147Y-133162354D01*
X210656544Y-133014784D01*
X210588624Y-132850812D01*
X210554000Y-132676741D01*
X210554000Y-132499259D01*
X210588624Y-132325188D01*
X210656544Y-132161216D01*
X210755147Y-132013646D01*
X210880646Y-131888147D01*
X211028216Y-131789544D01*
X211192188Y-131721624D01*
X211341488Y-131691927D01*
X211366258Y-131687000D01*
X211543742Y-131687000D01*
X211568512Y-131691927D01*
G37*
G36*
X219188512Y-131691927D02*
G01*
X219337812Y-131721624D01*
X219501784Y-131789544D01*
X219649354Y-131888147D01*
X219774853Y-132013646D01*
X219873456Y-132161216D01*
X219941376Y-132325188D01*
X219976000Y-132499259D01*
X219976000Y-132676741D01*
X219941376Y-132850812D01*
X219873456Y-133014784D01*
X219774853Y-133162354D01*
X219649354Y-133287853D01*
X219501784Y-133386456D01*
X219337812Y-133454376D01*
X219188512Y-133484073D01*
X219163742Y-133489000D01*
X218986258Y-133489000D01*
X218961488Y-133484073D01*
X218812188Y-133454376D01*
X218648216Y-133386456D01*
X218500646Y-133287853D01*
X218375147Y-133162354D01*
X218276544Y-133014784D01*
X218208624Y-132850812D01*
X218174000Y-132676741D01*
X218174000Y-132499259D01*
X218208624Y-132325188D01*
X218276544Y-132161216D01*
X218375147Y-132013646D01*
X218500646Y-131888147D01*
X218648216Y-131789544D01*
X218812188Y-131721624D01*
X218961488Y-131691927D01*
X218986258Y-131687000D01*
X219163742Y-131687000D01*
X219188512Y-131691927D01*
G37*
G36*
X221728512Y-131691927D02*
G01*
X221877812Y-131721624D01*
X222041784Y-131789544D01*
X222189354Y-131888147D01*
X222314853Y-132013646D01*
X222413456Y-132161216D01*
X222481376Y-132325188D01*
X222516000Y-132499259D01*
X222516000Y-132676741D01*
X222481376Y-132850812D01*
X222413456Y-133014784D01*
X222314853Y-133162354D01*
X222189354Y-133287853D01*
X222041784Y-133386456D01*
X221877812Y-133454376D01*
X221728512Y-133484073D01*
X221703742Y-133489000D01*
X221526258Y-133489000D01*
X221501488Y-133484073D01*
X221352188Y-133454376D01*
X221188216Y-133386456D01*
X221040646Y-133287853D01*
X220915147Y-133162354D01*
X220816544Y-133014784D01*
X220748624Y-132850812D01*
X220714000Y-132676741D01*
X220714000Y-132499259D01*
X220748624Y-132325188D01*
X220816544Y-132161216D01*
X220915147Y-132013646D01*
X221040646Y-131888147D01*
X221188216Y-131789544D01*
X221352188Y-131721624D01*
X221501488Y-131691927D01*
X221526258Y-131687000D01*
X221703742Y-131687000D01*
X221728512Y-131691927D01*
G37*
G36*
X224268512Y-131691927D02*
G01*
X224417812Y-131721624D01*
X224581784Y-131789544D01*
X224729354Y-131888147D01*
X224854853Y-132013646D01*
X224953456Y-132161216D01*
X225021376Y-132325188D01*
X225056000Y-132499259D01*
X225056000Y-132676741D01*
X225021376Y-132850812D01*
X224953456Y-133014784D01*
X224854853Y-133162354D01*
X224729354Y-133287853D01*
X224581784Y-133386456D01*
X224417812Y-133454376D01*
X224268512Y-133484073D01*
X224243742Y-133489000D01*
X224066258Y-133489000D01*
X224041488Y-133484073D01*
X223892188Y-133454376D01*
X223728216Y-133386456D01*
X223580646Y-133287853D01*
X223455147Y-133162354D01*
X223356544Y-133014784D01*
X223288624Y-132850812D01*
X223254000Y-132676741D01*
X223254000Y-132499259D01*
X223288624Y-132325188D01*
X223356544Y-132161216D01*
X223455147Y-132013646D01*
X223580646Y-131888147D01*
X223728216Y-131789544D01*
X223892188Y-131721624D01*
X224041488Y-131691927D01*
X224066258Y-131687000D01*
X224243742Y-131687000D01*
X224268512Y-131691927D01*
G37*
G36*
X226808512Y-131691927D02*
G01*
X226957812Y-131721624D01*
X227121784Y-131789544D01*
X227269354Y-131888147D01*
X227394853Y-132013646D01*
X227493456Y-132161216D01*
X227561376Y-132325188D01*
X227596000Y-132499259D01*
X227596000Y-132676741D01*
X227561376Y-132850812D01*
X227493456Y-133014784D01*
X227394853Y-133162354D01*
X227269354Y-133287853D01*
X227121784Y-133386456D01*
X226957812Y-133454376D01*
X226808512Y-133484073D01*
X226783742Y-133489000D01*
X226606258Y-133489000D01*
X226581488Y-133484073D01*
X226432188Y-133454376D01*
X226268216Y-133386456D01*
X226120646Y-133287853D01*
X225995147Y-133162354D01*
X225896544Y-133014784D01*
X225828624Y-132850812D01*
X225794000Y-132676741D01*
X225794000Y-132499259D01*
X225828624Y-132325188D01*
X225896544Y-132161216D01*
X225995147Y-132013646D01*
X226120646Y-131888147D01*
X226268216Y-131789544D01*
X226432188Y-131721624D01*
X226581488Y-131691927D01*
X226606258Y-131687000D01*
X226783742Y-131687000D01*
X226808512Y-131691927D01*
G37*
G36*
X229348512Y-131691927D02*
G01*
X229497812Y-131721624D01*
X229661784Y-131789544D01*
X229809354Y-131888147D01*
X229934853Y-132013646D01*
X230033456Y-132161216D01*
X230101376Y-132325188D01*
X230136000Y-132499259D01*
X230136000Y-132676741D01*
X230101376Y-132850812D01*
X230033456Y-133014784D01*
X229934853Y-133162354D01*
X229809354Y-133287853D01*
X229661784Y-133386456D01*
X229497812Y-133454376D01*
X229348512Y-133484073D01*
X229323742Y-133489000D01*
X229146258Y-133489000D01*
X229121488Y-133484073D01*
X228972188Y-133454376D01*
X228808216Y-133386456D01*
X228660646Y-133287853D01*
X228535147Y-133162354D01*
X228436544Y-133014784D01*
X228368624Y-132850812D01*
X228334000Y-132676741D01*
X228334000Y-132499259D01*
X228368624Y-132325188D01*
X228436544Y-132161216D01*
X228535147Y-132013646D01*
X228660646Y-131888147D01*
X228808216Y-131789544D01*
X228972188Y-131721624D01*
X229121488Y-131691927D01*
X229146258Y-131687000D01*
X229323742Y-131687000D01*
X229348512Y-131691927D01*
G37*
G36*
X231888512Y-131691927D02*
G01*
X232037812Y-131721624D01*
X232201784Y-131789544D01*
X232349354Y-131888147D01*
X232474853Y-132013646D01*
X232573456Y-132161216D01*
X232641376Y-132325188D01*
X232676000Y-132499259D01*
X232676000Y-132676741D01*
X232641376Y-132850812D01*
X232573456Y-133014784D01*
X232474853Y-133162354D01*
X232349354Y-133287853D01*
X232201784Y-133386456D01*
X232037812Y-133454376D01*
X231888512Y-133484073D01*
X231863742Y-133489000D01*
X231686258Y-133489000D01*
X231661488Y-133484073D01*
X231512188Y-133454376D01*
X231348216Y-133386456D01*
X231200646Y-133287853D01*
X231075147Y-133162354D01*
X230976544Y-133014784D01*
X230908624Y-132850812D01*
X230874000Y-132676741D01*
X230874000Y-132499259D01*
X230908624Y-132325188D01*
X230976544Y-132161216D01*
X231075147Y-132013646D01*
X231200646Y-131888147D01*
X231348216Y-131789544D01*
X231512188Y-131721624D01*
X231661488Y-131691927D01*
X231686258Y-131687000D01*
X231863742Y-131687000D01*
X231888512Y-131691927D01*
G37*
G36*
X234428512Y-131691927D02*
G01*
X234577812Y-131721624D01*
X234741784Y-131789544D01*
X234889354Y-131888147D01*
X235014853Y-132013646D01*
X235113456Y-132161216D01*
X235181376Y-132325188D01*
X235216000Y-132499259D01*
X235216000Y-132676741D01*
X235181376Y-132850812D01*
X235113456Y-133014784D01*
X235014853Y-133162354D01*
X234889354Y-133287853D01*
X234741784Y-133386456D01*
X234577812Y-133454376D01*
X234428512Y-133484073D01*
X234403742Y-133489000D01*
X234226258Y-133489000D01*
X234201488Y-133484073D01*
X234052188Y-133454376D01*
X233888216Y-133386456D01*
X233740646Y-133287853D01*
X233615147Y-133162354D01*
X233516544Y-133014784D01*
X233448624Y-132850812D01*
X233414000Y-132676741D01*
X233414000Y-132499259D01*
X233448624Y-132325188D01*
X233516544Y-132161216D01*
X233615147Y-132013646D01*
X233740646Y-131888147D01*
X233888216Y-131789544D01*
X234052188Y-131721624D01*
X234201488Y-131691927D01*
X234226258Y-131687000D01*
X234403742Y-131687000D01*
X234428512Y-131691927D01*
G37*
G36*
X236968512Y-131691927D02*
G01*
X237117812Y-131721624D01*
X237281784Y-131789544D01*
X237429354Y-131888147D01*
X237554853Y-132013646D01*
X237653456Y-132161216D01*
X237721376Y-132325188D01*
X237756000Y-132499259D01*
X237756000Y-132676741D01*
X237721376Y-132850812D01*
X237653456Y-133014784D01*
X237554853Y-133162354D01*
X237429354Y-133287853D01*
X237281784Y-133386456D01*
X237117812Y-133454376D01*
X236968512Y-133484073D01*
X236943742Y-133489000D01*
X236766258Y-133489000D01*
X236741488Y-133484073D01*
X236592188Y-133454376D01*
X236428216Y-133386456D01*
X236280646Y-133287853D01*
X236155147Y-133162354D01*
X236056544Y-133014784D01*
X235988624Y-132850812D01*
X235954000Y-132676741D01*
X235954000Y-132499259D01*
X235988624Y-132325188D01*
X236056544Y-132161216D01*
X236155147Y-132013646D01*
X236280646Y-131888147D01*
X236428216Y-131789544D01*
X236592188Y-131721624D01*
X236741488Y-131691927D01*
X236766258Y-131687000D01*
X236943742Y-131687000D01*
X236968512Y-131691927D01*
G37*
G36*
X209028512Y-131691927D02*
G01*
X209177812Y-131721624D01*
X209341784Y-131789544D01*
X209489354Y-131888147D01*
X209614853Y-132013646D01*
X209713456Y-132161216D01*
X209781376Y-132325188D01*
X209816000Y-132499259D01*
X209816000Y-132676741D01*
X209781376Y-132850812D01*
X209713456Y-133014784D01*
X209614853Y-133162354D01*
X209489354Y-133287853D01*
X209341784Y-133386456D01*
X209177812Y-133454376D01*
X209028512Y-133484073D01*
X209003742Y-133489000D01*
X208826258Y-133489000D01*
X208801488Y-133484073D01*
X208652188Y-133454376D01*
X208488216Y-133386456D01*
X208340646Y-133287853D01*
X208215147Y-133162354D01*
X208116544Y-133014784D01*
X208048624Y-132850812D01*
X208014000Y-132676741D01*
X208014000Y-132499259D01*
X208048624Y-132325188D01*
X208116544Y-132161216D01*
X208215147Y-132013646D01*
X208340646Y-131888147D01*
X208488216Y-131789544D01*
X208652188Y-131721624D01*
X208801488Y-131691927D01*
X208826258Y-131687000D01*
X209003742Y-131687000D01*
X209028512Y-131691927D01*
G37*
G36*
X239508512Y-131691927D02*
G01*
X239657812Y-131721624D01*
X239821784Y-131789544D01*
X239969354Y-131888147D01*
X240094853Y-132013646D01*
X240193456Y-132161216D01*
X240261376Y-132325188D01*
X240296000Y-132499259D01*
X240296000Y-132676741D01*
X240261376Y-132850812D01*
X240193456Y-133014784D01*
X240094853Y-133162354D01*
X239969354Y-133287853D01*
X239821784Y-133386456D01*
X239657812Y-133454376D01*
X239508512Y-133484073D01*
X239483742Y-133489000D01*
X239306258Y-133489000D01*
X239281488Y-133484073D01*
X239132188Y-133454376D01*
X238968216Y-133386456D01*
X238820646Y-133287853D01*
X238695147Y-133162354D01*
X238596544Y-133014784D01*
X238528624Y-132850812D01*
X238494000Y-132676741D01*
X238494000Y-132499259D01*
X238528624Y-132325188D01*
X238596544Y-132161216D01*
X238695147Y-132013646D01*
X238820646Y-131888147D01*
X238968216Y-131789544D01*
X239132188Y-131721624D01*
X239281488Y-131691927D01*
X239306258Y-131687000D01*
X239483742Y-131687000D01*
X239508512Y-131691927D01*
G37*
G36*
X214108512Y-131691927D02*
G01*
X214257812Y-131721624D01*
X214421784Y-131789544D01*
X214569354Y-131888147D01*
X214694853Y-132013646D01*
X214793456Y-132161216D01*
X214861376Y-132325188D01*
X214896000Y-132499259D01*
X214896000Y-132676741D01*
X214861376Y-132850812D01*
X214793456Y-133014784D01*
X214694853Y-133162354D01*
X214569354Y-133287853D01*
X214421784Y-133386456D01*
X214257812Y-133454376D01*
X214108512Y-133484073D01*
X214083742Y-133489000D01*
X213906258Y-133489000D01*
X213881488Y-133484073D01*
X213732188Y-133454376D01*
X213568216Y-133386456D01*
X213420646Y-133287853D01*
X213295147Y-133162354D01*
X213196544Y-133014784D01*
X213128624Y-132850812D01*
X213094000Y-132676741D01*
X213094000Y-132499259D01*
X213128624Y-132325188D01*
X213196544Y-132161216D01*
X213295147Y-132013646D01*
X213420646Y-131888147D01*
X213568216Y-131789544D01*
X213732188Y-131721624D01*
X213881488Y-131691927D01*
X213906258Y-131687000D01*
X214083742Y-131687000D01*
X214108512Y-131691927D01*
G37*
G36*
X181088512Y-131691927D02*
G01*
X181237812Y-131721624D01*
X181401784Y-131789544D01*
X181549354Y-131888147D01*
X181674853Y-132013646D01*
X181773456Y-132161216D01*
X181841376Y-132325188D01*
X181876000Y-132499259D01*
X181876000Y-132676741D01*
X181841376Y-132850812D01*
X181773456Y-133014784D01*
X181674853Y-133162354D01*
X181549354Y-133287853D01*
X181401784Y-133386456D01*
X181237812Y-133454376D01*
X181088512Y-133484073D01*
X181063742Y-133489000D01*
X180886258Y-133489000D01*
X180861488Y-133484073D01*
X180712188Y-133454376D01*
X180548216Y-133386456D01*
X180400646Y-133287853D01*
X180275147Y-133162354D01*
X180176544Y-133014784D01*
X180108624Y-132850812D01*
X180074000Y-132676741D01*
X180074000Y-132499259D01*
X180108624Y-132325188D01*
X180176544Y-132161216D01*
X180275147Y-132013646D01*
X180400646Y-131888147D01*
X180548216Y-131789544D01*
X180712188Y-131721624D01*
X180861488Y-131691927D01*
X180886258Y-131687000D01*
X181063742Y-131687000D01*
X181088512Y-131691927D01*
G37*
G36*
X224268512Y-129151927D02*
G01*
X224417812Y-129181624D01*
X224581784Y-129249544D01*
X224729354Y-129348147D01*
X224854853Y-129473646D01*
X224953456Y-129621216D01*
X225021376Y-129785188D01*
X225056000Y-129959259D01*
X225056000Y-130136741D01*
X225021376Y-130310812D01*
X224953456Y-130474784D01*
X224854853Y-130622354D01*
X224729354Y-130747853D01*
X224581784Y-130846456D01*
X224417812Y-130914376D01*
X224268512Y-130944073D01*
X224243742Y-130949000D01*
X224066258Y-130949000D01*
X224041488Y-130944073D01*
X223892188Y-130914376D01*
X223728216Y-130846456D01*
X223580646Y-130747853D01*
X223455147Y-130622354D01*
X223356544Y-130474784D01*
X223288624Y-130310812D01*
X223254000Y-130136741D01*
X223254000Y-129959259D01*
X223288624Y-129785188D01*
X223356544Y-129621216D01*
X223455147Y-129473646D01*
X223580646Y-129348147D01*
X223728216Y-129249544D01*
X223892188Y-129181624D01*
X224041488Y-129151927D01*
X224066258Y-129147000D01*
X224243742Y-129147000D01*
X224268512Y-129151927D01*
G37*
G36*
X183628512Y-129151927D02*
G01*
X183777812Y-129181624D01*
X183941784Y-129249544D01*
X184089354Y-129348147D01*
X184214853Y-129473646D01*
X184313456Y-129621216D01*
X184381376Y-129785188D01*
X184416000Y-129959259D01*
X184416000Y-130136741D01*
X184381376Y-130310812D01*
X184313456Y-130474784D01*
X184214853Y-130622354D01*
X184089354Y-130747853D01*
X183941784Y-130846456D01*
X183777812Y-130914376D01*
X183628512Y-130944073D01*
X183603742Y-130949000D01*
X183426258Y-130949000D01*
X183401488Y-130944073D01*
X183252188Y-130914376D01*
X183088216Y-130846456D01*
X182940646Y-130747853D01*
X182815147Y-130622354D01*
X182716544Y-130474784D01*
X182648624Y-130310812D01*
X182614000Y-130136741D01*
X182614000Y-129959259D01*
X182648624Y-129785188D01*
X182716544Y-129621216D01*
X182815147Y-129473646D01*
X182940646Y-129348147D01*
X183088216Y-129249544D01*
X183252188Y-129181624D01*
X183401488Y-129151927D01*
X183426258Y-129147000D01*
X183603742Y-129147000D01*
X183628512Y-129151927D01*
G37*
G36*
X226808512Y-129151927D02*
G01*
X226957812Y-129181624D01*
X227121784Y-129249544D01*
X227269354Y-129348147D01*
X227394853Y-129473646D01*
X227493456Y-129621216D01*
X227561376Y-129785188D01*
X227596000Y-129959259D01*
X227596000Y-130136741D01*
X227561376Y-130310812D01*
X227493456Y-130474784D01*
X227394853Y-130622354D01*
X227269354Y-130747853D01*
X227121784Y-130846456D01*
X226957812Y-130914376D01*
X226808512Y-130944073D01*
X226783742Y-130949000D01*
X226606258Y-130949000D01*
X226581488Y-130944073D01*
X226432188Y-130914376D01*
X226268216Y-130846456D01*
X226120646Y-130747853D01*
X225995147Y-130622354D01*
X225896544Y-130474784D01*
X225828624Y-130310812D01*
X225794000Y-130136741D01*
X225794000Y-129959259D01*
X225828624Y-129785188D01*
X225896544Y-129621216D01*
X225995147Y-129473646D01*
X226120646Y-129348147D01*
X226268216Y-129249544D01*
X226432188Y-129181624D01*
X226581488Y-129151927D01*
X226606258Y-129147000D01*
X226783742Y-129147000D01*
X226808512Y-129151927D01*
G37*
G36*
X229348512Y-129151927D02*
G01*
X229497812Y-129181624D01*
X229661784Y-129249544D01*
X229809354Y-129348147D01*
X229934853Y-129473646D01*
X230033456Y-129621216D01*
X230101376Y-129785188D01*
X230136000Y-129959259D01*
X230136000Y-130136741D01*
X230101376Y-130310812D01*
X230033456Y-130474784D01*
X229934853Y-130622354D01*
X229809354Y-130747853D01*
X229661784Y-130846456D01*
X229497812Y-130914376D01*
X229348512Y-130944073D01*
X229323742Y-130949000D01*
X229146258Y-130949000D01*
X229121488Y-130944073D01*
X228972188Y-130914376D01*
X228808216Y-130846456D01*
X228660646Y-130747853D01*
X228535147Y-130622354D01*
X228436544Y-130474784D01*
X228368624Y-130310812D01*
X228334000Y-130136741D01*
X228334000Y-129959259D01*
X228368624Y-129785188D01*
X228436544Y-129621216D01*
X228535147Y-129473646D01*
X228660646Y-129348147D01*
X228808216Y-129249544D01*
X228972188Y-129181624D01*
X229121488Y-129151927D01*
X229146258Y-129147000D01*
X229323742Y-129147000D01*
X229348512Y-129151927D01*
G37*
G36*
X209028512Y-129151927D02*
G01*
X209177812Y-129181624D01*
X209341784Y-129249544D01*
X209489354Y-129348147D01*
X209614853Y-129473646D01*
X209713456Y-129621216D01*
X209781376Y-129785188D01*
X209816000Y-129959259D01*
X209816000Y-130136741D01*
X209781376Y-130310812D01*
X209713456Y-130474784D01*
X209614853Y-130622354D01*
X209489354Y-130747853D01*
X209341784Y-130846456D01*
X209177812Y-130914376D01*
X209028512Y-130944073D01*
X209003742Y-130949000D01*
X208826258Y-130949000D01*
X208801488Y-130944073D01*
X208652188Y-130914376D01*
X208488216Y-130846456D01*
X208340646Y-130747853D01*
X208215147Y-130622354D01*
X208116544Y-130474784D01*
X208048624Y-130310812D01*
X208014000Y-130136741D01*
X208014000Y-129959259D01*
X208048624Y-129785188D01*
X208116544Y-129621216D01*
X208215147Y-129473646D01*
X208340646Y-129348147D01*
X208488216Y-129249544D01*
X208652188Y-129181624D01*
X208801488Y-129151927D01*
X208826258Y-129147000D01*
X209003742Y-129147000D01*
X209028512Y-129151927D01*
G37*
G36*
X231888512Y-129151927D02*
G01*
X232037812Y-129181624D01*
X232201784Y-129249544D01*
X232349354Y-129348147D01*
X232474853Y-129473646D01*
X232573456Y-129621216D01*
X232641376Y-129785188D01*
X232676000Y-129959259D01*
X232676000Y-130136741D01*
X232641376Y-130310812D01*
X232573456Y-130474784D01*
X232474853Y-130622354D01*
X232349354Y-130747853D01*
X232201784Y-130846456D01*
X232037812Y-130914376D01*
X231888512Y-130944073D01*
X231863742Y-130949000D01*
X231686258Y-130949000D01*
X231661488Y-130944073D01*
X231512188Y-130914376D01*
X231348216Y-130846456D01*
X231200646Y-130747853D01*
X231075147Y-130622354D01*
X230976544Y-130474784D01*
X230908624Y-130310812D01*
X230874000Y-130136741D01*
X230874000Y-129959259D01*
X230908624Y-129785188D01*
X230976544Y-129621216D01*
X231075147Y-129473646D01*
X231200646Y-129348147D01*
X231348216Y-129249544D01*
X231512188Y-129181624D01*
X231661488Y-129151927D01*
X231686258Y-129147000D01*
X231863742Y-129147000D01*
X231888512Y-129151927D01*
G37*
G36*
X186168512Y-129151927D02*
G01*
X186317812Y-129181624D01*
X186481784Y-129249544D01*
X186629354Y-129348147D01*
X186754853Y-129473646D01*
X186853456Y-129621216D01*
X186921376Y-129785188D01*
X186956000Y-129959259D01*
X186956000Y-130136741D01*
X186921376Y-130310812D01*
X186853456Y-130474784D01*
X186754853Y-130622354D01*
X186629354Y-130747853D01*
X186481784Y-130846456D01*
X186317812Y-130914376D01*
X186168512Y-130944073D01*
X186143742Y-130949000D01*
X185966258Y-130949000D01*
X185941488Y-130944073D01*
X185792188Y-130914376D01*
X185628216Y-130846456D01*
X185480646Y-130747853D01*
X185355147Y-130622354D01*
X185256544Y-130474784D01*
X185188624Y-130310812D01*
X185154000Y-130136741D01*
X185154000Y-129959259D01*
X185188624Y-129785188D01*
X185256544Y-129621216D01*
X185355147Y-129473646D01*
X185480646Y-129348147D01*
X185628216Y-129249544D01*
X185792188Y-129181624D01*
X185941488Y-129151927D01*
X185966258Y-129147000D01*
X186143742Y-129147000D01*
X186168512Y-129151927D01*
G37*
G36*
X221728512Y-129151927D02*
G01*
X221877812Y-129181624D01*
X222041784Y-129249544D01*
X222189354Y-129348147D01*
X222314853Y-129473646D01*
X222413456Y-129621216D01*
X222481376Y-129785188D01*
X222516000Y-129959259D01*
X222516000Y-130136741D01*
X222481376Y-130310812D01*
X222413456Y-130474784D01*
X222314853Y-130622354D01*
X222189354Y-130747853D01*
X222041784Y-130846456D01*
X221877812Y-130914376D01*
X221728512Y-130944073D01*
X221703742Y-130949000D01*
X221526258Y-130949000D01*
X221501488Y-130944073D01*
X221352188Y-130914376D01*
X221188216Y-130846456D01*
X221040646Y-130747853D01*
X220915147Y-130622354D01*
X220816544Y-130474784D01*
X220748624Y-130310812D01*
X220714000Y-130136741D01*
X220714000Y-129959259D01*
X220748624Y-129785188D01*
X220816544Y-129621216D01*
X220915147Y-129473646D01*
X221040646Y-129348147D01*
X221188216Y-129249544D01*
X221352188Y-129181624D01*
X221501488Y-129151927D01*
X221526258Y-129147000D01*
X221703742Y-129147000D01*
X221728512Y-129151927D01*
G37*
G36*
X219188512Y-129151927D02*
G01*
X219337812Y-129181624D01*
X219501784Y-129249544D01*
X219649354Y-129348147D01*
X219774853Y-129473646D01*
X219873456Y-129621216D01*
X219941376Y-129785188D01*
X219976000Y-129959259D01*
X219976000Y-130136741D01*
X219941376Y-130310812D01*
X219873456Y-130474784D01*
X219774853Y-130622354D01*
X219649354Y-130747853D01*
X219501784Y-130846456D01*
X219337812Y-130914376D01*
X219188512Y-130944073D01*
X219163742Y-130949000D01*
X218986258Y-130949000D01*
X218961488Y-130944073D01*
X218812188Y-130914376D01*
X218648216Y-130846456D01*
X218500646Y-130747853D01*
X218375147Y-130622354D01*
X218276544Y-130474784D01*
X218208624Y-130310812D01*
X218174000Y-130136741D01*
X218174000Y-129959259D01*
X218208624Y-129785188D01*
X218276544Y-129621216D01*
X218375147Y-129473646D01*
X218500646Y-129348147D01*
X218648216Y-129249544D01*
X218812188Y-129181624D01*
X218961488Y-129151927D01*
X218986258Y-129147000D01*
X219163742Y-129147000D01*
X219188512Y-129151927D01*
G37*
G36*
X214108512Y-129151927D02*
G01*
X214257812Y-129181624D01*
X214421784Y-129249544D01*
X214569354Y-129348147D01*
X214694853Y-129473646D01*
X214793456Y-129621216D01*
X214861376Y-129785188D01*
X214896000Y-129959259D01*
X214896000Y-130136741D01*
X214861376Y-130310812D01*
X214793456Y-130474784D01*
X214694853Y-130622354D01*
X214569354Y-130747853D01*
X214421784Y-130846456D01*
X214257812Y-130914376D01*
X214108512Y-130944073D01*
X214083742Y-130949000D01*
X213906258Y-130949000D01*
X213881488Y-130944073D01*
X213732188Y-130914376D01*
X213568216Y-130846456D01*
X213420646Y-130747853D01*
X213295147Y-130622354D01*
X213196544Y-130474784D01*
X213128624Y-130310812D01*
X213094000Y-130136741D01*
X213094000Y-129959259D01*
X213128624Y-129785188D01*
X213196544Y-129621216D01*
X213295147Y-129473646D01*
X213420646Y-129348147D01*
X213568216Y-129249544D01*
X213732188Y-129181624D01*
X213881488Y-129151927D01*
X213906258Y-129147000D01*
X214083742Y-129147000D01*
X214108512Y-129151927D01*
G37*
G36*
X216648512Y-129151927D02*
G01*
X216797812Y-129181624D01*
X216961784Y-129249544D01*
X217109354Y-129348147D01*
X217234853Y-129473646D01*
X217333456Y-129621216D01*
X217401376Y-129785188D01*
X217436000Y-129959259D01*
X217436000Y-130136741D01*
X217401376Y-130310812D01*
X217333456Y-130474784D01*
X217234853Y-130622354D01*
X217109354Y-130747853D01*
X216961784Y-130846456D01*
X216797812Y-130914376D01*
X216648512Y-130944073D01*
X216623742Y-130949000D01*
X216446258Y-130949000D01*
X216421488Y-130944073D01*
X216272188Y-130914376D01*
X216108216Y-130846456D01*
X215960646Y-130747853D01*
X215835147Y-130622354D01*
X215736544Y-130474784D01*
X215668624Y-130310812D01*
X215634000Y-130136741D01*
X215634000Y-129959259D01*
X215668624Y-129785188D01*
X215736544Y-129621216D01*
X215835147Y-129473646D01*
X215960646Y-129348147D01*
X216108216Y-129249544D01*
X216272188Y-129181624D01*
X216421488Y-129151927D01*
X216446258Y-129147000D01*
X216623742Y-129147000D01*
X216648512Y-129151927D01*
G37*
G36*
X211568512Y-129151927D02*
G01*
X211717812Y-129181624D01*
X211881784Y-129249544D01*
X212029354Y-129348147D01*
X212154853Y-129473646D01*
X212253456Y-129621216D01*
X212321376Y-129785188D01*
X212356000Y-129959259D01*
X212356000Y-130136741D01*
X212321376Y-130310812D01*
X212253456Y-130474784D01*
X212154853Y-130622354D01*
X212029354Y-130747853D01*
X211881784Y-130846456D01*
X211717812Y-130914376D01*
X211568512Y-130944073D01*
X211543742Y-130949000D01*
X211366258Y-130949000D01*
X211341488Y-130944073D01*
X211192188Y-130914376D01*
X211028216Y-130846456D01*
X210880646Y-130747853D01*
X210755147Y-130622354D01*
X210656544Y-130474784D01*
X210588624Y-130310812D01*
X210554000Y-130136741D01*
X210554000Y-129959259D01*
X210588624Y-129785188D01*
X210656544Y-129621216D01*
X210755147Y-129473646D01*
X210880646Y-129348147D01*
X211028216Y-129249544D01*
X211192188Y-129181624D01*
X211341488Y-129151927D01*
X211366258Y-129147000D01*
X211543742Y-129147000D01*
X211568512Y-129151927D01*
G37*
G36*
X236968512Y-129151927D02*
G01*
X237117812Y-129181624D01*
X237281784Y-129249544D01*
X237429354Y-129348147D01*
X237554853Y-129473646D01*
X237653456Y-129621216D01*
X237721376Y-129785188D01*
X237756000Y-129959259D01*
X237756000Y-130136741D01*
X237721376Y-130310812D01*
X237653456Y-130474784D01*
X237554853Y-130622354D01*
X237429354Y-130747853D01*
X237281784Y-130846456D01*
X237117812Y-130914376D01*
X236968512Y-130944073D01*
X236943742Y-130949000D01*
X236766258Y-130949000D01*
X236741488Y-130944073D01*
X236592188Y-130914376D01*
X236428216Y-130846456D01*
X236280646Y-130747853D01*
X236155147Y-130622354D01*
X236056544Y-130474784D01*
X235988624Y-130310812D01*
X235954000Y-130136741D01*
X235954000Y-129959259D01*
X235988624Y-129785188D01*
X236056544Y-129621216D01*
X236155147Y-129473646D01*
X236280646Y-129348147D01*
X236428216Y-129249544D01*
X236592188Y-129181624D01*
X236741488Y-129151927D01*
X236766258Y-129147000D01*
X236943742Y-129147000D01*
X236968512Y-129151927D01*
G37*
G36*
X206488512Y-129151927D02*
G01*
X206637812Y-129181624D01*
X206801784Y-129249544D01*
X206949354Y-129348147D01*
X207074853Y-129473646D01*
X207173456Y-129621216D01*
X207241376Y-129785188D01*
X207276000Y-129959259D01*
X207276000Y-130136741D01*
X207241376Y-130310812D01*
X207173456Y-130474784D01*
X207074853Y-130622354D01*
X206949354Y-130747853D01*
X206801784Y-130846456D01*
X206637812Y-130914376D01*
X206488512Y-130944073D01*
X206463742Y-130949000D01*
X206286258Y-130949000D01*
X206261488Y-130944073D01*
X206112188Y-130914376D01*
X205948216Y-130846456D01*
X205800646Y-130747853D01*
X205675147Y-130622354D01*
X205576544Y-130474784D01*
X205508624Y-130310812D01*
X205474000Y-130136741D01*
X205474000Y-129959259D01*
X205508624Y-129785188D01*
X205576544Y-129621216D01*
X205675147Y-129473646D01*
X205800646Y-129348147D01*
X205948216Y-129249544D01*
X206112188Y-129181624D01*
X206261488Y-129151927D01*
X206286258Y-129147000D01*
X206463742Y-129147000D01*
X206488512Y-129151927D01*
G37*
G36*
X178548512Y-129151927D02*
G01*
X178697812Y-129181624D01*
X178861784Y-129249544D01*
X179009354Y-129348147D01*
X179134853Y-129473646D01*
X179233456Y-129621216D01*
X179301376Y-129785188D01*
X179336000Y-129959259D01*
X179336000Y-130136741D01*
X179301376Y-130310812D01*
X179233456Y-130474784D01*
X179134853Y-130622354D01*
X179009354Y-130747853D01*
X178861784Y-130846456D01*
X178697812Y-130914376D01*
X178548512Y-130944073D01*
X178523742Y-130949000D01*
X178346258Y-130949000D01*
X178321488Y-130944073D01*
X178172188Y-130914376D01*
X178008216Y-130846456D01*
X177860646Y-130747853D01*
X177735147Y-130622354D01*
X177636544Y-130474784D01*
X177568624Y-130310812D01*
X177534000Y-130136741D01*
X177534000Y-129959259D01*
X177568624Y-129785188D01*
X177636544Y-129621216D01*
X177735147Y-129473646D01*
X177860646Y-129348147D01*
X178008216Y-129249544D01*
X178172188Y-129181624D01*
X178321488Y-129151927D01*
X178346258Y-129147000D01*
X178523742Y-129147000D01*
X178548512Y-129151927D01*
G37*
G36*
X240296000Y-130949000D02*
G01*
X238494000Y-130949000D01*
X238494000Y-129147000D01*
X240296000Y-129147000D01*
X240296000Y-130949000D01*
G37*
G36*
X203948512Y-129151927D02*
G01*
X204097812Y-129181624D01*
X204261784Y-129249544D01*
X204409354Y-129348147D01*
X204534853Y-129473646D01*
X204633456Y-129621216D01*
X204701376Y-129785188D01*
X204736000Y-129959259D01*
X204736000Y-130136741D01*
X204701376Y-130310812D01*
X204633456Y-130474784D01*
X204534853Y-130622354D01*
X204409354Y-130747853D01*
X204261784Y-130846456D01*
X204097812Y-130914376D01*
X203948512Y-130944073D01*
X203923742Y-130949000D01*
X203746258Y-130949000D01*
X203721488Y-130944073D01*
X203572188Y-130914376D01*
X203408216Y-130846456D01*
X203260646Y-130747853D01*
X203135147Y-130622354D01*
X203036544Y-130474784D01*
X202968624Y-130310812D01*
X202934000Y-130136741D01*
X202934000Y-129959259D01*
X202968624Y-129785188D01*
X203036544Y-129621216D01*
X203135147Y-129473646D01*
X203260646Y-129348147D01*
X203408216Y-129249544D01*
X203572188Y-129181624D01*
X203721488Y-129151927D01*
X203746258Y-129147000D01*
X203923742Y-129147000D01*
X203948512Y-129151927D01*
G37*
G36*
X201408512Y-129151927D02*
G01*
X201557812Y-129181624D01*
X201721784Y-129249544D01*
X201869354Y-129348147D01*
X201994853Y-129473646D01*
X202093456Y-129621216D01*
X202161376Y-129785188D01*
X202196000Y-129959259D01*
X202196000Y-130136741D01*
X202161376Y-130310812D01*
X202093456Y-130474784D01*
X201994853Y-130622354D01*
X201869354Y-130747853D01*
X201721784Y-130846456D01*
X201557812Y-130914376D01*
X201408512Y-130944073D01*
X201383742Y-130949000D01*
X201206258Y-130949000D01*
X201181488Y-130944073D01*
X201032188Y-130914376D01*
X200868216Y-130846456D01*
X200720646Y-130747853D01*
X200595147Y-130622354D01*
X200496544Y-130474784D01*
X200428624Y-130310812D01*
X200394000Y-130136741D01*
X200394000Y-129959259D01*
X200428624Y-129785188D01*
X200496544Y-129621216D01*
X200595147Y-129473646D01*
X200720646Y-129348147D01*
X200868216Y-129249544D01*
X201032188Y-129181624D01*
X201181488Y-129151927D01*
X201206258Y-129147000D01*
X201383742Y-129147000D01*
X201408512Y-129151927D01*
G37*
G36*
X234428512Y-129151927D02*
G01*
X234577812Y-129181624D01*
X234741784Y-129249544D01*
X234889354Y-129348147D01*
X235014853Y-129473646D01*
X235113456Y-129621216D01*
X235181376Y-129785188D01*
X235216000Y-129959259D01*
X235216000Y-130136741D01*
X235181376Y-130310812D01*
X235113456Y-130474784D01*
X235014853Y-130622354D01*
X234889354Y-130747853D01*
X234741784Y-130846456D01*
X234577812Y-130914376D01*
X234428512Y-130944073D01*
X234403742Y-130949000D01*
X234226258Y-130949000D01*
X234201488Y-130944073D01*
X234052188Y-130914376D01*
X233888216Y-130846456D01*
X233740646Y-130747853D01*
X233615147Y-130622354D01*
X233516544Y-130474784D01*
X233448624Y-130310812D01*
X233414000Y-130136741D01*
X233414000Y-129959259D01*
X233448624Y-129785188D01*
X233516544Y-129621216D01*
X233615147Y-129473646D01*
X233740646Y-129348147D01*
X233888216Y-129249544D01*
X234052188Y-129181624D01*
X234201488Y-129151927D01*
X234226258Y-129147000D01*
X234403742Y-129147000D01*
X234428512Y-129151927D01*
G37*
G36*
X196328512Y-129151927D02*
G01*
X196477812Y-129181624D01*
X196641784Y-129249544D01*
X196789354Y-129348147D01*
X196914853Y-129473646D01*
X197013456Y-129621216D01*
X197081376Y-129785188D01*
X197116000Y-129959259D01*
X197116000Y-130136741D01*
X197081376Y-130310812D01*
X197013456Y-130474784D01*
X196914853Y-130622354D01*
X196789354Y-130747853D01*
X196641784Y-130846456D01*
X196477812Y-130914376D01*
X196328512Y-130944073D01*
X196303742Y-130949000D01*
X196126258Y-130949000D01*
X196101488Y-130944073D01*
X195952188Y-130914376D01*
X195788216Y-130846456D01*
X195640646Y-130747853D01*
X195515147Y-130622354D01*
X195416544Y-130474784D01*
X195348624Y-130310812D01*
X195314000Y-130136741D01*
X195314000Y-129959259D01*
X195348624Y-129785188D01*
X195416544Y-129621216D01*
X195515147Y-129473646D01*
X195640646Y-129348147D01*
X195788216Y-129249544D01*
X195952188Y-129181624D01*
X196101488Y-129151927D01*
X196126258Y-129147000D01*
X196303742Y-129147000D01*
X196328512Y-129151927D01*
G37*
G36*
X181088512Y-129151927D02*
G01*
X181237812Y-129181624D01*
X181401784Y-129249544D01*
X181549354Y-129348147D01*
X181674853Y-129473646D01*
X181773456Y-129621216D01*
X181841376Y-129785188D01*
X181876000Y-129959259D01*
X181876000Y-130136741D01*
X181841376Y-130310812D01*
X181773456Y-130474784D01*
X181674853Y-130622354D01*
X181549354Y-130747853D01*
X181401784Y-130846456D01*
X181237812Y-130914376D01*
X181088512Y-130944073D01*
X181063742Y-130949000D01*
X180886258Y-130949000D01*
X180861488Y-130944073D01*
X180712188Y-130914376D01*
X180548216Y-130846456D01*
X180400646Y-130747853D01*
X180275147Y-130622354D01*
X180176544Y-130474784D01*
X180108624Y-130310812D01*
X180074000Y-130136741D01*
X180074000Y-129959259D01*
X180108624Y-129785188D01*
X180176544Y-129621216D01*
X180275147Y-129473646D01*
X180400646Y-129348147D01*
X180548216Y-129249544D01*
X180712188Y-129181624D01*
X180861488Y-129151927D01*
X180886258Y-129147000D01*
X181063742Y-129147000D01*
X181088512Y-129151927D01*
G37*
G36*
X193788512Y-129151927D02*
G01*
X193937812Y-129181624D01*
X194101784Y-129249544D01*
X194249354Y-129348147D01*
X194374853Y-129473646D01*
X194473456Y-129621216D01*
X194541376Y-129785188D01*
X194576000Y-129959259D01*
X194576000Y-130136741D01*
X194541376Y-130310812D01*
X194473456Y-130474784D01*
X194374853Y-130622354D01*
X194249354Y-130747853D01*
X194101784Y-130846456D01*
X193937812Y-130914376D01*
X193788512Y-130944073D01*
X193763742Y-130949000D01*
X193586258Y-130949000D01*
X193561488Y-130944073D01*
X193412188Y-130914376D01*
X193248216Y-130846456D01*
X193100646Y-130747853D01*
X192975147Y-130622354D01*
X192876544Y-130474784D01*
X192808624Y-130310812D01*
X192774000Y-130136741D01*
X192774000Y-129959259D01*
X192808624Y-129785188D01*
X192876544Y-129621216D01*
X192975147Y-129473646D01*
X193100646Y-129348147D01*
X193248216Y-129249544D01*
X193412188Y-129181624D01*
X193561488Y-129151927D01*
X193586258Y-129147000D01*
X193763742Y-129147000D01*
X193788512Y-129151927D01*
G37*
G36*
X191248512Y-129151927D02*
G01*
X191397812Y-129181624D01*
X191561784Y-129249544D01*
X191709354Y-129348147D01*
X191834853Y-129473646D01*
X191933456Y-129621216D01*
X192001376Y-129785188D01*
X192036000Y-129959259D01*
X192036000Y-130136741D01*
X192001376Y-130310812D01*
X191933456Y-130474784D01*
X191834853Y-130622354D01*
X191709354Y-130747853D01*
X191561784Y-130846456D01*
X191397812Y-130914376D01*
X191248512Y-130944073D01*
X191223742Y-130949000D01*
X191046258Y-130949000D01*
X191021488Y-130944073D01*
X190872188Y-130914376D01*
X190708216Y-130846456D01*
X190560646Y-130747853D01*
X190435147Y-130622354D01*
X190336544Y-130474784D01*
X190268624Y-130310812D01*
X190234000Y-130136741D01*
X190234000Y-129959259D01*
X190268624Y-129785188D01*
X190336544Y-129621216D01*
X190435147Y-129473646D01*
X190560646Y-129348147D01*
X190708216Y-129249544D01*
X190872188Y-129181624D01*
X191021488Y-129151927D01*
X191046258Y-129147000D01*
X191223742Y-129147000D01*
X191248512Y-129151927D01*
G37*
G36*
X188708512Y-129151927D02*
G01*
X188857812Y-129181624D01*
X189021784Y-129249544D01*
X189169354Y-129348147D01*
X189294853Y-129473646D01*
X189393456Y-129621216D01*
X189461376Y-129785188D01*
X189496000Y-129959259D01*
X189496000Y-130136741D01*
X189461376Y-130310812D01*
X189393456Y-130474784D01*
X189294853Y-130622354D01*
X189169354Y-130747853D01*
X189021784Y-130846456D01*
X188857812Y-130914376D01*
X188708512Y-130944073D01*
X188683742Y-130949000D01*
X188506258Y-130949000D01*
X188481488Y-130944073D01*
X188332188Y-130914376D01*
X188168216Y-130846456D01*
X188020646Y-130747853D01*
X187895147Y-130622354D01*
X187796544Y-130474784D01*
X187728624Y-130310812D01*
X187694000Y-130136741D01*
X187694000Y-129959259D01*
X187728624Y-129785188D01*
X187796544Y-129621216D01*
X187895147Y-129473646D01*
X188020646Y-129348147D01*
X188168216Y-129249544D01*
X188332188Y-129181624D01*
X188481488Y-129151927D01*
X188506258Y-129147000D01*
X188683742Y-129147000D01*
X188708512Y-129151927D01*
G37*
G36*
X198868512Y-129151927D02*
G01*
X199017812Y-129181624D01*
X199181784Y-129249544D01*
X199329354Y-129348147D01*
X199454853Y-129473646D01*
X199553456Y-129621216D01*
X199621376Y-129785188D01*
X199656000Y-129959259D01*
X199656000Y-130136741D01*
X199621376Y-130310812D01*
X199553456Y-130474784D01*
X199454853Y-130622354D01*
X199329354Y-130747853D01*
X199181784Y-130846456D01*
X199017812Y-130914376D01*
X198868512Y-130944073D01*
X198843742Y-130949000D01*
X198666258Y-130949000D01*
X198641488Y-130944073D01*
X198492188Y-130914376D01*
X198328216Y-130846456D01*
X198180646Y-130747853D01*
X198055147Y-130622354D01*
X197956544Y-130474784D01*
X197888624Y-130310812D01*
X197854000Y-130136741D01*
X197854000Y-129959259D01*
X197888624Y-129785188D01*
X197956544Y-129621216D01*
X198055147Y-129473646D01*
X198180646Y-129348147D01*
X198328216Y-129249544D01*
X198492188Y-129181624D01*
X198641488Y-129151927D01*
X198666258Y-129147000D01*
X198843742Y-129147000D01*
X198868512Y-129151927D01*
G37*
G36*
X233826000Y-127041000D02*
G01*
X232224000Y-127041000D01*
X232224000Y-125689000D01*
X233826000Y-125689000D01*
X233826000Y-127041000D01*
G37*
G36*
X231326000Y-127041000D02*
G01*
X229724000Y-127041000D01*
X229724000Y-125689000D01*
X231326000Y-125689000D01*
X231326000Y-127041000D01*
G37*
G36*
X174938000Y-126152000D02*
G01*
X173336000Y-126152000D01*
X173336000Y-124800000D01*
X174938000Y-124800000D01*
X174938000Y-126152000D01*
G37*
G36*
X177438000Y-126152000D02*
G01*
X175836000Y-126152000D01*
X175836000Y-124800000D01*
X177438000Y-124800000D01*
X177438000Y-126152000D01*
G37*
G36*
X250049512Y-124071927D02*
G01*
X250198812Y-124101624D01*
X250362784Y-124169544D01*
X250510354Y-124268147D01*
X250635853Y-124393646D01*
X250734456Y-124541216D01*
X250802376Y-124705188D01*
X250837000Y-124879259D01*
X250837000Y-125056741D01*
X250802376Y-125230812D01*
X250734456Y-125394784D01*
X250635853Y-125542354D01*
X250510354Y-125667853D01*
X250362784Y-125766456D01*
X250198812Y-125834376D01*
X250049512Y-125864073D01*
X250024742Y-125869000D01*
X249847258Y-125869000D01*
X249822488Y-125864073D01*
X249673188Y-125834376D01*
X249509216Y-125766456D01*
X249361646Y-125667853D01*
X249236147Y-125542354D01*
X249137544Y-125394784D01*
X249069624Y-125230812D01*
X249035000Y-125056741D01*
X249035000Y-124879259D01*
X249069624Y-124705188D01*
X249137544Y-124541216D01*
X249236147Y-124393646D01*
X249361646Y-124268147D01*
X249509216Y-124169544D01*
X249673188Y-124101624D01*
X249822488Y-124071927D01*
X249847258Y-124067000D01*
X250024742Y-124067000D01*
X250049512Y-124071927D01*
G37*
G36*
X196876000Y-124033000D02*
G01*
X190474000Y-124033000D01*
X190474000Y-122181000D01*
X196876000Y-122181000D01*
X196876000Y-124033000D01*
G37*
G36*
X188636000Y-123844000D02*
G01*
X187284000Y-123844000D01*
X187284000Y-122242000D01*
X188636000Y-122242000D01*
X188636000Y-123844000D01*
G37*
G36*
X223703000Y-123652000D02*
G01*
X214701000Y-123652000D01*
X214701000Y-121800000D01*
X223703000Y-121800000D01*
X223703000Y-123652000D01*
G37*
G36*
X174711000Y-123637000D02*
G01*
X173109000Y-123637000D01*
X173109000Y-122235000D01*
X174711000Y-122235000D01*
X174711000Y-123637000D01*
G37*
G36*
X177411000Y-123637000D02*
G01*
X175809000Y-123637000D01*
X175809000Y-122235000D01*
X177411000Y-122235000D01*
X177411000Y-123637000D01*
G37*
G36*
X250049512Y-121531927D02*
G01*
X250198812Y-121561624D01*
X250362784Y-121629544D01*
X250510354Y-121728147D01*
X250635853Y-121853646D01*
X250734456Y-122001216D01*
X250802376Y-122165188D01*
X250837000Y-122339259D01*
X250837000Y-122516741D01*
X250802376Y-122690812D01*
X250734456Y-122854784D01*
X250635853Y-123002354D01*
X250510354Y-123127853D01*
X250362784Y-123226456D01*
X250198812Y-123294376D01*
X250049512Y-123324073D01*
X250024742Y-123329000D01*
X249847258Y-123329000D01*
X249822488Y-123324073D01*
X249673188Y-123294376D01*
X249509216Y-123226456D01*
X249361646Y-123127853D01*
X249236147Y-123002354D01*
X249137544Y-122854784D01*
X249069624Y-122690812D01*
X249035000Y-122516741D01*
X249035000Y-122339259D01*
X249069624Y-122165188D01*
X249137544Y-122001216D01*
X249236147Y-121853646D01*
X249361646Y-121728147D01*
X249509216Y-121629544D01*
X249673188Y-121561624D01*
X249822488Y-121531927D01*
X249847258Y-121527000D01*
X250024742Y-121527000D01*
X250049512Y-121531927D01*
G37*
G36*
X188636000Y-121344000D02*
G01*
X187284000Y-121344000D01*
X187284000Y-119742000D01*
X188636000Y-119742000D01*
X188636000Y-121344000D01*
G37*
G36*
X171009000Y-120993000D02*
G01*
X168907000Y-120993000D01*
X168907000Y-119291000D01*
X171009000Y-119291000D01*
X171009000Y-120993000D01*
G37*
G36*
X175009000Y-120993000D02*
G01*
X172907000Y-120993000D01*
X172907000Y-119291000D01*
X175009000Y-119291000D01*
X175009000Y-120993000D01*
G37*
G36*
X250049512Y-118991927D02*
G01*
X250198812Y-119021624D01*
X250362784Y-119089544D01*
X250510354Y-119188147D01*
X250635853Y-119313646D01*
X250734456Y-119461216D01*
X250802376Y-119625188D01*
X250837000Y-119799259D01*
X250837000Y-119976741D01*
X250802376Y-120150812D01*
X250734456Y-120314784D01*
X250635853Y-120462354D01*
X250510354Y-120587853D01*
X250362784Y-120686456D01*
X250198812Y-120754376D01*
X250049512Y-120784073D01*
X250024742Y-120789000D01*
X249847258Y-120789000D01*
X249822488Y-120784073D01*
X249673188Y-120754376D01*
X249509216Y-120686456D01*
X249361646Y-120587853D01*
X249236147Y-120462354D01*
X249137544Y-120314784D01*
X249069624Y-120150812D01*
X249035000Y-119976741D01*
X249035000Y-119799259D01*
X249069624Y-119625188D01*
X249137544Y-119461216D01*
X249236147Y-119313646D01*
X249361646Y-119188147D01*
X249509216Y-119089544D01*
X249673188Y-119021624D01*
X249822488Y-118991927D01*
X249847258Y-118987000D01*
X250024742Y-118987000D01*
X250049512Y-118991927D01*
G37*
G36*
X250049512Y-116451927D02*
G01*
X250198812Y-116481624D01*
X250362784Y-116549544D01*
X250510354Y-116648147D01*
X250635853Y-116773646D01*
X250734456Y-116921216D01*
X250802376Y-117085188D01*
X250837000Y-117259259D01*
X250837000Y-117436741D01*
X250802376Y-117610812D01*
X250734456Y-117774784D01*
X250635853Y-117922354D01*
X250510354Y-118047853D01*
X250362784Y-118146456D01*
X250198812Y-118214376D01*
X250049512Y-118244073D01*
X250024742Y-118249000D01*
X249847258Y-118249000D01*
X249822488Y-118244073D01*
X249673188Y-118214376D01*
X249509216Y-118146456D01*
X249361646Y-118047853D01*
X249236147Y-117922354D01*
X249137544Y-117774784D01*
X249069624Y-117610812D01*
X249035000Y-117436741D01*
X249035000Y-117259259D01*
X249069624Y-117085188D01*
X249137544Y-116921216D01*
X249236147Y-116773646D01*
X249361646Y-116648147D01*
X249509216Y-116549544D01*
X249673188Y-116481624D01*
X249822488Y-116451927D01*
X249847258Y-116447000D01*
X250024742Y-116447000D01*
X250049512Y-116451927D01*
G37*
G36*
X174644000Y-117770000D02*
G01*
X173042000Y-117770000D01*
X173042000Y-116418000D01*
X174644000Y-116418000D01*
X174644000Y-117770000D01*
G37*
G36*
X172144000Y-117770000D02*
G01*
X170542000Y-117770000D01*
X170542000Y-116418000D01*
X172144000Y-116418000D01*
X172144000Y-117770000D01*
G37*
G36*
X181041000Y-116959000D02*
G01*
X179639000Y-116959000D01*
X179639000Y-115357000D01*
X181041000Y-115357000D01*
X181041000Y-116959000D01*
G37*
G36*
X196876000Y-116833000D02*
G01*
X190474000Y-116833000D01*
X190474000Y-114981000D01*
X196876000Y-114981000D01*
X196876000Y-116833000D01*
G37*
G36*
X230756564Y-114582389D02*
G01*
X230892308Y-114638616D01*
X230947835Y-114661616D01*
X231034102Y-114719258D01*
X231119973Y-114776635D01*
X231266365Y-114923027D01*
X231381385Y-115095167D01*
X231460611Y-115286436D01*
X231501000Y-115489484D01*
X231501000Y-115696516D01*
X231460611Y-115899564D01*
X231390912Y-116067833D01*
X231381384Y-116090835D01*
X231266365Y-116262973D01*
X231119973Y-116409365D01*
X230947835Y-116524384D01*
X230947834Y-116524385D01*
X230947833Y-116524385D01*
X230756564Y-116603611D01*
X230553516Y-116644000D01*
X230346484Y-116644000D01*
X230143436Y-116603611D01*
X229952167Y-116524385D01*
X229952166Y-116524385D01*
X229952165Y-116524384D01*
X229780027Y-116409365D01*
X229633635Y-116262973D01*
X229518616Y-116090835D01*
X229509088Y-116067833D01*
X229439389Y-115899564D01*
X229399000Y-115696516D01*
X229399000Y-115489484D01*
X229439389Y-115286436D01*
X229518615Y-115095167D01*
X229633635Y-114923027D01*
X229780027Y-114776635D01*
X229865898Y-114719258D01*
X229952165Y-114661616D01*
X230007692Y-114638616D01*
X230143436Y-114582389D01*
X230346484Y-114542000D01*
X230553516Y-114542000D01*
X230756564Y-114582389D01*
G37*
G36*
X235256564Y-114582389D02*
G01*
X235392308Y-114638616D01*
X235447835Y-114661616D01*
X235534102Y-114719258D01*
X235619973Y-114776635D01*
X235766365Y-114923027D01*
X235881385Y-115095167D01*
X235960611Y-115286436D01*
X236001000Y-115489484D01*
X236001000Y-115696516D01*
X235960611Y-115899564D01*
X235890912Y-116067833D01*
X235881384Y-116090835D01*
X235766365Y-116262973D01*
X235619973Y-116409365D01*
X235447835Y-116524384D01*
X235447834Y-116524385D01*
X235447833Y-116524385D01*
X235256564Y-116603611D01*
X235053516Y-116644000D01*
X234846484Y-116644000D01*
X234643436Y-116603611D01*
X234452167Y-116524385D01*
X234452166Y-116524385D01*
X234452165Y-116524384D01*
X234280027Y-116409365D01*
X234133635Y-116262973D01*
X234018616Y-116090835D01*
X234009088Y-116067833D01*
X233939389Y-115899564D01*
X233899000Y-115696516D01*
X233899000Y-115489484D01*
X233939389Y-115286436D01*
X234018615Y-115095167D01*
X234133635Y-114923027D01*
X234280027Y-114776635D01*
X234365898Y-114719258D01*
X234452165Y-114661616D01*
X234507692Y-114638616D01*
X234643436Y-114582389D01*
X234846484Y-114542000D01*
X235053516Y-114542000D01*
X235256564Y-114582389D01*
G37*
G36*
X243820564Y-114559389D02*
G01*
X244011833Y-114638615D01*
X244011835Y-114638616D01*
X244046255Y-114661615D01*
X244183973Y-114753635D01*
X244330365Y-114900027D01*
X244445385Y-115072167D01*
X244524611Y-115263436D01*
X244565000Y-115466484D01*
X244565000Y-115673516D01*
X244524611Y-115876564D01*
X244445385Y-116067833D01*
X244445384Y-116067835D01*
X244330365Y-116239973D01*
X244183973Y-116386365D01*
X244011835Y-116501384D01*
X244011834Y-116501385D01*
X244011833Y-116501385D01*
X243820564Y-116580611D01*
X243617516Y-116621000D01*
X243410484Y-116621000D01*
X243207436Y-116580611D01*
X243016167Y-116501385D01*
X243016166Y-116501385D01*
X243016165Y-116501384D01*
X242844027Y-116386365D01*
X242697635Y-116239973D01*
X242582616Y-116067835D01*
X242582615Y-116067833D01*
X242503389Y-115876564D01*
X242463000Y-115673516D01*
X242463000Y-115466484D01*
X242503389Y-115263436D01*
X242582615Y-115072167D01*
X242697635Y-114900027D01*
X242844027Y-114753635D01*
X242981745Y-114661615D01*
X243016165Y-114638616D01*
X243016167Y-114638615D01*
X243207436Y-114559389D01*
X243410484Y-114519000D01*
X243617516Y-114519000D01*
X243820564Y-114559389D01*
G37*
G36*
X239320564Y-114559389D02*
G01*
X239511833Y-114638615D01*
X239511835Y-114638616D01*
X239546255Y-114661615D01*
X239683973Y-114753635D01*
X239830365Y-114900027D01*
X239945385Y-115072167D01*
X240024611Y-115263436D01*
X240065000Y-115466484D01*
X240065000Y-115673516D01*
X240024611Y-115876564D01*
X239945385Y-116067833D01*
X239945384Y-116067835D01*
X239830365Y-116239973D01*
X239683973Y-116386365D01*
X239511835Y-116501384D01*
X239511834Y-116501385D01*
X239511833Y-116501385D01*
X239320564Y-116580611D01*
X239117516Y-116621000D01*
X238910484Y-116621000D01*
X238707436Y-116580611D01*
X238516167Y-116501385D01*
X238516166Y-116501385D01*
X238516165Y-116501384D01*
X238344027Y-116386365D01*
X238197635Y-116239973D01*
X238082616Y-116067835D01*
X238082615Y-116067833D01*
X238003389Y-115876564D01*
X237963000Y-115673516D01*
X237963000Y-115466484D01*
X238003389Y-115263436D01*
X238082615Y-115072167D01*
X238197635Y-114900027D01*
X238344027Y-114753635D01*
X238481745Y-114661615D01*
X238516165Y-114638616D01*
X238516167Y-114638615D01*
X238707436Y-114559389D01*
X238910484Y-114519000D01*
X239117516Y-114519000D01*
X239320564Y-114559389D01*
G37*
G36*
X223703000Y-116452000D02*
G01*
X214701000Y-116452000D01*
X214701000Y-114600000D01*
X223703000Y-114600000D01*
X223703000Y-116452000D01*
G37*
G36*
X250049512Y-113911927D02*
G01*
X250198812Y-113941624D01*
X250362784Y-114009544D01*
X250510354Y-114108147D01*
X250635853Y-114233646D01*
X250734456Y-114381216D01*
X250802376Y-114545188D01*
X250825534Y-114661615D01*
X250837000Y-114719258D01*
X250837000Y-114896742D01*
X250832073Y-114921512D01*
X250802376Y-115070812D01*
X250734456Y-115234784D01*
X250635853Y-115382354D01*
X250510354Y-115507853D01*
X250362784Y-115606456D01*
X250198812Y-115674376D01*
X250049512Y-115704073D01*
X250024742Y-115709000D01*
X249847258Y-115709000D01*
X249822488Y-115704073D01*
X249673188Y-115674376D01*
X249509216Y-115606456D01*
X249361646Y-115507853D01*
X249236147Y-115382354D01*
X249137544Y-115234784D01*
X249069624Y-115070812D01*
X249039927Y-114921512D01*
X249035000Y-114896742D01*
X249035000Y-114719258D01*
X249046466Y-114661615D01*
X249069624Y-114545188D01*
X249137544Y-114381216D01*
X249236147Y-114233646D01*
X249361646Y-114108147D01*
X249509216Y-114009544D01*
X249673188Y-113941624D01*
X249822488Y-113911927D01*
X249847258Y-113907000D01*
X250024742Y-113907000D01*
X250049512Y-113911927D01*
G37*
G36*
X181041000Y-114259000D02*
G01*
X179639000Y-114259000D01*
X179639000Y-112657000D01*
X181041000Y-112657000D01*
X181041000Y-114259000D01*
G37*
G36*
X250837000Y-113169000D02*
G01*
X249035000Y-113169000D01*
X249035000Y-111367000D01*
X250837000Y-111367000D01*
X250837000Y-113169000D01*
G37*
G36*
X172712212Y-107405249D02*
G01*
X172806651Y-107433897D01*
X172893687Y-107480418D01*
X172969975Y-107543025D01*
X173032582Y-107619313D01*
X173079103Y-107706348D01*
X173107751Y-107800787D01*
X173115000Y-107874388D01*
X173115000Y-110023612D01*
X173107751Y-110097213D01*
X173079103Y-110191652D01*
X173032582Y-110278687D01*
X172969975Y-110354975D01*
X172893687Y-110417582D01*
X172806652Y-110464103D01*
X172712213Y-110492751D01*
X172614000Y-110502424D01*
X172515788Y-110492751D01*
X172421349Y-110464103D01*
X172334314Y-110417582D01*
X172258026Y-110354975D01*
X172195419Y-110278687D01*
X172148898Y-110191652D01*
X172120250Y-110097213D01*
X172113001Y-110023612D01*
X172113000Y-107874389D01*
X172120249Y-107800788D01*
X172148897Y-107706349D01*
X172195418Y-107619313D01*
X172258025Y-107543025D01*
X172334313Y-107480418D01*
X172421348Y-107433897D01*
X172515787Y-107405249D01*
X172614000Y-107395576D01*
X172712212Y-107405249D01*
G37*
G36*
X181602212Y-107405249D02*
G01*
X181696651Y-107433897D01*
X181783687Y-107480418D01*
X181859975Y-107543025D01*
X181922582Y-107619313D01*
X181969103Y-107706348D01*
X181997751Y-107800787D01*
X182005000Y-107874388D01*
X182005000Y-110023612D01*
X181997751Y-110097213D01*
X181969103Y-110191652D01*
X181922582Y-110278687D01*
X181859975Y-110354975D01*
X181783687Y-110417582D01*
X181696652Y-110464103D01*
X181602213Y-110492751D01*
X181504000Y-110502424D01*
X181405788Y-110492751D01*
X181311349Y-110464103D01*
X181224314Y-110417582D01*
X181148026Y-110354975D01*
X181085419Y-110278687D01*
X181038898Y-110191652D01*
X181010250Y-110097213D01*
X181003001Y-110023612D01*
X181003000Y-107874389D01*
X181010249Y-107800788D01*
X181038897Y-107706349D01*
X181085418Y-107619313D01*
X181148025Y-107543025D01*
X181224313Y-107480418D01*
X181311348Y-107433897D01*
X181405787Y-107405249D01*
X181504000Y-107395576D01*
X181602212Y-107405249D01*
G37*
G36*
X193062212Y-107405249D02*
G01*
X193156651Y-107433897D01*
X193243687Y-107480418D01*
X193319975Y-107543025D01*
X193382582Y-107619313D01*
X193429103Y-107706348D01*
X193457751Y-107800787D01*
X193465000Y-107874388D01*
X193465000Y-110023612D01*
X193457751Y-110097213D01*
X193429103Y-110191652D01*
X193382582Y-110278687D01*
X193319975Y-110354975D01*
X193243687Y-110417582D01*
X193156652Y-110464103D01*
X193062213Y-110492751D01*
X192964000Y-110502424D01*
X192865788Y-110492751D01*
X192771349Y-110464103D01*
X192684314Y-110417582D01*
X192608026Y-110354975D01*
X192545419Y-110278687D01*
X192498898Y-110191652D01*
X192470250Y-110097213D01*
X192463001Y-110023612D01*
X192463000Y-107874389D01*
X192470249Y-107800788D01*
X192498897Y-107706349D01*
X192545418Y-107619313D01*
X192608025Y-107543025D01*
X192684313Y-107480418D01*
X192771348Y-107433897D01*
X192865787Y-107405249D01*
X192964000Y-107395576D01*
X193062212Y-107405249D01*
G37*
G36*
X173982212Y-107405249D02*
G01*
X174076651Y-107433897D01*
X174163687Y-107480418D01*
X174239975Y-107543025D01*
X174302582Y-107619313D01*
X174349103Y-107706348D01*
X174377751Y-107800787D01*
X174385000Y-107874388D01*
X174385000Y-110023612D01*
X174377751Y-110097213D01*
X174349103Y-110191652D01*
X174302582Y-110278687D01*
X174239975Y-110354975D01*
X174163687Y-110417582D01*
X174076652Y-110464103D01*
X173982213Y-110492751D01*
X173884000Y-110502424D01*
X173785788Y-110492751D01*
X173691349Y-110464103D01*
X173604314Y-110417582D01*
X173528026Y-110354975D01*
X173465419Y-110278687D01*
X173418898Y-110191652D01*
X173390250Y-110097213D01*
X173383001Y-110023612D01*
X173383000Y-107874389D01*
X173390249Y-107800788D01*
X173418897Y-107706349D01*
X173465418Y-107619313D01*
X173528025Y-107543025D01*
X173604313Y-107480418D01*
X173691348Y-107433897D01*
X173785787Y-107405249D01*
X173884000Y-107395576D01*
X173982212Y-107405249D01*
G37*
G36*
X194332212Y-107405249D02*
G01*
X194426651Y-107433897D01*
X194513687Y-107480418D01*
X194589975Y-107543025D01*
X194652582Y-107619313D01*
X194699103Y-107706348D01*
X194727751Y-107800787D01*
X194735000Y-107874388D01*
X194735000Y-110023612D01*
X194727751Y-110097213D01*
X194699103Y-110191652D01*
X194652582Y-110278687D01*
X194589975Y-110354975D01*
X194513687Y-110417582D01*
X194426652Y-110464103D01*
X194332213Y-110492751D01*
X194234000Y-110502424D01*
X194135788Y-110492751D01*
X194041349Y-110464103D01*
X193954314Y-110417582D01*
X193878026Y-110354975D01*
X193815419Y-110278687D01*
X193768898Y-110191652D01*
X193740250Y-110097213D01*
X193733001Y-110023612D01*
X193733000Y-107874389D01*
X193740249Y-107800788D01*
X193768897Y-107706349D01*
X193815418Y-107619313D01*
X193878025Y-107543025D01*
X193954313Y-107480418D01*
X194041348Y-107433897D01*
X194135787Y-107405249D01*
X194234000Y-107395576D01*
X194332212Y-107405249D01*
G37*
G36*
X175252212Y-107405249D02*
G01*
X175346651Y-107433897D01*
X175433687Y-107480418D01*
X175509975Y-107543025D01*
X175572582Y-107619313D01*
X175619103Y-107706348D01*
X175647751Y-107800787D01*
X175655000Y-107874388D01*
X175655000Y-110023612D01*
X175647751Y-110097213D01*
X175619103Y-110191652D01*
X175572582Y-110278687D01*
X175509975Y-110354975D01*
X175433687Y-110417582D01*
X175346652Y-110464103D01*
X175252213Y-110492751D01*
X175154000Y-110502424D01*
X175055788Y-110492751D01*
X174961349Y-110464103D01*
X174874314Y-110417582D01*
X174798026Y-110354975D01*
X174735419Y-110278687D01*
X174688898Y-110191652D01*
X174660250Y-110097213D01*
X174653001Y-110023612D01*
X174653000Y-107874389D01*
X174660249Y-107800788D01*
X174688897Y-107706349D01*
X174735418Y-107619313D01*
X174798025Y-107543025D01*
X174874313Y-107480418D01*
X174961348Y-107433897D01*
X175055787Y-107405249D01*
X175154000Y-107395576D01*
X175252212Y-107405249D01*
G37*
G36*
X176522212Y-107405249D02*
G01*
X176616651Y-107433897D01*
X176703687Y-107480418D01*
X176779975Y-107543025D01*
X176842582Y-107619313D01*
X176889103Y-107706348D01*
X176917751Y-107800787D01*
X176925000Y-107874388D01*
X176925000Y-110023612D01*
X176917751Y-110097213D01*
X176889103Y-110191652D01*
X176842582Y-110278687D01*
X176779975Y-110354975D01*
X176703687Y-110417582D01*
X176616652Y-110464103D01*
X176522213Y-110492751D01*
X176424000Y-110502424D01*
X176325788Y-110492751D01*
X176231349Y-110464103D01*
X176144314Y-110417582D01*
X176068026Y-110354975D01*
X176005419Y-110278687D01*
X175958898Y-110191652D01*
X175930250Y-110097213D01*
X175923001Y-110023612D01*
X175923000Y-107874389D01*
X175930249Y-107800788D01*
X175958897Y-107706349D01*
X176005418Y-107619313D01*
X176068025Y-107543025D01*
X176144313Y-107480418D01*
X176231348Y-107433897D01*
X176325787Y-107405249D01*
X176424000Y-107395576D01*
X176522212Y-107405249D01*
G37*
G36*
X177792212Y-107405249D02*
G01*
X177886651Y-107433897D01*
X177973687Y-107480418D01*
X178049975Y-107543025D01*
X178112582Y-107619313D01*
X178159103Y-107706348D01*
X178187751Y-107800787D01*
X178195000Y-107874388D01*
X178195000Y-110023612D01*
X178187751Y-110097213D01*
X178159103Y-110191652D01*
X178112582Y-110278687D01*
X178049975Y-110354975D01*
X177973687Y-110417582D01*
X177886652Y-110464103D01*
X177792213Y-110492751D01*
X177694000Y-110502424D01*
X177595788Y-110492751D01*
X177501349Y-110464103D01*
X177414314Y-110417582D01*
X177338026Y-110354975D01*
X177275419Y-110278687D01*
X177228898Y-110191652D01*
X177200250Y-110097213D01*
X177193001Y-110023612D01*
X177193000Y-107874389D01*
X177200249Y-107800788D01*
X177228897Y-107706349D01*
X177275418Y-107619313D01*
X177338025Y-107543025D01*
X177414313Y-107480418D01*
X177501348Y-107433897D01*
X177595787Y-107405249D01*
X177694000Y-107395576D01*
X177792212Y-107405249D01*
G37*
G36*
X179062212Y-107405249D02*
G01*
X179156651Y-107433897D01*
X179243687Y-107480418D01*
X179319975Y-107543025D01*
X179382582Y-107619313D01*
X179429103Y-107706348D01*
X179457751Y-107800787D01*
X179465000Y-107874388D01*
X179465000Y-110023612D01*
X179457751Y-110097213D01*
X179429103Y-110191652D01*
X179382582Y-110278687D01*
X179319975Y-110354975D01*
X179243687Y-110417582D01*
X179156652Y-110464103D01*
X179062213Y-110492751D01*
X178964000Y-110502424D01*
X178865788Y-110492751D01*
X178771349Y-110464103D01*
X178684314Y-110417582D01*
X178608026Y-110354975D01*
X178545419Y-110278687D01*
X178498898Y-110191652D01*
X178470250Y-110097213D01*
X178463001Y-110023612D01*
X178463000Y-107874389D01*
X178470249Y-107800788D01*
X178498897Y-107706349D01*
X178545418Y-107619313D01*
X178608025Y-107543025D01*
X178684313Y-107480418D01*
X178771348Y-107433897D01*
X178865787Y-107405249D01*
X178964000Y-107395576D01*
X179062212Y-107405249D01*
G37*
G36*
X180332212Y-107405249D02*
G01*
X180426651Y-107433897D01*
X180513687Y-107480418D01*
X180589975Y-107543025D01*
X180652582Y-107619313D01*
X180699103Y-107706348D01*
X180727751Y-107800787D01*
X180735000Y-107874388D01*
X180735000Y-110023612D01*
X180727751Y-110097213D01*
X180699103Y-110191652D01*
X180652582Y-110278687D01*
X180589975Y-110354975D01*
X180513687Y-110417582D01*
X180426652Y-110464103D01*
X180332213Y-110492751D01*
X180234000Y-110502424D01*
X180135788Y-110492751D01*
X180041349Y-110464103D01*
X179954314Y-110417582D01*
X179878026Y-110354975D01*
X179815419Y-110278687D01*
X179768898Y-110191652D01*
X179740250Y-110097213D01*
X179733001Y-110023612D01*
X179733000Y-107874389D01*
X179740249Y-107800788D01*
X179768897Y-107706349D01*
X179815418Y-107619313D01*
X179878025Y-107543025D01*
X179954313Y-107480418D01*
X180041348Y-107433897D01*
X180135787Y-107405249D01*
X180234000Y-107395576D01*
X180332212Y-107405249D01*
G37*
G36*
X182872212Y-107405249D02*
G01*
X182966651Y-107433897D01*
X183053687Y-107480418D01*
X183129975Y-107543025D01*
X183192582Y-107619313D01*
X183239103Y-107706348D01*
X183267751Y-107800787D01*
X183275000Y-107874388D01*
X183275000Y-110023612D01*
X183267751Y-110097213D01*
X183239103Y-110191652D01*
X183192582Y-110278687D01*
X183129975Y-110354975D01*
X183053687Y-110417582D01*
X182966652Y-110464103D01*
X182872213Y-110492751D01*
X182774000Y-110502424D01*
X182675788Y-110492751D01*
X182581349Y-110464103D01*
X182494314Y-110417582D01*
X182418026Y-110354975D01*
X182355419Y-110278687D01*
X182308898Y-110191652D01*
X182280250Y-110097213D01*
X182273001Y-110023612D01*
X182273000Y-107874389D01*
X182280249Y-107800788D01*
X182308897Y-107706349D01*
X182355418Y-107619313D01*
X182418025Y-107543025D01*
X182494313Y-107480418D01*
X182581348Y-107433897D01*
X182675787Y-107405249D01*
X182774000Y-107395576D01*
X182872212Y-107405249D01*
G37*
G36*
X184142212Y-107405249D02*
G01*
X184236651Y-107433897D01*
X184323687Y-107480418D01*
X184399975Y-107543025D01*
X184462582Y-107619313D01*
X184509103Y-107706348D01*
X184537751Y-107800787D01*
X184545000Y-107874388D01*
X184545000Y-110023612D01*
X184537751Y-110097213D01*
X184509103Y-110191652D01*
X184462582Y-110278687D01*
X184399975Y-110354975D01*
X184323687Y-110417582D01*
X184236652Y-110464103D01*
X184142213Y-110492751D01*
X184044000Y-110502424D01*
X183945788Y-110492751D01*
X183851349Y-110464103D01*
X183764314Y-110417582D01*
X183688026Y-110354975D01*
X183625419Y-110278687D01*
X183578898Y-110191652D01*
X183550250Y-110097213D01*
X183543001Y-110023612D01*
X183543000Y-107874389D01*
X183550249Y-107800788D01*
X183578897Y-107706349D01*
X183625418Y-107619313D01*
X183688025Y-107543025D01*
X183764313Y-107480418D01*
X183851348Y-107433897D01*
X183945787Y-107405249D01*
X184044000Y-107395576D01*
X184142212Y-107405249D01*
G37*
G36*
X185412212Y-107405249D02*
G01*
X185506651Y-107433897D01*
X185593687Y-107480418D01*
X185669975Y-107543025D01*
X185732582Y-107619313D01*
X185779103Y-107706348D01*
X185807751Y-107800787D01*
X185815000Y-107874388D01*
X185815000Y-110023612D01*
X185807751Y-110097213D01*
X185779103Y-110191652D01*
X185732582Y-110278687D01*
X185669975Y-110354975D01*
X185593687Y-110417582D01*
X185506652Y-110464103D01*
X185412213Y-110492751D01*
X185314000Y-110502424D01*
X185215788Y-110492751D01*
X185121349Y-110464103D01*
X185034314Y-110417582D01*
X184958026Y-110354975D01*
X184895419Y-110278687D01*
X184848898Y-110191652D01*
X184820250Y-110097213D01*
X184813001Y-110023612D01*
X184813000Y-107874389D01*
X184820249Y-107800788D01*
X184848897Y-107706349D01*
X184895418Y-107619313D01*
X184958025Y-107543025D01*
X185034313Y-107480418D01*
X185121348Y-107433897D01*
X185215787Y-107405249D01*
X185314000Y-107395576D01*
X185412212Y-107405249D01*
G37*
G36*
X186682212Y-107405249D02*
G01*
X186776651Y-107433897D01*
X186863687Y-107480418D01*
X186939975Y-107543025D01*
X187002582Y-107619313D01*
X187049103Y-107706348D01*
X187077751Y-107800787D01*
X187085000Y-107874388D01*
X187085000Y-110023612D01*
X187077751Y-110097213D01*
X187049103Y-110191652D01*
X187002582Y-110278687D01*
X186939975Y-110354975D01*
X186863687Y-110417582D01*
X186776652Y-110464103D01*
X186682213Y-110492751D01*
X186584000Y-110502424D01*
X186485788Y-110492751D01*
X186391349Y-110464103D01*
X186304314Y-110417582D01*
X186228026Y-110354975D01*
X186165419Y-110278687D01*
X186118898Y-110191652D01*
X186090250Y-110097213D01*
X186083001Y-110023612D01*
X186083000Y-107874389D01*
X186090249Y-107800788D01*
X186118897Y-107706349D01*
X186165418Y-107619313D01*
X186228025Y-107543025D01*
X186304313Y-107480418D01*
X186391348Y-107433897D01*
X186485787Y-107405249D01*
X186584000Y-107395576D01*
X186682212Y-107405249D01*
G37*
G36*
X187952212Y-107405249D02*
G01*
X188046651Y-107433897D01*
X188133687Y-107480418D01*
X188209975Y-107543025D01*
X188272582Y-107619313D01*
X188319103Y-107706348D01*
X188347751Y-107800787D01*
X188355000Y-107874388D01*
X188355000Y-110023612D01*
X188347751Y-110097213D01*
X188319103Y-110191652D01*
X188272582Y-110278687D01*
X188209975Y-110354975D01*
X188133687Y-110417582D01*
X188046652Y-110464103D01*
X187952213Y-110492751D01*
X187854000Y-110502424D01*
X187755788Y-110492751D01*
X187661349Y-110464103D01*
X187574314Y-110417582D01*
X187498026Y-110354975D01*
X187435419Y-110278687D01*
X187388898Y-110191652D01*
X187360250Y-110097213D01*
X187353001Y-110023612D01*
X187353000Y-107874389D01*
X187360249Y-107800788D01*
X187388897Y-107706349D01*
X187435418Y-107619313D01*
X187498025Y-107543025D01*
X187574313Y-107480418D01*
X187661348Y-107433897D01*
X187755787Y-107405249D01*
X187854000Y-107395576D01*
X187952212Y-107405249D01*
G37*
G36*
X195602212Y-107405249D02*
G01*
X195696651Y-107433897D01*
X195783687Y-107480418D01*
X195859975Y-107543025D01*
X195922582Y-107619313D01*
X195969103Y-107706348D01*
X195997751Y-107800787D01*
X196005000Y-107874388D01*
X196005000Y-110023612D01*
X195997751Y-110097213D01*
X195969103Y-110191652D01*
X195922582Y-110278687D01*
X195859975Y-110354975D01*
X195783687Y-110417582D01*
X195696652Y-110464103D01*
X195602213Y-110492751D01*
X195504000Y-110502424D01*
X195405788Y-110492751D01*
X195311349Y-110464103D01*
X195224314Y-110417582D01*
X195148026Y-110354975D01*
X195085419Y-110278687D01*
X195038898Y-110191652D01*
X195010250Y-110097213D01*
X195003001Y-110023612D01*
X195003000Y-107874389D01*
X195010249Y-107800788D01*
X195038897Y-107706349D01*
X195085418Y-107619313D01*
X195148025Y-107543025D01*
X195224313Y-107480418D01*
X195311348Y-107433897D01*
X195405787Y-107405249D01*
X195504000Y-107395576D01*
X195602212Y-107405249D01*
G37*
G36*
X189222212Y-107405249D02*
G01*
X189316651Y-107433897D01*
X189403687Y-107480418D01*
X189479975Y-107543025D01*
X189542582Y-107619313D01*
X189589103Y-107706348D01*
X189617751Y-107800787D01*
X189625000Y-107874388D01*
X189625000Y-110023612D01*
X189617751Y-110097213D01*
X189589103Y-110191652D01*
X189542582Y-110278687D01*
X189479975Y-110354975D01*
X189403687Y-110417582D01*
X189316652Y-110464103D01*
X189222213Y-110492751D01*
X189124000Y-110502424D01*
X189025788Y-110492751D01*
X188931349Y-110464103D01*
X188844314Y-110417582D01*
X188768026Y-110354975D01*
X188705419Y-110278687D01*
X188658898Y-110191652D01*
X188630250Y-110097213D01*
X188623001Y-110023612D01*
X188623000Y-107874389D01*
X188630249Y-107800788D01*
X188658897Y-107706349D01*
X188705418Y-107619313D01*
X188768025Y-107543025D01*
X188844313Y-107480418D01*
X188931348Y-107433897D01*
X189025787Y-107405249D01*
X189124000Y-107395576D01*
X189222212Y-107405249D01*
G37*
G36*
X190522212Y-107405249D02*
G01*
X190616651Y-107433897D01*
X190703687Y-107480418D01*
X190779975Y-107543025D01*
X190842582Y-107619313D01*
X190889103Y-107706348D01*
X190917751Y-107800787D01*
X190925000Y-107874388D01*
X190925000Y-110023612D01*
X190917751Y-110097213D01*
X190889103Y-110191652D01*
X190842582Y-110278687D01*
X190779975Y-110354975D01*
X190703687Y-110417582D01*
X190616652Y-110464103D01*
X190522213Y-110492751D01*
X190424000Y-110502424D01*
X190325788Y-110492751D01*
X190231349Y-110464103D01*
X190144314Y-110417582D01*
X190068026Y-110354975D01*
X190005419Y-110278687D01*
X189958898Y-110191652D01*
X189930250Y-110097213D01*
X189923001Y-110023612D01*
X189923000Y-107874389D01*
X189930249Y-107800788D01*
X189958897Y-107706349D01*
X190005418Y-107619313D01*
X190068025Y-107543025D01*
X190144313Y-107480418D01*
X190231348Y-107433897D01*
X190325787Y-107405249D01*
X190424000Y-107395576D01*
X190522212Y-107405249D01*
G37*
G36*
X191792212Y-107405249D02*
G01*
X191886651Y-107433897D01*
X191973687Y-107480418D01*
X192049975Y-107543025D01*
X192112582Y-107619313D01*
X192159103Y-107706348D01*
X192187751Y-107800787D01*
X192195000Y-107874388D01*
X192195000Y-110023612D01*
X192187751Y-110097213D01*
X192159103Y-110191652D01*
X192112582Y-110278687D01*
X192049975Y-110354975D01*
X191973687Y-110417582D01*
X191886652Y-110464103D01*
X191792213Y-110492751D01*
X191694000Y-110502424D01*
X191595788Y-110492751D01*
X191501349Y-110464103D01*
X191414314Y-110417582D01*
X191338026Y-110354975D01*
X191275419Y-110278687D01*
X191228898Y-110191652D01*
X191200250Y-110097213D01*
X191193001Y-110023612D01*
X191193000Y-107874389D01*
X191200249Y-107800788D01*
X191228897Y-107706349D01*
X191275418Y-107619313D01*
X191338025Y-107543025D01*
X191414313Y-107480418D01*
X191501348Y-107433897D01*
X191595787Y-107405249D01*
X191694000Y-107395576D01*
X191792212Y-107405249D01*
G37*
G36*
X235256564Y-108082389D02*
G01*
X235392308Y-108138616D01*
X235447835Y-108161616D01*
X235585551Y-108253635D01*
X235619973Y-108276635D01*
X235766365Y-108423027D01*
X235881385Y-108595167D01*
X235960611Y-108786436D01*
X236001000Y-108989484D01*
X236001000Y-109196516D01*
X235960611Y-109399564D01*
X235890912Y-109567833D01*
X235881384Y-109590835D01*
X235766365Y-109762973D01*
X235619973Y-109909365D01*
X235447835Y-110024384D01*
X235447834Y-110024385D01*
X235447833Y-110024385D01*
X235256564Y-110103611D01*
X235053516Y-110144000D01*
X234846484Y-110144000D01*
X234643436Y-110103611D01*
X234452167Y-110024385D01*
X234452166Y-110024385D01*
X234452165Y-110024384D01*
X234280027Y-109909365D01*
X234133635Y-109762973D01*
X234018616Y-109590835D01*
X234009088Y-109567833D01*
X233939389Y-109399564D01*
X233899000Y-109196516D01*
X233899000Y-108989484D01*
X233939389Y-108786436D01*
X234018615Y-108595167D01*
X234133635Y-108423027D01*
X234280027Y-108276635D01*
X234314449Y-108253635D01*
X234452165Y-108161616D01*
X234507692Y-108138616D01*
X234643436Y-108082389D01*
X234846484Y-108042000D01*
X235053516Y-108042000D01*
X235256564Y-108082389D01*
G37*
G36*
X230756564Y-108082389D02*
G01*
X230892308Y-108138616D01*
X230947835Y-108161616D01*
X231085551Y-108253635D01*
X231119973Y-108276635D01*
X231266365Y-108423027D01*
X231381385Y-108595167D01*
X231460611Y-108786436D01*
X231501000Y-108989484D01*
X231501000Y-109196516D01*
X231460611Y-109399564D01*
X231390912Y-109567833D01*
X231381384Y-109590835D01*
X231266365Y-109762973D01*
X231119973Y-109909365D01*
X230947835Y-110024384D01*
X230947834Y-110024385D01*
X230947833Y-110024385D01*
X230756564Y-110103611D01*
X230553516Y-110144000D01*
X230346484Y-110144000D01*
X230143436Y-110103611D01*
X229952167Y-110024385D01*
X229952166Y-110024385D01*
X229952165Y-110024384D01*
X229780027Y-109909365D01*
X229633635Y-109762973D01*
X229518616Y-109590835D01*
X229509088Y-109567833D01*
X229439389Y-109399564D01*
X229399000Y-109196516D01*
X229399000Y-108989484D01*
X229439389Y-108786436D01*
X229518615Y-108595167D01*
X229633635Y-108423027D01*
X229780027Y-108276635D01*
X229814449Y-108253635D01*
X229952165Y-108161616D01*
X230007692Y-108138616D01*
X230143436Y-108082389D01*
X230346484Y-108042000D01*
X230553516Y-108042000D01*
X230756564Y-108082389D01*
G37*
G36*
X239320564Y-108059389D02*
G01*
X239511833Y-108138615D01*
X239511835Y-108138616D01*
X239546255Y-108161615D01*
X239683973Y-108253635D01*
X239830365Y-108400027D01*
X239945385Y-108572167D01*
X240024611Y-108763436D01*
X240065000Y-108966484D01*
X240065000Y-109173516D01*
X240024611Y-109376564D01*
X239945385Y-109567833D01*
X239945384Y-109567835D01*
X239830365Y-109739973D01*
X239683973Y-109886365D01*
X239511835Y-110001384D01*
X239511834Y-110001385D01*
X239511833Y-110001385D01*
X239320564Y-110080611D01*
X239117516Y-110121000D01*
X238910484Y-110121000D01*
X238707436Y-110080611D01*
X238516167Y-110001385D01*
X238516166Y-110001385D01*
X238516165Y-110001384D01*
X238344027Y-109886365D01*
X238197635Y-109739973D01*
X238082616Y-109567835D01*
X238082615Y-109567833D01*
X238003389Y-109376564D01*
X237963000Y-109173516D01*
X237963000Y-108966484D01*
X238003389Y-108763436D01*
X238082615Y-108572167D01*
X238197635Y-108400027D01*
X238344027Y-108253635D01*
X238481745Y-108161615D01*
X238516165Y-108138616D01*
X238516167Y-108138615D01*
X238707436Y-108059389D01*
X238910484Y-108019000D01*
X239117516Y-108019000D01*
X239320564Y-108059389D01*
G37*
G36*
X243820564Y-108059389D02*
G01*
X244011833Y-108138615D01*
X244011835Y-108138616D01*
X244046255Y-108161615D01*
X244183973Y-108253635D01*
X244330365Y-108400027D01*
X244445385Y-108572167D01*
X244524611Y-108763436D01*
X244565000Y-108966484D01*
X244565000Y-109173516D01*
X244524611Y-109376564D01*
X244445385Y-109567833D01*
X244445384Y-109567835D01*
X244330365Y-109739973D01*
X244183973Y-109886365D01*
X244011835Y-110001384D01*
X244011834Y-110001385D01*
X244011833Y-110001385D01*
X243820564Y-110080611D01*
X243617516Y-110121000D01*
X243410484Y-110121000D01*
X243207436Y-110080611D01*
X243016167Y-110001385D01*
X243016166Y-110001385D01*
X243016165Y-110001384D01*
X242844027Y-109886365D01*
X242697635Y-109739973D01*
X242582616Y-109567835D01*
X242582615Y-109567833D01*
X242503389Y-109376564D01*
X242463000Y-109173516D01*
X242463000Y-108966484D01*
X242503389Y-108763436D01*
X242582615Y-108572167D01*
X242697635Y-108400027D01*
X242844027Y-108253635D01*
X242981745Y-108161615D01*
X243016165Y-108138616D01*
X243016167Y-108138615D01*
X243207436Y-108059389D01*
X243410484Y-108019000D01*
X243617516Y-108019000D01*
X243820564Y-108059389D01*
G37*
G36*
X238515000Y-105768000D02*
G01*
X237613000Y-105768000D01*
X237613000Y-104766000D01*
X238515000Y-104766000D01*
X238515000Y-105768000D01*
G37*
G36*
X240415000Y-105768000D02*
G01*
X239513000Y-105768000D01*
X239513000Y-104766000D01*
X240415000Y-104766000D01*
X240415000Y-105768000D01*
G37*
G36*
X239465000Y-103768000D02*
G01*
X238563000Y-103768000D01*
X238563000Y-102766000D01*
X239465000Y-102766000D01*
X239465000Y-103768000D01*
G37*
G36*
X182085000Y-102900000D02*
G01*
X176983000Y-102900000D01*
X176983000Y-97798000D01*
X182085000Y-97798000D01*
X182085000Y-102900000D01*
G37*
G36*
X236351000Y-101704000D02*
G01*
X235449000Y-101704000D01*
X235449000Y-100702000D01*
X236351000Y-100702000D01*
X236351000Y-101704000D01*
G37*
G36*
X234451000Y-101704000D02*
G01*
X233549000Y-101704000D01*
X233549000Y-100702000D01*
X234451000Y-100702000D01*
X234451000Y-101704000D01*
G37*
G36*
X248090663Y-98304580D02*
G01*
X248239734Y-98334232D01*
X248449203Y-98420997D01*
X248637720Y-98546960D01*
X248798040Y-98707280D01*
X248924003Y-98895797D01*
X249010768Y-99105266D01*
X249055000Y-99327636D01*
X249055000Y-99554364D01*
X249010768Y-99776734D01*
X248924003Y-99986203D01*
X248798040Y-100174720D01*
X248637720Y-100335040D01*
X248449203Y-100461003D01*
X248239734Y-100547768D01*
X248165022Y-100562629D01*
X248017365Y-100592000D01*
X247790635Y-100592000D01*
X247642978Y-100562629D01*
X247568266Y-100547768D01*
X247358797Y-100461003D01*
X247170280Y-100335040D01*
X247009960Y-100174720D01*
X246883997Y-99986203D01*
X246797232Y-99776734D01*
X246753000Y-99554364D01*
X246753000Y-99327636D01*
X246797232Y-99105266D01*
X246883997Y-98895797D01*
X247009960Y-98707280D01*
X247170280Y-98546960D01*
X247358797Y-98420997D01*
X247568266Y-98334232D01*
X247717337Y-98304580D01*
X247790635Y-98290000D01*
X248017365Y-98290000D01*
X248090663Y-98304580D01*
G37*
G36*
X235401000Y-99704000D02*
G01*
X234499000Y-99704000D01*
X234499000Y-98702000D01*
X235401000Y-98702000D01*
X235401000Y-99704000D01*
G37*
G36*
X224879000Y-97412000D02*
G01*
X223177000Y-97412000D01*
X223177000Y-95310000D01*
X224879000Y-95310000D01*
X224879000Y-97412000D01*
G37*
G36*
X241673000Y-97094000D02*
G01*
X240071000Y-97094000D01*
X240071000Y-95692000D01*
X241673000Y-95692000D01*
X241673000Y-97094000D01*
G37*
G36*
X238973000Y-97094000D02*
G01*
X237371000Y-97094000D01*
X237371000Y-95692000D01*
X238973000Y-95692000D01*
X238973000Y-97094000D01*
G37*
G36*
X203827000Y-96586000D02*
G01*
X202225000Y-96586000D01*
X202225000Y-95184000D01*
X203827000Y-95184000D01*
X203827000Y-96586000D01*
G37*
G36*
X201127000Y-96586000D02*
G01*
X199525000Y-96586000D01*
X199525000Y-95184000D01*
X201127000Y-95184000D01*
X201127000Y-96586000D01*
G37*
G36*
X231308000Y-95142000D02*
G01*
X229956000Y-95142000D01*
X229956000Y-93540000D01*
X231308000Y-93540000D01*
X231308000Y-95142000D01*
G37*
G36*
X238973000Y-94554000D02*
G01*
X237371000Y-94554000D01*
X237371000Y-93152000D01*
X238973000Y-93152000D01*
X238973000Y-94554000D01*
G37*
G36*
X241673000Y-94554000D02*
G01*
X240071000Y-94554000D01*
X240071000Y-93152000D01*
X241673000Y-93152000D01*
X241673000Y-94554000D01*
G37*
G36*
X224879000Y-93412000D02*
G01*
X223177000Y-93412000D01*
X223177000Y-91310000D01*
X224879000Y-91310000D01*
X224879000Y-93412000D01*
G37*
G36*
X231308000Y-92642000D02*
G01*
X229956000Y-92642000D01*
X229956000Y-91040000D01*
X231308000Y-91040000D01*
X231308000Y-92642000D01*
G37*
G36*
X248128549Y-90311116D02*
G01*
X248239734Y-90333232D01*
X248449203Y-90419997D01*
X248637720Y-90545960D01*
X248798040Y-90706280D01*
X248924003Y-90894797D01*
X249010768Y-91104266D01*
X249055000Y-91326636D01*
X249055000Y-91553364D01*
X249010768Y-91775734D01*
X248924003Y-91985203D01*
X248798040Y-92173720D01*
X248637720Y-92334040D01*
X248449203Y-92460003D01*
X248449202Y-92460004D01*
X248449201Y-92460004D01*
X248442569Y-92462751D01*
X248239734Y-92546768D01*
X248128549Y-92568884D01*
X248017365Y-92591000D01*
X247790635Y-92591000D01*
X247679451Y-92568884D01*
X247568266Y-92546768D01*
X247365431Y-92462751D01*
X247358799Y-92460004D01*
X247358798Y-92460004D01*
X247358797Y-92460003D01*
X247170280Y-92334040D01*
X247009960Y-92173720D01*
X246883997Y-91985203D01*
X246797232Y-91775734D01*
X246753000Y-91553364D01*
X246753000Y-91326636D01*
X246797232Y-91104266D01*
X246883997Y-90894797D01*
X247009960Y-90706280D01*
X247170280Y-90545960D01*
X247358797Y-90419997D01*
X247568266Y-90333232D01*
X247679451Y-90311116D01*
X247790635Y-90289000D01*
X248017365Y-90289000D01*
X248128549Y-90311116D01*
G37*
G36*
X190522212Y-89405249D02*
G01*
X190616651Y-89433897D01*
X190703687Y-89480418D01*
X190779975Y-89543025D01*
X190842582Y-89619313D01*
X190889103Y-89706348D01*
X190917751Y-89800787D01*
X190925000Y-89874388D01*
X190925000Y-92023612D01*
X190917751Y-92097213D01*
X190889103Y-92191652D01*
X190842582Y-92278687D01*
X190779975Y-92354975D01*
X190703687Y-92417582D01*
X190616652Y-92464103D01*
X190522213Y-92492751D01*
X190424000Y-92502424D01*
X190325788Y-92492751D01*
X190231349Y-92464103D01*
X190144314Y-92417582D01*
X190068026Y-92354975D01*
X190005419Y-92278687D01*
X189958898Y-92191652D01*
X189930250Y-92097213D01*
X189923001Y-92023612D01*
X189923000Y-89874389D01*
X189930249Y-89800788D01*
X189958897Y-89706349D01*
X190005418Y-89619313D01*
X190068025Y-89543025D01*
X190144313Y-89480418D01*
X190231348Y-89433897D01*
X190325787Y-89405249D01*
X190424000Y-89395576D01*
X190522212Y-89405249D01*
G37*
G36*
X191792212Y-89405249D02*
G01*
X191886651Y-89433897D01*
X191973687Y-89480418D01*
X192049975Y-89543025D01*
X192112582Y-89619313D01*
X192159103Y-89706348D01*
X192187751Y-89800787D01*
X192195000Y-89874388D01*
X192195000Y-92023612D01*
X192187751Y-92097213D01*
X192159103Y-92191652D01*
X192112582Y-92278687D01*
X192049975Y-92354975D01*
X191973687Y-92417582D01*
X191886652Y-92464103D01*
X191792213Y-92492751D01*
X191694000Y-92502424D01*
X191595788Y-92492751D01*
X191501349Y-92464103D01*
X191414314Y-92417582D01*
X191338026Y-92354975D01*
X191275419Y-92278687D01*
X191228898Y-92191652D01*
X191200250Y-92097213D01*
X191193001Y-92023612D01*
X191193000Y-89874389D01*
X191200249Y-89800788D01*
X191228897Y-89706349D01*
X191275418Y-89619313D01*
X191338025Y-89543025D01*
X191414313Y-89480418D01*
X191501348Y-89433897D01*
X191595787Y-89405249D01*
X191694000Y-89395576D01*
X191792212Y-89405249D01*
G37*
G36*
X193062212Y-89405249D02*
G01*
X193156651Y-89433897D01*
X193243687Y-89480418D01*
X193319975Y-89543025D01*
X193382582Y-89619313D01*
X193429103Y-89706348D01*
X193457751Y-89800787D01*
X193465000Y-89874388D01*
X193465000Y-92023612D01*
X193457751Y-92097213D01*
X193429103Y-92191652D01*
X193382582Y-92278687D01*
X193319975Y-92354975D01*
X193243687Y-92417582D01*
X193156652Y-92464103D01*
X193062213Y-92492751D01*
X192964000Y-92502424D01*
X192865788Y-92492751D01*
X192771349Y-92464103D01*
X192684314Y-92417582D01*
X192608026Y-92354975D01*
X192545419Y-92278687D01*
X192498898Y-92191652D01*
X192470250Y-92097213D01*
X192463001Y-92023612D01*
X192463000Y-89874389D01*
X192470249Y-89800788D01*
X192498897Y-89706349D01*
X192545418Y-89619313D01*
X192608025Y-89543025D01*
X192684313Y-89480418D01*
X192771348Y-89433897D01*
X192865787Y-89405249D01*
X192964000Y-89395576D01*
X193062212Y-89405249D01*
G37*
G36*
X194332212Y-89405249D02*
G01*
X194426651Y-89433897D01*
X194513687Y-89480418D01*
X194589975Y-89543025D01*
X194652582Y-89619313D01*
X194699103Y-89706348D01*
X194727751Y-89800787D01*
X194735000Y-89874388D01*
X194735000Y-92023612D01*
X194727751Y-92097213D01*
X194699103Y-92191652D01*
X194652582Y-92278687D01*
X194589975Y-92354975D01*
X194513687Y-92417582D01*
X194426652Y-92464103D01*
X194332213Y-92492751D01*
X194234000Y-92502424D01*
X194135788Y-92492751D01*
X194041349Y-92464103D01*
X193954314Y-92417582D01*
X193878026Y-92354975D01*
X193815419Y-92278687D01*
X193768898Y-92191652D01*
X193740250Y-92097213D01*
X193733001Y-92023612D01*
X193733000Y-89874389D01*
X193740249Y-89800788D01*
X193768897Y-89706349D01*
X193815418Y-89619313D01*
X193878025Y-89543025D01*
X193954313Y-89480418D01*
X194041348Y-89433897D01*
X194135787Y-89405249D01*
X194234000Y-89395576D01*
X194332212Y-89405249D01*
G37*
G36*
X195602212Y-89405249D02*
G01*
X195696651Y-89433897D01*
X195783687Y-89480418D01*
X195859975Y-89543025D01*
X195922582Y-89619313D01*
X195969103Y-89706348D01*
X195997751Y-89800787D01*
X196005000Y-89874388D01*
X196005000Y-92023612D01*
X195997751Y-92097213D01*
X195969103Y-92191652D01*
X195922582Y-92278687D01*
X195859975Y-92354975D01*
X195783687Y-92417582D01*
X195696652Y-92464103D01*
X195602213Y-92492751D01*
X195504000Y-92502424D01*
X195405788Y-92492751D01*
X195311349Y-92464103D01*
X195224314Y-92417582D01*
X195148026Y-92354975D01*
X195085419Y-92278687D01*
X195038898Y-92191652D01*
X195010250Y-92097213D01*
X195003001Y-92023612D01*
X195003000Y-89874389D01*
X195010249Y-89800788D01*
X195038897Y-89706349D01*
X195085418Y-89619313D01*
X195148025Y-89543025D01*
X195224313Y-89480418D01*
X195311348Y-89433897D01*
X195405787Y-89405249D01*
X195504000Y-89395576D01*
X195602212Y-89405249D01*
G37*
G36*
X184142212Y-89375249D02*
G01*
X184236651Y-89403897D01*
X184323687Y-89450418D01*
X184399975Y-89513025D01*
X184462582Y-89589313D01*
X184509103Y-89676348D01*
X184537751Y-89770787D01*
X184545000Y-89844388D01*
X184545000Y-91993612D01*
X184537751Y-92067213D01*
X184509103Y-92161652D01*
X184462582Y-92248687D01*
X184399975Y-92324975D01*
X184323687Y-92387582D01*
X184236652Y-92434103D01*
X184142213Y-92462751D01*
X184044000Y-92472424D01*
X183945788Y-92462751D01*
X183851349Y-92434103D01*
X183764314Y-92387582D01*
X183688026Y-92324975D01*
X183625419Y-92248687D01*
X183578898Y-92161652D01*
X183550250Y-92067213D01*
X183543001Y-91993612D01*
X183543000Y-89844389D01*
X183550249Y-89770788D01*
X183578897Y-89676349D01*
X183625418Y-89589313D01*
X183688025Y-89513025D01*
X183764313Y-89450418D01*
X183851348Y-89403897D01*
X183945787Y-89375249D01*
X184044000Y-89365576D01*
X184142212Y-89375249D01*
G37*
G36*
X172712212Y-89375249D02*
G01*
X172806651Y-89403897D01*
X172893687Y-89450418D01*
X172969975Y-89513025D01*
X173032582Y-89589313D01*
X173079103Y-89676348D01*
X173107751Y-89770787D01*
X173115000Y-89844388D01*
X173115000Y-91993612D01*
X173107751Y-92067213D01*
X173079103Y-92161652D01*
X173032582Y-92248687D01*
X172969975Y-92324975D01*
X172893687Y-92387582D01*
X172806652Y-92434103D01*
X172712213Y-92462751D01*
X172614000Y-92472424D01*
X172515788Y-92462751D01*
X172421349Y-92434103D01*
X172334314Y-92387582D01*
X172258026Y-92324975D01*
X172195419Y-92248687D01*
X172148898Y-92161652D01*
X172120250Y-92067213D01*
X172113001Y-91993612D01*
X172113000Y-89844389D01*
X172120249Y-89770788D01*
X172148897Y-89676349D01*
X172195418Y-89589313D01*
X172258025Y-89513025D01*
X172334313Y-89450418D01*
X172421348Y-89403897D01*
X172515787Y-89375249D01*
X172614000Y-89365576D01*
X172712212Y-89375249D01*
G37*
G36*
X173982212Y-89375249D02*
G01*
X174076651Y-89403897D01*
X174163687Y-89450418D01*
X174239975Y-89513025D01*
X174302582Y-89589313D01*
X174349103Y-89676348D01*
X174377751Y-89770787D01*
X174385000Y-89844388D01*
X174385000Y-91993612D01*
X174377751Y-92067213D01*
X174349103Y-92161652D01*
X174302582Y-92248687D01*
X174239975Y-92324975D01*
X174163687Y-92387582D01*
X174076652Y-92434103D01*
X173982213Y-92462751D01*
X173884000Y-92472424D01*
X173785788Y-92462751D01*
X173691349Y-92434103D01*
X173604314Y-92387582D01*
X173528026Y-92324975D01*
X173465419Y-92248687D01*
X173418898Y-92161652D01*
X173390250Y-92067213D01*
X173383001Y-91993612D01*
X173383000Y-89844389D01*
X173390249Y-89770788D01*
X173418897Y-89676349D01*
X173465418Y-89589313D01*
X173528025Y-89513025D01*
X173604313Y-89450418D01*
X173691348Y-89403897D01*
X173785787Y-89375249D01*
X173884000Y-89365576D01*
X173982212Y-89375249D01*
G37*
G36*
X175252212Y-89375249D02*
G01*
X175346651Y-89403897D01*
X175433687Y-89450418D01*
X175509975Y-89513025D01*
X175572582Y-89589313D01*
X175619103Y-89676348D01*
X175647751Y-89770787D01*
X175655000Y-89844388D01*
X175655000Y-91993612D01*
X175647751Y-92067213D01*
X175619103Y-92161652D01*
X175572582Y-92248687D01*
X175509975Y-92324975D01*
X175433687Y-92387582D01*
X175346652Y-92434103D01*
X175252213Y-92462751D01*
X175154000Y-92472424D01*
X175055788Y-92462751D01*
X174961349Y-92434103D01*
X174874314Y-92387582D01*
X174798026Y-92324975D01*
X174735419Y-92248687D01*
X174688898Y-92161652D01*
X174660250Y-92067213D01*
X174653001Y-91993612D01*
X174653000Y-89844389D01*
X174660249Y-89770788D01*
X174688897Y-89676349D01*
X174735418Y-89589313D01*
X174798025Y-89513025D01*
X174874313Y-89450418D01*
X174961348Y-89403897D01*
X175055787Y-89375249D01*
X175154000Y-89365576D01*
X175252212Y-89375249D01*
G37*
G36*
X176522212Y-89375249D02*
G01*
X176616651Y-89403897D01*
X176703687Y-89450418D01*
X176779975Y-89513025D01*
X176842582Y-89589313D01*
X176889103Y-89676348D01*
X176917751Y-89770787D01*
X176925000Y-89844388D01*
X176925000Y-91993612D01*
X176917751Y-92067213D01*
X176889103Y-92161652D01*
X176842582Y-92248687D01*
X176779975Y-92324975D01*
X176703687Y-92387582D01*
X176616652Y-92434103D01*
X176522213Y-92462751D01*
X176424000Y-92472424D01*
X176325788Y-92462751D01*
X176231349Y-92434103D01*
X176144314Y-92387582D01*
X176068026Y-92324975D01*
X176005419Y-92248687D01*
X175958898Y-92161652D01*
X175930250Y-92067213D01*
X175923001Y-91993612D01*
X175923000Y-89844389D01*
X175930249Y-89770788D01*
X175958897Y-89676349D01*
X176005418Y-89589313D01*
X176068025Y-89513025D01*
X176144313Y-89450418D01*
X176231348Y-89403897D01*
X176325787Y-89375249D01*
X176424000Y-89365576D01*
X176522212Y-89375249D01*
G37*
G36*
X177792212Y-89375249D02*
G01*
X177886651Y-89403897D01*
X177973687Y-89450418D01*
X178049975Y-89513025D01*
X178112582Y-89589313D01*
X178159103Y-89676348D01*
X178187751Y-89770787D01*
X178195000Y-89844388D01*
X178195000Y-91993612D01*
X178187751Y-92067213D01*
X178159103Y-92161652D01*
X178112582Y-92248687D01*
X178049975Y-92324975D01*
X177973687Y-92387582D01*
X177886652Y-92434103D01*
X177792213Y-92462751D01*
X177694000Y-92472424D01*
X177595788Y-92462751D01*
X177501349Y-92434103D01*
X177414314Y-92387582D01*
X177338026Y-92324975D01*
X177275419Y-92248687D01*
X177228898Y-92161652D01*
X177200250Y-92067213D01*
X177193001Y-91993612D01*
X177193000Y-89844389D01*
X177200249Y-89770788D01*
X177228897Y-89676349D01*
X177275418Y-89589313D01*
X177338025Y-89513025D01*
X177414313Y-89450418D01*
X177501348Y-89403897D01*
X177595787Y-89375249D01*
X177694000Y-89365576D01*
X177792212Y-89375249D01*
G37*
G36*
X179062212Y-89375249D02*
G01*
X179156651Y-89403897D01*
X179243687Y-89450418D01*
X179319975Y-89513025D01*
X179382582Y-89589313D01*
X179429103Y-89676348D01*
X179457751Y-89770787D01*
X179465000Y-89844388D01*
X179465000Y-91993612D01*
X179457751Y-92067213D01*
X179429103Y-92161652D01*
X179382582Y-92248687D01*
X179319975Y-92324975D01*
X179243687Y-92387582D01*
X179156652Y-92434103D01*
X179062213Y-92462751D01*
X178964000Y-92472424D01*
X178865788Y-92462751D01*
X178771349Y-92434103D01*
X178684314Y-92387582D01*
X178608026Y-92324975D01*
X178545419Y-92248687D01*
X178498898Y-92161652D01*
X178470250Y-92067213D01*
X178463001Y-91993612D01*
X178463000Y-89844389D01*
X178470249Y-89770788D01*
X178498897Y-89676349D01*
X178545418Y-89589313D01*
X178608025Y-89513025D01*
X178684313Y-89450418D01*
X178771348Y-89403897D01*
X178865787Y-89375249D01*
X178964000Y-89365576D01*
X179062212Y-89375249D01*
G37*
G36*
X181602212Y-89375249D02*
G01*
X181696651Y-89403897D01*
X181783687Y-89450418D01*
X181859975Y-89513025D01*
X181922582Y-89589313D01*
X181969103Y-89676348D01*
X181997751Y-89770787D01*
X182005000Y-89844388D01*
X182005000Y-91993612D01*
X181997751Y-92067213D01*
X181969103Y-92161652D01*
X181922582Y-92248687D01*
X181859975Y-92324975D01*
X181783687Y-92387582D01*
X181696652Y-92434103D01*
X181602213Y-92462751D01*
X181504000Y-92472424D01*
X181405788Y-92462751D01*
X181311349Y-92434103D01*
X181224314Y-92387582D01*
X181148026Y-92324975D01*
X181085419Y-92248687D01*
X181038898Y-92161652D01*
X181010250Y-92067213D01*
X181003001Y-91993612D01*
X181003000Y-89844389D01*
X181010249Y-89770788D01*
X181038897Y-89676349D01*
X181085418Y-89589313D01*
X181148025Y-89513025D01*
X181224313Y-89450418D01*
X181311348Y-89403897D01*
X181405787Y-89375249D01*
X181504000Y-89365576D01*
X181602212Y-89375249D01*
G37*
G36*
X185412212Y-89375249D02*
G01*
X185506651Y-89403897D01*
X185593687Y-89450418D01*
X185669975Y-89513025D01*
X185732582Y-89589313D01*
X185779103Y-89676348D01*
X185807751Y-89770787D01*
X185815000Y-89844388D01*
X185815000Y-91993612D01*
X185807751Y-92067213D01*
X185779103Y-92161652D01*
X185732582Y-92248687D01*
X185669975Y-92324975D01*
X185593687Y-92387582D01*
X185506652Y-92434103D01*
X185412213Y-92462751D01*
X185314000Y-92472424D01*
X185215788Y-92462751D01*
X185121349Y-92434103D01*
X185034314Y-92387582D01*
X184958026Y-92324975D01*
X184895419Y-92248687D01*
X184848898Y-92161652D01*
X184820250Y-92067213D01*
X184813001Y-91993612D01*
X184813000Y-89844389D01*
X184820249Y-89770788D01*
X184848897Y-89676349D01*
X184895418Y-89589313D01*
X184958025Y-89513025D01*
X185034313Y-89450418D01*
X185121348Y-89403897D01*
X185215787Y-89375249D01*
X185314000Y-89365576D01*
X185412212Y-89375249D01*
G37*
G36*
X186682212Y-89375249D02*
G01*
X186776651Y-89403897D01*
X186863687Y-89450418D01*
X186939975Y-89513025D01*
X187002582Y-89589313D01*
X187049103Y-89676348D01*
X187077751Y-89770787D01*
X187085000Y-89844388D01*
X187085000Y-91993612D01*
X187077751Y-92067213D01*
X187049103Y-92161652D01*
X187002582Y-92248687D01*
X186939975Y-92324975D01*
X186863687Y-92387582D01*
X186776652Y-92434103D01*
X186682213Y-92462751D01*
X186584000Y-92472424D01*
X186485788Y-92462751D01*
X186391349Y-92434103D01*
X186304314Y-92387582D01*
X186228026Y-92324975D01*
X186165419Y-92248687D01*
X186118898Y-92161652D01*
X186090250Y-92067213D01*
X186083001Y-91993612D01*
X186083000Y-89844389D01*
X186090249Y-89770788D01*
X186118897Y-89676349D01*
X186165418Y-89589313D01*
X186228025Y-89513025D01*
X186304313Y-89450418D01*
X186391348Y-89403897D01*
X186485787Y-89375249D01*
X186584000Y-89365576D01*
X186682212Y-89375249D01*
G37*
G36*
X187952212Y-89375249D02*
G01*
X188046651Y-89403897D01*
X188133687Y-89450418D01*
X188209975Y-89513025D01*
X188272582Y-89589313D01*
X188319103Y-89676348D01*
X188347751Y-89770787D01*
X188355000Y-89844388D01*
X188355000Y-91993612D01*
X188347751Y-92067213D01*
X188319103Y-92161652D01*
X188272582Y-92248687D01*
X188209975Y-92324975D01*
X188133687Y-92387582D01*
X188046652Y-92434103D01*
X187952213Y-92462751D01*
X187854000Y-92472424D01*
X187755788Y-92462751D01*
X187661349Y-92434103D01*
X187574314Y-92387582D01*
X187498026Y-92324975D01*
X187435419Y-92248687D01*
X187388898Y-92161652D01*
X187360250Y-92067213D01*
X187353001Y-91993612D01*
X187353000Y-89844389D01*
X187360249Y-89770788D01*
X187388897Y-89676349D01*
X187435418Y-89589313D01*
X187498025Y-89513025D01*
X187574313Y-89450418D01*
X187661348Y-89403897D01*
X187755787Y-89375249D01*
X187854000Y-89365576D01*
X187952212Y-89375249D01*
G37*
G36*
X189222212Y-89375249D02*
G01*
X189316651Y-89403897D01*
X189403687Y-89450418D01*
X189479975Y-89513025D01*
X189542582Y-89589313D01*
X189589103Y-89676348D01*
X189617751Y-89770787D01*
X189625000Y-89844388D01*
X189625000Y-91993612D01*
X189617751Y-92067213D01*
X189589103Y-92161652D01*
X189542582Y-92248687D01*
X189479975Y-92324975D01*
X189403687Y-92387582D01*
X189316652Y-92434103D01*
X189222213Y-92462751D01*
X189124000Y-92472424D01*
X189025788Y-92462751D01*
X188931349Y-92434103D01*
X188844314Y-92387582D01*
X188768026Y-92324975D01*
X188705419Y-92248687D01*
X188658898Y-92161652D01*
X188630250Y-92067213D01*
X188623001Y-91993612D01*
X188623000Y-89844389D01*
X188630249Y-89770788D01*
X188658897Y-89676349D01*
X188705418Y-89589313D01*
X188768025Y-89513025D01*
X188844313Y-89450418D01*
X188931348Y-89403897D01*
X189025787Y-89375249D01*
X189124000Y-89365576D01*
X189222212Y-89375249D01*
G37*
G36*
X182872212Y-89375249D02*
G01*
X182966651Y-89403897D01*
X183053687Y-89450418D01*
X183129975Y-89513025D01*
X183192582Y-89589313D01*
X183239103Y-89676348D01*
X183267751Y-89770787D01*
X183275000Y-89844388D01*
X183275000Y-91993612D01*
X183267751Y-92067213D01*
X183239103Y-92161652D01*
X183192582Y-92248687D01*
X183129975Y-92324975D01*
X183053687Y-92387582D01*
X182966652Y-92434103D01*
X182872213Y-92462751D01*
X182774000Y-92472424D01*
X182675788Y-92462751D01*
X182581349Y-92434103D01*
X182494314Y-92387582D01*
X182418026Y-92324975D01*
X182355419Y-92248687D01*
X182308898Y-92161652D01*
X182280250Y-92067213D01*
X182273001Y-91993612D01*
X182273000Y-89844389D01*
X182280249Y-89770788D01*
X182308897Y-89676349D01*
X182355418Y-89589313D01*
X182418025Y-89513025D01*
X182494313Y-89450418D01*
X182581348Y-89403897D01*
X182675787Y-89375249D01*
X182774000Y-89365576D01*
X182872212Y-89375249D01*
G37*
G36*
X180332212Y-89375249D02*
G01*
X180426651Y-89403897D01*
X180513687Y-89450418D01*
X180589975Y-89513025D01*
X180652582Y-89589313D01*
X180699103Y-89676348D01*
X180727751Y-89770787D01*
X180735000Y-89844388D01*
X180735000Y-91993612D01*
X180727751Y-92067213D01*
X180699103Y-92161652D01*
X180652582Y-92248687D01*
X180589975Y-92324975D01*
X180513687Y-92387582D01*
X180426652Y-92434103D01*
X180332213Y-92462751D01*
X180234000Y-92472424D01*
X180135788Y-92462751D01*
X180041349Y-92434103D01*
X179954314Y-92387582D01*
X179878026Y-92324975D01*
X179815419Y-92248687D01*
X179768898Y-92161652D01*
X179740250Y-92067213D01*
X179733001Y-91993612D01*
X179733000Y-89844389D01*
X179740249Y-89770788D01*
X179768897Y-89676349D01*
X179815418Y-89589313D01*
X179878025Y-89513025D01*
X179954313Y-89450418D01*
X180041348Y-89403897D01*
X180135787Y-89375249D01*
X180234000Y-89365576D01*
X180332212Y-89375249D01*
G37*
G36*
X241780000Y-89624000D02*
G01*
X239678000Y-89624000D01*
X239678000Y-87922000D01*
X241780000Y-87922000D01*
X241780000Y-89624000D01*
G37*
G36*
X245780000Y-89624000D02*
G01*
X243678000Y-89624000D01*
X243678000Y-87922000D01*
X245780000Y-87922000D01*
X245780000Y-89624000D01*
G37*
G36*
X216463500Y-89347000D02*
G01*
X214861500Y-89347000D01*
X214861500Y-87945000D01*
X216463500Y-87945000D01*
X216463500Y-89347000D01*
G37*
G36*
X213763500Y-89347000D02*
G01*
X212161500Y-89347000D01*
X212161500Y-87945000D01*
X213763500Y-87945000D01*
X213763500Y-89347000D01*
G37*
G36*
X231356000Y-88395000D02*
G01*
X229654000Y-88395000D01*
X229654000Y-86293000D01*
X231356000Y-86293000D01*
X231356000Y-88395000D01*
G37*
G36*
X228054000Y-88395000D02*
G01*
X226352000Y-88395000D01*
X226352000Y-86293000D01*
X228054000Y-86293000D01*
X228054000Y-88395000D01*
G37*
G36*
X221681000Y-88257000D02*
G01*
X220279000Y-88257000D01*
X220279000Y-86655000D01*
X221681000Y-86655000D01*
X221681000Y-88257000D01*
G37*
G36*
X224475000Y-88257000D02*
G01*
X223073000Y-88257000D01*
X223073000Y-86655000D01*
X224475000Y-86655000D01*
X224475000Y-88257000D01*
G37*
G36*
X236921000Y-88210000D02*
G01*
X235519000Y-88210000D01*
X235519000Y-86608000D01*
X236921000Y-86608000D01*
X236921000Y-88210000D01*
G37*
G36*
X234254000Y-88210000D02*
G01*
X232852000Y-88210000D01*
X232852000Y-86608000D01*
X234254000Y-86608000D01*
X234254000Y-88210000D01*
G37*
G36*
X211033000Y-87061000D02*
G01*
X209431000Y-87061000D01*
X209431000Y-85659000D01*
X211033000Y-85659000D01*
X211033000Y-87061000D01*
G37*
G36*
X213733000Y-87061000D02*
G01*
X212131000Y-87061000D01*
X212131000Y-85659000D01*
X213733000Y-85659000D01*
X213733000Y-87061000D01*
G37*
G36*
X205368000Y-86745000D02*
G01*
X204366000Y-86745000D01*
X204366000Y-85843000D01*
X205368000Y-85843000D01*
X205368000Y-86745000D01*
G37*
G36*
X207368000Y-85795000D02*
G01*
X206366000Y-85795000D01*
X206366000Y-84893000D01*
X207368000Y-84893000D01*
X207368000Y-85795000D01*
G37*
G36*
X221681000Y-85557000D02*
G01*
X220279000Y-85557000D01*
X220279000Y-83955000D01*
X221681000Y-83955000D01*
X221681000Y-85557000D01*
G37*
G36*
X234254000Y-85557000D02*
G01*
X232852000Y-85557000D01*
X232852000Y-83955000D01*
X234254000Y-83955000D01*
X234254000Y-85557000D01*
G37*
G36*
X224475000Y-85557000D02*
G01*
X223073000Y-85557000D01*
X223073000Y-83955000D01*
X224475000Y-83955000D01*
X224475000Y-85557000D01*
G37*
G36*
X236921000Y-85510000D02*
G01*
X235519000Y-85510000D01*
X235519000Y-83908000D01*
X236921000Y-83908000D01*
X236921000Y-85510000D01*
G37*
G36*
X191542000Y-85006000D02*
G01*
X185140000Y-85006000D01*
X185140000Y-83454000D01*
X191542000Y-83454000D01*
X191542000Y-85006000D01*
G37*
G36*
X205368000Y-84845000D02*
G01*
X204366000Y-84845000D01*
X204366000Y-83943000D01*
X205368000Y-83943000D01*
X205368000Y-84845000D01*
G37*
G36*
X211033000Y-84648000D02*
G01*
X209431000Y-84648000D01*
X209431000Y-83246000D01*
X211033000Y-83246000D01*
X211033000Y-84648000D01*
G37*
G36*
X213733000Y-84648000D02*
G01*
X212131000Y-84648000D01*
X212131000Y-83246000D01*
X213733000Y-83246000D01*
X213733000Y-84648000D01*
G37*
G36*
X231356000Y-84395000D02*
G01*
X229654000Y-84395000D01*
X229654000Y-82293000D01*
X231356000Y-82293000D01*
X231356000Y-84395000D01*
G37*
G36*
X228054000Y-84395000D02*
G01*
X226352000Y-84395000D01*
X226352000Y-82293000D01*
X228054000Y-82293000D01*
X228054000Y-84395000D01*
G37*
G36*
X242616000Y-82941000D02*
G01*
X238714000Y-82941000D01*
X238714000Y-80839000D01*
X242616000Y-80839000D01*
X242616000Y-82941000D01*
G37*
G36*
X199175000Y-82083000D02*
G01*
X197573000Y-82083000D01*
X197573000Y-80731000D01*
X199175000Y-80731000D01*
X199175000Y-82083000D01*
G37*
G36*
X196675000Y-82083000D02*
G01*
X195073000Y-82083000D01*
X195073000Y-80731000D01*
X196675000Y-80731000D01*
X196675000Y-82083000D01*
G37*
G36*
X212664000Y-82034000D02*
G01*
X211262000Y-82034000D01*
X211262000Y-80432000D01*
X212664000Y-80432000D01*
X212664000Y-82034000D01*
G37*
G36*
X216728000Y-82034000D02*
G01*
X215326000Y-82034000D01*
X215326000Y-80432000D01*
X216728000Y-80432000D01*
X216728000Y-82034000D01*
G37*
G36*
X247739000Y-80648000D02*
G01*
X246037000Y-80648000D01*
X246037000Y-78546000D01*
X247739000Y-78546000D01*
X247739000Y-80648000D01*
G37*
G36*
X230327370Y-77718970D02*
G01*
X230563186Y-77790503D01*
X230780513Y-77906667D01*
X230971002Y-78062998D01*
X231127333Y-78253487D01*
X231243497Y-78470814D01*
X231315030Y-78706630D01*
X231339185Y-78951868D01*
X231315030Y-79197107D01*
X231243497Y-79432921D01*
X231127333Y-79650249D01*
X231010179Y-79793001D01*
X230499001Y-80304179D01*
X230356249Y-80421333D01*
X230138921Y-80537497D01*
X229903106Y-80609030D01*
X229657868Y-80633185D01*
X229412630Y-80609030D01*
X229176815Y-80537497D01*
X228959487Y-80421333D01*
X228768998Y-80265002D01*
X228612667Y-80074513D01*
X228496503Y-79857185D01*
X228424970Y-79621370D01*
X228400815Y-79376132D01*
X228424970Y-79130894D01*
X228496503Y-78895079D01*
X228612667Y-78677751D01*
X228729821Y-78534999D01*
X229240999Y-78023821D01*
X229383751Y-77906667D01*
X229601079Y-77790503D01*
X229836893Y-77718970D01*
X230082132Y-77694815D01*
X230327370Y-77718970D01*
G37*
G36*
X216728000Y-79334000D02*
G01*
X215326000Y-79334000D01*
X215326000Y-77732000D01*
X216728000Y-77732000D01*
X216728000Y-79334000D01*
G37*
G36*
X212664000Y-79334000D02*
G01*
X211262000Y-79334000D01*
X211262000Y-77732000D01*
X212664000Y-77732000D01*
X212664000Y-79334000D01*
G37*
G36*
X191542000Y-79106000D02*
G01*
X185140000Y-79106000D01*
X185140000Y-77554000D01*
X191542000Y-77554000D01*
X191542000Y-79106000D01*
G37*
G36*
X230327370Y-72218970D02*
G01*
X230563186Y-72290503D01*
X230780513Y-72406667D01*
X230971002Y-72562998D01*
X231127333Y-72753487D01*
X231243497Y-72970814D01*
X231315030Y-73206630D01*
X231339185Y-73451868D01*
X231315030Y-73697107D01*
X231243497Y-73932921D01*
X231243496Y-73932924D01*
X231169461Y-74071433D01*
X231160083Y-74094072D01*
X231155303Y-74118105D01*
X231155303Y-74142609D01*
X231160083Y-74166642D01*
X231169461Y-74189281D01*
X231183074Y-74209655D01*
X231200401Y-74226983D01*
X231220776Y-74240596D01*
X231243415Y-74249974D01*
X231267448Y-74254754D01*
X231291952Y-74254754D01*
X231315985Y-74249974D01*
X231338624Y-74240596D01*
X231358989Y-74226988D01*
X231383751Y-74206667D01*
X231601079Y-74090503D01*
X231836893Y-74018970D01*
X232082132Y-73994815D01*
X232327370Y-74018970D01*
X232563186Y-74090503D01*
X232780513Y-74206667D01*
X232971002Y-74362998D01*
X233127333Y-74553487D01*
X233243497Y-74770814D01*
X233315030Y-75006630D01*
X233339185Y-75251868D01*
X233315030Y-75497107D01*
X233243497Y-75732921D01*
X233127333Y-75950249D01*
X233010179Y-76093001D01*
X232499001Y-76604179D01*
X232356249Y-76721333D01*
X232138921Y-76837497D01*
X231903106Y-76909030D01*
X231657868Y-76933185D01*
X231412630Y-76909030D01*
X231176815Y-76837497D01*
X230959487Y-76721333D01*
X230768998Y-76565002D01*
X230612667Y-76374513D01*
X230496503Y-76157185D01*
X230424970Y-75921370D01*
X230400815Y-75676132D01*
X230424970Y-75430894D01*
X230496503Y-75195079D01*
X230496504Y-75195076D01*
X230570539Y-75056567D01*
X230579917Y-75033928D01*
X230584697Y-75009895D01*
X230584697Y-74985391D01*
X230579917Y-74961358D01*
X230570539Y-74938719D01*
X230556926Y-74918345D01*
X230539599Y-74901017D01*
X230519224Y-74887404D01*
X230496585Y-74878026D01*
X230472552Y-74873246D01*
X230448048Y-74873246D01*
X230424015Y-74878026D01*
X230401376Y-74887404D01*
X230381011Y-74901012D01*
X230356249Y-74921333D01*
X230138921Y-75037497D01*
X229903106Y-75109030D01*
X229657868Y-75133185D01*
X229412630Y-75109030D01*
X229176815Y-75037497D01*
X228959487Y-74921333D01*
X228768998Y-74765002D01*
X228612667Y-74574513D01*
X228496503Y-74357185D01*
X228424970Y-74121370D01*
X228400815Y-73876132D01*
X228424970Y-73630894D01*
X228496503Y-73395079D01*
X228612667Y-73177751D01*
X228729821Y-73034999D01*
X229240999Y-72523821D01*
X229383751Y-72406667D01*
X229601079Y-72290503D01*
X229836893Y-72218970D01*
X230082132Y-72194815D01*
X230327370Y-72218970D01*
G37*
G36*
X247739000Y-76648000D02*
G01*
X246037000Y-76648000D01*
X246037000Y-74546000D01*
X247739000Y-74546000D01*
X247739000Y-76648000D01*
G37*
G36*
X239166000Y-76641000D02*
G01*
X237564000Y-76641000D01*
X237564000Y-74539000D01*
X239166000Y-74539000D01*
X239166000Y-76641000D01*
G37*
G36*
X241466000Y-76641000D02*
G01*
X239864000Y-76641000D01*
X239864000Y-74539000D01*
X241466000Y-74539000D01*
X241466000Y-76641000D01*
G37*
G36*
X243766000Y-76641000D02*
G01*
X242164000Y-76641000D01*
X242164000Y-74539000D01*
X243766000Y-74539000D01*
X243766000Y-76641000D01*
G37*
G36*
X178242022Y-69359847D02*
G01*
X178706388Y-69552194D01*
X178706390Y-69552195D01*
X179124309Y-69831440D01*
X179479720Y-70186851D01*
X179757010Y-70601844D01*
X179758966Y-70604772D01*
X179951313Y-71069138D01*
X180049370Y-71562105D01*
X180049370Y-72064735D01*
X179951313Y-72557702D01*
X179780196Y-72970814D01*
X179758965Y-73022070D01*
X179479720Y-73439989D01*
X179124309Y-73795400D01*
X178706390Y-74074645D01*
X178706389Y-74074646D01*
X178706388Y-74074646D01*
X178242022Y-74266993D01*
X177749055Y-74365050D01*
X177246425Y-74365050D01*
X176753458Y-74266993D01*
X176289092Y-74074646D01*
X176289091Y-74074646D01*
X176289090Y-74074645D01*
X175871171Y-73795400D01*
X175515760Y-73439989D01*
X175236515Y-73022070D01*
X175215284Y-72970814D01*
X175044167Y-72557702D01*
X174946110Y-72064735D01*
X174946110Y-71562105D01*
X175044167Y-71069138D01*
X175236514Y-70604772D01*
X175238470Y-70601844D01*
X175515760Y-70186851D01*
X175871171Y-69831440D01*
X176289090Y-69552195D01*
X176289092Y-69552194D01*
X176753458Y-69359847D01*
X177246425Y-69261790D01*
X177749055Y-69261790D01*
X178242022Y-69359847D01*
G37*
G36*
X203230542Y-69359847D02*
G01*
X203694908Y-69552194D01*
X203694910Y-69552195D01*
X204112829Y-69831440D01*
X204468240Y-70186851D01*
X204745530Y-70601844D01*
X204747486Y-70604772D01*
X204939833Y-71069138D01*
X205037890Y-71562105D01*
X205037890Y-72064735D01*
X204939833Y-72557702D01*
X204768716Y-72970814D01*
X204747485Y-73022070D01*
X204468240Y-73439989D01*
X204112829Y-73795400D01*
X203694910Y-74074645D01*
X203694909Y-74074646D01*
X203694908Y-74074646D01*
X203230542Y-74266993D01*
X202737575Y-74365050D01*
X202234945Y-74365050D01*
X201741978Y-74266993D01*
X201277612Y-74074646D01*
X201277611Y-74074646D01*
X201277610Y-74074645D01*
X200859691Y-73795400D01*
X200504280Y-73439989D01*
X200225035Y-73022070D01*
X200203804Y-72970814D01*
X200032687Y-72557702D01*
X199934630Y-72064735D01*
X199934630Y-71562105D01*
X200032687Y-71069138D01*
X200225034Y-70604772D01*
X200226990Y-70601844D01*
X200504280Y-70186851D01*
X200859691Y-69831440D01*
X201277610Y-69552195D01*
X201277612Y-69552194D01*
X201741978Y-69359847D01*
X202234945Y-69261790D01*
X202737575Y-69261790D01*
X203230542Y-69359847D01*
G37*
G36*
X192679214Y-72894458D02*
G01*
X192742046Y-72906956D01*
X192860420Y-72955988D01*
X192966949Y-73027168D01*
X193057552Y-73117771D01*
X193128732Y-73224300D01*
X193128732Y-73224301D01*
X193177764Y-73342674D01*
X193188188Y-73395077D01*
X193201897Y-73463995D01*
X193202760Y-73468337D01*
X193202760Y-73596463D01*
X193182741Y-73697107D01*
X193177764Y-73722125D01*
X193128732Y-73840500D01*
X193057552Y-73947029D01*
X192966949Y-74037632D01*
X192860420Y-74108812D01*
X192742046Y-74157844D01*
X192616384Y-74182840D01*
X192488256Y-74182840D01*
X192362594Y-74157844D01*
X192244220Y-74108812D01*
X192137691Y-74037632D01*
X192047088Y-73947029D01*
X191975908Y-73840500D01*
X191926876Y-73722125D01*
X191921900Y-73697107D01*
X191901880Y-73596463D01*
X191901880Y-73468337D01*
X191902744Y-73463995D01*
X191916452Y-73395077D01*
X191926876Y-73342674D01*
X191975908Y-73224301D01*
X191975908Y-73224300D01*
X192047088Y-73117771D01*
X192137691Y-73027168D01*
X192244220Y-72955988D01*
X192362594Y-72906956D01*
X192425426Y-72894458D01*
X192488256Y-72881960D01*
X192616384Y-72881960D01*
X192679214Y-72894458D01*
G37*
G36*
X194967754Y-72894458D02*
G01*
X195030586Y-72906956D01*
X195148960Y-72955988D01*
X195255489Y-73027168D01*
X195346092Y-73117771D01*
X195417272Y-73224300D01*
X195417272Y-73224301D01*
X195466304Y-73342674D01*
X195476728Y-73395077D01*
X195490437Y-73463995D01*
X195491300Y-73468337D01*
X195491300Y-73596463D01*
X195471281Y-73697107D01*
X195466304Y-73722125D01*
X195417272Y-73840500D01*
X195346092Y-73947029D01*
X195255489Y-74037632D01*
X195148960Y-74108812D01*
X195030586Y-74157844D01*
X194904924Y-74182840D01*
X194776796Y-74182840D01*
X194651134Y-74157844D01*
X194532760Y-74108812D01*
X194426231Y-74037632D01*
X194335628Y-73947029D01*
X194264448Y-73840500D01*
X194215416Y-73722125D01*
X194210440Y-73697107D01*
X194190420Y-73596463D01*
X194190420Y-73468337D01*
X194191284Y-73463995D01*
X194204992Y-73395077D01*
X194215416Y-73342674D01*
X194264448Y-73224301D01*
X194264448Y-73224300D01*
X194335628Y-73117771D01*
X194426231Y-73027168D01*
X194532760Y-72955988D01*
X194651134Y-72906956D01*
X194713966Y-72894458D01*
X194776796Y-72881960D01*
X194904924Y-72881960D01*
X194967754Y-72894458D01*
G37*
G36*
X190385594Y-72894458D02*
G01*
X190448426Y-72906956D01*
X190566800Y-72955988D01*
X190673329Y-73027168D01*
X190763932Y-73117771D01*
X190835112Y-73224300D01*
X190835112Y-73224301D01*
X190884144Y-73342674D01*
X190894568Y-73395077D01*
X190908277Y-73463995D01*
X190909140Y-73468337D01*
X190909140Y-73596463D01*
X190889121Y-73697107D01*
X190884144Y-73722125D01*
X190835112Y-73840500D01*
X190763932Y-73947029D01*
X190673329Y-74037632D01*
X190566800Y-74108812D01*
X190448426Y-74157844D01*
X190322764Y-74182840D01*
X190194636Y-74182840D01*
X190068974Y-74157844D01*
X189950600Y-74108812D01*
X189844071Y-74037632D01*
X189753468Y-73947029D01*
X189682288Y-73840500D01*
X189633256Y-73722125D01*
X189628280Y-73697107D01*
X189608260Y-73596463D01*
X189608260Y-73468337D01*
X189609124Y-73463995D01*
X189622832Y-73395077D01*
X189633256Y-73342674D01*
X189682288Y-73224301D01*
X189682288Y-73224300D01*
X189753468Y-73117771D01*
X189844071Y-73027168D01*
X189950600Y-72955988D01*
X190068974Y-72906956D01*
X190131806Y-72894458D01*
X190194636Y-72881960D01*
X190322764Y-72881960D01*
X190385594Y-72894458D01*
G37*
G36*
X188099594Y-72894458D02*
G01*
X188162426Y-72906956D01*
X188280800Y-72955988D01*
X188387329Y-73027168D01*
X188477932Y-73117771D01*
X188549112Y-73224300D01*
X188549112Y-73224301D01*
X188598144Y-73342674D01*
X188608568Y-73395077D01*
X188622277Y-73463995D01*
X188623140Y-73468337D01*
X188623140Y-73596463D01*
X188603121Y-73697107D01*
X188598144Y-73722125D01*
X188549112Y-73840500D01*
X188477932Y-73947029D01*
X188387329Y-74037632D01*
X188280800Y-74108812D01*
X188162426Y-74157844D01*
X188036764Y-74182840D01*
X187908636Y-74182840D01*
X187782974Y-74157844D01*
X187664600Y-74108812D01*
X187558071Y-74037632D01*
X187467468Y-73947029D01*
X187396288Y-73840500D01*
X187347256Y-73722125D01*
X187342280Y-73697107D01*
X187322260Y-73596463D01*
X187322260Y-73468337D01*
X187323124Y-73463995D01*
X187336832Y-73395077D01*
X187347256Y-73342674D01*
X187396288Y-73224301D01*
X187396288Y-73224300D01*
X187467468Y-73117771D01*
X187558071Y-73027168D01*
X187664600Y-72955988D01*
X187782974Y-72906956D01*
X187845806Y-72894458D01*
X187908636Y-72881960D01*
X188036764Y-72881960D01*
X188099594Y-72894458D01*
G37*
G36*
X185808514Y-72894458D02*
G01*
X185871346Y-72906956D01*
X185989720Y-72955988D01*
X186096249Y-73027168D01*
X186186852Y-73117771D01*
X186258032Y-73224300D01*
X186258032Y-73224301D01*
X186307064Y-73342674D01*
X186317488Y-73395077D01*
X186331197Y-73463995D01*
X186332060Y-73468337D01*
X186332060Y-73596463D01*
X186312041Y-73697107D01*
X186307064Y-73722125D01*
X186258032Y-73840500D01*
X186186852Y-73947029D01*
X186096249Y-74037632D01*
X185989720Y-74108812D01*
X185871346Y-74157844D01*
X185745684Y-74182840D01*
X185617556Y-74182840D01*
X185491894Y-74157844D01*
X185373520Y-74108812D01*
X185266991Y-74037632D01*
X185176388Y-73947029D01*
X185105208Y-73840500D01*
X185056176Y-73722125D01*
X185051200Y-73697107D01*
X185031180Y-73596463D01*
X185031180Y-73468337D01*
X185032044Y-73463995D01*
X185045752Y-73395077D01*
X185056176Y-73342674D01*
X185105208Y-73224301D01*
X185105208Y-73224300D01*
X185176388Y-73117771D01*
X185266991Y-73027168D01*
X185373520Y-72955988D01*
X185491894Y-72906956D01*
X185554726Y-72894458D01*
X185617556Y-72881960D01*
X185745684Y-72881960D01*
X185808514Y-72894458D01*
G37*
G36*
X218659228Y-72384703D02*
G01*
X218814100Y-72448853D01*
X218953481Y-72541985D01*
X219072015Y-72660519D01*
X219165147Y-72799900D01*
X219229297Y-72954772D01*
X219242383Y-73020561D01*
X219249493Y-73044000D01*
X219261044Y-73065611D01*
X219276589Y-73084553D01*
X219295531Y-73100098D01*
X219317142Y-73111649D01*
X219340591Y-73118762D01*
X219364977Y-73121164D01*
X219389363Y-73118762D01*
X219412812Y-73111649D01*
X219434423Y-73100098D01*
X219453365Y-73084553D01*
X219468910Y-73065611D01*
X219480461Y-73044000D01*
X219522709Y-72942005D01*
X219583009Y-72851760D01*
X219583010Y-72851758D01*
X219659758Y-72775010D01*
X219750004Y-72714710D01*
X219750005Y-72714709D01*
X219850279Y-72673174D01*
X219956730Y-72652000D01*
X220065270Y-72652000D01*
X220171721Y-72673174D01*
X220271995Y-72714709D01*
X220271996Y-72714710D01*
X220362242Y-72775010D01*
X220438990Y-72851758D01*
X220438991Y-72851760D01*
X220499291Y-72942005D01*
X220540826Y-73042279D01*
X220562000Y-73148730D01*
X220562000Y-73257270D01*
X220540826Y-73363721D01*
X220499291Y-73463995D01*
X220469345Y-73508812D01*
X220438990Y-73554242D01*
X220362242Y-73630990D01*
X220316812Y-73661345D01*
X220271995Y-73691291D01*
X220171721Y-73732826D01*
X220065270Y-73754000D01*
X219956730Y-73754000D01*
X219850279Y-73732826D01*
X219750005Y-73691291D01*
X219705188Y-73661345D01*
X219659758Y-73630990D01*
X219583010Y-73554242D01*
X219552655Y-73508812D01*
X219522709Y-73463995D01*
X219480461Y-73362000D01*
X219468910Y-73340389D01*
X219453365Y-73321447D01*
X219434423Y-73305902D01*
X219412812Y-73294351D01*
X219389363Y-73287238D01*
X219364977Y-73284836D01*
X219340591Y-73287238D01*
X219317142Y-73294351D01*
X219295531Y-73305902D01*
X219276589Y-73321447D01*
X219261044Y-73340389D01*
X219249493Y-73362000D01*
X219242383Y-73385439D01*
X219229297Y-73451228D01*
X219165147Y-73606100D01*
X219072015Y-73745481D01*
X218953481Y-73864015D01*
X218814100Y-73957147D01*
X218659228Y-74021297D01*
X218494816Y-74054000D01*
X218327184Y-74054000D01*
X218162772Y-74021297D01*
X218007900Y-73957147D01*
X217868519Y-73864015D01*
X217749985Y-73745481D01*
X217656853Y-73606100D01*
X217592703Y-73451228D01*
X217560000Y-73286816D01*
X217560000Y-73119184D01*
X217592703Y-72954772D01*
X217656853Y-72799900D01*
X217749985Y-72660519D01*
X217868519Y-72541985D01*
X218007900Y-72448853D01*
X218162772Y-72384703D01*
X218327184Y-72352000D01*
X218494816Y-72352000D01*
X218659228Y-72384703D01*
G37*
G36*
X211859228Y-72384703D02*
G01*
X212014100Y-72448853D01*
X212153481Y-72541985D01*
X212272015Y-72660519D01*
X212365147Y-72799900D01*
X212429297Y-72954772D01*
X212462000Y-73119184D01*
X212462000Y-73286816D01*
X212429297Y-73451228D01*
X212365147Y-73606100D01*
X212272015Y-73745481D01*
X212153481Y-73864015D01*
X212014100Y-73957147D01*
X211859228Y-74021297D01*
X211694816Y-74054000D01*
X211527184Y-74054000D01*
X211362772Y-74021297D01*
X211207900Y-73957147D01*
X211068519Y-73864015D01*
X210949985Y-73745481D01*
X210856853Y-73606100D01*
X210792703Y-73451228D01*
X210779617Y-73385439D01*
X210772507Y-73362000D01*
X210760956Y-73340389D01*
X210745411Y-73321447D01*
X210726469Y-73305902D01*
X210704858Y-73294351D01*
X210681409Y-73287238D01*
X210657023Y-73284836D01*
X210632637Y-73287238D01*
X210609188Y-73294351D01*
X210587577Y-73305902D01*
X210568635Y-73321447D01*
X210553090Y-73340389D01*
X210541539Y-73362000D01*
X210499291Y-73463995D01*
X210469345Y-73508812D01*
X210438990Y-73554242D01*
X210362242Y-73630990D01*
X210316812Y-73661345D01*
X210271995Y-73691291D01*
X210171721Y-73732826D01*
X210065270Y-73754000D01*
X209956730Y-73754000D01*
X209850279Y-73732826D01*
X209750005Y-73691291D01*
X209705188Y-73661345D01*
X209659758Y-73630990D01*
X209583010Y-73554242D01*
X209552655Y-73508812D01*
X209522709Y-73463995D01*
X209481174Y-73363721D01*
X209460000Y-73257270D01*
X209460000Y-73148730D01*
X209481174Y-73042279D01*
X209522709Y-72942005D01*
X209583009Y-72851760D01*
X209583010Y-72851758D01*
X209659758Y-72775010D01*
X209750004Y-72714710D01*
X209750005Y-72714709D01*
X209850279Y-72673174D01*
X209956730Y-72652000D01*
X210065270Y-72652000D01*
X210171721Y-72673174D01*
X210271995Y-72714709D01*
X210271996Y-72714710D01*
X210362242Y-72775010D01*
X210438990Y-72851758D01*
X210438991Y-72851760D01*
X210499291Y-72942005D01*
X210541539Y-73044000D01*
X210553090Y-73065611D01*
X210568635Y-73084553D01*
X210587577Y-73100098D01*
X210609188Y-73111649D01*
X210632637Y-73118762D01*
X210657023Y-73121164D01*
X210681409Y-73118762D01*
X210704858Y-73111649D01*
X210726469Y-73100098D01*
X210745411Y-73084553D01*
X210760956Y-73065611D01*
X210772507Y-73044000D01*
X210779617Y-73020561D01*
X210792703Y-72954772D01*
X210856853Y-72799900D01*
X210949985Y-72660519D01*
X211068519Y-72541985D01*
X211207900Y-72448853D01*
X211362772Y-72384703D01*
X211527184Y-72352000D01*
X211694816Y-72352000D01*
X211859228Y-72384703D01*
G37*
G36*
X189318126Y-71142256D02*
G01*
X189377312Y-71166772D01*
X189436500Y-71191288D01*
X189543029Y-71262468D01*
X189633632Y-71353071D01*
X189704812Y-71459600D01*
X189704812Y-71459601D01*
X189743914Y-71554000D01*
X189753844Y-71577975D01*
X189778840Y-71703636D01*
X189778840Y-71831764D01*
X189753844Y-71957425D01*
X189704812Y-72075800D01*
X189633632Y-72182329D01*
X189543029Y-72272932D01*
X189436500Y-72344112D01*
X189417456Y-72352000D01*
X189318126Y-72393144D01*
X189192464Y-72418140D01*
X189064336Y-72418140D01*
X189001506Y-72405642D01*
X188938674Y-72393144D01*
X188839344Y-72352000D01*
X188820300Y-72344112D01*
X188713771Y-72272932D01*
X188623168Y-72182329D01*
X188551988Y-72075800D01*
X188502956Y-71957425D01*
X188477960Y-71831764D01*
X188477960Y-71703636D01*
X188502956Y-71577975D01*
X188512887Y-71554000D01*
X188551988Y-71459601D01*
X188551988Y-71459600D01*
X188623168Y-71353071D01*
X188713771Y-71262468D01*
X188820300Y-71191288D01*
X188879488Y-71166772D01*
X188938674Y-71142256D01*
X189064336Y-71117260D01*
X189192464Y-71117260D01*
X189318126Y-71142256D01*
G37*
G36*
X184725806Y-71142256D02*
G01*
X184784992Y-71166772D01*
X184844180Y-71191288D01*
X184950709Y-71262468D01*
X185041312Y-71353071D01*
X185112492Y-71459600D01*
X185112492Y-71459601D01*
X185151594Y-71554000D01*
X185161524Y-71577975D01*
X185186520Y-71703636D01*
X185186520Y-71831764D01*
X185161524Y-71957425D01*
X185112492Y-72075800D01*
X185041312Y-72182329D01*
X184950709Y-72272932D01*
X184844180Y-72344112D01*
X184825136Y-72352000D01*
X184725806Y-72393144D01*
X184600144Y-72418140D01*
X184472016Y-72418140D01*
X184409186Y-72405642D01*
X184346354Y-72393144D01*
X184247024Y-72352000D01*
X184227980Y-72344112D01*
X184121451Y-72272932D01*
X184030848Y-72182329D01*
X183959668Y-72075800D01*
X183910636Y-71957425D01*
X183885640Y-71831764D01*
X183885640Y-71703636D01*
X183910636Y-71577975D01*
X183920567Y-71554000D01*
X183959668Y-71459601D01*
X183959668Y-71459600D01*
X184030848Y-71353071D01*
X184121451Y-71262468D01*
X184227980Y-71191288D01*
X184287168Y-71166772D01*
X184346354Y-71142256D01*
X184472016Y-71117260D01*
X184600144Y-71117260D01*
X184725806Y-71142256D01*
G37*
G36*
X187019426Y-71142256D02*
G01*
X187078612Y-71166772D01*
X187137800Y-71191288D01*
X187244329Y-71262468D01*
X187334932Y-71353071D01*
X187406112Y-71459600D01*
X187406112Y-71459601D01*
X187445214Y-71554000D01*
X187455144Y-71577975D01*
X187480140Y-71703636D01*
X187480140Y-71831764D01*
X187455144Y-71957425D01*
X187406112Y-72075800D01*
X187334932Y-72182329D01*
X187244329Y-72272932D01*
X187137800Y-72344112D01*
X187118756Y-72352000D01*
X187019426Y-72393144D01*
X186893764Y-72418140D01*
X186765636Y-72418140D01*
X186702806Y-72405642D01*
X186639974Y-72393144D01*
X186540644Y-72352000D01*
X186521600Y-72344112D01*
X186415071Y-72272932D01*
X186324468Y-72182329D01*
X186253288Y-72075800D01*
X186204256Y-71957425D01*
X186179260Y-71831764D01*
X186179260Y-71703636D01*
X186204256Y-71577975D01*
X186214187Y-71554000D01*
X186253288Y-71459601D01*
X186253288Y-71459600D01*
X186324468Y-71353071D01*
X186415071Y-71262468D01*
X186521600Y-71191288D01*
X186580788Y-71166772D01*
X186639974Y-71142256D01*
X186765636Y-71117260D01*
X186893764Y-71117260D01*
X187019426Y-71142256D01*
G37*
G36*
X193890126Y-71142256D02*
G01*
X193949312Y-71166772D01*
X194008500Y-71191288D01*
X194115029Y-71262468D01*
X194205632Y-71353071D01*
X194276812Y-71459600D01*
X194276812Y-71459601D01*
X194315914Y-71554000D01*
X194325844Y-71577975D01*
X194350840Y-71703636D01*
X194350840Y-71831764D01*
X194325844Y-71957425D01*
X194276812Y-72075800D01*
X194205632Y-72182329D01*
X194115029Y-72272932D01*
X194008500Y-72344112D01*
X193989456Y-72352000D01*
X193890126Y-72393144D01*
X193764464Y-72418140D01*
X193636336Y-72418140D01*
X193573506Y-72405642D01*
X193510674Y-72393144D01*
X193411344Y-72352000D01*
X193392300Y-72344112D01*
X193285771Y-72272932D01*
X193195168Y-72182329D01*
X193123988Y-72075800D01*
X193074956Y-71957425D01*
X193049960Y-71831764D01*
X193049960Y-71703636D01*
X193074956Y-71577975D01*
X193084887Y-71554000D01*
X193123988Y-71459601D01*
X193123988Y-71459600D01*
X193195168Y-71353071D01*
X193285771Y-71262468D01*
X193392300Y-71191288D01*
X193451488Y-71166772D01*
X193510674Y-71142256D01*
X193636336Y-71117260D01*
X193764464Y-71117260D01*
X193890126Y-71142256D01*
G37*
G36*
X191616826Y-71142256D02*
G01*
X191676012Y-71166772D01*
X191735200Y-71191288D01*
X191841729Y-71262468D01*
X191932332Y-71353071D01*
X192003512Y-71459600D01*
X192003512Y-71459601D01*
X192042614Y-71554000D01*
X192052544Y-71577975D01*
X192077540Y-71703636D01*
X192077540Y-71831764D01*
X192052544Y-71957425D01*
X192003512Y-72075800D01*
X191932332Y-72182329D01*
X191841729Y-72272932D01*
X191735200Y-72344112D01*
X191716156Y-72352000D01*
X191616826Y-72393144D01*
X191491164Y-72418140D01*
X191363036Y-72418140D01*
X191300206Y-72405642D01*
X191237374Y-72393144D01*
X191138044Y-72352000D01*
X191119000Y-72344112D01*
X191012471Y-72272932D01*
X190921868Y-72182329D01*
X190850688Y-72075800D01*
X190801656Y-71957425D01*
X190776660Y-71831764D01*
X190776660Y-71703636D01*
X190801656Y-71577975D01*
X190811587Y-71554000D01*
X190850688Y-71459601D01*
X190850688Y-71459600D01*
X190921868Y-71353071D01*
X191012471Y-71262468D01*
X191119000Y-71191288D01*
X191178188Y-71166772D01*
X191237374Y-71142256D01*
X191363036Y-71117260D01*
X191491164Y-71117260D01*
X191616826Y-71142256D01*
G37*
G36*
X213959228Y-69884703D02*
G01*
X214114100Y-69948853D01*
X214253481Y-70041985D01*
X214372015Y-70160519D01*
X214465147Y-70299900D01*
X214529297Y-70454772D01*
X214562000Y-70619184D01*
X214562000Y-70786816D01*
X214529297Y-70951228D01*
X214465147Y-71106100D01*
X214372015Y-71245481D01*
X214253481Y-71364015D01*
X214114100Y-71457147D01*
X213959228Y-71521297D01*
X213794816Y-71554000D01*
X213627184Y-71554000D01*
X213462772Y-71521297D01*
X213307900Y-71457147D01*
X213168519Y-71364015D01*
X213049985Y-71245481D01*
X212956853Y-71106100D01*
X212892703Y-70951228D01*
X212860000Y-70786816D01*
X212860000Y-70619184D01*
X212892703Y-70454772D01*
X212956853Y-70299900D01*
X213049985Y-70160519D01*
X213168519Y-70041985D01*
X213307900Y-69948853D01*
X213462772Y-69884703D01*
X213627184Y-69852000D01*
X213794816Y-69852000D01*
X213959228Y-69884703D01*
G37*
G36*
X216559228Y-69884703D02*
G01*
X216714100Y-69948853D01*
X216853481Y-70041985D01*
X216972015Y-70160519D01*
X217065147Y-70299900D01*
X217129297Y-70454772D01*
X217162000Y-70619184D01*
X217162000Y-70786816D01*
X217129297Y-70951228D01*
X217065147Y-71106100D01*
X216972015Y-71245481D01*
X216853481Y-71364015D01*
X216714100Y-71457147D01*
X216559228Y-71521297D01*
X216394816Y-71554000D01*
X216227184Y-71554000D01*
X216062772Y-71521297D01*
X215907900Y-71457147D01*
X215768519Y-71364015D01*
X215649985Y-71245481D01*
X215556853Y-71106100D01*
X215492703Y-70951228D01*
X215460000Y-70786816D01*
X215460000Y-70619184D01*
X215492703Y-70454772D01*
X215556853Y-70299900D01*
X215649985Y-70160519D01*
X215768519Y-70041985D01*
X215907900Y-69948853D01*
X216062772Y-69884703D01*
X216227184Y-69852000D01*
X216394816Y-69852000D01*
X216559228Y-69884703D01*
G37*
G36*
X211859228Y-69884703D02*
G01*
X212014100Y-69948853D01*
X212153481Y-70041985D01*
X212272015Y-70160519D01*
X212365147Y-70299900D01*
X212429297Y-70454772D01*
X212462000Y-70619184D01*
X212462000Y-70786816D01*
X212429297Y-70951228D01*
X212365147Y-71106100D01*
X212272015Y-71245481D01*
X212153481Y-71364015D01*
X212014100Y-71457147D01*
X211859228Y-71521297D01*
X211694816Y-71554000D01*
X211527184Y-71554000D01*
X211362772Y-71521297D01*
X211207900Y-71457147D01*
X211068519Y-71364015D01*
X210949985Y-71245481D01*
X210856853Y-71106100D01*
X210792703Y-70951228D01*
X210760000Y-70786816D01*
X210760000Y-70619184D01*
X210792703Y-70454772D01*
X210856853Y-70299900D01*
X210949985Y-70160519D01*
X211068519Y-70041985D01*
X211207900Y-69948853D01*
X211362772Y-69884703D01*
X211527184Y-69852000D01*
X211694816Y-69852000D01*
X211859228Y-69884703D01*
G37*
G36*
X218659228Y-69884703D02*
G01*
X218814100Y-69948853D01*
X218953481Y-70041985D01*
X219072015Y-70160519D01*
X219165147Y-70299900D01*
X219229297Y-70454772D01*
X219262000Y-70619184D01*
X219262000Y-70786816D01*
X219229297Y-70951228D01*
X219165147Y-71106100D01*
X219072015Y-71245481D01*
X218953481Y-71364015D01*
X218814100Y-71457147D01*
X218659228Y-71521297D01*
X218494816Y-71554000D01*
X218327184Y-71554000D01*
X218162772Y-71521297D01*
X218007900Y-71457147D01*
X217868519Y-71364015D01*
X217749985Y-71245481D01*
X217656853Y-71106100D01*
X217592703Y-70951228D01*
X217560000Y-70786816D01*
X217560000Y-70619184D01*
X217592703Y-70454772D01*
X217656853Y-70299900D01*
X217749985Y-70160519D01*
X217868519Y-70041985D01*
X218007900Y-69948853D01*
X218162772Y-69884703D01*
X218327184Y-69852000D01*
X218494816Y-69852000D01*
X218659228Y-69884703D01*
G37*
G36*
X232327370Y-68518970D02*
G01*
X232563186Y-68590503D01*
X232780513Y-68706667D01*
X232971002Y-68862998D01*
X233127333Y-69053487D01*
X233243497Y-69270814D01*
X233315030Y-69506630D01*
X233339185Y-69751868D01*
X233315030Y-69997107D01*
X233243497Y-70232921D01*
X233127333Y-70450249D01*
X233010179Y-70593001D01*
X232499001Y-71104179D01*
X232356249Y-71221333D01*
X232138921Y-71337497D01*
X231903106Y-71409030D01*
X231657868Y-71433185D01*
X231412630Y-71409030D01*
X231176815Y-71337497D01*
X230959487Y-71221333D01*
X230768998Y-71065002D01*
X230612667Y-70874513D01*
X230496503Y-70657185D01*
X230424970Y-70421370D01*
X230400815Y-70176132D01*
X230424970Y-69930894D01*
X230496503Y-69695079D01*
X230612667Y-69477751D01*
X230729821Y-69334999D01*
X231240999Y-68823821D01*
X231383751Y-68706667D01*
X231601079Y-68590503D01*
X231836893Y-68518970D01*
X232082132Y-68494815D01*
X232327370Y-68518970D01*
G37*
G36*
X192661815Y-69334997D02*
G01*
X192742046Y-69350956D01*
X192860420Y-69399988D01*
X192966949Y-69471168D01*
X193057552Y-69561771D01*
X193128732Y-69668300D01*
X193128732Y-69668301D01*
X193177764Y-69786674D01*
X193202760Y-69912336D01*
X193202760Y-70040464D01*
X193177764Y-70166125D01*
X193128732Y-70284500D01*
X193057552Y-70391029D01*
X192966949Y-70481632D01*
X192860420Y-70552812D01*
X192801232Y-70577328D01*
X192742046Y-70601844D01*
X192616384Y-70626840D01*
X192488256Y-70626840D01*
X192362594Y-70601844D01*
X192303408Y-70577328D01*
X192244220Y-70552812D01*
X192137691Y-70481632D01*
X192047088Y-70391029D01*
X191975908Y-70284500D01*
X191926876Y-70166125D01*
X191901880Y-70040464D01*
X191901880Y-69912336D01*
X191926876Y-69786674D01*
X191975908Y-69668301D01*
X191975908Y-69668300D01*
X192047088Y-69561771D01*
X192137691Y-69471168D01*
X192244220Y-69399988D01*
X192362594Y-69350956D01*
X192442825Y-69334997D01*
X192488256Y-69325960D01*
X192616384Y-69325960D01*
X192661815Y-69334997D01*
G37*
G36*
X194952895Y-69334997D02*
G01*
X195033126Y-69350956D01*
X195151500Y-69399988D01*
X195258029Y-69471168D01*
X195348632Y-69561771D01*
X195419812Y-69668300D01*
X195419812Y-69668301D01*
X195468844Y-69786674D01*
X195493840Y-69912336D01*
X195493840Y-70040464D01*
X195468844Y-70166125D01*
X195419812Y-70284500D01*
X195348632Y-70391029D01*
X195258029Y-70481632D01*
X195151500Y-70552812D01*
X195092312Y-70577328D01*
X195033126Y-70601844D01*
X194907464Y-70626840D01*
X194779336Y-70626840D01*
X194653674Y-70601844D01*
X194594488Y-70577328D01*
X194535300Y-70552812D01*
X194428771Y-70481632D01*
X194338168Y-70391029D01*
X194266988Y-70284500D01*
X194217956Y-70166125D01*
X194192960Y-70040464D01*
X194192960Y-69912336D01*
X194217956Y-69786674D01*
X194266988Y-69668301D01*
X194266988Y-69668300D01*
X194338168Y-69561771D01*
X194428771Y-69471168D01*
X194535300Y-69399988D01*
X194653674Y-69350956D01*
X194733905Y-69334997D01*
X194779336Y-69325960D01*
X194907464Y-69325960D01*
X194952895Y-69334997D01*
G37*
G36*
X190370735Y-69334997D02*
G01*
X190450966Y-69350956D01*
X190569340Y-69399988D01*
X190675869Y-69471168D01*
X190766472Y-69561771D01*
X190837652Y-69668300D01*
X190837652Y-69668301D01*
X190886684Y-69786674D01*
X190911680Y-69912336D01*
X190911680Y-70040464D01*
X190886684Y-70166125D01*
X190837652Y-70284500D01*
X190766472Y-70391029D01*
X190675869Y-70481632D01*
X190569340Y-70552812D01*
X190510152Y-70577328D01*
X190450966Y-70601844D01*
X190325304Y-70626840D01*
X190197176Y-70626840D01*
X190071514Y-70601844D01*
X190012328Y-70577328D01*
X189953140Y-70552812D01*
X189846611Y-70481632D01*
X189756008Y-70391029D01*
X189684828Y-70284500D01*
X189635796Y-70166125D01*
X189610800Y-70040464D01*
X189610800Y-69912336D01*
X189635796Y-69786674D01*
X189684828Y-69668301D01*
X189684828Y-69668300D01*
X189756008Y-69561771D01*
X189846611Y-69471168D01*
X189953140Y-69399988D01*
X190071514Y-69350956D01*
X190151745Y-69334997D01*
X190197176Y-69325960D01*
X190325304Y-69325960D01*
X190370735Y-69334997D01*
G37*
G36*
X188082195Y-69334997D02*
G01*
X188162426Y-69350956D01*
X188280800Y-69399988D01*
X188387329Y-69471168D01*
X188477932Y-69561771D01*
X188549112Y-69668300D01*
X188549112Y-69668301D01*
X188598144Y-69786674D01*
X188623140Y-69912336D01*
X188623140Y-70040464D01*
X188598144Y-70166125D01*
X188549112Y-70284500D01*
X188477932Y-70391029D01*
X188387329Y-70481632D01*
X188280800Y-70552812D01*
X188221612Y-70577328D01*
X188162426Y-70601844D01*
X188036764Y-70626840D01*
X187908636Y-70626840D01*
X187782974Y-70601844D01*
X187723788Y-70577328D01*
X187664600Y-70552812D01*
X187558071Y-70481632D01*
X187467468Y-70391029D01*
X187396288Y-70284500D01*
X187347256Y-70166125D01*
X187322260Y-70040464D01*
X187322260Y-69912336D01*
X187347256Y-69786674D01*
X187396288Y-69668301D01*
X187396288Y-69668300D01*
X187467468Y-69561771D01*
X187558071Y-69471168D01*
X187664600Y-69399988D01*
X187782974Y-69350956D01*
X187863205Y-69334997D01*
X187908636Y-69325960D01*
X188036764Y-69325960D01*
X188082195Y-69334997D01*
G37*
G36*
X185791115Y-69334997D02*
G01*
X185871346Y-69350956D01*
X185989720Y-69399988D01*
X186096249Y-69471168D01*
X186186852Y-69561771D01*
X186258032Y-69668300D01*
X186258032Y-69668301D01*
X186307064Y-69786674D01*
X186332060Y-69912336D01*
X186332060Y-70040464D01*
X186307064Y-70166125D01*
X186258032Y-70284500D01*
X186186852Y-70391029D01*
X186096249Y-70481632D01*
X185989720Y-70552812D01*
X185930532Y-70577328D01*
X185871346Y-70601844D01*
X185745684Y-70626840D01*
X185617556Y-70626840D01*
X185491894Y-70601844D01*
X185432708Y-70577328D01*
X185373520Y-70552812D01*
X185266991Y-70481632D01*
X185176388Y-70391029D01*
X185105208Y-70284500D01*
X185056176Y-70166125D01*
X185031180Y-70040464D01*
X185031180Y-69912336D01*
X185056176Y-69786674D01*
X185105208Y-69668301D01*
X185105208Y-69668300D01*
X185176388Y-69561771D01*
X185266991Y-69471168D01*
X185373520Y-69399988D01*
X185491894Y-69350956D01*
X185572125Y-69334997D01*
X185617556Y-69325960D01*
X185745684Y-69325960D01*
X185791115Y-69334997D01*
G37*
G36*
X241689999Y-66721200D02*
G01*
X242215000Y-66721200D01*
X242215000Y-69321200D01*
X241715000Y-69321200D01*
X241715000Y-68294999D01*
X241712598Y-68270613D01*
X241705485Y-68247164D01*
X241693934Y-68225553D01*
X241678389Y-68206611D01*
X241659447Y-68191066D01*
X241637836Y-68179515D01*
X241614387Y-68172402D01*
X241590001Y-68170000D01*
X239739999Y-68170000D01*
X239715613Y-68172402D01*
X239692164Y-68179515D01*
X239670553Y-68191066D01*
X239651611Y-68206611D01*
X239636066Y-68225553D01*
X239624515Y-68247164D01*
X239617402Y-68270613D01*
X239615000Y-68294999D01*
X239615000Y-69321200D01*
X239115000Y-69321200D01*
X239115000Y-66721200D01*
X239640001Y-66721200D01*
X239652184Y-66720000D01*
X241677816Y-66720000D01*
X241689999Y-66721200D01*
G37*
G36*
X222329433Y-66337893D02*
G01*
X222419657Y-66355839D01*
X222525267Y-66399585D01*
X222674621Y-66461449D01*
X222680197Y-66465175D01*
X222904086Y-66614772D01*
X223099228Y-66809914D01*
X223201675Y-66963237D01*
X223252551Y-67039379D01*
X223280407Y-67106630D01*
X223358161Y-67294343D01*
X223359760Y-67302382D01*
X223412000Y-67565012D01*
X223412000Y-67840988D01*
X223376120Y-68021368D01*
X223358161Y-68111657D01*
X223330053Y-68179515D01*
X223252551Y-68366621D01*
X223252550Y-68366622D01*
X223099228Y-68596086D01*
X222904086Y-68791228D01*
X222796674Y-68862998D01*
X222674621Y-68944551D01*
X222525267Y-69006415D01*
X222419657Y-69050161D01*
X222329433Y-69068107D01*
X222148988Y-69104000D01*
X221873012Y-69104000D01*
X221692567Y-69068107D01*
X221602343Y-69050161D01*
X221496733Y-69006415D01*
X221347379Y-68944551D01*
X221225326Y-68862998D01*
X221117914Y-68791228D01*
X220922772Y-68596086D01*
X220769450Y-68366622D01*
X220769449Y-68366621D01*
X220691947Y-68179515D01*
X220663839Y-68111657D01*
X220645880Y-68021368D01*
X220610000Y-67840988D01*
X220610000Y-67565012D01*
X220662240Y-67302382D01*
X220663839Y-67294343D01*
X220741593Y-67106630D01*
X220769449Y-67039379D01*
X220820325Y-66963237D01*
X220922772Y-66809914D01*
X221117914Y-66614772D01*
X221341803Y-66465175D01*
X221347379Y-66461449D01*
X221496733Y-66399585D01*
X221602343Y-66355839D01*
X221692567Y-66337893D01*
X221873012Y-66302000D01*
X222148988Y-66302000D01*
X222329433Y-66337893D01*
G37*
G36*
X208329433Y-66337893D02*
G01*
X208419657Y-66355839D01*
X208525267Y-66399585D01*
X208674621Y-66461449D01*
X208680197Y-66465175D01*
X208904086Y-66614772D01*
X209099228Y-66809914D01*
X209201675Y-66963237D01*
X209252551Y-67039379D01*
X209280407Y-67106630D01*
X209358161Y-67294343D01*
X209359760Y-67302382D01*
X209412000Y-67565012D01*
X209412000Y-67840988D01*
X209376120Y-68021368D01*
X209358161Y-68111657D01*
X209330053Y-68179515D01*
X209252551Y-68366621D01*
X209252550Y-68366622D01*
X209099228Y-68596086D01*
X208904086Y-68791228D01*
X208796674Y-68862998D01*
X208674621Y-68944551D01*
X208525267Y-69006415D01*
X208419657Y-69050161D01*
X208329433Y-69068107D01*
X208148988Y-69104000D01*
X207873012Y-69104000D01*
X207692567Y-69068107D01*
X207602343Y-69050161D01*
X207496733Y-69006415D01*
X207347379Y-68944551D01*
X207225326Y-68862998D01*
X207117914Y-68791228D01*
X206922772Y-68596086D01*
X206769450Y-68366622D01*
X206769449Y-68366621D01*
X206691947Y-68179515D01*
X206663839Y-68111657D01*
X206645880Y-68021368D01*
X206610000Y-67840988D01*
X206610000Y-67565012D01*
X206662240Y-67302382D01*
X206663839Y-67294343D01*
X206741593Y-67106630D01*
X206769449Y-67039379D01*
X206820325Y-66963237D01*
X206922772Y-66809914D01*
X207117914Y-66614772D01*
X207341803Y-66465175D01*
X207347379Y-66461449D01*
X207496733Y-66399585D01*
X207602343Y-66355839D01*
X207692567Y-66337893D01*
X207873012Y-66302000D01*
X208148988Y-66302000D01*
X208329433Y-66337893D01*
G37*
G36*
X230327370Y-66118970D02*
G01*
X230563186Y-66190503D01*
X230780513Y-66306667D01*
X230971002Y-66462998D01*
X231127333Y-66653487D01*
X231243497Y-66870814D01*
X231315030Y-67106630D01*
X231339185Y-67351868D01*
X231315030Y-67597107D01*
X231243497Y-67832921D01*
X231127333Y-68050249D01*
X231010179Y-68193001D01*
X230499001Y-68704179D01*
X230356249Y-68821333D01*
X230138921Y-68937497D01*
X229903106Y-69009030D01*
X229657868Y-69033185D01*
X229412630Y-69009030D01*
X229176815Y-68937497D01*
X228959487Y-68821333D01*
X228768998Y-68665002D01*
X228612667Y-68474513D01*
X228496503Y-68257185D01*
X228424970Y-68021370D01*
X228400815Y-67776132D01*
X228424970Y-67530894D01*
X228496503Y-67295079D01*
X228612667Y-67077751D01*
X228729821Y-66934999D01*
X229240999Y-66423821D01*
X229383751Y-66306667D01*
X229598258Y-66192011D01*
X229601077Y-66190504D01*
X229601079Y-66190503D01*
X229836893Y-66118970D01*
X230082132Y-66094815D01*
X230327370Y-66118970D01*
G37*
G36*
X215249058Y-65419946D02*
G01*
X215448826Y-65459682D01*
X215561974Y-65506550D01*
X215721989Y-65572830D01*
X215810308Y-65631843D01*
X215967832Y-65737097D01*
X216176903Y-65946168D01*
X216182298Y-65954242D01*
X216341170Y-66192011D01*
X216386729Y-66302000D01*
X216453417Y-66462998D01*
X216454318Y-66465175D01*
X216512000Y-66755163D01*
X216512000Y-67050837D01*
X216505195Y-67085046D01*
X216454318Y-67340826D01*
X216433728Y-67390534D01*
X216341170Y-67613989D01*
X216259594Y-67736076D01*
X216176903Y-67859832D01*
X215967832Y-68068903D01*
X215903847Y-68111656D01*
X215721989Y-68233170D01*
X215631593Y-68270613D01*
X215448826Y-68346318D01*
X215346755Y-68366621D01*
X215158837Y-68404000D01*
X214863163Y-68404000D01*
X214675245Y-68366621D01*
X214573174Y-68346318D01*
X214390407Y-68270613D01*
X214300011Y-68233170D01*
X214118153Y-68111656D01*
X214054168Y-68068903D01*
X213845097Y-67859832D01*
X213762406Y-67736076D01*
X213680830Y-67613989D01*
X213588272Y-67390534D01*
X213567682Y-67340826D01*
X213516805Y-67085046D01*
X213510000Y-67050837D01*
X213510000Y-66755163D01*
X213567682Y-66465175D01*
X213568584Y-66462998D01*
X213635271Y-66302000D01*
X213680830Y-66192011D01*
X213839702Y-65954242D01*
X213845097Y-65946168D01*
X214054168Y-65737097D01*
X214211692Y-65631843D01*
X214300011Y-65572830D01*
X214460026Y-65506550D01*
X214573174Y-65459682D01*
X214772942Y-65419946D01*
X214863163Y-65402000D01*
X215158837Y-65402000D01*
X215249058Y-65419946D01*
G37*
G36*
X243207621Y-66828682D02*
G01*
X243320721Y-66862990D01*
X243424955Y-66918704D01*
X243516317Y-66993683D01*
X243591296Y-67085045D01*
X243647010Y-67189280D01*
X243681318Y-67302380D01*
X243690000Y-67390527D01*
X243690000Y-67649474D01*
X243681318Y-67737621D01*
X243647010Y-67850721D01*
X243591296Y-67954955D01*
X243516317Y-68046317D01*
X243424954Y-68121296D01*
X243320720Y-68177010D01*
X243207620Y-68211318D01*
X243090000Y-68222903D01*
X242972379Y-68211318D01*
X242859279Y-68177010D01*
X242755045Y-68121296D01*
X242663683Y-68046317D01*
X242588704Y-67954954D01*
X242532990Y-67850720D01*
X242498682Y-67737620D01*
X242490000Y-67649473D01*
X242490000Y-67390526D01*
X242498682Y-67302379D01*
X242532990Y-67189279D01*
X242588705Y-67085045D01*
X242588707Y-67085043D01*
X242616780Y-67050836D01*
X242663684Y-66993683D01*
X242755046Y-66918704D01*
X242859280Y-66862990D01*
X242972380Y-66828682D01*
X243090000Y-66817097D01*
X243207621Y-66828682D01*
G37*
G36*
X238357621Y-66828682D02*
G01*
X238470721Y-66862990D01*
X238574955Y-66918704D01*
X238666317Y-66993683D01*
X238741296Y-67085045D01*
X238797010Y-67189280D01*
X238831318Y-67302380D01*
X238840000Y-67390527D01*
X238840000Y-67649474D01*
X238831318Y-67737621D01*
X238797010Y-67850721D01*
X238741296Y-67954955D01*
X238666317Y-68046317D01*
X238574954Y-68121296D01*
X238470720Y-68177010D01*
X238357620Y-68211318D01*
X238240000Y-68222903D01*
X238122379Y-68211318D01*
X238009279Y-68177010D01*
X237905045Y-68121296D01*
X237813683Y-68046317D01*
X237738704Y-67954954D01*
X237682990Y-67850720D01*
X237648682Y-67737620D01*
X237640000Y-67649473D01*
X237640000Y-67390526D01*
X237648682Y-67302379D01*
X237682990Y-67189279D01*
X237738705Y-67085045D01*
X237738707Y-67085043D01*
X237766780Y-67050836D01*
X237813684Y-66993683D01*
X237905046Y-66918704D01*
X238009280Y-66862990D01*
X238122380Y-66828682D01*
X238240000Y-66817097D01*
X238357621Y-66828682D01*
G37*
G36*
X249676256Y-63796298D02*
G01*
X249782579Y-63817447D01*
X250083042Y-63941903D01*
X250353451Y-64122585D01*
X250583415Y-64352549D01*
X250583416Y-64352551D01*
X250764098Y-64622960D01*
X250888553Y-64923422D01*
X250952000Y-65242389D01*
X250952000Y-65567611D01*
X250923066Y-65713070D01*
X250888553Y-65886579D01*
X250803759Y-66091290D01*
X250777784Y-66154000D01*
X250764097Y-66187042D01*
X250583415Y-66457451D01*
X250353451Y-66687415D01*
X250083042Y-66868097D01*
X249782579Y-66992553D01*
X249676256Y-67013702D01*
X249463611Y-67056000D01*
X249138389Y-67056000D01*
X248925744Y-67013702D01*
X248819421Y-66992553D01*
X248518958Y-66868097D01*
X248248549Y-66687415D01*
X248018585Y-66457451D01*
X247837903Y-66187042D01*
X247824217Y-66154000D01*
X247798241Y-66091290D01*
X247713447Y-65886579D01*
X247678934Y-65713070D01*
X247650000Y-65567611D01*
X247650000Y-65242389D01*
X247713447Y-64923422D01*
X247837902Y-64622960D01*
X248018584Y-64352551D01*
X248018585Y-64352549D01*
X248248549Y-64122585D01*
X248518958Y-63941903D01*
X248819421Y-63817447D01*
X248925744Y-63796298D01*
X249138389Y-63754000D01*
X249463611Y-63754000D01*
X249676256Y-63796298D01*
G37*
G36*
X168904256Y-63796298D02*
G01*
X169010579Y-63817447D01*
X169311042Y-63941903D01*
X169581451Y-64122585D01*
X169811415Y-64352549D01*
X169811416Y-64352551D01*
X169992098Y-64622960D01*
X170116553Y-64923422D01*
X170180000Y-65242389D01*
X170180000Y-65567611D01*
X170151066Y-65713070D01*
X170116553Y-65886579D01*
X170031759Y-66091290D01*
X170005784Y-66154000D01*
X169992097Y-66187042D01*
X169811415Y-66457451D01*
X169581451Y-66687415D01*
X169311042Y-66868097D01*
X169010579Y-66992553D01*
X168904256Y-67013702D01*
X168691611Y-67056000D01*
X168366389Y-67056000D01*
X168153744Y-67013702D01*
X168047421Y-66992553D01*
X167746958Y-66868097D01*
X167476549Y-66687415D01*
X167246585Y-66457451D01*
X167065903Y-66187042D01*
X167052217Y-66154000D01*
X167026241Y-66091290D01*
X166941447Y-65886579D01*
X166906934Y-65713070D01*
X166878000Y-65567611D01*
X166878000Y-65242389D01*
X166941447Y-64923422D01*
X167065902Y-64622960D01*
X167246584Y-64352551D01*
X167246585Y-64352549D01*
X167476549Y-64122585D01*
X167746958Y-63941903D01*
X168047421Y-63817447D01*
X168153744Y-63796298D01*
X168366389Y-63754000D01*
X168691611Y-63754000D01*
X168904256Y-63796298D01*
G37*
G36*
X217671721Y-65073174D02*
G01*
X217771995Y-65114709D01*
X217771996Y-65114710D01*
X217862242Y-65175010D01*
X217938990Y-65251758D01*
X217938991Y-65251760D01*
X217999291Y-65342005D01*
X218040826Y-65442279D01*
X218062000Y-65548730D01*
X218062000Y-65657270D01*
X218040826Y-65763721D01*
X217999291Y-65863995D01*
X217999290Y-65863996D01*
X217938990Y-65954242D01*
X217862242Y-66030990D01*
X217816812Y-66061345D01*
X217771995Y-66091291D01*
X217671721Y-66132826D01*
X217565270Y-66154000D01*
X217456730Y-66154000D01*
X217350279Y-66132826D01*
X217250005Y-66091291D01*
X217205188Y-66061345D01*
X217159758Y-66030990D01*
X217083010Y-65954242D01*
X217022710Y-65863996D01*
X217022709Y-65863995D01*
X216981174Y-65763721D01*
X216960000Y-65657270D01*
X216960000Y-65548730D01*
X216981174Y-65442279D01*
X217022709Y-65342005D01*
X217083009Y-65251760D01*
X217083010Y-65251758D01*
X217159758Y-65175010D01*
X217250004Y-65114710D01*
X217250005Y-65114709D01*
X217350279Y-65073174D01*
X217456730Y-65052000D01*
X217565270Y-65052000D01*
X217671721Y-65073174D01*
G37*
G36*
X212671721Y-65073174D02*
G01*
X212771995Y-65114709D01*
X212771996Y-65114710D01*
X212862242Y-65175010D01*
X212938990Y-65251758D01*
X212938991Y-65251760D01*
X212999291Y-65342005D01*
X213040826Y-65442279D01*
X213062000Y-65548730D01*
X213062000Y-65657270D01*
X213040826Y-65763721D01*
X212999291Y-65863995D01*
X212999290Y-65863996D01*
X212938990Y-65954242D01*
X212862242Y-66030990D01*
X212816812Y-66061345D01*
X212771995Y-66091291D01*
X212671721Y-66132826D01*
X212565270Y-66154000D01*
X212456730Y-66154000D01*
X212350279Y-66132826D01*
X212250005Y-66091291D01*
X212205188Y-66061345D01*
X212159758Y-66030990D01*
X212083010Y-65954242D01*
X212022710Y-65863996D01*
X212022709Y-65863995D01*
X211981174Y-65763721D01*
X211960000Y-65657270D01*
X211960000Y-65548730D01*
X211981174Y-65442279D01*
X212022709Y-65342005D01*
X212083009Y-65251760D01*
X212083010Y-65251758D01*
X212159758Y-65175010D01*
X212250004Y-65114710D01*
X212250005Y-65114709D01*
X212350279Y-65073174D01*
X212456730Y-65052000D01*
X212565270Y-65052000D01*
X212671721Y-65073174D01*
G37*
G36*
X244355998Y-63728280D02*
G01*
X244367423Y-63729405D01*
X244428685Y-63747989D01*
X244489948Y-63766573D01*
X244602868Y-63826930D01*
X244701843Y-63908157D01*
X244783070Y-64007132D01*
X244843427Y-64120052D01*
X244880595Y-64242578D01*
X244890000Y-64338068D01*
X244890000Y-65201932D01*
X244880595Y-65297422D01*
X244843427Y-65419948D01*
X244783070Y-65532868D01*
X244701843Y-65631843D01*
X244602867Y-65713070D01*
X244489947Y-65773427D01*
X244428684Y-65792011D01*
X244367422Y-65810595D01*
X244355997Y-65811720D01*
X244240000Y-65823145D01*
X244124002Y-65811720D01*
X244112577Y-65810595D01*
X244051315Y-65792011D01*
X243990052Y-65773427D01*
X243877132Y-65713070D01*
X243778157Y-65631843D01*
X243696930Y-65532867D01*
X243636573Y-65419947D01*
X243612929Y-65342004D01*
X243599405Y-65297422D01*
X243593985Y-65242389D01*
X243590000Y-65201931D01*
X243590000Y-64338068D01*
X243599405Y-64242578D01*
X243636574Y-64120052D01*
X243696931Y-64007132D01*
X243778158Y-63908157D01*
X243877133Y-63826930D01*
X243990053Y-63766573D01*
X244051316Y-63747989D01*
X244112578Y-63729405D01*
X244124003Y-63728280D01*
X244240000Y-63716855D01*
X244355998Y-63728280D01*
G37*
G36*
X237205998Y-63728280D02*
G01*
X237217423Y-63729405D01*
X237278685Y-63747989D01*
X237339948Y-63766573D01*
X237452868Y-63826930D01*
X237551843Y-63908157D01*
X237633070Y-64007132D01*
X237693427Y-64120052D01*
X237730595Y-64242578D01*
X237740000Y-64338068D01*
X237740000Y-65201932D01*
X237730595Y-65297422D01*
X237693427Y-65419948D01*
X237633070Y-65532868D01*
X237551843Y-65631843D01*
X237452867Y-65713070D01*
X237339947Y-65773427D01*
X237278684Y-65792011D01*
X237217422Y-65810595D01*
X237205997Y-65811720D01*
X237090000Y-65823145D01*
X236974002Y-65811720D01*
X236962577Y-65810595D01*
X236901315Y-65792011D01*
X236840052Y-65773427D01*
X236727132Y-65713070D01*
X236628157Y-65631843D01*
X236546930Y-65532867D01*
X236486573Y-65419947D01*
X236462929Y-65342004D01*
X236449405Y-65297422D01*
X236443985Y-65242389D01*
X236440000Y-65201931D01*
X236440000Y-64338068D01*
X236449405Y-64242578D01*
X236486574Y-64120052D01*
X236546931Y-64007132D01*
X236628158Y-63908157D01*
X236727133Y-63826930D01*
X236840053Y-63766573D01*
X236901316Y-63747989D01*
X236962578Y-63729405D01*
X236974003Y-63728280D01*
X237090000Y-63716855D01*
X237205998Y-63728280D01*
G37*
G36*
X241715000Y-65820000D02*
G01*
X239615000Y-65820000D01*
X239615000Y-63720000D01*
X241715000Y-63720000D01*
X241715000Y-65820000D01*
G37*
M02*
