G04 #@! TF.GenerationSoftware,KiCad,Pcbnew,(5.1.5)-3*
G04 #@! TF.CreationDate,2020-08-30T20:52:36+12:00*
G04 #@! TF.ProjectId,PocketTRS,506f636b-6574-4545-9253-2e6b69636164,rev?*
G04 #@! TF.SameCoordinates,Original*
G04 #@! TF.FileFunction,Soldermask,Top*
G04 #@! TF.FilePolarity,Negative*
%FSLAX46Y46*%
G04 Gerber Fmt 4.6, Leading zero omitted, Abs format (unit mm)*
G04 Created by KiCad (PCBNEW (5.1.5)-3) date 2020-08-30 20:52:36*
%MOMM*%
%LPD*%
G04 APERTURE LIST*
%ADD10C,0.050000*%
%ADD11C,0.100000*%
G04 APERTURE END LIST*
D10*
X252730000Y-64770000D02*
X252730000Y-61976000D01*
X165100000Y-61976000D02*
X165100000Y-64770000D01*
X252730000Y-135890000D02*
X165100000Y-135890000D01*
X252730000Y-64770000D02*
X252730000Y-135890000D01*
X165100000Y-135890000D02*
X165100000Y-64770000D01*
X165100000Y-61976000D02*
X252730000Y-61976000D01*
D11*
G36*
X248174104Y-132205585D02*
G01*
X248342626Y-132275389D01*
X248494291Y-132376728D01*
X248623272Y-132505709D01*
X248724611Y-132657374D01*
X248794415Y-132825896D01*
X248830000Y-133004797D01*
X248830000Y-133187203D01*
X248794415Y-133366104D01*
X248724611Y-133534626D01*
X248623272Y-133686291D01*
X248494291Y-133815272D01*
X248342626Y-133916611D01*
X248174104Y-133986415D01*
X247995203Y-134022000D01*
X247812797Y-134022000D01*
X247633896Y-133986415D01*
X247465374Y-133916611D01*
X247313709Y-133815272D01*
X247184728Y-133686291D01*
X247083389Y-133534626D01*
X247013585Y-133366104D01*
X246978000Y-133187203D01*
X246978000Y-133004797D01*
X247013585Y-132825896D01*
X247083389Y-132657374D01*
X247184728Y-132505709D01*
X247313709Y-132376728D01*
X247465374Y-132275389D01*
X247633896Y-132205585D01*
X247812797Y-132170000D01*
X247995203Y-132170000D01*
X248174104Y-132205585D01*
G37*
G36*
X243674104Y-132205585D02*
G01*
X243842626Y-132275389D01*
X243994291Y-132376728D01*
X244123272Y-132505709D01*
X244224611Y-132657374D01*
X244294415Y-132825896D01*
X244330000Y-133004797D01*
X244330000Y-133187203D01*
X244294415Y-133366104D01*
X244224611Y-133534626D01*
X244123272Y-133686291D01*
X243994291Y-133815272D01*
X243842626Y-133916611D01*
X243674104Y-133986415D01*
X243495203Y-134022000D01*
X243312797Y-134022000D01*
X243133896Y-133986415D01*
X242965374Y-133916611D01*
X242813709Y-133815272D01*
X242684728Y-133686291D01*
X242583389Y-133534626D01*
X242513585Y-133366104D01*
X242478000Y-133187203D01*
X242478000Y-133004797D01*
X242513585Y-132825896D01*
X242583389Y-132657374D01*
X242684728Y-132505709D01*
X242813709Y-132376728D01*
X242965374Y-132275389D01*
X243133896Y-132205585D01*
X243312797Y-132170000D01*
X243495203Y-132170000D01*
X243674104Y-132205585D01*
G37*
G36*
X174357512Y-131691927D02*
G01*
X174506812Y-131721624D01*
X174670784Y-131789544D01*
X174818354Y-131888147D01*
X174943853Y-132013646D01*
X175042456Y-132161216D01*
X175110376Y-132325188D01*
X175145000Y-132499259D01*
X175145000Y-132676741D01*
X175110376Y-132850812D01*
X175042456Y-133014784D01*
X174943853Y-133162354D01*
X174818354Y-133287853D01*
X174670784Y-133386456D01*
X174506812Y-133454376D01*
X174357512Y-133484073D01*
X174332742Y-133489000D01*
X174155258Y-133489000D01*
X174130488Y-133484073D01*
X173981188Y-133454376D01*
X173817216Y-133386456D01*
X173669646Y-133287853D01*
X173544147Y-133162354D01*
X173445544Y-133014784D01*
X173377624Y-132850812D01*
X173343000Y-132676741D01*
X173343000Y-132499259D01*
X173377624Y-132325188D01*
X173445544Y-132161216D01*
X173544147Y-132013646D01*
X173669646Y-131888147D01*
X173817216Y-131789544D01*
X173981188Y-131721624D01*
X174130488Y-131691927D01*
X174155258Y-131687000D01*
X174332742Y-131687000D01*
X174357512Y-131691927D01*
G37*
G36*
X214997512Y-131691927D02*
G01*
X215146812Y-131721624D01*
X215310784Y-131789544D01*
X215458354Y-131888147D01*
X215583853Y-132013646D01*
X215682456Y-132161216D01*
X215750376Y-132325188D01*
X215785000Y-132499259D01*
X215785000Y-132676741D01*
X215750376Y-132850812D01*
X215682456Y-133014784D01*
X215583853Y-133162354D01*
X215458354Y-133287853D01*
X215310784Y-133386456D01*
X215146812Y-133454376D01*
X214997512Y-133484073D01*
X214972742Y-133489000D01*
X214795258Y-133489000D01*
X214770488Y-133484073D01*
X214621188Y-133454376D01*
X214457216Y-133386456D01*
X214309646Y-133287853D01*
X214184147Y-133162354D01*
X214085544Y-133014784D01*
X214017624Y-132850812D01*
X213983000Y-132676741D01*
X213983000Y-132499259D01*
X214017624Y-132325188D01*
X214085544Y-132161216D01*
X214184147Y-132013646D01*
X214309646Y-131888147D01*
X214457216Y-131789544D01*
X214621188Y-131721624D01*
X214770488Y-131691927D01*
X214795258Y-131687000D01*
X214972742Y-131687000D01*
X214997512Y-131691927D01*
G37*
G36*
X184517512Y-131691927D02*
G01*
X184666812Y-131721624D01*
X184830784Y-131789544D01*
X184978354Y-131888147D01*
X185103853Y-132013646D01*
X185202456Y-132161216D01*
X185270376Y-132325188D01*
X185305000Y-132499259D01*
X185305000Y-132676741D01*
X185270376Y-132850812D01*
X185202456Y-133014784D01*
X185103853Y-133162354D01*
X184978354Y-133287853D01*
X184830784Y-133386456D01*
X184666812Y-133454376D01*
X184517512Y-133484073D01*
X184492742Y-133489000D01*
X184315258Y-133489000D01*
X184290488Y-133484073D01*
X184141188Y-133454376D01*
X183977216Y-133386456D01*
X183829646Y-133287853D01*
X183704147Y-133162354D01*
X183605544Y-133014784D01*
X183537624Y-132850812D01*
X183503000Y-132676741D01*
X183503000Y-132499259D01*
X183537624Y-132325188D01*
X183605544Y-132161216D01*
X183704147Y-132013646D01*
X183829646Y-131888147D01*
X183977216Y-131789544D01*
X184141188Y-131721624D01*
X184290488Y-131691927D01*
X184315258Y-131687000D01*
X184492742Y-131687000D01*
X184517512Y-131691927D01*
G37*
G36*
X187057512Y-131691927D02*
G01*
X187206812Y-131721624D01*
X187370784Y-131789544D01*
X187518354Y-131888147D01*
X187643853Y-132013646D01*
X187742456Y-132161216D01*
X187810376Y-132325188D01*
X187845000Y-132499259D01*
X187845000Y-132676741D01*
X187810376Y-132850812D01*
X187742456Y-133014784D01*
X187643853Y-133162354D01*
X187518354Y-133287853D01*
X187370784Y-133386456D01*
X187206812Y-133454376D01*
X187057512Y-133484073D01*
X187032742Y-133489000D01*
X186855258Y-133489000D01*
X186830488Y-133484073D01*
X186681188Y-133454376D01*
X186517216Y-133386456D01*
X186369646Y-133287853D01*
X186244147Y-133162354D01*
X186145544Y-133014784D01*
X186077624Y-132850812D01*
X186043000Y-132676741D01*
X186043000Y-132499259D01*
X186077624Y-132325188D01*
X186145544Y-132161216D01*
X186244147Y-132013646D01*
X186369646Y-131888147D01*
X186517216Y-131789544D01*
X186681188Y-131721624D01*
X186830488Y-131691927D01*
X186855258Y-131687000D01*
X187032742Y-131687000D01*
X187057512Y-131691927D01*
G37*
G36*
X189597512Y-131691927D02*
G01*
X189746812Y-131721624D01*
X189910784Y-131789544D01*
X190058354Y-131888147D01*
X190183853Y-132013646D01*
X190282456Y-132161216D01*
X190350376Y-132325188D01*
X190385000Y-132499259D01*
X190385000Y-132676741D01*
X190350376Y-132850812D01*
X190282456Y-133014784D01*
X190183853Y-133162354D01*
X190058354Y-133287853D01*
X189910784Y-133386456D01*
X189746812Y-133454376D01*
X189597512Y-133484073D01*
X189572742Y-133489000D01*
X189395258Y-133489000D01*
X189370488Y-133484073D01*
X189221188Y-133454376D01*
X189057216Y-133386456D01*
X188909646Y-133287853D01*
X188784147Y-133162354D01*
X188685544Y-133014784D01*
X188617624Y-132850812D01*
X188583000Y-132676741D01*
X188583000Y-132499259D01*
X188617624Y-132325188D01*
X188685544Y-132161216D01*
X188784147Y-132013646D01*
X188909646Y-131888147D01*
X189057216Y-131789544D01*
X189221188Y-131721624D01*
X189370488Y-131691927D01*
X189395258Y-131687000D01*
X189572742Y-131687000D01*
X189597512Y-131691927D01*
G37*
G36*
X192137512Y-131691927D02*
G01*
X192286812Y-131721624D01*
X192450784Y-131789544D01*
X192598354Y-131888147D01*
X192723853Y-132013646D01*
X192822456Y-132161216D01*
X192890376Y-132325188D01*
X192925000Y-132499259D01*
X192925000Y-132676741D01*
X192890376Y-132850812D01*
X192822456Y-133014784D01*
X192723853Y-133162354D01*
X192598354Y-133287853D01*
X192450784Y-133386456D01*
X192286812Y-133454376D01*
X192137512Y-133484073D01*
X192112742Y-133489000D01*
X191935258Y-133489000D01*
X191910488Y-133484073D01*
X191761188Y-133454376D01*
X191597216Y-133386456D01*
X191449646Y-133287853D01*
X191324147Y-133162354D01*
X191225544Y-133014784D01*
X191157624Y-132850812D01*
X191123000Y-132676741D01*
X191123000Y-132499259D01*
X191157624Y-132325188D01*
X191225544Y-132161216D01*
X191324147Y-132013646D01*
X191449646Y-131888147D01*
X191597216Y-131789544D01*
X191761188Y-131721624D01*
X191910488Y-131691927D01*
X191935258Y-131687000D01*
X192112742Y-131687000D01*
X192137512Y-131691927D01*
G37*
G36*
X194677512Y-131691927D02*
G01*
X194826812Y-131721624D01*
X194990784Y-131789544D01*
X195138354Y-131888147D01*
X195263853Y-132013646D01*
X195362456Y-132161216D01*
X195430376Y-132325188D01*
X195465000Y-132499259D01*
X195465000Y-132676741D01*
X195430376Y-132850812D01*
X195362456Y-133014784D01*
X195263853Y-133162354D01*
X195138354Y-133287853D01*
X194990784Y-133386456D01*
X194826812Y-133454376D01*
X194677512Y-133484073D01*
X194652742Y-133489000D01*
X194475258Y-133489000D01*
X194450488Y-133484073D01*
X194301188Y-133454376D01*
X194137216Y-133386456D01*
X193989646Y-133287853D01*
X193864147Y-133162354D01*
X193765544Y-133014784D01*
X193697624Y-132850812D01*
X193663000Y-132676741D01*
X193663000Y-132499259D01*
X193697624Y-132325188D01*
X193765544Y-132161216D01*
X193864147Y-132013646D01*
X193989646Y-131888147D01*
X194137216Y-131789544D01*
X194301188Y-131721624D01*
X194450488Y-131691927D01*
X194475258Y-131687000D01*
X194652742Y-131687000D01*
X194677512Y-131691927D01*
G37*
G36*
X197217512Y-131691927D02*
G01*
X197366812Y-131721624D01*
X197530784Y-131789544D01*
X197678354Y-131888147D01*
X197803853Y-132013646D01*
X197902456Y-132161216D01*
X197970376Y-132325188D01*
X198005000Y-132499259D01*
X198005000Y-132676741D01*
X197970376Y-132850812D01*
X197902456Y-133014784D01*
X197803853Y-133162354D01*
X197678354Y-133287853D01*
X197530784Y-133386456D01*
X197366812Y-133454376D01*
X197217512Y-133484073D01*
X197192742Y-133489000D01*
X197015258Y-133489000D01*
X196990488Y-133484073D01*
X196841188Y-133454376D01*
X196677216Y-133386456D01*
X196529646Y-133287853D01*
X196404147Y-133162354D01*
X196305544Y-133014784D01*
X196237624Y-132850812D01*
X196203000Y-132676741D01*
X196203000Y-132499259D01*
X196237624Y-132325188D01*
X196305544Y-132161216D01*
X196404147Y-132013646D01*
X196529646Y-131888147D01*
X196677216Y-131789544D01*
X196841188Y-131721624D01*
X196990488Y-131691927D01*
X197015258Y-131687000D01*
X197192742Y-131687000D01*
X197217512Y-131691927D01*
G37*
G36*
X199757512Y-131691927D02*
G01*
X199906812Y-131721624D01*
X200070784Y-131789544D01*
X200218354Y-131888147D01*
X200343853Y-132013646D01*
X200442456Y-132161216D01*
X200510376Y-132325188D01*
X200545000Y-132499259D01*
X200545000Y-132676741D01*
X200510376Y-132850812D01*
X200442456Y-133014784D01*
X200343853Y-133162354D01*
X200218354Y-133287853D01*
X200070784Y-133386456D01*
X199906812Y-133454376D01*
X199757512Y-133484073D01*
X199732742Y-133489000D01*
X199555258Y-133489000D01*
X199530488Y-133484073D01*
X199381188Y-133454376D01*
X199217216Y-133386456D01*
X199069646Y-133287853D01*
X198944147Y-133162354D01*
X198845544Y-133014784D01*
X198777624Y-132850812D01*
X198743000Y-132676741D01*
X198743000Y-132499259D01*
X198777624Y-132325188D01*
X198845544Y-132161216D01*
X198944147Y-132013646D01*
X199069646Y-131888147D01*
X199217216Y-131789544D01*
X199381188Y-131721624D01*
X199530488Y-131691927D01*
X199555258Y-131687000D01*
X199732742Y-131687000D01*
X199757512Y-131691927D01*
G37*
G36*
X202297512Y-131691927D02*
G01*
X202446812Y-131721624D01*
X202610784Y-131789544D01*
X202758354Y-131888147D01*
X202883853Y-132013646D01*
X202982456Y-132161216D01*
X203050376Y-132325188D01*
X203085000Y-132499259D01*
X203085000Y-132676741D01*
X203050376Y-132850812D01*
X202982456Y-133014784D01*
X202883853Y-133162354D01*
X202758354Y-133287853D01*
X202610784Y-133386456D01*
X202446812Y-133454376D01*
X202297512Y-133484073D01*
X202272742Y-133489000D01*
X202095258Y-133489000D01*
X202070488Y-133484073D01*
X201921188Y-133454376D01*
X201757216Y-133386456D01*
X201609646Y-133287853D01*
X201484147Y-133162354D01*
X201385544Y-133014784D01*
X201317624Y-132850812D01*
X201283000Y-132676741D01*
X201283000Y-132499259D01*
X201317624Y-132325188D01*
X201385544Y-132161216D01*
X201484147Y-132013646D01*
X201609646Y-131888147D01*
X201757216Y-131789544D01*
X201921188Y-131721624D01*
X202070488Y-131691927D01*
X202095258Y-131687000D01*
X202272742Y-131687000D01*
X202297512Y-131691927D01*
G37*
G36*
X204837512Y-131691927D02*
G01*
X204986812Y-131721624D01*
X205150784Y-131789544D01*
X205298354Y-131888147D01*
X205423853Y-132013646D01*
X205522456Y-132161216D01*
X205590376Y-132325188D01*
X205625000Y-132499259D01*
X205625000Y-132676741D01*
X205590376Y-132850812D01*
X205522456Y-133014784D01*
X205423853Y-133162354D01*
X205298354Y-133287853D01*
X205150784Y-133386456D01*
X204986812Y-133454376D01*
X204837512Y-133484073D01*
X204812742Y-133489000D01*
X204635258Y-133489000D01*
X204610488Y-133484073D01*
X204461188Y-133454376D01*
X204297216Y-133386456D01*
X204149646Y-133287853D01*
X204024147Y-133162354D01*
X203925544Y-133014784D01*
X203857624Y-132850812D01*
X203823000Y-132676741D01*
X203823000Y-132499259D01*
X203857624Y-132325188D01*
X203925544Y-132161216D01*
X204024147Y-132013646D01*
X204149646Y-131888147D01*
X204297216Y-131789544D01*
X204461188Y-131721624D01*
X204610488Y-131691927D01*
X204635258Y-131687000D01*
X204812742Y-131687000D01*
X204837512Y-131691927D01*
G37*
G36*
X207377512Y-131691927D02*
G01*
X207526812Y-131721624D01*
X207690784Y-131789544D01*
X207838354Y-131888147D01*
X207963853Y-132013646D01*
X208062456Y-132161216D01*
X208130376Y-132325188D01*
X208165000Y-132499259D01*
X208165000Y-132676741D01*
X208130376Y-132850812D01*
X208062456Y-133014784D01*
X207963853Y-133162354D01*
X207838354Y-133287853D01*
X207690784Y-133386456D01*
X207526812Y-133454376D01*
X207377512Y-133484073D01*
X207352742Y-133489000D01*
X207175258Y-133489000D01*
X207150488Y-133484073D01*
X207001188Y-133454376D01*
X206837216Y-133386456D01*
X206689646Y-133287853D01*
X206564147Y-133162354D01*
X206465544Y-133014784D01*
X206397624Y-132850812D01*
X206363000Y-132676741D01*
X206363000Y-132499259D01*
X206397624Y-132325188D01*
X206465544Y-132161216D01*
X206564147Y-132013646D01*
X206689646Y-131888147D01*
X206837216Y-131789544D01*
X207001188Y-131721624D01*
X207150488Y-131691927D01*
X207175258Y-131687000D01*
X207352742Y-131687000D01*
X207377512Y-131691927D01*
G37*
G36*
X209917512Y-131691927D02*
G01*
X210066812Y-131721624D01*
X210230784Y-131789544D01*
X210378354Y-131888147D01*
X210503853Y-132013646D01*
X210602456Y-132161216D01*
X210670376Y-132325188D01*
X210705000Y-132499259D01*
X210705000Y-132676741D01*
X210670376Y-132850812D01*
X210602456Y-133014784D01*
X210503853Y-133162354D01*
X210378354Y-133287853D01*
X210230784Y-133386456D01*
X210066812Y-133454376D01*
X209917512Y-133484073D01*
X209892742Y-133489000D01*
X209715258Y-133489000D01*
X209690488Y-133484073D01*
X209541188Y-133454376D01*
X209377216Y-133386456D01*
X209229646Y-133287853D01*
X209104147Y-133162354D01*
X209005544Y-133014784D01*
X208937624Y-132850812D01*
X208903000Y-132676741D01*
X208903000Y-132499259D01*
X208937624Y-132325188D01*
X209005544Y-132161216D01*
X209104147Y-132013646D01*
X209229646Y-131888147D01*
X209377216Y-131789544D01*
X209541188Y-131721624D01*
X209690488Y-131691927D01*
X209715258Y-131687000D01*
X209892742Y-131687000D01*
X209917512Y-131691927D01*
G37*
G36*
X212457512Y-131691927D02*
G01*
X212606812Y-131721624D01*
X212770784Y-131789544D01*
X212918354Y-131888147D01*
X213043853Y-132013646D01*
X213142456Y-132161216D01*
X213210376Y-132325188D01*
X213245000Y-132499259D01*
X213245000Y-132676741D01*
X213210376Y-132850812D01*
X213142456Y-133014784D01*
X213043853Y-133162354D01*
X212918354Y-133287853D01*
X212770784Y-133386456D01*
X212606812Y-133454376D01*
X212457512Y-133484073D01*
X212432742Y-133489000D01*
X212255258Y-133489000D01*
X212230488Y-133484073D01*
X212081188Y-133454376D01*
X211917216Y-133386456D01*
X211769646Y-133287853D01*
X211644147Y-133162354D01*
X211545544Y-133014784D01*
X211477624Y-132850812D01*
X211443000Y-132676741D01*
X211443000Y-132499259D01*
X211477624Y-132325188D01*
X211545544Y-132161216D01*
X211644147Y-132013646D01*
X211769646Y-131888147D01*
X211917216Y-131789544D01*
X212081188Y-131721624D01*
X212230488Y-131691927D01*
X212255258Y-131687000D01*
X212432742Y-131687000D01*
X212457512Y-131691927D01*
G37*
G36*
X217537512Y-131691927D02*
G01*
X217686812Y-131721624D01*
X217850784Y-131789544D01*
X217998354Y-131888147D01*
X218123853Y-132013646D01*
X218222456Y-132161216D01*
X218290376Y-132325188D01*
X218325000Y-132499259D01*
X218325000Y-132676741D01*
X218290376Y-132850812D01*
X218222456Y-133014784D01*
X218123853Y-133162354D01*
X217998354Y-133287853D01*
X217850784Y-133386456D01*
X217686812Y-133454376D01*
X217537512Y-133484073D01*
X217512742Y-133489000D01*
X217335258Y-133489000D01*
X217310488Y-133484073D01*
X217161188Y-133454376D01*
X216997216Y-133386456D01*
X216849646Y-133287853D01*
X216724147Y-133162354D01*
X216625544Y-133014784D01*
X216557624Y-132850812D01*
X216523000Y-132676741D01*
X216523000Y-132499259D01*
X216557624Y-132325188D01*
X216625544Y-132161216D01*
X216724147Y-132013646D01*
X216849646Y-131888147D01*
X216997216Y-131789544D01*
X217161188Y-131721624D01*
X217310488Y-131691927D01*
X217335258Y-131687000D01*
X217512742Y-131687000D01*
X217537512Y-131691927D01*
G37*
G36*
X220077512Y-131691927D02*
G01*
X220226812Y-131721624D01*
X220390784Y-131789544D01*
X220538354Y-131888147D01*
X220663853Y-132013646D01*
X220762456Y-132161216D01*
X220830376Y-132325188D01*
X220865000Y-132499259D01*
X220865000Y-132676741D01*
X220830376Y-132850812D01*
X220762456Y-133014784D01*
X220663853Y-133162354D01*
X220538354Y-133287853D01*
X220390784Y-133386456D01*
X220226812Y-133454376D01*
X220077512Y-133484073D01*
X220052742Y-133489000D01*
X219875258Y-133489000D01*
X219850488Y-133484073D01*
X219701188Y-133454376D01*
X219537216Y-133386456D01*
X219389646Y-133287853D01*
X219264147Y-133162354D01*
X219165544Y-133014784D01*
X219097624Y-132850812D01*
X219063000Y-132676741D01*
X219063000Y-132499259D01*
X219097624Y-132325188D01*
X219165544Y-132161216D01*
X219264147Y-132013646D01*
X219389646Y-131888147D01*
X219537216Y-131789544D01*
X219701188Y-131721624D01*
X219850488Y-131691927D01*
X219875258Y-131687000D01*
X220052742Y-131687000D01*
X220077512Y-131691927D01*
G37*
G36*
X222617512Y-131691927D02*
G01*
X222766812Y-131721624D01*
X222930784Y-131789544D01*
X223078354Y-131888147D01*
X223203853Y-132013646D01*
X223302456Y-132161216D01*
X223370376Y-132325188D01*
X223405000Y-132499259D01*
X223405000Y-132676741D01*
X223370376Y-132850812D01*
X223302456Y-133014784D01*
X223203853Y-133162354D01*
X223078354Y-133287853D01*
X222930784Y-133386456D01*
X222766812Y-133454376D01*
X222617512Y-133484073D01*
X222592742Y-133489000D01*
X222415258Y-133489000D01*
X222390488Y-133484073D01*
X222241188Y-133454376D01*
X222077216Y-133386456D01*
X221929646Y-133287853D01*
X221804147Y-133162354D01*
X221705544Y-133014784D01*
X221637624Y-132850812D01*
X221603000Y-132676741D01*
X221603000Y-132499259D01*
X221637624Y-132325188D01*
X221705544Y-132161216D01*
X221804147Y-132013646D01*
X221929646Y-131888147D01*
X222077216Y-131789544D01*
X222241188Y-131721624D01*
X222390488Y-131691927D01*
X222415258Y-131687000D01*
X222592742Y-131687000D01*
X222617512Y-131691927D01*
G37*
G36*
X225157512Y-131691927D02*
G01*
X225306812Y-131721624D01*
X225470784Y-131789544D01*
X225618354Y-131888147D01*
X225743853Y-132013646D01*
X225842456Y-132161216D01*
X225910376Y-132325188D01*
X225945000Y-132499259D01*
X225945000Y-132676741D01*
X225910376Y-132850812D01*
X225842456Y-133014784D01*
X225743853Y-133162354D01*
X225618354Y-133287853D01*
X225470784Y-133386456D01*
X225306812Y-133454376D01*
X225157512Y-133484073D01*
X225132742Y-133489000D01*
X224955258Y-133489000D01*
X224930488Y-133484073D01*
X224781188Y-133454376D01*
X224617216Y-133386456D01*
X224469646Y-133287853D01*
X224344147Y-133162354D01*
X224245544Y-133014784D01*
X224177624Y-132850812D01*
X224143000Y-132676741D01*
X224143000Y-132499259D01*
X224177624Y-132325188D01*
X224245544Y-132161216D01*
X224344147Y-132013646D01*
X224469646Y-131888147D01*
X224617216Y-131789544D01*
X224781188Y-131721624D01*
X224930488Y-131691927D01*
X224955258Y-131687000D01*
X225132742Y-131687000D01*
X225157512Y-131691927D01*
G37*
G36*
X227697512Y-131691927D02*
G01*
X227846812Y-131721624D01*
X228010784Y-131789544D01*
X228158354Y-131888147D01*
X228283853Y-132013646D01*
X228382456Y-132161216D01*
X228450376Y-132325188D01*
X228485000Y-132499259D01*
X228485000Y-132676741D01*
X228450376Y-132850812D01*
X228382456Y-133014784D01*
X228283853Y-133162354D01*
X228158354Y-133287853D01*
X228010784Y-133386456D01*
X227846812Y-133454376D01*
X227697512Y-133484073D01*
X227672742Y-133489000D01*
X227495258Y-133489000D01*
X227470488Y-133484073D01*
X227321188Y-133454376D01*
X227157216Y-133386456D01*
X227009646Y-133287853D01*
X226884147Y-133162354D01*
X226785544Y-133014784D01*
X226717624Y-132850812D01*
X226683000Y-132676741D01*
X226683000Y-132499259D01*
X226717624Y-132325188D01*
X226785544Y-132161216D01*
X226884147Y-132013646D01*
X227009646Y-131888147D01*
X227157216Y-131789544D01*
X227321188Y-131721624D01*
X227470488Y-131691927D01*
X227495258Y-131687000D01*
X227672742Y-131687000D01*
X227697512Y-131691927D01*
G37*
G36*
X230237512Y-131691927D02*
G01*
X230386812Y-131721624D01*
X230550784Y-131789544D01*
X230698354Y-131888147D01*
X230823853Y-132013646D01*
X230922456Y-132161216D01*
X230990376Y-132325188D01*
X231025000Y-132499259D01*
X231025000Y-132676741D01*
X230990376Y-132850812D01*
X230922456Y-133014784D01*
X230823853Y-133162354D01*
X230698354Y-133287853D01*
X230550784Y-133386456D01*
X230386812Y-133454376D01*
X230237512Y-133484073D01*
X230212742Y-133489000D01*
X230035258Y-133489000D01*
X230010488Y-133484073D01*
X229861188Y-133454376D01*
X229697216Y-133386456D01*
X229549646Y-133287853D01*
X229424147Y-133162354D01*
X229325544Y-133014784D01*
X229257624Y-132850812D01*
X229223000Y-132676741D01*
X229223000Y-132499259D01*
X229257624Y-132325188D01*
X229325544Y-132161216D01*
X229424147Y-132013646D01*
X229549646Y-131888147D01*
X229697216Y-131789544D01*
X229861188Y-131721624D01*
X230010488Y-131691927D01*
X230035258Y-131687000D01*
X230212742Y-131687000D01*
X230237512Y-131691927D01*
G37*
G36*
X232777512Y-131691927D02*
G01*
X232926812Y-131721624D01*
X233090784Y-131789544D01*
X233238354Y-131888147D01*
X233363853Y-132013646D01*
X233462456Y-132161216D01*
X233530376Y-132325188D01*
X233565000Y-132499259D01*
X233565000Y-132676741D01*
X233530376Y-132850812D01*
X233462456Y-133014784D01*
X233363853Y-133162354D01*
X233238354Y-133287853D01*
X233090784Y-133386456D01*
X232926812Y-133454376D01*
X232777512Y-133484073D01*
X232752742Y-133489000D01*
X232575258Y-133489000D01*
X232550488Y-133484073D01*
X232401188Y-133454376D01*
X232237216Y-133386456D01*
X232089646Y-133287853D01*
X231964147Y-133162354D01*
X231865544Y-133014784D01*
X231797624Y-132850812D01*
X231763000Y-132676741D01*
X231763000Y-132499259D01*
X231797624Y-132325188D01*
X231865544Y-132161216D01*
X231964147Y-132013646D01*
X232089646Y-131888147D01*
X232237216Y-131789544D01*
X232401188Y-131721624D01*
X232550488Y-131691927D01*
X232575258Y-131687000D01*
X232752742Y-131687000D01*
X232777512Y-131691927D01*
G37*
G36*
X235317512Y-131691927D02*
G01*
X235466812Y-131721624D01*
X235630784Y-131789544D01*
X235778354Y-131888147D01*
X235903853Y-132013646D01*
X236002456Y-132161216D01*
X236070376Y-132325188D01*
X236105000Y-132499259D01*
X236105000Y-132676741D01*
X236070376Y-132850812D01*
X236002456Y-133014784D01*
X235903853Y-133162354D01*
X235778354Y-133287853D01*
X235630784Y-133386456D01*
X235466812Y-133454376D01*
X235317512Y-133484073D01*
X235292742Y-133489000D01*
X235115258Y-133489000D01*
X235090488Y-133484073D01*
X234941188Y-133454376D01*
X234777216Y-133386456D01*
X234629646Y-133287853D01*
X234504147Y-133162354D01*
X234405544Y-133014784D01*
X234337624Y-132850812D01*
X234303000Y-132676741D01*
X234303000Y-132499259D01*
X234337624Y-132325188D01*
X234405544Y-132161216D01*
X234504147Y-132013646D01*
X234629646Y-131888147D01*
X234777216Y-131789544D01*
X234941188Y-131721624D01*
X235090488Y-131691927D01*
X235115258Y-131687000D01*
X235292742Y-131687000D01*
X235317512Y-131691927D01*
G37*
G36*
X170674512Y-131691927D02*
G01*
X170823812Y-131721624D01*
X170987784Y-131789544D01*
X171135354Y-131888147D01*
X171260853Y-132013646D01*
X171359456Y-132161216D01*
X171427376Y-132325188D01*
X171462000Y-132499259D01*
X171462000Y-132676741D01*
X171427376Y-132850812D01*
X171359456Y-133014784D01*
X171260853Y-133162354D01*
X171135354Y-133287853D01*
X170987784Y-133386456D01*
X170823812Y-133454376D01*
X170674512Y-133484073D01*
X170649742Y-133489000D01*
X170472258Y-133489000D01*
X170447488Y-133484073D01*
X170298188Y-133454376D01*
X170134216Y-133386456D01*
X169986646Y-133287853D01*
X169861147Y-133162354D01*
X169762544Y-133014784D01*
X169694624Y-132850812D01*
X169660000Y-132676741D01*
X169660000Y-132499259D01*
X169694624Y-132325188D01*
X169762544Y-132161216D01*
X169861147Y-132013646D01*
X169986646Y-131888147D01*
X170134216Y-131789544D01*
X170298188Y-131721624D01*
X170447488Y-131691927D01*
X170472258Y-131687000D01*
X170649742Y-131687000D01*
X170674512Y-131691927D01*
G37*
G36*
X166991512Y-131691927D02*
G01*
X167140812Y-131721624D01*
X167304784Y-131789544D01*
X167452354Y-131888147D01*
X167577853Y-132013646D01*
X167676456Y-132161216D01*
X167744376Y-132325188D01*
X167779000Y-132499259D01*
X167779000Y-132676741D01*
X167744376Y-132850812D01*
X167676456Y-133014784D01*
X167577853Y-133162354D01*
X167452354Y-133287853D01*
X167304784Y-133386456D01*
X167140812Y-133454376D01*
X166991512Y-133484073D01*
X166966742Y-133489000D01*
X166789258Y-133489000D01*
X166764488Y-133484073D01*
X166615188Y-133454376D01*
X166451216Y-133386456D01*
X166303646Y-133287853D01*
X166178147Y-133162354D01*
X166079544Y-133014784D01*
X166011624Y-132850812D01*
X165977000Y-132676741D01*
X165977000Y-132499259D01*
X166011624Y-132325188D01*
X166079544Y-132161216D01*
X166178147Y-132013646D01*
X166303646Y-131888147D01*
X166451216Y-131789544D01*
X166615188Y-131721624D01*
X166764488Y-131691927D01*
X166789258Y-131687000D01*
X166966742Y-131687000D01*
X166991512Y-131691927D01*
G37*
G36*
X179437512Y-131691927D02*
G01*
X179586812Y-131721624D01*
X179750784Y-131789544D01*
X179898354Y-131888147D01*
X180023853Y-132013646D01*
X180122456Y-132161216D01*
X180190376Y-132325188D01*
X180225000Y-132499259D01*
X180225000Y-132676741D01*
X180190376Y-132850812D01*
X180122456Y-133014784D01*
X180023853Y-133162354D01*
X179898354Y-133287853D01*
X179750784Y-133386456D01*
X179586812Y-133454376D01*
X179437512Y-133484073D01*
X179412742Y-133489000D01*
X179235258Y-133489000D01*
X179210488Y-133484073D01*
X179061188Y-133454376D01*
X178897216Y-133386456D01*
X178749646Y-133287853D01*
X178624147Y-133162354D01*
X178525544Y-133014784D01*
X178457624Y-132850812D01*
X178423000Y-132676741D01*
X178423000Y-132499259D01*
X178457624Y-132325188D01*
X178525544Y-132161216D01*
X178624147Y-132013646D01*
X178749646Y-131888147D01*
X178897216Y-131789544D01*
X179061188Y-131721624D01*
X179210488Y-131691927D01*
X179235258Y-131687000D01*
X179412742Y-131687000D01*
X179437512Y-131691927D01*
G37*
G36*
X176897512Y-131691927D02*
G01*
X177046812Y-131721624D01*
X177210784Y-131789544D01*
X177358354Y-131888147D01*
X177483853Y-132013646D01*
X177582456Y-132161216D01*
X177650376Y-132325188D01*
X177685000Y-132499259D01*
X177685000Y-132676741D01*
X177650376Y-132850812D01*
X177582456Y-133014784D01*
X177483853Y-133162354D01*
X177358354Y-133287853D01*
X177210784Y-133386456D01*
X177046812Y-133454376D01*
X176897512Y-133484073D01*
X176872742Y-133489000D01*
X176695258Y-133489000D01*
X176670488Y-133484073D01*
X176521188Y-133454376D01*
X176357216Y-133386456D01*
X176209646Y-133287853D01*
X176084147Y-133162354D01*
X175985544Y-133014784D01*
X175917624Y-132850812D01*
X175883000Y-132676741D01*
X175883000Y-132499259D01*
X175917624Y-132325188D01*
X175985544Y-132161216D01*
X176084147Y-132013646D01*
X176209646Y-131888147D01*
X176357216Y-131789544D01*
X176521188Y-131721624D01*
X176670488Y-131691927D01*
X176695258Y-131687000D01*
X176872742Y-131687000D01*
X176897512Y-131691927D01*
G37*
G36*
X181977512Y-131691927D02*
G01*
X182126812Y-131721624D01*
X182290784Y-131789544D01*
X182438354Y-131888147D01*
X182563853Y-132013646D01*
X182662456Y-132161216D01*
X182730376Y-132325188D01*
X182765000Y-132499259D01*
X182765000Y-132676741D01*
X182730376Y-132850812D01*
X182662456Y-133014784D01*
X182563853Y-133162354D01*
X182438354Y-133287853D01*
X182290784Y-133386456D01*
X182126812Y-133454376D01*
X181977512Y-133484073D01*
X181952742Y-133489000D01*
X181775258Y-133489000D01*
X181750488Y-133484073D01*
X181601188Y-133454376D01*
X181437216Y-133386456D01*
X181289646Y-133287853D01*
X181164147Y-133162354D01*
X181065544Y-133014784D01*
X180997624Y-132850812D01*
X180963000Y-132676741D01*
X180963000Y-132499259D01*
X180997624Y-132325188D01*
X181065544Y-132161216D01*
X181164147Y-132013646D01*
X181289646Y-131888147D01*
X181437216Y-131789544D01*
X181601188Y-131721624D01*
X181750488Y-131691927D01*
X181775258Y-131687000D01*
X181952742Y-131687000D01*
X181977512Y-131691927D01*
G37*
G36*
X249368794Y-129526155D02*
G01*
X249475150Y-129547311D01*
X249575334Y-129588809D01*
X249675520Y-129630307D01*
X249855844Y-129750795D01*
X250009205Y-129904156D01*
X250129693Y-130084480D01*
X250212689Y-130284851D01*
X250255000Y-130497560D01*
X250255000Y-130714440D01*
X250212689Y-130927149D01*
X250129693Y-131127520D01*
X250009205Y-131307844D01*
X249855844Y-131461205D01*
X249675520Y-131581693D01*
X249475150Y-131664689D01*
X249368795Y-131685844D01*
X249262440Y-131707000D01*
X249045560Y-131707000D01*
X248939205Y-131685844D01*
X248832850Y-131664689D01*
X248632480Y-131581693D01*
X248452156Y-131461205D01*
X248298795Y-131307844D01*
X248178307Y-131127520D01*
X248095311Y-130927149D01*
X248053000Y-130714440D01*
X248053000Y-130497560D01*
X248095311Y-130284851D01*
X248178307Y-130084480D01*
X248298795Y-129904156D01*
X248452156Y-129750795D01*
X248632480Y-129630307D01*
X248732666Y-129588809D01*
X248832850Y-129547311D01*
X248939206Y-129526155D01*
X249045560Y-129505000D01*
X249262440Y-129505000D01*
X249368794Y-129526155D01*
G37*
G36*
X242358794Y-129526155D02*
G01*
X242465150Y-129547311D01*
X242565334Y-129588809D01*
X242665520Y-129630307D01*
X242845844Y-129750795D01*
X242999205Y-129904156D01*
X243119693Y-130084480D01*
X243202689Y-130284851D01*
X243245000Y-130497560D01*
X243245000Y-130714440D01*
X243202689Y-130927149D01*
X243119693Y-131127520D01*
X242999205Y-131307844D01*
X242845844Y-131461205D01*
X242665520Y-131581693D01*
X242465150Y-131664689D01*
X242358795Y-131685844D01*
X242252440Y-131707000D01*
X242035560Y-131707000D01*
X241929205Y-131685844D01*
X241822850Y-131664689D01*
X241622480Y-131581693D01*
X241442156Y-131461205D01*
X241288795Y-131307844D01*
X241168307Y-131127520D01*
X241085311Y-130927149D01*
X241043000Y-130714440D01*
X241043000Y-130497560D01*
X241085311Y-130284851D01*
X241168307Y-130084480D01*
X241288795Y-129904156D01*
X241442156Y-129750795D01*
X241622480Y-129630307D01*
X241722666Y-129588809D01*
X241822850Y-129547311D01*
X241929206Y-129526155D01*
X242035560Y-129505000D01*
X242252440Y-129505000D01*
X242358794Y-129526155D01*
G37*
G36*
X184517512Y-129151927D02*
G01*
X184666812Y-129181624D01*
X184830784Y-129249544D01*
X184978354Y-129348147D01*
X185103853Y-129473646D01*
X185202456Y-129621216D01*
X185270376Y-129785188D01*
X185305000Y-129959259D01*
X185305000Y-130136741D01*
X185270376Y-130310812D01*
X185202456Y-130474784D01*
X185103853Y-130622354D01*
X184978354Y-130747853D01*
X184830784Y-130846456D01*
X184666812Y-130914376D01*
X184517512Y-130944073D01*
X184492742Y-130949000D01*
X184315258Y-130949000D01*
X184290488Y-130944073D01*
X184141188Y-130914376D01*
X183977216Y-130846456D01*
X183829646Y-130747853D01*
X183704147Y-130622354D01*
X183605544Y-130474784D01*
X183537624Y-130310812D01*
X183503000Y-130136741D01*
X183503000Y-129959259D01*
X183537624Y-129785188D01*
X183605544Y-129621216D01*
X183704147Y-129473646D01*
X183829646Y-129348147D01*
X183977216Y-129249544D01*
X184141188Y-129181624D01*
X184290488Y-129151927D01*
X184315258Y-129147000D01*
X184492742Y-129147000D01*
X184517512Y-129151927D01*
G37*
G36*
X181977512Y-129151927D02*
G01*
X182126812Y-129181624D01*
X182290784Y-129249544D01*
X182438354Y-129348147D01*
X182563853Y-129473646D01*
X182662456Y-129621216D01*
X182730376Y-129785188D01*
X182765000Y-129959259D01*
X182765000Y-130136741D01*
X182730376Y-130310812D01*
X182662456Y-130474784D01*
X182563853Y-130622354D01*
X182438354Y-130747853D01*
X182290784Y-130846456D01*
X182126812Y-130914376D01*
X181977512Y-130944073D01*
X181952742Y-130949000D01*
X181775258Y-130949000D01*
X181750488Y-130944073D01*
X181601188Y-130914376D01*
X181437216Y-130846456D01*
X181289646Y-130747853D01*
X181164147Y-130622354D01*
X181065544Y-130474784D01*
X180997624Y-130310812D01*
X180963000Y-130136741D01*
X180963000Y-129959259D01*
X180997624Y-129785188D01*
X181065544Y-129621216D01*
X181164147Y-129473646D01*
X181289646Y-129348147D01*
X181437216Y-129249544D01*
X181601188Y-129181624D01*
X181750488Y-129151927D01*
X181775258Y-129147000D01*
X181952742Y-129147000D01*
X181977512Y-129151927D01*
G37*
G36*
X179437512Y-129151927D02*
G01*
X179586812Y-129181624D01*
X179750784Y-129249544D01*
X179898354Y-129348147D01*
X180023853Y-129473646D01*
X180122456Y-129621216D01*
X180190376Y-129785188D01*
X180225000Y-129959259D01*
X180225000Y-130136741D01*
X180190376Y-130310812D01*
X180122456Y-130474784D01*
X180023853Y-130622354D01*
X179898354Y-130747853D01*
X179750784Y-130846456D01*
X179586812Y-130914376D01*
X179437512Y-130944073D01*
X179412742Y-130949000D01*
X179235258Y-130949000D01*
X179210488Y-130944073D01*
X179061188Y-130914376D01*
X178897216Y-130846456D01*
X178749646Y-130747853D01*
X178624147Y-130622354D01*
X178525544Y-130474784D01*
X178457624Y-130310812D01*
X178423000Y-130136741D01*
X178423000Y-129959259D01*
X178457624Y-129785188D01*
X178525544Y-129621216D01*
X178624147Y-129473646D01*
X178749646Y-129348147D01*
X178897216Y-129249544D01*
X179061188Y-129181624D01*
X179210488Y-129151927D01*
X179235258Y-129147000D01*
X179412742Y-129147000D01*
X179437512Y-129151927D01*
G37*
G36*
X176897512Y-129151927D02*
G01*
X177046812Y-129181624D01*
X177210784Y-129249544D01*
X177358354Y-129348147D01*
X177483853Y-129473646D01*
X177582456Y-129621216D01*
X177650376Y-129785188D01*
X177685000Y-129959259D01*
X177685000Y-130136741D01*
X177650376Y-130310812D01*
X177582456Y-130474784D01*
X177483853Y-130622354D01*
X177358354Y-130747853D01*
X177210784Y-130846456D01*
X177046812Y-130914376D01*
X176897512Y-130944073D01*
X176872742Y-130949000D01*
X176695258Y-130949000D01*
X176670488Y-130944073D01*
X176521188Y-130914376D01*
X176357216Y-130846456D01*
X176209646Y-130747853D01*
X176084147Y-130622354D01*
X175985544Y-130474784D01*
X175917624Y-130310812D01*
X175883000Y-130136741D01*
X175883000Y-129959259D01*
X175917624Y-129785188D01*
X175985544Y-129621216D01*
X176084147Y-129473646D01*
X176209646Y-129348147D01*
X176357216Y-129249544D01*
X176521188Y-129181624D01*
X176670488Y-129151927D01*
X176695258Y-129147000D01*
X176872742Y-129147000D01*
X176897512Y-129151927D01*
G37*
G36*
X174357512Y-129151927D02*
G01*
X174506812Y-129181624D01*
X174670784Y-129249544D01*
X174818354Y-129348147D01*
X174943853Y-129473646D01*
X175042456Y-129621216D01*
X175110376Y-129785188D01*
X175145000Y-129959259D01*
X175145000Y-130136741D01*
X175110376Y-130310812D01*
X175042456Y-130474784D01*
X174943853Y-130622354D01*
X174818354Y-130747853D01*
X174670784Y-130846456D01*
X174506812Y-130914376D01*
X174357512Y-130944073D01*
X174332742Y-130949000D01*
X174155258Y-130949000D01*
X174130488Y-130944073D01*
X173981188Y-130914376D01*
X173817216Y-130846456D01*
X173669646Y-130747853D01*
X173544147Y-130622354D01*
X173445544Y-130474784D01*
X173377624Y-130310812D01*
X173343000Y-130136741D01*
X173343000Y-129959259D01*
X173377624Y-129785188D01*
X173445544Y-129621216D01*
X173544147Y-129473646D01*
X173669646Y-129348147D01*
X173817216Y-129249544D01*
X173981188Y-129181624D01*
X174130488Y-129151927D01*
X174155258Y-129147000D01*
X174332742Y-129147000D01*
X174357512Y-129151927D01*
G37*
G36*
X187057512Y-129151927D02*
G01*
X187206812Y-129181624D01*
X187370784Y-129249544D01*
X187518354Y-129348147D01*
X187643853Y-129473646D01*
X187742456Y-129621216D01*
X187810376Y-129785188D01*
X187845000Y-129959259D01*
X187845000Y-130136741D01*
X187810376Y-130310812D01*
X187742456Y-130474784D01*
X187643853Y-130622354D01*
X187518354Y-130747853D01*
X187370784Y-130846456D01*
X187206812Y-130914376D01*
X187057512Y-130944073D01*
X187032742Y-130949000D01*
X186855258Y-130949000D01*
X186830488Y-130944073D01*
X186681188Y-130914376D01*
X186517216Y-130846456D01*
X186369646Y-130747853D01*
X186244147Y-130622354D01*
X186145544Y-130474784D01*
X186077624Y-130310812D01*
X186043000Y-130136741D01*
X186043000Y-129959259D01*
X186077624Y-129785188D01*
X186145544Y-129621216D01*
X186244147Y-129473646D01*
X186369646Y-129348147D01*
X186517216Y-129249544D01*
X186681188Y-129181624D01*
X186830488Y-129151927D01*
X186855258Y-129147000D01*
X187032742Y-129147000D01*
X187057512Y-129151927D01*
G37*
G36*
X207377512Y-129151927D02*
G01*
X207526812Y-129181624D01*
X207690784Y-129249544D01*
X207838354Y-129348147D01*
X207963853Y-129473646D01*
X208062456Y-129621216D01*
X208130376Y-129785188D01*
X208165000Y-129959259D01*
X208165000Y-130136741D01*
X208130376Y-130310812D01*
X208062456Y-130474784D01*
X207963853Y-130622354D01*
X207838354Y-130747853D01*
X207690784Y-130846456D01*
X207526812Y-130914376D01*
X207377512Y-130944073D01*
X207352742Y-130949000D01*
X207175258Y-130949000D01*
X207150488Y-130944073D01*
X207001188Y-130914376D01*
X206837216Y-130846456D01*
X206689646Y-130747853D01*
X206564147Y-130622354D01*
X206465544Y-130474784D01*
X206397624Y-130310812D01*
X206363000Y-130136741D01*
X206363000Y-129959259D01*
X206397624Y-129785188D01*
X206465544Y-129621216D01*
X206564147Y-129473646D01*
X206689646Y-129348147D01*
X206837216Y-129249544D01*
X207001188Y-129181624D01*
X207150488Y-129151927D01*
X207175258Y-129147000D01*
X207352742Y-129147000D01*
X207377512Y-129151927D01*
G37*
G36*
X167779000Y-130949000D02*
G01*
X165977000Y-130949000D01*
X165977000Y-129147000D01*
X167779000Y-129147000D01*
X167779000Y-130949000D01*
G37*
G36*
X171462000Y-130949000D02*
G01*
X169660000Y-130949000D01*
X169660000Y-129147000D01*
X171462000Y-129147000D01*
X171462000Y-130949000D01*
G37*
G36*
X204837512Y-129151927D02*
G01*
X204986812Y-129181624D01*
X205150784Y-129249544D01*
X205298354Y-129348147D01*
X205423853Y-129473646D01*
X205522456Y-129621216D01*
X205590376Y-129785188D01*
X205625000Y-129959259D01*
X205625000Y-130136741D01*
X205590376Y-130310812D01*
X205522456Y-130474784D01*
X205423853Y-130622354D01*
X205298354Y-130747853D01*
X205150784Y-130846456D01*
X204986812Y-130914376D01*
X204837512Y-130944073D01*
X204812742Y-130949000D01*
X204635258Y-130949000D01*
X204610488Y-130944073D01*
X204461188Y-130914376D01*
X204297216Y-130846456D01*
X204149646Y-130747853D01*
X204024147Y-130622354D01*
X203925544Y-130474784D01*
X203857624Y-130310812D01*
X203823000Y-130136741D01*
X203823000Y-129959259D01*
X203857624Y-129785188D01*
X203925544Y-129621216D01*
X204024147Y-129473646D01*
X204149646Y-129348147D01*
X204297216Y-129249544D01*
X204461188Y-129181624D01*
X204610488Y-129151927D01*
X204635258Y-129147000D01*
X204812742Y-129147000D01*
X204837512Y-129151927D01*
G37*
G36*
X232777512Y-129151927D02*
G01*
X232926812Y-129181624D01*
X233090784Y-129249544D01*
X233238354Y-129348147D01*
X233363853Y-129473646D01*
X233462456Y-129621216D01*
X233530376Y-129785188D01*
X233565000Y-129959259D01*
X233565000Y-130136741D01*
X233530376Y-130310812D01*
X233462456Y-130474784D01*
X233363853Y-130622354D01*
X233238354Y-130747853D01*
X233090784Y-130846456D01*
X232926812Y-130914376D01*
X232777512Y-130944073D01*
X232752742Y-130949000D01*
X232575258Y-130949000D01*
X232550488Y-130944073D01*
X232401188Y-130914376D01*
X232237216Y-130846456D01*
X232089646Y-130747853D01*
X231964147Y-130622354D01*
X231865544Y-130474784D01*
X231797624Y-130310812D01*
X231763000Y-130136741D01*
X231763000Y-129959259D01*
X231797624Y-129785188D01*
X231865544Y-129621216D01*
X231964147Y-129473646D01*
X232089646Y-129348147D01*
X232237216Y-129249544D01*
X232401188Y-129181624D01*
X232550488Y-129151927D01*
X232575258Y-129147000D01*
X232752742Y-129147000D01*
X232777512Y-129151927D01*
G37*
G36*
X230237512Y-129151927D02*
G01*
X230386812Y-129181624D01*
X230550784Y-129249544D01*
X230698354Y-129348147D01*
X230823853Y-129473646D01*
X230922456Y-129621216D01*
X230990376Y-129785188D01*
X231025000Y-129959259D01*
X231025000Y-130136741D01*
X230990376Y-130310812D01*
X230922456Y-130474784D01*
X230823853Y-130622354D01*
X230698354Y-130747853D01*
X230550784Y-130846456D01*
X230386812Y-130914376D01*
X230237512Y-130944073D01*
X230212742Y-130949000D01*
X230035258Y-130949000D01*
X230010488Y-130944073D01*
X229861188Y-130914376D01*
X229697216Y-130846456D01*
X229549646Y-130747853D01*
X229424147Y-130622354D01*
X229325544Y-130474784D01*
X229257624Y-130310812D01*
X229223000Y-130136741D01*
X229223000Y-129959259D01*
X229257624Y-129785188D01*
X229325544Y-129621216D01*
X229424147Y-129473646D01*
X229549646Y-129348147D01*
X229697216Y-129249544D01*
X229861188Y-129181624D01*
X230010488Y-129151927D01*
X230035258Y-129147000D01*
X230212742Y-129147000D01*
X230237512Y-129151927D01*
G37*
G36*
X227697512Y-129151927D02*
G01*
X227846812Y-129181624D01*
X228010784Y-129249544D01*
X228158354Y-129348147D01*
X228283853Y-129473646D01*
X228382456Y-129621216D01*
X228450376Y-129785188D01*
X228485000Y-129959259D01*
X228485000Y-130136741D01*
X228450376Y-130310812D01*
X228382456Y-130474784D01*
X228283853Y-130622354D01*
X228158354Y-130747853D01*
X228010784Y-130846456D01*
X227846812Y-130914376D01*
X227697512Y-130944073D01*
X227672742Y-130949000D01*
X227495258Y-130949000D01*
X227470488Y-130944073D01*
X227321188Y-130914376D01*
X227157216Y-130846456D01*
X227009646Y-130747853D01*
X226884147Y-130622354D01*
X226785544Y-130474784D01*
X226717624Y-130310812D01*
X226683000Y-130136741D01*
X226683000Y-129959259D01*
X226717624Y-129785188D01*
X226785544Y-129621216D01*
X226884147Y-129473646D01*
X227009646Y-129348147D01*
X227157216Y-129249544D01*
X227321188Y-129181624D01*
X227470488Y-129151927D01*
X227495258Y-129147000D01*
X227672742Y-129147000D01*
X227697512Y-129151927D01*
G37*
G36*
X212457512Y-129151927D02*
G01*
X212606812Y-129181624D01*
X212770784Y-129249544D01*
X212918354Y-129348147D01*
X213043853Y-129473646D01*
X213142456Y-129621216D01*
X213210376Y-129785188D01*
X213245000Y-129959259D01*
X213245000Y-130136741D01*
X213210376Y-130310812D01*
X213142456Y-130474784D01*
X213043853Y-130622354D01*
X212918354Y-130747853D01*
X212770784Y-130846456D01*
X212606812Y-130914376D01*
X212457512Y-130944073D01*
X212432742Y-130949000D01*
X212255258Y-130949000D01*
X212230488Y-130944073D01*
X212081188Y-130914376D01*
X211917216Y-130846456D01*
X211769646Y-130747853D01*
X211644147Y-130622354D01*
X211545544Y-130474784D01*
X211477624Y-130310812D01*
X211443000Y-130136741D01*
X211443000Y-129959259D01*
X211477624Y-129785188D01*
X211545544Y-129621216D01*
X211644147Y-129473646D01*
X211769646Y-129348147D01*
X211917216Y-129249544D01*
X212081188Y-129181624D01*
X212230488Y-129151927D01*
X212255258Y-129147000D01*
X212432742Y-129147000D01*
X212457512Y-129151927D01*
G37*
G36*
X236105000Y-130949000D02*
G01*
X234303000Y-130949000D01*
X234303000Y-129147000D01*
X236105000Y-129147000D01*
X236105000Y-130949000D01*
G37*
G36*
X202297512Y-129151927D02*
G01*
X202446812Y-129181624D01*
X202610784Y-129249544D01*
X202758354Y-129348147D01*
X202883853Y-129473646D01*
X202982456Y-129621216D01*
X203050376Y-129785188D01*
X203085000Y-129959259D01*
X203085000Y-130136741D01*
X203050376Y-130310812D01*
X202982456Y-130474784D01*
X202883853Y-130622354D01*
X202758354Y-130747853D01*
X202610784Y-130846456D01*
X202446812Y-130914376D01*
X202297512Y-130944073D01*
X202272742Y-130949000D01*
X202095258Y-130949000D01*
X202070488Y-130944073D01*
X201921188Y-130914376D01*
X201757216Y-130846456D01*
X201609646Y-130747853D01*
X201484147Y-130622354D01*
X201385544Y-130474784D01*
X201317624Y-130310812D01*
X201283000Y-130136741D01*
X201283000Y-129959259D01*
X201317624Y-129785188D01*
X201385544Y-129621216D01*
X201484147Y-129473646D01*
X201609646Y-129348147D01*
X201757216Y-129249544D01*
X201921188Y-129181624D01*
X202070488Y-129151927D01*
X202095258Y-129147000D01*
X202272742Y-129147000D01*
X202297512Y-129151927D01*
G37*
G36*
X189597512Y-129151927D02*
G01*
X189746812Y-129181624D01*
X189910784Y-129249544D01*
X190058354Y-129348147D01*
X190183853Y-129473646D01*
X190282456Y-129621216D01*
X190350376Y-129785188D01*
X190385000Y-129959259D01*
X190385000Y-130136741D01*
X190350376Y-130310812D01*
X190282456Y-130474784D01*
X190183853Y-130622354D01*
X190058354Y-130747853D01*
X189910784Y-130846456D01*
X189746812Y-130914376D01*
X189597512Y-130944073D01*
X189572742Y-130949000D01*
X189395258Y-130949000D01*
X189370488Y-130944073D01*
X189221188Y-130914376D01*
X189057216Y-130846456D01*
X188909646Y-130747853D01*
X188784147Y-130622354D01*
X188685544Y-130474784D01*
X188617624Y-130310812D01*
X188583000Y-130136741D01*
X188583000Y-129959259D01*
X188617624Y-129785188D01*
X188685544Y-129621216D01*
X188784147Y-129473646D01*
X188909646Y-129348147D01*
X189057216Y-129249544D01*
X189221188Y-129181624D01*
X189370488Y-129151927D01*
X189395258Y-129147000D01*
X189572742Y-129147000D01*
X189597512Y-129151927D01*
G37*
G36*
X209917512Y-129151927D02*
G01*
X210066812Y-129181624D01*
X210230784Y-129249544D01*
X210378354Y-129348147D01*
X210503853Y-129473646D01*
X210602456Y-129621216D01*
X210670376Y-129785188D01*
X210705000Y-129959259D01*
X210705000Y-130136741D01*
X210670376Y-130310812D01*
X210602456Y-130474784D01*
X210503853Y-130622354D01*
X210378354Y-130747853D01*
X210230784Y-130846456D01*
X210066812Y-130914376D01*
X209917512Y-130944073D01*
X209892742Y-130949000D01*
X209715258Y-130949000D01*
X209690488Y-130944073D01*
X209541188Y-130914376D01*
X209377216Y-130846456D01*
X209229646Y-130747853D01*
X209104147Y-130622354D01*
X209005544Y-130474784D01*
X208937624Y-130310812D01*
X208903000Y-130136741D01*
X208903000Y-129959259D01*
X208937624Y-129785188D01*
X209005544Y-129621216D01*
X209104147Y-129473646D01*
X209229646Y-129348147D01*
X209377216Y-129249544D01*
X209541188Y-129181624D01*
X209690488Y-129151927D01*
X209715258Y-129147000D01*
X209892742Y-129147000D01*
X209917512Y-129151927D01*
G37*
G36*
X192137512Y-129151927D02*
G01*
X192286812Y-129181624D01*
X192450784Y-129249544D01*
X192598354Y-129348147D01*
X192723853Y-129473646D01*
X192822456Y-129621216D01*
X192890376Y-129785188D01*
X192925000Y-129959259D01*
X192925000Y-130136741D01*
X192890376Y-130310812D01*
X192822456Y-130474784D01*
X192723853Y-130622354D01*
X192598354Y-130747853D01*
X192450784Y-130846456D01*
X192286812Y-130914376D01*
X192137512Y-130944073D01*
X192112742Y-130949000D01*
X191935258Y-130949000D01*
X191910488Y-130944073D01*
X191761188Y-130914376D01*
X191597216Y-130846456D01*
X191449646Y-130747853D01*
X191324147Y-130622354D01*
X191225544Y-130474784D01*
X191157624Y-130310812D01*
X191123000Y-130136741D01*
X191123000Y-129959259D01*
X191157624Y-129785188D01*
X191225544Y-129621216D01*
X191324147Y-129473646D01*
X191449646Y-129348147D01*
X191597216Y-129249544D01*
X191761188Y-129181624D01*
X191910488Y-129151927D01*
X191935258Y-129147000D01*
X192112742Y-129147000D01*
X192137512Y-129151927D01*
G37*
G36*
X194677512Y-129151927D02*
G01*
X194826812Y-129181624D01*
X194990784Y-129249544D01*
X195138354Y-129348147D01*
X195263853Y-129473646D01*
X195362456Y-129621216D01*
X195430376Y-129785188D01*
X195465000Y-129959259D01*
X195465000Y-130136741D01*
X195430376Y-130310812D01*
X195362456Y-130474784D01*
X195263853Y-130622354D01*
X195138354Y-130747853D01*
X194990784Y-130846456D01*
X194826812Y-130914376D01*
X194677512Y-130944073D01*
X194652742Y-130949000D01*
X194475258Y-130949000D01*
X194450488Y-130944073D01*
X194301188Y-130914376D01*
X194137216Y-130846456D01*
X193989646Y-130747853D01*
X193864147Y-130622354D01*
X193765544Y-130474784D01*
X193697624Y-130310812D01*
X193663000Y-130136741D01*
X193663000Y-129959259D01*
X193697624Y-129785188D01*
X193765544Y-129621216D01*
X193864147Y-129473646D01*
X193989646Y-129348147D01*
X194137216Y-129249544D01*
X194301188Y-129181624D01*
X194450488Y-129151927D01*
X194475258Y-129147000D01*
X194652742Y-129147000D01*
X194677512Y-129151927D01*
G37*
G36*
X214997512Y-129151927D02*
G01*
X215146812Y-129181624D01*
X215310784Y-129249544D01*
X215458354Y-129348147D01*
X215583853Y-129473646D01*
X215682456Y-129621216D01*
X215750376Y-129785188D01*
X215785000Y-129959259D01*
X215785000Y-130136741D01*
X215750376Y-130310812D01*
X215682456Y-130474784D01*
X215583853Y-130622354D01*
X215458354Y-130747853D01*
X215310784Y-130846456D01*
X215146812Y-130914376D01*
X214997512Y-130944073D01*
X214972742Y-130949000D01*
X214795258Y-130949000D01*
X214770488Y-130944073D01*
X214621188Y-130914376D01*
X214457216Y-130846456D01*
X214309646Y-130747853D01*
X214184147Y-130622354D01*
X214085544Y-130474784D01*
X214017624Y-130310812D01*
X213983000Y-130136741D01*
X213983000Y-129959259D01*
X214017624Y-129785188D01*
X214085544Y-129621216D01*
X214184147Y-129473646D01*
X214309646Y-129348147D01*
X214457216Y-129249544D01*
X214621188Y-129181624D01*
X214770488Y-129151927D01*
X214795258Y-129147000D01*
X214972742Y-129147000D01*
X214997512Y-129151927D01*
G37*
G36*
X197217512Y-129151927D02*
G01*
X197366812Y-129181624D01*
X197530784Y-129249544D01*
X197678354Y-129348147D01*
X197803853Y-129473646D01*
X197902456Y-129621216D01*
X197970376Y-129785188D01*
X198005000Y-129959259D01*
X198005000Y-130136741D01*
X197970376Y-130310812D01*
X197902456Y-130474784D01*
X197803853Y-130622354D01*
X197678354Y-130747853D01*
X197530784Y-130846456D01*
X197366812Y-130914376D01*
X197217512Y-130944073D01*
X197192742Y-130949000D01*
X197015258Y-130949000D01*
X196990488Y-130944073D01*
X196841188Y-130914376D01*
X196677216Y-130846456D01*
X196529646Y-130747853D01*
X196404147Y-130622354D01*
X196305544Y-130474784D01*
X196237624Y-130310812D01*
X196203000Y-130136741D01*
X196203000Y-129959259D01*
X196237624Y-129785188D01*
X196305544Y-129621216D01*
X196404147Y-129473646D01*
X196529646Y-129348147D01*
X196677216Y-129249544D01*
X196841188Y-129181624D01*
X196990488Y-129151927D01*
X197015258Y-129147000D01*
X197192742Y-129147000D01*
X197217512Y-129151927D01*
G37*
G36*
X217537512Y-129151927D02*
G01*
X217686812Y-129181624D01*
X217850784Y-129249544D01*
X217998354Y-129348147D01*
X218123853Y-129473646D01*
X218222456Y-129621216D01*
X218290376Y-129785188D01*
X218325000Y-129959259D01*
X218325000Y-130136741D01*
X218290376Y-130310812D01*
X218222456Y-130474784D01*
X218123853Y-130622354D01*
X217998354Y-130747853D01*
X217850784Y-130846456D01*
X217686812Y-130914376D01*
X217537512Y-130944073D01*
X217512742Y-130949000D01*
X217335258Y-130949000D01*
X217310488Y-130944073D01*
X217161188Y-130914376D01*
X216997216Y-130846456D01*
X216849646Y-130747853D01*
X216724147Y-130622354D01*
X216625544Y-130474784D01*
X216557624Y-130310812D01*
X216523000Y-130136741D01*
X216523000Y-129959259D01*
X216557624Y-129785188D01*
X216625544Y-129621216D01*
X216724147Y-129473646D01*
X216849646Y-129348147D01*
X216997216Y-129249544D01*
X217161188Y-129181624D01*
X217310488Y-129151927D01*
X217335258Y-129147000D01*
X217512742Y-129147000D01*
X217537512Y-129151927D01*
G37*
G36*
X199757512Y-129151927D02*
G01*
X199906812Y-129181624D01*
X200070784Y-129249544D01*
X200218354Y-129348147D01*
X200343853Y-129473646D01*
X200442456Y-129621216D01*
X200510376Y-129785188D01*
X200545000Y-129959259D01*
X200545000Y-130136741D01*
X200510376Y-130310812D01*
X200442456Y-130474784D01*
X200343853Y-130622354D01*
X200218354Y-130747853D01*
X200070784Y-130846456D01*
X199906812Y-130914376D01*
X199757512Y-130944073D01*
X199732742Y-130949000D01*
X199555258Y-130949000D01*
X199530488Y-130944073D01*
X199381188Y-130914376D01*
X199217216Y-130846456D01*
X199069646Y-130747853D01*
X198944147Y-130622354D01*
X198845544Y-130474784D01*
X198777624Y-130310812D01*
X198743000Y-130136741D01*
X198743000Y-129959259D01*
X198777624Y-129785188D01*
X198845544Y-129621216D01*
X198944147Y-129473646D01*
X199069646Y-129348147D01*
X199217216Y-129249544D01*
X199381188Y-129181624D01*
X199530488Y-129151927D01*
X199555258Y-129147000D01*
X199732742Y-129147000D01*
X199757512Y-129151927D01*
G37*
G36*
X220077512Y-129151927D02*
G01*
X220226812Y-129181624D01*
X220390784Y-129249544D01*
X220538354Y-129348147D01*
X220663853Y-129473646D01*
X220762456Y-129621216D01*
X220830376Y-129785188D01*
X220865000Y-129959259D01*
X220865000Y-130136741D01*
X220830376Y-130310812D01*
X220762456Y-130474784D01*
X220663853Y-130622354D01*
X220538354Y-130747853D01*
X220390784Y-130846456D01*
X220226812Y-130914376D01*
X220077512Y-130944073D01*
X220052742Y-130949000D01*
X219875258Y-130949000D01*
X219850488Y-130944073D01*
X219701188Y-130914376D01*
X219537216Y-130846456D01*
X219389646Y-130747853D01*
X219264147Y-130622354D01*
X219165544Y-130474784D01*
X219097624Y-130310812D01*
X219063000Y-130136741D01*
X219063000Y-129959259D01*
X219097624Y-129785188D01*
X219165544Y-129621216D01*
X219264147Y-129473646D01*
X219389646Y-129348147D01*
X219537216Y-129249544D01*
X219701188Y-129181624D01*
X219850488Y-129151927D01*
X219875258Y-129147000D01*
X220052742Y-129147000D01*
X220077512Y-129151927D01*
G37*
G36*
X222617512Y-129151927D02*
G01*
X222766812Y-129181624D01*
X222930784Y-129249544D01*
X223078354Y-129348147D01*
X223203853Y-129473646D01*
X223302456Y-129621216D01*
X223370376Y-129785188D01*
X223405000Y-129959259D01*
X223405000Y-130136741D01*
X223370376Y-130310812D01*
X223302456Y-130474784D01*
X223203853Y-130622354D01*
X223078354Y-130747853D01*
X222930784Y-130846456D01*
X222766812Y-130914376D01*
X222617512Y-130944073D01*
X222592742Y-130949000D01*
X222415258Y-130949000D01*
X222390488Y-130944073D01*
X222241188Y-130914376D01*
X222077216Y-130846456D01*
X221929646Y-130747853D01*
X221804147Y-130622354D01*
X221705544Y-130474784D01*
X221637624Y-130310812D01*
X221603000Y-130136741D01*
X221603000Y-129959259D01*
X221637624Y-129785188D01*
X221705544Y-129621216D01*
X221804147Y-129473646D01*
X221929646Y-129348147D01*
X222077216Y-129249544D01*
X222241188Y-129181624D01*
X222390488Y-129151927D01*
X222415258Y-129147000D01*
X222592742Y-129147000D01*
X222617512Y-129151927D01*
G37*
G36*
X225157512Y-129151927D02*
G01*
X225306812Y-129181624D01*
X225470784Y-129249544D01*
X225618354Y-129348147D01*
X225743853Y-129473646D01*
X225842456Y-129621216D01*
X225910376Y-129785188D01*
X225945000Y-129959259D01*
X225945000Y-130136741D01*
X225910376Y-130310812D01*
X225842456Y-130474784D01*
X225743853Y-130622354D01*
X225618354Y-130747853D01*
X225470784Y-130846456D01*
X225306812Y-130914376D01*
X225157512Y-130944073D01*
X225132742Y-130949000D01*
X224955258Y-130949000D01*
X224930488Y-130944073D01*
X224781188Y-130914376D01*
X224617216Y-130846456D01*
X224469646Y-130747853D01*
X224344147Y-130622354D01*
X224245544Y-130474784D01*
X224177624Y-130310812D01*
X224143000Y-130136741D01*
X224143000Y-129959259D01*
X224177624Y-129785188D01*
X224245544Y-129621216D01*
X224344147Y-129473646D01*
X224469646Y-129348147D01*
X224617216Y-129249544D01*
X224781188Y-129181624D01*
X224930488Y-129151927D01*
X224955258Y-129147000D01*
X225132742Y-129147000D01*
X225157512Y-129151927D01*
G37*
G36*
X232175000Y-127041000D02*
G01*
X230573000Y-127041000D01*
X230573000Y-125689000D01*
X232175000Y-125689000D01*
X232175000Y-127041000D01*
G37*
G36*
X229675000Y-127041000D02*
G01*
X228073000Y-127041000D01*
X228073000Y-125689000D01*
X229675000Y-125689000D01*
X229675000Y-127041000D01*
G37*
G36*
X174310000Y-124071000D02*
G01*
X172908000Y-124071000D01*
X172908000Y-122469000D01*
X174310000Y-122469000D01*
X174310000Y-124071000D01*
G37*
G36*
X196876000Y-124033000D02*
G01*
X190474000Y-124033000D01*
X190474000Y-122181000D01*
X196876000Y-122181000D01*
X196876000Y-124033000D01*
G37*
G36*
X223703000Y-123652000D02*
G01*
X214701000Y-123652000D01*
X214701000Y-121800000D01*
X223703000Y-121800000D01*
X223703000Y-123652000D01*
G37*
G36*
X174310000Y-121371000D02*
G01*
X172908000Y-121371000D01*
X172908000Y-119769000D01*
X174310000Y-119769000D01*
X174310000Y-121371000D01*
G37*
G36*
X188382000Y-119018000D02*
G01*
X187030000Y-119018000D01*
X187030000Y-117416000D01*
X188382000Y-117416000D01*
X188382000Y-119018000D01*
G37*
G36*
X196876000Y-116833000D02*
G01*
X190474000Y-116833000D01*
X190474000Y-114981000D01*
X196876000Y-114981000D01*
X196876000Y-116833000D01*
G37*
G36*
X188382000Y-116518000D02*
G01*
X187030000Y-116518000D01*
X187030000Y-114916000D01*
X188382000Y-114916000D01*
X188382000Y-116518000D01*
G37*
G36*
X223703000Y-116452000D02*
G01*
X214701000Y-116452000D01*
X214701000Y-114600000D01*
X223703000Y-114600000D01*
X223703000Y-116452000D01*
G37*
G36*
X200338000Y-114087000D02*
G01*
X198736000Y-114087000D01*
X198736000Y-112735000D01*
X200338000Y-112735000D01*
X200338000Y-114087000D01*
G37*
G36*
X202838000Y-114087000D02*
G01*
X201236000Y-114087000D01*
X201236000Y-112735000D01*
X202838000Y-112735000D01*
X202838000Y-114087000D01*
G37*
G36*
X212590212Y-107405249D02*
G01*
X212684651Y-107433897D01*
X212771687Y-107480418D01*
X212847975Y-107543025D01*
X212910582Y-107619313D01*
X212957103Y-107706348D01*
X212985751Y-107800787D01*
X212993000Y-107874388D01*
X212993000Y-110023612D01*
X212985751Y-110097213D01*
X212957103Y-110191652D01*
X212910582Y-110278687D01*
X212847975Y-110354975D01*
X212771687Y-110417582D01*
X212684652Y-110464103D01*
X212590213Y-110492751D01*
X212492000Y-110502424D01*
X212393788Y-110492751D01*
X212299349Y-110464103D01*
X212212314Y-110417582D01*
X212136026Y-110354975D01*
X212073419Y-110278687D01*
X212026898Y-110191652D01*
X211998250Y-110097213D01*
X211991001Y-110023612D01*
X211991000Y-107874389D01*
X211998249Y-107800788D01*
X212026897Y-107706349D01*
X212073418Y-107619313D01*
X212136025Y-107543025D01*
X212212313Y-107480418D01*
X212299348Y-107433897D01*
X212393787Y-107405249D01*
X212492000Y-107395576D01*
X212590212Y-107405249D01*
G37*
G36*
X213890212Y-107405249D02*
G01*
X213984651Y-107433897D01*
X214071687Y-107480418D01*
X214147975Y-107543025D01*
X214210582Y-107619313D01*
X214257103Y-107706348D01*
X214285751Y-107800787D01*
X214293000Y-107874388D01*
X214293000Y-110023612D01*
X214285751Y-110097213D01*
X214257103Y-110191652D01*
X214210582Y-110278687D01*
X214147975Y-110354975D01*
X214071687Y-110417582D01*
X213984652Y-110464103D01*
X213890213Y-110492751D01*
X213792000Y-110502424D01*
X213693788Y-110492751D01*
X213599349Y-110464103D01*
X213512314Y-110417582D01*
X213436026Y-110354975D01*
X213373419Y-110278687D01*
X213326898Y-110191652D01*
X213298250Y-110097213D01*
X213291001Y-110023612D01*
X213291000Y-107874389D01*
X213298249Y-107800788D01*
X213326897Y-107706349D01*
X213373418Y-107619313D01*
X213436025Y-107543025D01*
X213512313Y-107480418D01*
X213599348Y-107433897D01*
X213693787Y-107405249D01*
X213792000Y-107395576D01*
X213890212Y-107405249D01*
G37*
G36*
X198620212Y-107405249D02*
G01*
X198714651Y-107433897D01*
X198801687Y-107480418D01*
X198877975Y-107543025D01*
X198940582Y-107619313D01*
X198987103Y-107706348D01*
X199015751Y-107800787D01*
X199023000Y-107874388D01*
X199023000Y-110023612D01*
X199015751Y-110097213D01*
X198987103Y-110191652D01*
X198940582Y-110278687D01*
X198877975Y-110354975D01*
X198801687Y-110417582D01*
X198714652Y-110464103D01*
X198620213Y-110492751D01*
X198522000Y-110502424D01*
X198423788Y-110492751D01*
X198329349Y-110464103D01*
X198242314Y-110417582D01*
X198166026Y-110354975D01*
X198103419Y-110278687D01*
X198056898Y-110191652D01*
X198028250Y-110097213D01*
X198021001Y-110023612D01*
X198021000Y-107874389D01*
X198028249Y-107800788D01*
X198056897Y-107706349D01*
X198103418Y-107619313D01*
X198166025Y-107543025D01*
X198242313Y-107480418D01*
X198329348Y-107433897D01*
X198423787Y-107405249D01*
X198522000Y-107395576D01*
X198620212Y-107405249D01*
G37*
G36*
X197350212Y-107405249D02*
G01*
X197444651Y-107433897D01*
X197531687Y-107480418D01*
X197607975Y-107543025D01*
X197670582Y-107619313D01*
X197717103Y-107706348D01*
X197745751Y-107800787D01*
X197753000Y-107874388D01*
X197753000Y-110023612D01*
X197745751Y-110097213D01*
X197717103Y-110191652D01*
X197670582Y-110278687D01*
X197607975Y-110354975D01*
X197531687Y-110417582D01*
X197444652Y-110464103D01*
X197350213Y-110492751D01*
X197252000Y-110502424D01*
X197153788Y-110492751D01*
X197059349Y-110464103D01*
X196972314Y-110417582D01*
X196896026Y-110354975D01*
X196833419Y-110278687D01*
X196786898Y-110191652D01*
X196758250Y-110097213D01*
X196751001Y-110023612D01*
X196751000Y-107874389D01*
X196758249Y-107800788D01*
X196786897Y-107706349D01*
X196833418Y-107619313D01*
X196896025Y-107543025D01*
X196972313Y-107480418D01*
X197059348Y-107433897D01*
X197153787Y-107405249D01*
X197252000Y-107395576D01*
X197350212Y-107405249D01*
G37*
G36*
X204970212Y-107405249D02*
G01*
X205064651Y-107433897D01*
X205151687Y-107480418D01*
X205227975Y-107543025D01*
X205290582Y-107619313D01*
X205337103Y-107706348D01*
X205365751Y-107800787D01*
X205373000Y-107874388D01*
X205373000Y-110023612D01*
X205365751Y-110097213D01*
X205337103Y-110191652D01*
X205290582Y-110278687D01*
X205227975Y-110354975D01*
X205151687Y-110417582D01*
X205064652Y-110464103D01*
X204970213Y-110492751D01*
X204872000Y-110502424D01*
X204773788Y-110492751D01*
X204679349Y-110464103D01*
X204592314Y-110417582D01*
X204516026Y-110354975D01*
X204453419Y-110278687D01*
X204406898Y-110191652D01*
X204378250Y-110097213D01*
X204371001Y-110023612D01*
X204371000Y-107874389D01*
X204378249Y-107800788D01*
X204406897Y-107706349D01*
X204453418Y-107619313D01*
X204516025Y-107543025D01*
X204592313Y-107480418D01*
X204679348Y-107433897D01*
X204773787Y-107405249D01*
X204872000Y-107395576D01*
X204970212Y-107405249D01*
G37*
G36*
X215160212Y-107405249D02*
G01*
X215254651Y-107433897D01*
X215341687Y-107480418D01*
X215417975Y-107543025D01*
X215480582Y-107619313D01*
X215527103Y-107706348D01*
X215555751Y-107800787D01*
X215563000Y-107874388D01*
X215563000Y-110023612D01*
X215555751Y-110097213D01*
X215527103Y-110191652D01*
X215480582Y-110278687D01*
X215417975Y-110354975D01*
X215341687Y-110417582D01*
X215254652Y-110464103D01*
X215160213Y-110492751D01*
X215062000Y-110502424D01*
X214963788Y-110492751D01*
X214869349Y-110464103D01*
X214782314Y-110417582D01*
X214706026Y-110354975D01*
X214643419Y-110278687D01*
X214596898Y-110191652D01*
X214568250Y-110097213D01*
X214561001Y-110023612D01*
X214561000Y-107874389D01*
X214568249Y-107800788D01*
X214596897Y-107706349D01*
X214643418Y-107619313D01*
X214706025Y-107543025D01*
X214782313Y-107480418D01*
X214869348Y-107433897D01*
X214963787Y-107405249D01*
X215062000Y-107395576D01*
X215160212Y-107405249D01*
G37*
G36*
X216430212Y-107405249D02*
G01*
X216524651Y-107433897D01*
X216611687Y-107480418D01*
X216687975Y-107543025D01*
X216750582Y-107619313D01*
X216797103Y-107706348D01*
X216825751Y-107800787D01*
X216833000Y-107874388D01*
X216833000Y-110023612D01*
X216825751Y-110097213D01*
X216797103Y-110191652D01*
X216750582Y-110278687D01*
X216687975Y-110354975D01*
X216611687Y-110417582D01*
X216524652Y-110464103D01*
X216430213Y-110492751D01*
X216332000Y-110502424D01*
X216233788Y-110492751D01*
X216139349Y-110464103D01*
X216052314Y-110417582D01*
X215976026Y-110354975D01*
X215913419Y-110278687D01*
X215866898Y-110191652D01*
X215838250Y-110097213D01*
X215831001Y-110023612D01*
X215831000Y-107874389D01*
X215838249Y-107800788D01*
X215866897Y-107706349D01*
X215913418Y-107619313D01*
X215976025Y-107543025D01*
X216052313Y-107480418D01*
X216139348Y-107433897D01*
X216233787Y-107405249D01*
X216332000Y-107395576D01*
X216430212Y-107405249D01*
G37*
G36*
X217700212Y-107405249D02*
G01*
X217794651Y-107433897D01*
X217881687Y-107480418D01*
X217957975Y-107543025D01*
X218020582Y-107619313D01*
X218067103Y-107706348D01*
X218095751Y-107800787D01*
X218103000Y-107874388D01*
X218103000Y-110023612D01*
X218095751Y-110097213D01*
X218067103Y-110191652D01*
X218020582Y-110278687D01*
X217957975Y-110354975D01*
X217881687Y-110417582D01*
X217794652Y-110464103D01*
X217700213Y-110492751D01*
X217602000Y-110502424D01*
X217503788Y-110492751D01*
X217409349Y-110464103D01*
X217322314Y-110417582D01*
X217246026Y-110354975D01*
X217183419Y-110278687D01*
X217136898Y-110191652D01*
X217108250Y-110097213D01*
X217101001Y-110023612D01*
X217101000Y-107874389D01*
X217108249Y-107800788D01*
X217136897Y-107706349D01*
X217183418Y-107619313D01*
X217246025Y-107543025D01*
X217322313Y-107480418D01*
X217409348Y-107433897D01*
X217503787Y-107405249D01*
X217602000Y-107395576D01*
X217700212Y-107405249D01*
G37*
G36*
X218970212Y-107405249D02*
G01*
X219064651Y-107433897D01*
X219151687Y-107480418D01*
X219227975Y-107543025D01*
X219290582Y-107619313D01*
X219337103Y-107706348D01*
X219365751Y-107800787D01*
X219373000Y-107874388D01*
X219373000Y-110023612D01*
X219365751Y-110097213D01*
X219337103Y-110191652D01*
X219290582Y-110278687D01*
X219227975Y-110354975D01*
X219151687Y-110417582D01*
X219064652Y-110464103D01*
X218970213Y-110492751D01*
X218872000Y-110502424D01*
X218773788Y-110492751D01*
X218679349Y-110464103D01*
X218592314Y-110417582D01*
X218516026Y-110354975D01*
X218453419Y-110278687D01*
X218406898Y-110191652D01*
X218378250Y-110097213D01*
X218371001Y-110023612D01*
X218371000Y-107874389D01*
X218378249Y-107800788D01*
X218406897Y-107706349D01*
X218453418Y-107619313D01*
X218516025Y-107543025D01*
X218592313Y-107480418D01*
X218679348Y-107433897D01*
X218773787Y-107405249D01*
X218872000Y-107395576D01*
X218970212Y-107405249D01*
G37*
G36*
X196080212Y-107405249D02*
G01*
X196174651Y-107433897D01*
X196261687Y-107480418D01*
X196337975Y-107543025D01*
X196400582Y-107619313D01*
X196447103Y-107706348D01*
X196475751Y-107800787D01*
X196483000Y-107874388D01*
X196483000Y-110023612D01*
X196475751Y-110097213D01*
X196447103Y-110191652D01*
X196400582Y-110278687D01*
X196337975Y-110354975D01*
X196261687Y-110417582D01*
X196174652Y-110464103D01*
X196080213Y-110492751D01*
X195982000Y-110502424D01*
X195883788Y-110492751D01*
X195789349Y-110464103D01*
X195702314Y-110417582D01*
X195626026Y-110354975D01*
X195563419Y-110278687D01*
X195516898Y-110191652D01*
X195488250Y-110097213D01*
X195481001Y-110023612D01*
X195481000Y-107874389D01*
X195488249Y-107800788D01*
X195516897Y-107706349D01*
X195563418Y-107619313D01*
X195626025Y-107543025D01*
X195702313Y-107480418D01*
X195789348Y-107433897D01*
X195883787Y-107405249D01*
X195982000Y-107395576D01*
X196080212Y-107405249D01*
G37*
G36*
X208780212Y-107405249D02*
G01*
X208874651Y-107433897D01*
X208961687Y-107480418D01*
X209037975Y-107543025D01*
X209100582Y-107619313D01*
X209147103Y-107706348D01*
X209175751Y-107800787D01*
X209183000Y-107874388D01*
X209183000Y-110023612D01*
X209175751Y-110097213D01*
X209147103Y-110191652D01*
X209100582Y-110278687D01*
X209037975Y-110354975D01*
X208961687Y-110417582D01*
X208874652Y-110464103D01*
X208780213Y-110492751D01*
X208682000Y-110502424D01*
X208583788Y-110492751D01*
X208489349Y-110464103D01*
X208402314Y-110417582D01*
X208326026Y-110354975D01*
X208263419Y-110278687D01*
X208216898Y-110191652D01*
X208188250Y-110097213D01*
X208181001Y-110023612D01*
X208181000Y-107874389D01*
X208188249Y-107800788D01*
X208216897Y-107706349D01*
X208263418Y-107619313D01*
X208326025Y-107543025D01*
X208402313Y-107480418D01*
X208489348Y-107433897D01*
X208583787Y-107405249D01*
X208682000Y-107395576D01*
X208780212Y-107405249D01*
G37*
G36*
X207510212Y-107405249D02*
G01*
X207604651Y-107433897D01*
X207691687Y-107480418D01*
X207767975Y-107543025D01*
X207830582Y-107619313D01*
X207877103Y-107706348D01*
X207905751Y-107800787D01*
X207913000Y-107874388D01*
X207913000Y-110023612D01*
X207905751Y-110097213D01*
X207877103Y-110191652D01*
X207830582Y-110278687D01*
X207767975Y-110354975D01*
X207691687Y-110417582D01*
X207604652Y-110464103D01*
X207510213Y-110492751D01*
X207412000Y-110502424D01*
X207313788Y-110492751D01*
X207219349Y-110464103D01*
X207132314Y-110417582D01*
X207056026Y-110354975D01*
X206993419Y-110278687D01*
X206946898Y-110191652D01*
X206918250Y-110097213D01*
X206911001Y-110023612D01*
X206911000Y-107874389D01*
X206918249Y-107800788D01*
X206946897Y-107706349D01*
X206993418Y-107619313D01*
X207056025Y-107543025D01*
X207132313Y-107480418D01*
X207219348Y-107433897D01*
X207313787Y-107405249D01*
X207412000Y-107395576D01*
X207510212Y-107405249D01*
G37*
G36*
X206240212Y-107405249D02*
G01*
X206334651Y-107433897D01*
X206421687Y-107480418D01*
X206497975Y-107543025D01*
X206560582Y-107619313D01*
X206607103Y-107706348D01*
X206635751Y-107800787D01*
X206643000Y-107874388D01*
X206643000Y-110023612D01*
X206635751Y-110097213D01*
X206607103Y-110191652D01*
X206560582Y-110278687D01*
X206497975Y-110354975D01*
X206421687Y-110417582D01*
X206334652Y-110464103D01*
X206240213Y-110492751D01*
X206142000Y-110502424D01*
X206043788Y-110492751D01*
X205949349Y-110464103D01*
X205862314Y-110417582D01*
X205786026Y-110354975D01*
X205723419Y-110278687D01*
X205676898Y-110191652D01*
X205648250Y-110097213D01*
X205641001Y-110023612D01*
X205641000Y-107874389D01*
X205648249Y-107800788D01*
X205676897Y-107706349D01*
X205723418Y-107619313D01*
X205786025Y-107543025D01*
X205862313Y-107480418D01*
X205949348Y-107433897D01*
X206043787Y-107405249D01*
X206142000Y-107395576D01*
X206240212Y-107405249D01*
G37*
G36*
X203700212Y-107405249D02*
G01*
X203794651Y-107433897D01*
X203881687Y-107480418D01*
X203957975Y-107543025D01*
X204020582Y-107619313D01*
X204067103Y-107706348D01*
X204095751Y-107800787D01*
X204103000Y-107874388D01*
X204103000Y-110023612D01*
X204095751Y-110097213D01*
X204067103Y-110191652D01*
X204020582Y-110278687D01*
X203957975Y-110354975D01*
X203881687Y-110417582D01*
X203794652Y-110464103D01*
X203700213Y-110492751D01*
X203602000Y-110502424D01*
X203503788Y-110492751D01*
X203409349Y-110464103D01*
X203322314Y-110417582D01*
X203246026Y-110354975D01*
X203183419Y-110278687D01*
X203136898Y-110191652D01*
X203108250Y-110097213D01*
X203101001Y-110023612D01*
X203101000Y-107874389D01*
X203108249Y-107800788D01*
X203136897Y-107706349D01*
X203183418Y-107619313D01*
X203246025Y-107543025D01*
X203322313Y-107480418D01*
X203409348Y-107433897D01*
X203503787Y-107405249D01*
X203602000Y-107395576D01*
X203700212Y-107405249D01*
G37*
G36*
X202430212Y-107405249D02*
G01*
X202524651Y-107433897D01*
X202611687Y-107480418D01*
X202687975Y-107543025D01*
X202750582Y-107619313D01*
X202797103Y-107706348D01*
X202825751Y-107800787D01*
X202833000Y-107874388D01*
X202833000Y-110023612D01*
X202825751Y-110097213D01*
X202797103Y-110191652D01*
X202750582Y-110278687D01*
X202687975Y-110354975D01*
X202611687Y-110417582D01*
X202524652Y-110464103D01*
X202430213Y-110492751D01*
X202332000Y-110502424D01*
X202233788Y-110492751D01*
X202139349Y-110464103D01*
X202052314Y-110417582D01*
X201976026Y-110354975D01*
X201913419Y-110278687D01*
X201866898Y-110191652D01*
X201838250Y-110097213D01*
X201831001Y-110023612D01*
X201831000Y-107874389D01*
X201838249Y-107800788D01*
X201866897Y-107706349D01*
X201913418Y-107619313D01*
X201976025Y-107543025D01*
X202052313Y-107480418D01*
X202139348Y-107433897D01*
X202233787Y-107405249D01*
X202332000Y-107395576D01*
X202430212Y-107405249D01*
G37*
G36*
X199890212Y-107405249D02*
G01*
X199984651Y-107433897D01*
X200071687Y-107480418D01*
X200147975Y-107543025D01*
X200210582Y-107619313D01*
X200257103Y-107706348D01*
X200285751Y-107800787D01*
X200293000Y-107874388D01*
X200293000Y-110023612D01*
X200285751Y-110097213D01*
X200257103Y-110191652D01*
X200210582Y-110278687D01*
X200147975Y-110354975D01*
X200071687Y-110417582D01*
X199984652Y-110464103D01*
X199890213Y-110492751D01*
X199792000Y-110502424D01*
X199693788Y-110492751D01*
X199599349Y-110464103D01*
X199512314Y-110417582D01*
X199436026Y-110354975D01*
X199373419Y-110278687D01*
X199326898Y-110191652D01*
X199298250Y-110097213D01*
X199291001Y-110023612D01*
X199291000Y-107874389D01*
X199298249Y-107800788D01*
X199326897Y-107706349D01*
X199373418Y-107619313D01*
X199436025Y-107543025D01*
X199512313Y-107480418D01*
X199599348Y-107433897D01*
X199693787Y-107405249D01*
X199792000Y-107395576D01*
X199890212Y-107405249D01*
G37*
G36*
X201160212Y-107405249D02*
G01*
X201254651Y-107433897D01*
X201341687Y-107480418D01*
X201417975Y-107543025D01*
X201480582Y-107619313D01*
X201527103Y-107706348D01*
X201555751Y-107800787D01*
X201563000Y-107874388D01*
X201563000Y-110023612D01*
X201555751Y-110097213D01*
X201527103Y-110191652D01*
X201480582Y-110278687D01*
X201417975Y-110354975D01*
X201341687Y-110417582D01*
X201254652Y-110464103D01*
X201160213Y-110492751D01*
X201062000Y-110502424D01*
X200963788Y-110492751D01*
X200869349Y-110464103D01*
X200782314Y-110417582D01*
X200706026Y-110354975D01*
X200643419Y-110278687D01*
X200596898Y-110191652D01*
X200568250Y-110097213D01*
X200561001Y-110023612D01*
X200561000Y-107874389D01*
X200568249Y-107800788D01*
X200596897Y-107706349D01*
X200643418Y-107619313D01*
X200706025Y-107543025D01*
X200782313Y-107480418D01*
X200869348Y-107433897D01*
X200963787Y-107405249D01*
X201062000Y-107395576D01*
X201160212Y-107405249D01*
G37*
G36*
X211320212Y-107405249D02*
G01*
X211414651Y-107433897D01*
X211501687Y-107480418D01*
X211577975Y-107543025D01*
X211640582Y-107619313D01*
X211687103Y-107706348D01*
X211715751Y-107800787D01*
X211723000Y-107874388D01*
X211723000Y-110023612D01*
X211715751Y-110097213D01*
X211687103Y-110191652D01*
X211640582Y-110278687D01*
X211577975Y-110354975D01*
X211501687Y-110417582D01*
X211414652Y-110464103D01*
X211320213Y-110492751D01*
X211222000Y-110502424D01*
X211123788Y-110492751D01*
X211029349Y-110464103D01*
X210942314Y-110417582D01*
X210866026Y-110354975D01*
X210803419Y-110278687D01*
X210756898Y-110191652D01*
X210728250Y-110097213D01*
X210721001Y-110023612D01*
X210721000Y-107874389D01*
X210728249Y-107800788D01*
X210756897Y-107706349D01*
X210803418Y-107619313D01*
X210866025Y-107543025D01*
X210942313Y-107480418D01*
X211029348Y-107433897D01*
X211123787Y-107405249D01*
X211222000Y-107395576D01*
X211320212Y-107405249D01*
G37*
G36*
X210050212Y-107405249D02*
G01*
X210144651Y-107433897D01*
X210231687Y-107480418D01*
X210307975Y-107543025D01*
X210370582Y-107619313D01*
X210417103Y-107706348D01*
X210445751Y-107800787D01*
X210453000Y-107874388D01*
X210453000Y-110023612D01*
X210445751Y-110097213D01*
X210417103Y-110191652D01*
X210370582Y-110278687D01*
X210307975Y-110354975D01*
X210231687Y-110417582D01*
X210144652Y-110464103D01*
X210050213Y-110492751D01*
X209952000Y-110502424D01*
X209853788Y-110492751D01*
X209759349Y-110464103D01*
X209672314Y-110417582D01*
X209596026Y-110354975D01*
X209533419Y-110278687D01*
X209486898Y-110191652D01*
X209458250Y-110097213D01*
X209451001Y-110023612D01*
X209451000Y-107874389D01*
X209458249Y-107800788D01*
X209486897Y-107706349D01*
X209533418Y-107619313D01*
X209596025Y-107543025D01*
X209672313Y-107480418D01*
X209759348Y-107433897D01*
X209853787Y-107405249D01*
X209952000Y-107395576D01*
X210050212Y-107405249D01*
G37*
G36*
X180025000Y-108069000D02*
G01*
X178623000Y-108069000D01*
X178623000Y-106467000D01*
X180025000Y-106467000D01*
X180025000Y-108069000D01*
G37*
G36*
X168388512Y-104767927D02*
G01*
X168537812Y-104797624D01*
X168701784Y-104865544D01*
X168849354Y-104964147D01*
X168974853Y-105089646D01*
X169073456Y-105237216D01*
X169141376Y-105401188D01*
X169176000Y-105575259D01*
X169176000Y-105752741D01*
X169141376Y-105926812D01*
X169073456Y-106090784D01*
X168974853Y-106238354D01*
X168849354Y-106363853D01*
X168701784Y-106462456D01*
X168537812Y-106530376D01*
X168388512Y-106560073D01*
X168363742Y-106565000D01*
X168186258Y-106565000D01*
X168161488Y-106560073D01*
X168012188Y-106530376D01*
X167848216Y-106462456D01*
X167700646Y-106363853D01*
X167575147Y-106238354D01*
X167476544Y-106090784D01*
X167408624Y-105926812D01*
X167374000Y-105752741D01*
X167374000Y-105575259D01*
X167408624Y-105401188D01*
X167476544Y-105237216D01*
X167575147Y-105089646D01*
X167700646Y-104964147D01*
X167848216Y-104865544D01*
X168012188Y-104797624D01*
X168161488Y-104767927D01*
X168186258Y-104763000D01*
X168363742Y-104763000D01*
X168388512Y-104767927D01*
G37*
G36*
X180025000Y-105369000D02*
G01*
X178623000Y-105369000D01*
X178623000Y-103767000D01*
X180025000Y-103767000D01*
X180025000Y-105369000D01*
G37*
G36*
X168388512Y-102227927D02*
G01*
X168537812Y-102257624D01*
X168701784Y-102325544D01*
X168849354Y-102424147D01*
X168974853Y-102549646D01*
X169073456Y-102697216D01*
X169141376Y-102861188D01*
X169176000Y-103035259D01*
X169176000Y-103212741D01*
X169141376Y-103386812D01*
X169073456Y-103550784D01*
X168974853Y-103698354D01*
X168849354Y-103823853D01*
X168701784Y-103922456D01*
X168537812Y-103990376D01*
X168388512Y-104020073D01*
X168363742Y-104025000D01*
X168186258Y-104025000D01*
X168161488Y-104020073D01*
X168012188Y-103990376D01*
X167848216Y-103922456D01*
X167700646Y-103823853D01*
X167575147Y-103698354D01*
X167476544Y-103550784D01*
X167408624Y-103386812D01*
X167374000Y-103212741D01*
X167374000Y-103035259D01*
X167408624Y-102861188D01*
X167476544Y-102697216D01*
X167575147Y-102549646D01*
X167700646Y-102424147D01*
X167848216Y-102325544D01*
X168012188Y-102257624D01*
X168161488Y-102227927D01*
X168186258Y-102223000D01*
X168363742Y-102223000D01*
X168388512Y-102227927D01*
G37*
G36*
X205453000Y-102900000D02*
G01*
X200351000Y-102900000D01*
X200351000Y-97798000D01*
X205453000Y-97798000D01*
X205453000Y-102900000D01*
G37*
G36*
X179775000Y-101704000D02*
G01*
X178873000Y-101704000D01*
X178873000Y-100702000D01*
X179775000Y-100702000D01*
X179775000Y-101704000D01*
G37*
G36*
X168388512Y-99687927D02*
G01*
X168537812Y-99717624D01*
X168701784Y-99785544D01*
X168849354Y-99884147D01*
X168974853Y-100009646D01*
X169073456Y-100157216D01*
X169141376Y-100321188D01*
X169176000Y-100495259D01*
X169176000Y-100672741D01*
X169141376Y-100846812D01*
X169073456Y-101010784D01*
X168974853Y-101158354D01*
X168849354Y-101283853D01*
X168701784Y-101382456D01*
X168537812Y-101450376D01*
X168388512Y-101480073D01*
X168363742Y-101485000D01*
X168186258Y-101485000D01*
X168161488Y-101480073D01*
X168012188Y-101450376D01*
X167848216Y-101382456D01*
X167700646Y-101283853D01*
X167575147Y-101158354D01*
X167476544Y-101010784D01*
X167408624Y-100846812D01*
X167374000Y-100672741D01*
X167374000Y-100495259D01*
X167408624Y-100321188D01*
X167476544Y-100157216D01*
X167575147Y-100009646D01*
X167700646Y-99884147D01*
X167848216Y-99785544D01*
X168012188Y-99717624D01*
X168161488Y-99687927D01*
X168186258Y-99683000D01*
X168363742Y-99683000D01*
X168388512Y-99687927D01*
G37*
G36*
X178825000Y-99704000D02*
G01*
X177923000Y-99704000D01*
X177923000Y-98702000D01*
X178825000Y-98702000D01*
X178825000Y-99704000D01*
G37*
G36*
X180725000Y-99704000D02*
G01*
X179823000Y-99704000D01*
X179823000Y-98702000D01*
X180725000Y-98702000D01*
X180725000Y-99704000D01*
G37*
G36*
X168388512Y-97147927D02*
G01*
X168537812Y-97177624D01*
X168701784Y-97245544D01*
X168849354Y-97344147D01*
X168974853Y-97469646D01*
X169073456Y-97617216D01*
X169141376Y-97781188D01*
X169164611Y-97898000D01*
X169174821Y-97949329D01*
X169176000Y-97955259D01*
X169176000Y-98132741D01*
X169141376Y-98306812D01*
X169073456Y-98470784D01*
X168974853Y-98618354D01*
X168849354Y-98743853D01*
X168701784Y-98842456D01*
X168537812Y-98910376D01*
X168388512Y-98940073D01*
X168363742Y-98945000D01*
X168186258Y-98945000D01*
X168161488Y-98940073D01*
X168012188Y-98910376D01*
X167848216Y-98842456D01*
X167700646Y-98743853D01*
X167575147Y-98618354D01*
X167476544Y-98470784D01*
X167408624Y-98306812D01*
X167374000Y-98132741D01*
X167374000Y-97955259D01*
X167375180Y-97949329D01*
X167385389Y-97898000D01*
X167408624Y-97781188D01*
X167476544Y-97617216D01*
X167575147Y-97469646D01*
X167700646Y-97344147D01*
X167848216Y-97245544D01*
X168012188Y-97177624D01*
X168161488Y-97147927D01*
X168186258Y-97143000D01*
X168363742Y-97143000D01*
X168388512Y-97147927D01*
G37*
G36*
X168388512Y-94607927D02*
G01*
X168537812Y-94637624D01*
X168701784Y-94705544D01*
X168849354Y-94804147D01*
X168974853Y-94929646D01*
X169073456Y-95077216D01*
X169141376Y-95241188D01*
X169176000Y-95415259D01*
X169176000Y-95592741D01*
X169141376Y-95766812D01*
X169073456Y-95930784D01*
X168974853Y-96078354D01*
X168849354Y-96203853D01*
X168701784Y-96302456D01*
X168537812Y-96370376D01*
X168388512Y-96400073D01*
X168363742Y-96405000D01*
X168186258Y-96405000D01*
X168161488Y-96400073D01*
X168012188Y-96370376D01*
X167848216Y-96302456D01*
X167700646Y-96203853D01*
X167575147Y-96078354D01*
X167476544Y-95930784D01*
X167408624Y-95766812D01*
X167374000Y-95592741D01*
X167374000Y-95415259D01*
X167408624Y-95241188D01*
X167476544Y-95077216D01*
X167575147Y-94929646D01*
X167700646Y-94804147D01*
X167848216Y-94705544D01*
X168012188Y-94637624D01*
X168161488Y-94607927D01*
X168186258Y-94603000D01*
X168363742Y-94603000D01*
X168388512Y-94607927D01*
G37*
G36*
X181174000Y-96205000D02*
G01*
X179572000Y-96205000D01*
X179572000Y-94803000D01*
X181174000Y-94803000D01*
X181174000Y-96205000D01*
G37*
G36*
X178474000Y-96205000D02*
G01*
X176872000Y-96205000D01*
X176872000Y-94803000D01*
X178474000Y-94803000D01*
X178474000Y-96205000D01*
G37*
G36*
X231308000Y-95142000D02*
G01*
X229956000Y-95142000D01*
X229956000Y-93540000D01*
X231308000Y-93540000D01*
X231308000Y-95142000D01*
G37*
G36*
X169176000Y-93865000D02*
G01*
X167374000Y-93865000D01*
X167374000Y-92063000D01*
X169176000Y-92063000D01*
X169176000Y-93865000D01*
G37*
G36*
X181174000Y-93538000D02*
G01*
X179572000Y-93538000D01*
X179572000Y-92136000D01*
X181174000Y-92136000D01*
X181174000Y-93538000D01*
G37*
G36*
X178474000Y-93538000D02*
G01*
X176872000Y-93538000D01*
X176872000Y-92136000D01*
X178474000Y-92136000D01*
X178474000Y-93538000D01*
G37*
G36*
X231308000Y-92642000D02*
G01*
X229956000Y-92642000D01*
X229956000Y-91040000D01*
X231308000Y-91040000D01*
X231308000Y-92642000D01*
G37*
G36*
X216430212Y-89405249D02*
G01*
X216524651Y-89433897D01*
X216611687Y-89480418D01*
X216687975Y-89543025D01*
X216750582Y-89619313D01*
X216797103Y-89706348D01*
X216825751Y-89800787D01*
X216833000Y-89874388D01*
X216833000Y-92023612D01*
X216825751Y-92097213D01*
X216797103Y-92191652D01*
X216750582Y-92278687D01*
X216687975Y-92354975D01*
X216611687Y-92417582D01*
X216524652Y-92464103D01*
X216430213Y-92492751D01*
X216332000Y-92502424D01*
X216233788Y-92492751D01*
X216139349Y-92464103D01*
X216052314Y-92417582D01*
X215976026Y-92354975D01*
X215913419Y-92278687D01*
X215866898Y-92191652D01*
X215838250Y-92097213D01*
X215831001Y-92023612D01*
X215831000Y-89874389D01*
X215838249Y-89800788D01*
X215866897Y-89706349D01*
X215913418Y-89619313D01*
X215976025Y-89543025D01*
X216052313Y-89480418D01*
X216139348Y-89433897D01*
X216233787Y-89405249D01*
X216332000Y-89395576D01*
X216430212Y-89405249D01*
G37*
G36*
X215160212Y-89405249D02*
G01*
X215254651Y-89433897D01*
X215341687Y-89480418D01*
X215417975Y-89543025D01*
X215480582Y-89619313D01*
X215527103Y-89706348D01*
X215555751Y-89800787D01*
X215563000Y-89874388D01*
X215563000Y-92023612D01*
X215555751Y-92097213D01*
X215527103Y-92191652D01*
X215480582Y-92278687D01*
X215417975Y-92354975D01*
X215341687Y-92417582D01*
X215254652Y-92464103D01*
X215160213Y-92492751D01*
X215062000Y-92502424D01*
X214963788Y-92492751D01*
X214869349Y-92464103D01*
X214782314Y-92417582D01*
X214706026Y-92354975D01*
X214643419Y-92278687D01*
X214596898Y-92191652D01*
X214568250Y-92097213D01*
X214561001Y-92023612D01*
X214561000Y-89874389D01*
X214568249Y-89800788D01*
X214596897Y-89706349D01*
X214643418Y-89619313D01*
X214706025Y-89543025D01*
X214782313Y-89480418D01*
X214869348Y-89433897D01*
X214963787Y-89405249D01*
X215062000Y-89395576D01*
X215160212Y-89405249D01*
G37*
G36*
X213890212Y-89405249D02*
G01*
X213984651Y-89433897D01*
X214071687Y-89480418D01*
X214147975Y-89543025D01*
X214210582Y-89619313D01*
X214257103Y-89706348D01*
X214285751Y-89800787D01*
X214293000Y-89874388D01*
X214293000Y-92023612D01*
X214285751Y-92097213D01*
X214257103Y-92191652D01*
X214210582Y-92278687D01*
X214147975Y-92354975D01*
X214071687Y-92417582D01*
X213984652Y-92464103D01*
X213890213Y-92492751D01*
X213792000Y-92502424D01*
X213693788Y-92492751D01*
X213599349Y-92464103D01*
X213512314Y-92417582D01*
X213436026Y-92354975D01*
X213373419Y-92278687D01*
X213326898Y-92191652D01*
X213298250Y-92097213D01*
X213291001Y-92023612D01*
X213291000Y-89874389D01*
X213298249Y-89800788D01*
X213326897Y-89706349D01*
X213373418Y-89619313D01*
X213436025Y-89543025D01*
X213512313Y-89480418D01*
X213599348Y-89433897D01*
X213693787Y-89405249D01*
X213792000Y-89395576D01*
X213890212Y-89405249D01*
G37*
G36*
X217700212Y-89405249D02*
G01*
X217794651Y-89433897D01*
X217881687Y-89480418D01*
X217957975Y-89543025D01*
X218020582Y-89619313D01*
X218067103Y-89706348D01*
X218095751Y-89800787D01*
X218103000Y-89874388D01*
X218103000Y-92023612D01*
X218095751Y-92097213D01*
X218067103Y-92191652D01*
X218020582Y-92278687D01*
X217957975Y-92354975D01*
X217881687Y-92417582D01*
X217794652Y-92464103D01*
X217700213Y-92492751D01*
X217602000Y-92502424D01*
X217503788Y-92492751D01*
X217409349Y-92464103D01*
X217322314Y-92417582D01*
X217246026Y-92354975D01*
X217183419Y-92278687D01*
X217136898Y-92191652D01*
X217108250Y-92097213D01*
X217101001Y-92023612D01*
X217101000Y-89874389D01*
X217108249Y-89800788D01*
X217136897Y-89706349D01*
X217183418Y-89619313D01*
X217246025Y-89543025D01*
X217322313Y-89480418D01*
X217409348Y-89433897D01*
X217503787Y-89405249D01*
X217602000Y-89395576D01*
X217700212Y-89405249D01*
G37*
G36*
X218970212Y-89405249D02*
G01*
X219064651Y-89433897D01*
X219151687Y-89480418D01*
X219227975Y-89543025D01*
X219290582Y-89619313D01*
X219337103Y-89706348D01*
X219365751Y-89800787D01*
X219373000Y-89874388D01*
X219373000Y-92023612D01*
X219365751Y-92097213D01*
X219337103Y-92191652D01*
X219290582Y-92278687D01*
X219227975Y-92354975D01*
X219151687Y-92417582D01*
X219064652Y-92464103D01*
X218970213Y-92492751D01*
X218872000Y-92502424D01*
X218773788Y-92492751D01*
X218679349Y-92464103D01*
X218592314Y-92417582D01*
X218516026Y-92354975D01*
X218453419Y-92278687D01*
X218406898Y-92191652D01*
X218378250Y-92097213D01*
X218371001Y-92023612D01*
X218371000Y-89874389D01*
X218378249Y-89800788D01*
X218406897Y-89706349D01*
X218453418Y-89619313D01*
X218516025Y-89543025D01*
X218592313Y-89480418D01*
X218679348Y-89433897D01*
X218773787Y-89405249D01*
X218872000Y-89395576D01*
X218970212Y-89405249D01*
G37*
G36*
X211320212Y-89375249D02*
G01*
X211414651Y-89403897D01*
X211501687Y-89450418D01*
X211577975Y-89513025D01*
X211640582Y-89589313D01*
X211687103Y-89676348D01*
X211715751Y-89770787D01*
X211723000Y-89844388D01*
X211723000Y-91993612D01*
X211715751Y-92067213D01*
X211687103Y-92161652D01*
X211640582Y-92248687D01*
X211577975Y-92324975D01*
X211501687Y-92387582D01*
X211414652Y-92434103D01*
X211320213Y-92462751D01*
X211222000Y-92472424D01*
X211123788Y-92462751D01*
X211029349Y-92434103D01*
X210942314Y-92387582D01*
X210866026Y-92324975D01*
X210803419Y-92248687D01*
X210756898Y-92161652D01*
X210728250Y-92067213D01*
X210721001Y-91993612D01*
X210721000Y-89844389D01*
X210728249Y-89770788D01*
X210756897Y-89676349D01*
X210803418Y-89589313D01*
X210866025Y-89513025D01*
X210942313Y-89450418D01*
X211029348Y-89403897D01*
X211123787Y-89375249D01*
X211222000Y-89365576D01*
X211320212Y-89375249D01*
G37*
G36*
X204970212Y-89375249D02*
G01*
X205064651Y-89403897D01*
X205151687Y-89450418D01*
X205227975Y-89513025D01*
X205290582Y-89589313D01*
X205337103Y-89676348D01*
X205365751Y-89770787D01*
X205373000Y-89844388D01*
X205373000Y-91993612D01*
X205365751Y-92067213D01*
X205337103Y-92161652D01*
X205290582Y-92248687D01*
X205227975Y-92324975D01*
X205151687Y-92387582D01*
X205064652Y-92434103D01*
X204970213Y-92462751D01*
X204872000Y-92472424D01*
X204773788Y-92462751D01*
X204679349Y-92434103D01*
X204592314Y-92387582D01*
X204516026Y-92324975D01*
X204453419Y-92248687D01*
X204406898Y-92161652D01*
X204378250Y-92067213D01*
X204371001Y-91993612D01*
X204371000Y-89844389D01*
X204378249Y-89770788D01*
X204406897Y-89676349D01*
X204453418Y-89589313D01*
X204516025Y-89513025D01*
X204592313Y-89450418D01*
X204679348Y-89403897D01*
X204773787Y-89375249D01*
X204872000Y-89365576D01*
X204970212Y-89375249D01*
G37*
G36*
X210050212Y-89375249D02*
G01*
X210144651Y-89403897D01*
X210231687Y-89450418D01*
X210307975Y-89513025D01*
X210370582Y-89589313D01*
X210417103Y-89676348D01*
X210445751Y-89770787D01*
X210453000Y-89844388D01*
X210453000Y-91993612D01*
X210445751Y-92067213D01*
X210417103Y-92161652D01*
X210370582Y-92248687D01*
X210307975Y-92324975D01*
X210231687Y-92387582D01*
X210144652Y-92434103D01*
X210050213Y-92462751D01*
X209952000Y-92472424D01*
X209853788Y-92462751D01*
X209759349Y-92434103D01*
X209672314Y-92387582D01*
X209596026Y-92324975D01*
X209533419Y-92248687D01*
X209486898Y-92161652D01*
X209458250Y-92067213D01*
X209451001Y-91993612D01*
X209451000Y-89844389D01*
X209458249Y-89770788D01*
X209486897Y-89676349D01*
X209533418Y-89589313D01*
X209596025Y-89513025D01*
X209672313Y-89450418D01*
X209759348Y-89403897D01*
X209853787Y-89375249D01*
X209952000Y-89365576D01*
X210050212Y-89375249D01*
G37*
G36*
X208780212Y-89375249D02*
G01*
X208874651Y-89403897D01*
X208961687Y-89450418D01*
X209037975Y-89513025D01*
X209100582Y-89589313D01*
X209147103Y-89676348D01*
X209175751Y-89770787D01*
X209183000Y-89844388D01*
X209183000Y-91993612D01*
X209175751Y-92067213D01*
X209147103Y-92161652D01*
X209100582Y-92248687D01*
X209037975Y-92324975D01*
X208961687Y-92387582D01*
X208874652Y-92434103D01*
X208780213Y-92462751D01*
X208682000Y-92472424D01*
X208583788Y-92462751D01*
X208489349Y-92434103D01*
X208402314Y-92387582D01*
X208326026Y-92324975D01*
X208263419Y-92248687D01*
X208216898Y-92161652D01*
X208188250Y-92067213D01*
X208181001Y-91993612D01*
X208181000Y-89844389D01*
X208188249Y-89770788D01*
X208216897Y-89676349D01*
X208263418Y-89589313D01*
X208326025Y-89513025D01*
X208402313Y-89450418D01*
X208489348Y-89403897D01*
X208583787Y-89375249D01*
X208682000Y-89365576D01*
X208780212Y-89375249D01*
G37*
G36*
X207510212Y-89375249D02*
G01*
X207604651Y-89403897D01*
X207691687Y-89450418D01*
X207767975Y-89513025D01*
X207830582Y-89589313D01*
X207877103Y-89676348D01*
X207905751Y-89770787D01*
X207913000Y-89844388D01*
X207913000Y-91993612D01*
X207905751Y-92067213D01*
X207877103Y-92161652D01*
X207830582Y-92248687D01*
X207767975Y-92324975D01*
X207691687Y-92387582D01*
X207604652Y-92434103D01*
X207510213Y-92462751D01*
X207412000Y-92472424D01*
X207313788Y-92462751D01*
X207219349Y-92434103D01*
X207132314Y-92387582D01*
X207056026Y-92324975D01*
X206993419Y-92248687D01*
X206946898Y-92161652D01*
X206918250Y-92067213D01*
X206911001Y-91993612D01*
X206911000Y-89844389D01*
X206918249Y-89770788D01*
X206946897Y-89676349D01*
X206993418Y-89589313D01*
X207056025Y-89513025D01*
X207132313Y-89450418D01*
X207219348Y-89403897D01*
X207313787Y-89375249D01*
X207412000Y-89365576D01*
X207510212Y-89375249D01*
G37*
G36*
X206240212Y-89375249D02*
G01*
X206334651Y-89403897D01*
X206421687Y-89450418D01*
X206497975Y-89513025D01*
X206560582Y-89589313D01*
X206607103Y-89676348D01*
X206635751Y-89770787D01*
X206643000Y-89844388D01*
X206643000Y-91993612D01*
X206635751Y-92067213D01*
X206607103Y-92161652D01*
X206560582Y-92248687D01*
X206497975Y-92324975D01*
X206421687Y-92387582D01*
X206334652Y-92434103D01*
X206240213Y-92462751D01*
X206142000Y-92472424D01*
X206043788Y-92462751D01*
X205949349Y-92434103D01*
X205862314Y-92387582D01*
X205786026Y-92324975D01*
X205723419Y-92248687D01*
X205676898Y-92161652D01*
X205648250Y-92067213D01*
X205641001Y-91993612D01*
X205641000Y-89844389D01*
X205648249Y-89770788D01*
X205676897Y-89676349D01*
X205723418Y-89589313D01*
X205786025Y-89513025D01*
X205862313Y-89450418D01*
X205949348Y-89403897D01*
X206043787Y-89375249D01*
X206142000Y-89365576D01*
X206240212Y-89375249D01*
G37*
G36*
X203700212Y-89375249D02*
G01*
X203794651Y-89403897D01*
X203881687Y-89450418D01*
X203957975Y-89513025D01*
X204020582Y-89589313D01*
X204067103Y-89676348D01*
X204095751Y-89770787D01*
X204103000Y-89844388D01*
X204103000Y-91993612D01*
X204095751Y-92067213D01*
X204067103Y-92161652D01*
X204020582Y-92248687D01*
X203957975Y-92324975D01*
X203881687Y-92387582D01*
X203794652Y-92434103D01*
X203700213Y-92462751D01*
X203602000Y-92472424D01*
X203503788Y-92462751D01*
X203409349Y-92434103D01*
X203322314Y-92387582D01*
X203246026Y-92324975D01*
X203183419Y-92248687D01*
X203136898Y-92161652D01*
X203108250Y-92067213D01*
X203101001Y-91993612D01*
X203101000Y-89844389D01*
X203108249Y-89770788D01*
X203136897Y-89676349D01*
X203183418Y-89589313D01*
X203246025Y-89513025D01*
X203322313Y-89450418D01*
X203409348Y-89403897D01*
X203503787Y-89375249D01*
X203602000Y-89365576D01*
X203700212Y-89375249D01*
G37*
G36*
X201160212Y-89375249D02*
G01*
X201254651Y-89403897D01*
X201341687Y-89450418D01*
X201417975Y-89513025D01*
X201480582Y-89589313D01*
X201527103Y-89676348D01*
X201555751Y-89770787D01*
X201563000Y-89844388D01*
X201563000Y-91993612D01*
X201555751Y-92067213D01*
X201527103Y-92161652D01*
X201480582Y-92248687D01*
X201417975Y-92324975D01*
X201341687Y-92387582D01*
X201254652Y-92434103D01*
X201160213Y-92462751D01*
X201062000Y-92472424D01*
X200963788Y-92462751D01*
X200869349Y-92434103D01*
X200782314Y-92387582D01*
X200706026Y-92324975D01*
X200643419Y-92248687D01*
X200596898Y-92161652D01*
X200568250Y-92067213D01*
X200561001Y-91993612D01*
X200561000Y-89844389D01*
X200568249Y-89770788D01*
X200596897Y-89676349D01*
X200643418Y-89589313D01*
X200706025Y-89513025D01*
X200782313Y-89450418D01*
X200869348Y-89403897D01*
X200963787Y-89375249D01*
X201062000Y-89365576D01*
X201160212Y-89375249D01*
G37*
G36*
X199890212Y-89375249D02*
G01*
X199984651Y-89403897D01*
X200071687Y-89450418D01*
X200147975Y-89513025D01*
X200210582Y-89589313D01*
X200257103Y-89676348D01*
X200285751Y-89770787D01*
X200293000Y-89844388D01*
X200293000Y-91993612D01*
X200285751Y-92067213D01*
X200257103Y-92161652D01*
X200210582Y-92248687D01*
X200147975Y-92324975D01*
X200071687Y-92387582D01*
X199984652Y-92434103D01*
X199890213Y-92462751D01*
X199792000Y-92472424D01*
X199693788Y-92462751D01*
X199599349Y-92434103D01*
X199512314Y-92387582D01*
X199436026Y-92324975D01*
X199373419Y-92248687D01*
X199326898Y-92161652D01*
X199298250Y-92067213D01*
X199291001Y-91993612D01*
X199291000Y-89844389D01*
X199298249Y-89770788D01*
X199326897Y-89676349D01*
X199373418Y-89589313D01*
X199436025Y-89513025D01*
X199512313Y-89450418D01*
X199599348Y-89403897D01*
X199693787Y-89375249D01*
X199792000Y-89365576D01*
X199890212Y-89375249D01*
G37*
G36*
X198620212Y-89375249D02*
G01*
X198714651Y-89403897D01*
X198801687Y-89450418D01*
X198877975Y-89513025D01*
X198940582Y-89589313D01*
X198987103Y-89676348D01*
X199015751Y-89770787D01*
X199023000Y-89844388D01*
X199023000Y-91993612D01*
X199015751Y-92067213D01*
X198987103Y-92161652D01*
X198940582Y-92248687D01*
X198877975Y-92324975D01*
X198801687Y-92387582D01*
X198714652Y-92434103D01*
X198620213Y-92462751D01*
X198522000Y-92472424D01*
X198423788Y-92462751D01*
X198329349Y-92434103D01*
X198242314Y-92387582D01*
X198166026Y-92324975D01*
X198103419Y-92248687D01*
X198056898Y-92161652D01*
X198028250Y-92067213D01*
X198021001Y-91993612D01*
X198021000Y-89844389D01*
X198028249Y-89770788D01*
X198056897Y-89676349D01*
X198103418Y-89589313D01*
X198166025Y-89513025D01*
X198242313Y-89450418D01*
X198329348Y-89403897D01*
X198423787Y-89375249D01*
X198522000Y-89365576D01*
X198620212Y-89375249D01*
G37*
G36*
X197350212Y-89375249D02*
G01*
X197444651Y-89403897D01*
X197531687Y-89450418D01*
X197607975Y-89513025D01*
X197670582Y-89589313D01*
X197717103Y-89676348D01*
X197745751Y-89770787D01*
X197753000Y-89844388D01*
X197753000Y-91993612D01*
X197745751Y-92067213D01*
X197717103Y-92161652D01*
X197670582Y-92248687D01*
X197607975Y-92324975D01*
X197531687Y-92387582D01*
X197444652Y-92434103D01*
X197350213Y-92462751D01*
X197252000Y-92472424D01*
X197153788Y-92462751D01*
X197059349Y-92434103D01*
X196972314Y-92387582D01*
X196896026Y-92324975D01*
X196833419Y-92248687D01*
X196786898Y-92161652D01*
X196758250Y-92067213D01*
X196751001Y-91993612D01*
X196751000Y-89844389D01*
X196758249Y-89770788D01*
X196786897Y-89676349D01*
X196833418Y-89589313D01*
X196896025Y-89513025D01*
X196972313Y-89450418D01*
X197059348Y-89403897D01*
X197153787Y-89375249D01*
X197252000Y-89365576D01*
X197350212Y-89375249D01*
G37*
G36*
X212590212Y-89375249D02*
G01*
X212684651Y-89403897D01*
X212771687Y-89450418D01*
X212847975Y-89513025D01*
X212910582Y-89589313D01*
X212957103Y-89676348D01*
X212985751Y-89770787D01*
X212993000Y-89844388D01*
X212993000Y-91993612D01*
X212985751Y-92067213D01*
X212957103Y-92161652D01*
X212910582Y-92248687D01*
X212847975Y-92324975D01*
X212771687Y-92387582D01*
X212684652Y-92434103D01*
X212590213Y-92462751D01*
X212492000Y-92472424D01*
X212393788Y-92462751D01*
X212299349Y-92434103D01*
X212212314Y-92387582D01*
X212136026Y-92324975D01*
X212073419Y-92248687D01*
X212026898Y-92161652D01*
X211998250Y-92067213D01*
X211991001Y-91993612D01*
X211991000Y-89844389D01*
X211998249Y-89770788D01*
X212026897Y-89676349D01*
X212073418Y-89589313D01*
X212136025Y-89513025D01*
X212212313Y-89450418D01*
X212299348Y-89403897D01*
X212393787Y-89375249D01*
X212492000Y-89365576D01*
X212590212Y-89375249D01*
G37*
G36*
X196080212Y-89375249D02*
G01*
X196174651Y-89403897D01*
X196261687Y-89450418D01*
X196337975Y-89513025D01*
X196400582Y-89589313D01*
X196447103Y-89676348D01*
X196475751Y-89770787D01*
X196483000Y-89844388D01*
X196483000Y-91993612D01*
X196475751Y-92067213D01*
X196447103Y-92161652D01*
X196400582Y-92248687D01*
X196337975Y-92324975D01*
X196261687Y-92387582D01*
X196174652Y-92434103D01*
X196080213Y-92462751D01*
X195982000Y-92472424D01*
X195883788Y-92462751D01*
X195789349Y-92434103D01*
X195702314Y-92387582D01*
X195626026Y-92324975D01*
X195563419Y-92248687D01*
X195516898Y-92161652D01*
X195488250Y-92067213D01*
X195481001Y-91993612D01*
X195481000Y-89844389D01*
X195488249Y-89770788D01*
X195516897Y-89676349D01*
X195563418Y-89589313D01*
X195626025Y-89513025D01*
X195702313Y-89450418D01*
X195789348Y-89403897D01*
X195883787Y-89375249D01*
X195982000Y-89365576D01*
X196080212Y-89375249D01*
G37*
G36*
X202430212Y-89375249D02*
G01*
X202524651Y-89403897D01*
X202611687Y-89450418D01*
X202687975Y-89513025D01*
X202750582Y-89589313D01*
X202797103Y-89676348D01*
X202825751Y-89770787D01*
X202833000Y-89844388D01*
X202833000Y-91993612D01*
X202825751Y-92067213D01*
X202797103Y-92161652D01*
X202750582Y-92248687D01*
X202687975Y-92324975D01*
X202611687Y-92387582D01*
X202524652Y-92434103D01*
X202430213Y-92462751D01*
X202332000Y-92472424D01*
X202233788Y-92462751D01*
X202139349Y-92434103D01*
X202052314Y-92387582D01*
X201976026Y-92324975D01*
X201913419Y-92248687D01*
X201866898Y-92161652D01*
X201838250Y-92067213D01*
X201831001Y-91993612D01*
X201831000Y-89844389D01*
X201838249Y-89770788D01*
X201866897Y-89676349D01*
X201913418Y-89589313D01*
X201976025Y-89513025D01*
X202052313Y-89450418D01*
X202139348Y-89403897D01*
X202233787Y-89375249D01*
X202332000Y-89365576D01*
X202430212Y-89375249D01*
G37*
G36*
X179902000Y-89639000D02*
G01*
X179000000Y-89639000D01*
X179000000Y-88637000D01*
X179902000Y-88637000D01*
X179902000Y-89639000D01*
G37*
G36*
X241780000Y-89624000D02*
G01*
X239678000Y-89624000D01*
X239678000Y-87922000D01*
X241780000Y-87922000D01*
X241780000Y-89624000D01*
G37*
G36*
X245780000Y-89624000D02*
G01*
X243678000Y-89624000D01*
X243678000Y-87922000D01*
X245780000Y-87922000D01*
X245780000Y-89624000D01*
G37*
G36*
X227419000Y-88490000D02*
G01*
X225717000Y-88490000D01*
X225717000Y-86388000D01*
X227419000Y-86388000D01*
X227419000Y-88490000D01*
G37*
G36*
X231483000Y-88490000D02*
G01*
X229781000Y-88490000D01*
X229781000Y-86388000D01*
X231483000Y-86388000D01*
X231483000Y-88490000D01*
G37*
G36*
X221681000Y-88257000D02*
G01*
X220279000Y-88257000D01*
X220279000Y-86655000D01*
X221681000Y-86655000D01*
X221681000Y-88257000D01*
G37*
G36*
X224475000Y-88257000D02*
G01*
X223073000Y-88257000D01*
X223073000Y-86655000D01*
X224475000Y-86655000D01*
X224475000Y-88257000D01*
G37*
G36*
X234254000Y-88210000D02*
G01*
X232852000Y-88210000D01*
X232852000Y-86608000D01*
X234254000Y-86608000D01*
X234254000Y-88210000D01*
G37*
G36*
X236921000Y-88210000D02*
G01*
X235519000Y-88210000D01*
X235519000Y-86608000D01*
X236921000Y-86608000D01*
X236921000Y-88210000D01*
G37*
G36*
X180852000Y-87639000D02*
G01*
X179950000Y-87639000D01*
X179950000Y-86637000D01*
X180852000Y-86637000D01*
X180852000Y-87639000D01*
G37*
G36*
X178952000Y-87639000D02*
G01*
X178050000Y-87639000D01*
X178050000Y-86637000D01*
X178952000Y-86637000D01*
X178952000Y-87639000D01*
G37*
G36*
X213733000Y-87061000D02*
G01*
X212131000Y-87061000D01*
X212131000Y-85659000D01*
X213733000Y-85659000D01*
X213733000Y-87061000D01*
G37*
G36*
X211033000Y-87061000D02*
G01*
X209431000Y-87061000D01*
X209431000Y-85659000D01*
X211033000Y-85659000D01*
X211033000Y-87061000D01*
G37*
G36*
X205368000Y-86745000D02*
G01*
X204366000Y-86745000D01*
X204366000Y-85843000D01*
X205368000Y-85843000D01*
X205368000Y-86745000D01*
G37*
G36*
X207368000Y-85795000D02*
G01*
X206366000Y-85795000D01*
X206366000Y-84893000D01*
X207368000Y-84893000D01*
X207368000Y-85795000D01*
G37*
G36*
X221681000Y-85557000D02*
G01*
X220279000Y-85557000D01*
X220279000Y-83955000D01*
X221681000Y-83955000D01*
X221681000Y-85557000D01*
G37*
G36*
X234254000Y-85557000D02*
G01*
X232852000Y-85557000D01*
X232852000Y-83955000D01*
X234254000Y-83955000D01*
X234254000Y-85557000D01*
G37*
G36*
X224475000Y-85557000D02*
G01*
X223073000Y-85557000D01*
X223073000Y-83955000D01*
X224475000Y-83955000D01*
X224475000Y-85557000D01*
G37*
G36*
X236921000Y-85510000D02*
G01*
X235519000Y-85510000D01*
X235519000Y-83908000D01*
X236921000Y-83908000D01*
X236921000Y-85510000D01*
G37*
G36*
X191542000Y-85006000D02*
G01*
X185140000Y-85006000D01*
X185140000Y-83454000D01*
X191542000Y-83454000D01*
X191542000Y-85006000D01*
G37*
G36*
X205368000Y-84845000D02*
G01*
X204366000Y-84845000D01*
X204366000Y-83943000D01*
X205368000Y-83943000D01*
X205368000Y-84845000D01*
G37*
G36*
X211033000Y-84648000D02*
G01*
X209431000Y-84648000D01*
X209431000Y-83246000D01*
X211033000Y-83246000D01*
X211033000Y-84648000D01*
G37*
G36*
X213733000Y-84648000D02*
G01*
X212131000Y-84648000D01*
X212131000Y-83246000D01*
X213733000Y-83246000D01*
X213733000Y-84648000D01*
G37*
G36*
X177206000Y-84601000D02*
G01*
X175854000Y-84601000D01*
X175854000Y-82999000D01*
X177206000Y-82999000D01*
X177206000Y-84601000D01*
G37*
G36*
X180152000Y-84574000D02*
G01*
X178750000Y-84574000D01*
X178750000Y-82972000D01*
X180152000Y-82972000D01*
X180152000Y-84574000D01*
G37*
G36*
X231483000Y-84490000D02*
G01*
X229781000Y-84490000D01*
X229781000Y-82388000D01*
X231483000Y-82388000D01*
X231483000Y-84490000D01*
G37*
G36*
X227419000Y-84490000D02*
G01*
X225717000Y-84490000D01*
X225717000Y-82388000D01*
X227419000Y-82388000D01*
X227419000Y-84490000D01*
G37*
G36*
X242616000Y-82941000D02*
G01*
X238714000Y-82941000D01*
X238714000Y-80839000D01*
X242616000Y-80839000D01*
X242616000Y-82941000D01*
G37*
G36*
X177206000Y-82101000D02*
G01*
X175854000Y-82101000D01*
X175854000Y-80499000D01*
X177206000Y-80499000D01*
X177206000Y-82101000D01*
G37*
G36*
X199175000Y-82083000D02*
G01*
X197573000Y-82083000D01*
X197573000Y-80731000D01*
X199175000Y-80731000D01*
X199175000Y-82083000D01*
G37*
G36*
X196675000Y-82083000D02*
G01*
X195073000Y-82083000D01*
X195073000Y-80731000D01*
X196675000Y-80731000D01*
X196675000Y-82083000D01*
G37*
G36*
X216728000Y-82034000D02*
G01*
X215326000Y-82034000D01*
X215326000Y-80432000D01*
X216728000Y-80432000D01*
X216728000Y-82034000D01*
G37*
G36*
X212664000Y-82034000D02*
G01*
X211262000Y-82034000D01*
X211262000Y-80432000D01*
X212664000Y-80432000D01*
X212664000Y-82034000D01*
G37*
G36*
X180152000Y-81874000D02*
G01*
X178750000Y-81874000D01*
X178750000Y-80272000D01*
X180152000Y-80272000D01*
X180152000Y-81874000D01*
G37*
G36*
X230200370Y-77845970D02*
G01*
X230436186Y-77917503D01*
X230653513Y-78033667D01*
X230844002Y-78189998D01*
X231000333Y-78380487D01*
X231116497Y-78597814D01*
X231188030Y-78833630D01*
X231212185Y-79078868D01*
X231188030Y-79324107D01*
X231116497Y-79559921D01*
X231000333Y-79777249D01*
X230883179Y-79920001D01*
X230372001Y-80431179D01*
X230229249Y-80548333D01*
X230011921Y-80664497D01*
X229776106Y-80736030D01*
X229530868Y-80760185D01*
X229285630Y-80736030D01*
X229049815Y-80664497D01*
X228832487Y-80548333D01*
X228641998Y-80392002D01*
X228485667Y-80201513D01*
X228369503Y-79984185D01*
X228297970Y-79748370D01*
X228273815Y-79503132D01*
X228297970Y-79257894D01*
X228369503Y-79022079D01*
X228485667Y-78804751D01*
X228602821Y-78661999D01*
X229113999Y-78150821D01*
X229256751Y-78033667D01*
X229474079Y-77917503D01*
X229709893Y-77845970D01*
X229955132Y-77821815D01*
X230200370Y-77845970D01*
G37*
G36*
X247739000Y-80648000D02*
G01*
X246037000Y-80648000D01*
X246037000Y-78546000D01*
X247739000Y-78546000D01*
X247739000Y-80648000D01*
G37*
G36*
X216728000Y-79334000D02*
G01*
X215326000Y-79334000D01*
X215326000Y-77732000D01*
X216728000Y-77732000D01*
X216728000Y-79334000D01*
G37*
G36*
X212664000Y-79334000D02*
G01*
X211262000Y-79334000D01*
X211262000Y-77732000D01*
X212664000Y-77732000D01*
X212664000Y-79334000D01*
G37*
G36*
X191542000Y-79106000D02*
G01*
X185140000Y-79106000D01*
X185140000Y-77554000D01*
X191542000Y-77554000D01*
X191542000Y-79106000D01*
G37*
G36*
X230200370Y-72345970D02*
G01*
X230436186Y-72417503D01*
X230653513Y-72533667D01*
X230844002Y-72689998D01*
X231000333Y-72880487D01*
X231116497Y-73097814D01*
X231188030Y-73333630D01*
X231212185Y-73578868D01*
X231188030Y-73824107D01*
X231132247Y-74008000D01*
X231116496Y-74059924D01*
X231042461Y-74198433D01*
X231033083Y-74221072D01*
X231028303Y-74245105D01*
X231028303Y-74269609D01*
X231033083Y-74293642D01*
X231042461Y-74316281D01*
X231056074Y-74336655D01*
X231073401Y-74353983D01*
X231093776Y-74367596D01*
X231116415Y-74376974D01*
X231140448Y-74381754D01*
X231164952Y-74381754D01*
X231188985Y-74376974D01*
X231211624Y-74367596D01*
X231231989Y-74353988D01*
X231256751Y-74333667D01*
X231474079Y-74217503D01*
X231709893Y-74145970D01*
X231955132Y-74121815D01*
X232200370Y-74145970D01*
X232436186Y-74217503D01*
X232653513Y-74333667D01*
X232844002Y-74489998D01*
X233000333Y-74680487D01*
X233116497Y-74897814D01*
X233188030Y-75133630D01*
X233212185Y-75378868D01*
X233188030Y-75624107D01*
X233116497Y-75859921D01*
X233000333Y-76077249D01*
X232883179Y-76220001D01*
X232372001Y-76731179D01*
X232229249Y-76848333D01*
X232011921Y-76964497D01*
X231776106Y-77036030D01*
X231530868Y-77060185D01*
X231285630Y-77036030D01*
X231049815Y-76964497D01*
X230832487Y-76848333D01*
X230641998Y-76692002D01*
X230485667Y-76501513D01*
X230369503Y-76284185D01*
X230297970Y-76048370D01*
X230273815Y-75803132D01*
X230297970Y-75557894D01*
X230369503Y-75322079D01*
X230369504Y-75322076D01*
X230443539Y-75183567D01*
X230452917Y-75160928D01*
X230457697Y-75136895D01*
X230457697Y-75112391D01*
X230452917Y-75088358D01*
X230443539Y-75065719D01*
X230429926Y-75045345D01*
X230412599Y-75028017D01*
X230392224Y-75014404D01*
X230369585Y-75005026D01*
X230345552Y-75000246D01*
X230321048Y-75000246D01*
X230297015Y-75005026D01*
X230274376Y-75014404D01*
X230254011Y-75028012D01*
X230229249Y-75048333D01*
X230011921Y-75164497D01*
X229776106Y-75236030D01*
X229530868Y-75260185D01*
X229285630Y-75236030D01*
X229049815Y-75164497D01*
X228832487Y-75048333D01*
X228641998Y-74892002D01*
X228485667Y-74701513D01*
X228369503Y-74484185D01*
X228297970Y-74248370D01*
X228273815Y-74003132D01*
X228297970Y-73757894D01*
X228369503Y-73522079D01*
X228485667Y-73304751D01*
X228602821Y-73161999D01*
X229113999Y-72650821D01*
X229256751Y-72533667D01*
X229474079Y-72417503D01*
X229709893Y-72345970D01*
X229955132Y-72321815D01*
X230200370Y-72345970D01*
G37*
G36*
X247739000Y-76648000D02*
G01*
X246037000Y-76648000D01*
X246037000Y-74546000D01*
X247739000Y-74546000D01*
X247739000Y-76648000D01*
G37*
G36*
X241466000Y-76641000D02*
G01*
X239864000Y-76641000D01*
X239864000Y-74539000D01*
X241466000Y-74539000D01*
X241466000Y-76641000D01*
G37*
G36*
X239166000Y-76641000D02*
G01*
X237564000Y-76641000D01*
X237564000Y-74539000D01*
X239166000Y-74539000D01*
X239166000Y-76641000D01*
G37*
G36*
X243766000Y-76641000D02*
G01*
X242164000Y-76641000D01*
X242164000Y-74539000D01*
X243766000Y-74539000D01*
X243766000Y-76641000D01*
G37*
G36*
X178242022Y-69359847D02*
G01*
X178706388Y-69552194D01*
X178706390Y-69552195D01*
X179124309Y-69831440D01*
X179479720Y-70186851D01*
X179740576Y-70577249D01*
X179758966Y-70604772D01*
X179951313Y-71069138D01*
X180049370Y-71562105D01*
X180049370Y-72064735D01*
X179951313Y-72557702D01*
X179758966Y-73022068D01*
X179758965Y-73022070D01*
X179479720Y-73439989D01*
X179124309Y-73795400D01*
X178706390Y-74074645D01*
X178706389Y-74074646D01*
X178706388Y-74074646D01*
X178242022Y-74266993D01*
X177749055Y-74365050D01*
X177246425Y-74365050D01*
X176753458Y-74266993D01*
X176289092Y-74074646D01*
X176289091Y-74074646D01*
X176289090Y-74074645D01*
X175871171Y-73795400D01*
X175515760Y-73439989D01*
X175236515Y-73022070D01*
X175236514Y-73022068D01*
X175044167Y-72557702D01*
X174946110Y-72064735D01*
X174946110Y-71562105D01*
X175044167Y-71069138D01*
X175236514Y-70604772D01*
X175254904Y-70577249D01*
X175515760Y-70186851D01*
X175871171Y-69831440D01*
X176289090Y-69552195D01*
X176289092Y-69552194D01*
X176753458Y-69359847D01*
X177246425Y-69261790D01*
X177749055Y-69261790D01*
X178242022Y-69359847D01*
G37*
G36*
X203230542Y-69359847D02*
G01*
X203694908Y-69552194D01*
X203694910Y-69552195D01*
X204112829Y-69831440D01*
X204468240Y-70186851D01*
X204729096Y-70577249D01*
X204747486Y-70604772D01*
X204939833Y-71069138D01*
X205037890Y-71562105D01*
X205037890Y-72064735D01*
X204939833Y-72557702D01*
X204747486Y-73022068D01*
X204747485Y-73022070D01*
X204468240Y-73439989D01*
X204112829Y-73795400D01*
X203694910Y-74074645D01*
X203694909Y-74074646D01*
X203694908Y-74074646D01*
X203230542Y-74266993D01*
X202737575Y-74365050D01*
X202234945Y-74365050D01*
X201741978Y-74266993D01*
X201277612Y-74074646D01*
X201277611Y-74074646D01*
X201277610Y-74074645D01*
X200859691Y-73795400D01*
X200504280Y-73439989D01*
X200225035Y-73022070D01*
X200225034Y-73022068D01*
X200032687Y-72557702D01*
X199934630Y-72064735D01*
X199934630Y-71562105D01*
X200032687Y-71069138D01*
X200225034Y-70604772D01*
X200243424Y-70577249D01*
X200504280Y-70186851D01*
X200859691Y-69831440D01*
X201277610Y-69552195D01*
X201277612Y-69552194D01*
X201741978Y-69359847D01*
X202234945Y-69261790D01*
X202737575Y-69261790D01*
X203230542Y-69359847D01*
G37*
G36*
X219040228Y-72638703D02*
G01*
X219195100Y-72702853D01*
X219334481Y-72795985D01*
X219453015Y-72914519D01*
X219546147Y-73053900D01*
X219610297Y-73208772D01*
X219623383Y-73274561D01*
X219630493Y-73298000D01*
X219642044Y-73319611D01*
X219657589Y-73338553D01*
X219676531Y-73354098D01*
X219698142Y-73365649D01*
X219721591Y-73372762D01*
X219745977Y-73375164D01*
X219770363Y-73372762D01*
X219793812Y-73365649D01*
X219815423Y-73354098D01*
X219834365Y-73338553D01*
X219849910Y-73319611D01*
X219861461Y-73298000D01*
X219903709Y-73196005D01*
X219964009Y-73105760D01*
X219964010Y-73105758D01*
X220040758Y-73029010D01*
X220131004Y-72968710D01*
X220131005Y-72968709D01*
X220231279Y-72927174D01*
X220337730Y-72906000D01*
X220446270Y-72906000D01*
X220552721Y-72927174D01*
X220652995Y-72968709D01*
X220652996Y-72968710D01*
X220743242Y-73029010D01*
X220819990Y-73105758D01*
X220819991Y-73105760D01*
X220880291Y-73196005D01*
X220921826Y-73296279D01*
X220943000Y-73402730D01*
X220943000Y-73511270D01*
X220921826Y-73617721D01*
X220880291Y-73717995D01*
X220853631Y-73757894D01*
X220819990Y-73808242D01*
X220743242Y-73884990D01*
X220697812Y-73915345D01*
X220652995Y-73945291D01*
X220552721Y-73986826D01*
X220446270Y-74008000D01*
X220337730Y-74008000D01*
X220231279Y-73986826D01*
X220131005Y-73945291D01*
X220086188Y-73915345D01*
X220040758Y-73884990D01*
X219964010Y-73808242D01*
X219930369Y-73757894D01*
X219903709Y-73717995D01*
X219861461Y-73616000D01*
X219849910Y-73594389D01*
X219834365Y-73575447D01*
X219815423Y-73559902D01*
X219793812Y-73548351D01*
X219770363Y-73541238D01*
X219745977Y-73538836D01*
X219721591Y-73541238D01*
X219698142Y-73548351D01*
X219676531Y-73559902D01*
X219657589Y-73575447D01*
X219642044Y-73594389D01*
X219630493Y-73616000D01*
X219623383Y-73639439D01*
X219610297Y-73705228D01*
X219546147Y-73860100D01*
X219453015Y-73999481D01*
X219334481Y-74118015D01*
X219195100Y-74211147D01*
X219040228Y-74275297D01*
X218875816Y-74308000D01*
X218708184Y-74308000D01*
X218543772Y-74275297D01*
X218388900Y-74211147D01*
X218249519Y-74118015D01*
X218130985Y-73999481D01*
X218037853Y-73860100D01*
X217973703Y-73705228D01*
X217941000Y-73540816D01*
X217941000Y-73373184D01*
X217973703Y-73208772D01*
X218037853Y-73053900D01*
X218130985Y-72914519D01*
X218249519Y-72795985D01*
X218388900Y-72702853D01*
X218543772Y-72638703D01*
X218708184Y-72606000D01*
X218875816Y-72606000D01*
X219040228Y-72638703D01*
G37*
G36*
X212240228Y-72638703D02*
G01*
X212395100Y-72702853D01*
X212534481Y-72795985D01*
X212653015Y-72914519D01*
X212746147Y-73053900D01*
X212810297Y-73208772D01*
X212843000Y-73373184D01*
X212843000Y-73540816D01*
X212810297Y-73705228D01*
X212746147Y-73860100D01*
X212653015Y-73999481D01*
X212534481Y-74118015D01*
X212395100Y-74211147D01*
X212240228Y-74275297D01*
X212075816Y-74308000D01*
X211908184Y-74308000D01*
X211743772Y-74275297D01*
X211588900Y-74211147D01*
X211449519Y-74118015D01*
X211330985Y-73999481D01*
X211237853Y-73860100D01*
X211173703Y-73705228D01*
X211160617Y-73639439D01*
X211153507Y-73616000D01*
X211141956Y-73594389D01*
X211126411Y-73575447D01*
X211107469Y-73559902D01*
X211085858Y-73548351D01*
X211062409Y-73541238D01*
X211038023Y-73538836D01*
X211013637Y-73541238D01*
X210990188Y-73548351D01*
X210968577Y-73559902D01*
X210949635Y-73575447D01*
X210934090Y-73594389D01*
X210922539Y-73616000D01*
X210880291Y-73717995D01*
X210853631Y-73757894D01*
X210819990Y-73808242D01*
X210743242Y-73884990D01*
X210697812Y-73915345D01*
X210652995Y-73945291D01*
X210552721Y-73986826D01*
X210446270Y-74008000D01*
X210337730Y-74008000D01*
X210231279Y-73986826D01*
X210131005Y-73945291D01*
X210086188Y-73915345D01*
X210040758Y-73884990D01*
X209964010Y-73808242D01*
X209930369Y-73757894D01*
X209903709Y-73717995D01*
X209862174Y-73617721D01*
X209841000Y-73511270D01*
X209841000Y-73402730D01*
X209862174Y-73296279D01*
X209903709Y-73196005D01*
X209964009Y-73105760D01*
X209964010Y-73105758D01*
X210040758Y-73029010D01*
X210131004Y-72968710D01*
X210131005Y-72968709D01*
X210231279Y-72927174D01*
X210337730Y-72906000D01*
X210446270Y-72906000D01*
X210552721Y-72927174D01*
X210652995Y-72968709D01*
X210652996Y-72968710D01*
X210743242Y-73029010D01*
X210819990Y-73105758D01*
X210819991Y-73105760D01*
X210880291Y-73196005D01*
X210922539Y-73298000D01*
X210934090Y-73319611D01*
X210949635Y-73338553D01*
X210968577Y-73354098D01*
X210990188Y-73365649D01*
X211013637Y-73372762D01*
X211038023Y-73375164D01*
X211062409Y-73372762D01*
X211085858Y-73365649D01*
X211107469Y-73354098D01*
X211126411Y-73338553D01*
X211141956Y-73319611D01*
X211153507Y-73298000D01*
X211160617Y-73274561D01*
X211173703Y-73208772D01*
X211237853Y-73053900D01*
X211330985Y-72914519D01*
X211449519Y-72795985D01*
X211588900Y-72702853D01*
X211743772Y-72638703D01*
X211908184Y-72606000D01*
X212075816Y-72606000D01*
X212240228Y-72638703D01*
G37*
G36*
X185808514Y-72894458D02*
G01*
X185871346Y-72906956D01*
X185920156Y-72927174D01*
X185989720Y-72955988D01*
X186096249Y-73027168D01*
X186186852Y-73117771D01*
X186258032Y-73224300D01*
X186258032Y-73224301D01*
X186307064Y-73342674D01*
X186332060Y-73468337D01*
X186332060Y-73596463D01*
X186307886Y-73717996D01*
X186307064Y-73722125D01*
X186258032Y-73840500D01*
X186186852Y-73947029D01*
X186096249Y-74037632D01*
X185989720Y-74108812D01*
X185871346Y-74157844D01*
X185745684Y-74182840D01*
X185617556Y-74182840D01*
X185491894Y-74157844D01*
X185373520Y-74108812D01*
X185266991Y-74037632D01*
X185176388Y-73947029D01*
X185105208Y-73840500D01*
X185056176Y-73722125D01*
X185055355Y-73717996D01*
X185031180Y-73596463D01*
X185031180Y-73468337D01*
X185056176Y-73342674D01*
X185105208Y-73224301D01*
X185105208Y-73224300D01*
X185176388Y-73117771D01*
X185266991Y-73027168D01*
X185373520Y-72955988D01*
X185443084Y-72927174D01*
X185491894Y-72906956D01*
X185554726Y-72894458D01*
X185617556Y-72881960D01*
X185745684Y-72881960D01*
X185808514Y-72894458D01*
G37*
G36*
X188099594Y-72894458D02*
G01*
X188162426Y-72906956D01*
X188211236Y-72927174D01*
X188280800Y-72955988D01*
X188387329Y-73027168D01*
X188477932Y-73117771D01*
X188549112Y-73224300D01*
X188549112Y-73224301D01*
X188598144Y-73342674D01*
X188623140Y-73468337D01*
X188623140Y-73596463D01*
X188598966Y-73717996D01*
X188598144Y-73722125D01*
X188549112Y-73840500D01*
X188477932Y-73947029D01*
X188387329Y-74037632D01*
X188280800Y-74108812D01*
X188162426Y-74157844D01*
X188036764Y-74182840D01*
X187908636Y-74182840D01*
X187782974Y-74157844D01*
X187664600Y-74108812D01*
X187558071Y-74037632D01*
X187467468Y-73947029D01*
X187396288Y-73840500D01*
X187347256Y-73722125D01*
X187346435Y-73717996D01*
X187322260Y-73596463D01*
X187322260Y-73468337D01*
X187347256Y-73342674D01*
X187396288Y-73224301D01*
X187396288Y-73224300D01*
X187467468Y-73117771D01*
X187558071Y-73027168D01*
X187664600Y-72955988D01*
X187734164Y-72927174D01*
X187782974Y-72906956D01*
X187845806Y-72894458D01*
X187908636Y-72881960D01*
X188036764Y-72881960D01*
X188099594Y-72894458D01*
G37*
G36*
X190385594Y-72894458D02*
G01*
X190448426Y-72906956D01*
X190497236Y-72927174D01*
X190566800Y-72955988D01*
X190673329Y-73027168D01*
X190763932Y-73117771D01*
X190835112Y-73224300D01*
X190835112Y-73224301D01*
X190884144Y-73342674D01*
X190909140Y-73468337D01*
X190909140Y-73596463D01*
X190884966Y-73717996D01*
X190884144Y-73722125D01*
X190835112Y-73840500D01*
X190763932Y-73947029D01*
X190673329Y-74037632D01*
X190566800Y-74108812D01*
X190448426Y-74157844D01*
X190322764Y-74182840D01*
X190194636Y-74182840D01*
X190068974Y-74157844D01*
X189950600Y-74108812D01*
X189844071Y-74037632D01*
X189753468Y-73947029D01*
X189682288Y-73840500D01*
X189633256Y-73722125D01*
X189632435Y-73717996D01*
X189608260Y-73596463D01*
X189608260Y-73468337D01*
X189633256Y-73342674D01*
X189682288Y-73224301D01*
X189682288Y-73224300D01*
X189753468Y-73117771D01*
X189844071Y-73027168D01*
X189950600Y-72955988D01*
X190020164Y-72927174D01*
X190068974Y-72906956D01*
X190131806Y-72894458D01*
X190194636Y-72881960D01*
X190322764Y-72881960D01*
X190385594Y-72894458D01*
G37*
G36*
X194967754Y-72894458D02*
G01*
X195030586Y-72906956D01*
X195079396Y-72927174D01*
X195148960Y-72955988D01*
X195255489Y-73027168D01*
X195346092Y-73117771D01*
X195417272Y-73224300D01*
X195417272Y-73224301D01*
X195466304Y-73342674D01*
X195491300Y-73468337D01*
X195491300Y-73596463D01*
X195467126Y-73717996D01*
X195466304Y-73722125D01*
X195417272Y-73840500D01*
X195346092Y-73947029D01*
X195255489Y-74037632D01*
X195148960Y-74108812D01*
X195030586Y-74157844D01*
X194904924Y-74182840D01*
X194776796Y-74182840D01*
X194651134Y-74157844D01*
X194532760Y-74108812D01*
X194426231Y-74037632D01*
X194335628Y-73947029D01*
X194264448Y-73840500D01*
X194215416Y-73722125D01*
X194214595Y-73717996D01*
X194190420Y-73596463D01*
X194190420Y-73468337D01*
X194215416Y-73342674D01*
X194264448Y-73224301D01*
X194264448Y-73224300D01*
X194335628Y-73117771D01*
X194426231Y-73027168D01*
X194532760Y-72955988D01*
X194602324Y-72927174D01*
X194651134Y-72906956D01*
X194713966Y-72894458D01*
X194776796Y-72881960D01*
X194904924Y-72881960D01*
X194967754Y-72894458D01*
G37*
G36*
X192679214Y-72894458D02*
G01*
X192742046Y-72906956D01*
X192790856Y-72927174D01*
X192860420Y-72955988D01*
X192966949Y-73027168D01*
X193057552Y-73117771D01*
X193128732Y-73224300D01*
X193128732Y-73224301D01*
X193177764Y-73342674D01*
X193202760Y-73468337D01*
X193202760Y-73596463D01*
X193178586Y-73717996D01*
X193177764Y-73722125D01*
X193128732Y-73840500D01*
X193057552Y-73947029D01*
X192966949Y-74037632D01*
X192860420Y-74108812D01*
X192742046Y-74157844D01*
X192616384Y-74182840D01*
X192488256Y-74182840D01*
X192362594Y-74157844D01*
X192244220Y-74108812D01*
X192137691Y-74037632D01*
X192047088Y-73947029D01*
X191975908Y-73840500D01*
X191926876Y-73722125D01*
X191926055Y-73717996D01*
X191901880Y-73596463D01*
X191901880Y-73468337D01*
X191926876Y-73342674D01*
X191975908Y-73224301D01*
X191975908Y-73224300D01*
X192047088Y-73117771D01*
X192137691Y-73027168D01*
X192244220Y-72955988D01*
X192313784Y-72927174D01*
X192362594Y-72906956D01*
X192425426Y-72894458D01*
X192488256Y-72881960D01*
X192616384Y-72881960D01*
X192679214Y-72894458D01*
G37*
G36*
X193890126Y-71142256D02*
G01*
X193949312Y-71166772D01*
X194008500Y-71191288D01*
X194115029Y-71262468D01*
X194205632Y-71353071D01*
X194276812Y-71459600D01*
X194276812Y-71459601D01*
X194318476Y-71560185D01*
X194325844Y-71577975D01*
X194350840Y-71703636D01*
X194350840Y-71831764D01*
X194325844Y-71957425D01*
X194276812Y-72075800D01*
X194205632Y-72182329D01*
X194115029Y-72272932D01*
X194008500Y-72344112D01*
X193949312Y-72368628D01*
X193890126Y-72393144D01*
X193764464Y-72418140D01*
X193636336Y-72418140D01*
X193573506Y-72405642D01*
X193510674Y-72393144D01*
X193392300Y-72344112D01*
X193285771Y-72272932D01*
X193195168Y-72182329D01*
X193123988Y-72075800D01*
X193074956Y-71957425D01*
X193049960Y-71831764D01*
X193049960Y-71703636D01*
X193074956Y-71577975D01*
X193082325Y-71560185D01*
X193123988Y-71459601D01*
X193123988Y-71459600D01*
X193195168Y-71353071D01*
X193285771Y-71262468D01*
X193392300Y-71191288D01*
X193451488Y-71166772D01*
X193510674Y-71142256D01*
X193636336Y-71117260D01*
X193764464Y-71117260D01*
X193890126Y-71142256D01*
G37*
G36*
X191616826Y-71142256D02*
G01*
X191676012Y-71166772D01*
X191735200Y-71191288D01*
X191841729Y-71262468D01*
X191932332Y-71353071D01*
X192003512Y-71459600D01*
X192003512Y-71459601D01*
X192045176Y-71560185D01*
X192052544Y-71577975D01*
X192077540Y-71703636D01*
X192077540Y-71831764D01*
X192052544Y-71957425D01*
X192003512Y-72075800D01*
X191932332Y-72182329D01*
X191841729Y-72272932D01*
X191735200Y-72344112D01*
X191676012Y-72368628D01*
X191616826Y-72393144D01*
X191491164Y-72418140D01*
X191363036Y-72418140D01*
X191300206Y-72405642D01*
X191237374Y-72393144D01*
X191119000Y-72344112D01*
X191012471Y-72272932D01*
X190921868Y-72182329D01*
X190850688Y-72075800D01*
X190801656Y-71957425D01*
X190776660Y-71831764D01*
X190776660Y-71703636D01*
X190801656Y-71577975D01*
X190809025Y-71560185D01*
X190850688Y-71459601D01*
X190850688Y-71459600D01*
X190921868Y-71353071D01*
X191012471Y-71262468D01*
X191119000Y-71191288D01*
X191178188Y-71166772D01*
X191237374Y-71142256D01*
X191363036Y-71117260D01*
X191491164Y-71117260D01*
X191616826Y-71142256D01*
G37*
G36*
X189318126Y-71142256D02*
G01*
X189377312Y-71166772D01*
X189436500Y-71191288D01*
X189543029Y-71262468D01*
X189633632Y-71353071D01*
X189704812Y-71459600D01*
X189704812Y-71459601D01*
X189746476Y-71560185D01*
X189753844Y-71577975D01*
X189778840Y-71703636D01*
X189778840Y-71831764D01*
X189753844Y-71957425D01*
X189704812Y-72075800D01*
X189633632Y-72182329D01*
X189543029Y-72272932D01*
X189436500Y-72344112D01*
X189377312Y-72368628D01*
X189318126Y-72393144D01*
X189192464Y-72418140D01*
X189064336Y-72418140D01*
X189001506Y-72405642D01*
X188938674Y-72393144D01*
X188820300Y-72344112D01*
X188713771Y-72272932D01*
X188623168Y-72182329D01*
X188551988Y-72075800D01*
X188502956Y-71957425D01*
X188477960Y-71831764D01*
X188477960Y-71703636D01*
X188502956Y-71577975D01*
X188510325Y-71560185D01*
X188551988Y-71459601D01*
X188551988Y-71459600D01*
X188623168Y-71353071D01*
X188713771Y-71262468D01*
X188820300Y-71191288D01*
X188879488Y-71166772D01*
X188938674Y-71142256D01*
X189064336Y-71117260D01*
X189192464Y-71117260D01*
X189318126Y-71142256D01*
G37*
G36*
X184725806Y-71142256D02*
G01*
X184784992Y-71166772D01*
X184844180Y-71191288D01*
X184950709Y-71262468D01*
X185041312Y-71353071D01*
X185112492Y-71459600D01*
X185112492Y-71459601D01*
X185154156Y-71560185D01*
X185161524Y-71577975D01*
X185186520Y-71703636D01*
X185186520Y-71831764D01*
X185161524Y-71957425D01*
X185112492Y-72075800D01*
X185041312Y-72182329D01*
X184950709Y-72272932D01*
X184844180Y-72344112D01*
X184784992Y-72368628D01*
X184725806Y-72393144D01*
X184600144Y-72418140D01*
X184472016Y-72418140D01*
X184409186Y-72405642D01*
X184346354Y-72393144D01*
X184227980Y-72344112D01*
X184121451Y-72272932D01*
X184030848Y-72182329D01*
X183959668Y-72075800D01*
X183910636Y-71957425D01*
X183885640Y-71831764D01*
X183885640Y-71703636D01*
X183910636Y-71577975D01*
X183918005Y-71560185D01*
X183959668Y-71459601D01*
X183959668Y-71459600D01*
X184030848Y-71353071D01*
X184121451Y-71262468D01*
X184227980Y-71191288D01*
X184287168Y-71166772D01*
X184346354Y-71142256D01*
X184472016Y-71117260D01*
X184600144Y-71117260D01*
X184725806Y-71142256D01*
G37*
G36*
X187019426Y-71142256D02*
G01*
X187078612Y-71166772D01*
X187137800Y-71191288D01*
X187244329Y-71262468D01*
X187334932Y-71353071D01*
X187406112Y-71459600D01*
X187406112Y-71459601D01*
X187447776Y-71560185D01*
X187455144Y-71577975D01*
X187480140Y-71703636D01*
X187480140Y-71831764D01*
X187455144Y-71957425D01*
X187406112Y-72075800D01*
X187334932Y-72182329D01*
X187244329Y-72272932D01*
X187137800Y-72344112D01*
X187078612Y-72368628D01*
X187019426Y-72393144D01*
X186893764Y-72418140D01*
X186765636Y-72418140D01*
X186702806Y-72405642D01*
X186639974Y-72393144D01*
X186521600Y-72344112D01*
X186415071Y-72272932D01*
X186324468Y-72182329D01*
X186253288Y-72075800D01*
X186204256Y-71957425D01*
X186179260Y-71831764D01*
X186179260Y-71703636D01*
X186204256Y-71577975D01*
X186211625Y-71560185D01*
X186253288Y-71459601D01*
X186253288Y-71459600D01*
X186324468Y-71353071D01*
X186415071Y-71262468D01*
X186521600Y-71191288D01*
X186580788Y-71166772D01*
X186639974Y-71142256D01*
X186765636Y-71117260D01*
X186893764Y-71117260D01*
X187019426Y-71142256D01*
G37*
G36*
X216940228Y-70138703D02*
G01*
X217095100Y-70202853D01*
X217234481Y-70295985D01*
X217353015Y-70414519D01*
X217446147Y-70553900D01*
X217510297Y-70708772D01*
X217543000Y-70873184D01*
X217543000Y-71040816D01*
X217510297Y-71205228D01*
X217446147Y-71360100D01*
X217353015Y-71499481D01*
X217234481Y-71618015D01*
X217095100Y-71711147D01*
X216940228Y-71775297D01*
X216775816Y-71808000D01*
X216608184Y-71808000D01*
X216443772Y-71775297D01*
X216288900Y-71711147D01*
X216149519Y-71618015D01*
X216030985Y-71499481D01*
X215937853Y-71360100D01*
X215873703Y-71205228D01*
X215841000Y-71040816D01*
X215841000Y-70873184D01*
X215873703Y-70708772D01*
X215937853Y-70553900D01*
X216030985Y-70414519D01*
X216149519Y-70295985D01*
X216288900Y-70202853D01*
X216443772Y-70138703D01*
X216608184Y-70106000D01*
X216775816Y-70106000D01*
X216940228Y-70138703D01*
G37*
G36*
X212240228Y-70138703D02*
G01*
X212395100Y-70202853D01*
X212534481Y-70295985D01*
X212653015Y-70414519D01*
X212746147Y-70553900D01*
X212810297Y-70708772D01*
X212843000Y-70873184D01*
X212843000Y-71040816D01*
X212810297Y-71205228D01*
X212746147Y-71360100D01*
X212653015Y-71499481D01*
X212534481Y-71618015D01*
X212395100Y-71711147D01*
X212240228Y-71775297D01*
X212075816Y-71808000D01*
X211908184Y-71808000D01*
X211743772Y-71775297D01*
X211588900Y-71711147D01*
X211449519Y-71618015D01*
X211330985Y-71499481D01*
X211237853Y-71360100D01*
X211173703Y-71205228D01*
X211141000Y-71040816D01*
X211141000Y-70873184D01*
X211173703Y-70708772D01*
X211237853Y-70553900D01*
X211330985Y-70414519D01*
X211449519Y-70295985D01*
X211588900Y-70202853D01*
X211743772Y-70138703D01*
X211908184Y-70106000D01*
X212075816Y-70106000D01*
X212240228Y-70138703D01*
G37*
G36*
X214340228Y-70138703D02*
G01*
X214495100Y-70202853D01*
X214634481Y-70295985D01*
X214753015Y-70414519D01*
X214846147Y-70553900D01*
X214910297Y-70708772D01*
X214943000Y-70873184D01*
X214943000Y-71040816D01*
X214910297Y-71205228D01*
X214846147Y-71360100D01*
X214753015Y-71499481D01*
X214634481Y-71618015D01*
X214495100Y-71711147D01*
X214340228Y-71775297D01*
X214175816Y-71808000D01*
X214008184Y-71808000D01*
X213843772Y-71775297D01*
X213688900Y-71711147D01*
X213549519Y-71618015D01*
X213430985Y-71499481D01*
X213337853Y-71360100D01*
X213273703Y-71205228D01*
X213241000Y-71040816D01*
X213241000Y-70873184D01*
X213273703Y-70708772D01*
X213337853Y-70553900D01*
X213430985Y-70414519D01*
X213549519Y-70295985D01*
X213688900Y-70202853D01*
X213843772Y-70138703D01*
X214008184Y-70106000D01*
X214175816Y-70106000D01*
X214340228Y-70138703D01*
G37*
G36*
X219040228Y-70138703D02*
G01*
X219195100Y-70202853D01*
X219334481Y-70295985D01*
X219453015Y-70414519D01*
X219546147Y-70553900D01*
X219610297Y-70708772D01*
X219643000Y-70873184D01*
X219643000Y-71040816D01*
X219610297Y-71205228D01*
X219546147Y-71360100D01*
X219453015Y-71499481D01*
X219334481Y-71618015D01*
X219195100Y-71711147D01*
X219040228Y-71775297D01*
X218875816Y-71808000D01*
X218708184Y-71808000D01*
X218543772Y-71775297D01*
X218388900Y-71711147D01*
X218249519Y-71618015D01*
X218130985Y-71499481D01*
X218037853Y-71360100D01*
X217973703Y-71205228D01*
X217941000Y-71040816D01*
X217941000Y-70873184D01*
X217973703Y-70708772D01*
X218037853Y-70553900D01*
X218130985Y-70414519D01*
X218249519Y-70295985D01*
X218388900Y-70202853D01*
X218543772Y-70138703D01*
X218708184Y-70106000D01*
X218875816Y-70106000D01*
X219040228Y-70138703D01*
G37*
G36*
X232200370Y-68645970D02*
G01*
X232436186Y-68717503D01*
X232653513Y-68833667D01*
X232844002Y-68989998D01*
X233000333Y-69180487D01*
X233116497Y-69397814D01*
X233188030Y-69633630D01*
X233212185Y-69878868D01*
X233188030Y-70124107D01*
X233116497Y-70359921D01*
X233000333Y-70577249D01*
X232883179Y-70720001D01*
X232372001Y-71231179D01*
X232229249Y-71348333D01*
X232011921Y-71464497D01*
X231776106Y-71536030D01*
X231530868Y-71560185D01*
X231285630Y-71536030D01*
X231049815Y-71464497D01*
X230832487Y-71348333D01*
X230641998Y-71192002D01*
X230485667Y-71001513D01*
X230369503Y-70784185D01*
X230297970Y-70548370D01*
X230273815Y-70303132D01*
X230297970Y-70057894D01*
X230369503Y-69822079D01*
X230485667Y-69604751D01*
X230602821Y-69461999D01*
X231113999Y-68950821D01*
X231256751Y-68833667D01*
X231474079Y-68717503D01*
X231709893Y-68645970D01*
X231955132Y-68621815D01*
X232200370Y-68645970D01*
G37*
G36*
X188162426Y-69350956D02*
G01*
X188280800Y-69399988D01*
X188387329Y-69471168D01*
X188477932Y-69561771D01*
X188549112Y-69668300D01*
X188549112Y-69668301D01*
X188598144Y-69786674D01*
X188623140Y-69912337D01*
X188623140Y-70040463D01*
X188598144Y-70166126D01*
X188582931Y-70202853D01*
X188549112Y-70284500D01*
X188477932Y-70391029D01*
X188387329Y-70481632D01*
X188280800Y-70552812D01*
X188221808Y-70577247D01*
X188162426Y-70601844D01*
X188036764Y-70626840D01*
X187908636Y-70626840D01*
X187782974Y-70601844D01*
X187723592Y-70577247D01*
X187664600Y-70552812D01*
X187558071Y-70481632D01*
X187467468Y-70391029D01*
X187396288Y-70284500D01*
X187362469Y-70202853D01*
X187347256Y-70166126D01*
X187322260Y-70040463D01*
X187322260Y-69912337D01*
X187347256Y-69786674D01*
X187396288Y-69668301D01*
X187396288Y-69668300D01*
X187467468Y-69561771D01*
X187558071Y-69471168D01*
X187664600Y-69399988D01*
X187782974Y-69350956D01*
X187908636Y-69325960D01*
X188036764Y-69325960D01*
X188162426Y-69350956D01*
G37*
G36*
X190450966Y-69350956D02*
G01*
X190569340Y-69399988D01*
X190675869Y-69471168D01*
X190766472Y-69561771D01*
X190837652Y-69668300D01*
X190837652Y-69668301D01*
X190886684Y-69786674D01*
X190911680Y-69912337D01*
X190911680Y-70040463D01*
X190886684Y-70166126D01*
X190871471Y-70202853D01*
X190837652Y-70284500D01*
X190766472Y-70391029D01*
X190675869Y-70481632D01*
X190569340Y-70552812D01*
X190510348Y-70577247D01*
X190450966Y-70601844D01*
X190325304Y-70626840D01*
X190197176Y-70626840D01*
X190071514Y-70601844D01*
X190012132Y-70577247D01*
X189953140Y-70552812D01*
X189846611Y-70481632D01*
X189756008Y-70391029D01*
X189684828Y-70284500D01*
X189651009Y-70202853D01*
X189635796Y-70166126D01*
X189610800Y-70040463D01*
X189610800Y-69912337D01*
X189635796Y-69786674D01*
X189684828Y-69668301D01*
X189684828Y-69668300D01*
X189756008Y-69561771D01*
X189846611Y-69471168D01*
X189953140Y-69399988D01*
X190071514Y-69350956D01*
X190197176Y-69325960D01*
X190325304Y-69325960D01*
X190450966Y-69350956D01*
G37*
G36*
X192742046Y-69350956D02*
G01*
X192860420Y-69399988D01*
X192966949Y-69471168D01*
X193057552Y-69561771D01*
X193128732Y-69668300D01*
X193128732Y-69668301D01*
X193177764Y-69786674D01*
X193202760Y-69912337D01*
X193202760Y-70040463D01*
X193177764Y-70166126D01*
X193162551Y-70202853D01*
X193128732Y-70284500D01*
X193057552Y-70391029D01*
X192966949Y-70481632D01*
X192860420Y-70552812D01*
X192801428Y-70577247D01*
X192742046Y-70601844D01*
X192616384Y-70626840D01*
X192488256Y-70626840D01*
X192362594Y-70601844D01*
X192303212Y-70577247D01*
X192244220Y-70552812D01*
X192137691Y-70481632D01*
X192047088Y-70391029D01*
X191975908Y-70284500D01*
X191942089Y-70202853D01*
X191926876Y-70166126D01*
X191901880Y-70040463D01*
X191901880Y-69912337D01*
X191926876Y-69786674D01*
X191975908Y-69668301D01*
X191975908Y-69668300D01*
X192047088Y-69561771D01*
X192137691Y-69471168D01*
X192244220Y-69399988D01*
X192362594Y-69350956D01*
X192488256Y-69325960D01*
X192616384Y-69325960D01*
X192742046Y-69350956D01*
G37*
G36*
X195033126Y-69350956D02*
G01*
X195151500Y-69399988D01*
X195258029Y-69471168D01*
X195348632Y-69561771D01*
X195419812Y-69668300D01*
X195419812Y-69668301D01*
X195468844Y-69786674D01*
X195493840Y-69912337D01*
X195493840Y-70040463D01*
X195468844Y-70166126D01*
X195453631Y-70202853D01*
X195419812Y-70284500D01*
X195348632Y-70391029D01*
X195258029Y-70481632D01*
X195151500Y-70552812D01*
X195092508Y-70577247D01*
X195033126Y-70601844D01*
X194907464Y-70626840D01*
X194779336Y-70626840D01*
X194653674Y-70601844D01*
X194594292Y-70577247D01*
X194535300Y-70552812D01*
X194428771Y-70481632D01*
X194338168Y-70391029D01*
X194266988Y-70284500D01*
X194233169Y-70202853D01*
X194217956Y-70166126D01*
X194192960Y-70040463D01*
X194192960Y-69912337D01*
X194217956Y-69786674D01*
X194266988Y-69668301D01*
X194266988Y-69668300D01*
X194338168Y-69561771D01*
X194428771Y-69471168D01*
X194535300Y-69399988D01*
X194653674Y-69350956D01*
X194779336Y-69325960D01*
X194907464Y-69325960D01*
X195033126Y-69350956D01*
G37*
G36*
X185871346Y-69350956D02*
G01*
X185989720Y-69399988D01*
X186096249Y-69471168D01*
X186186852Y-69561771D01*
X186258032Y-69668300D01*
X186258032Y-69668301D01*
X186307064Y-69786674D01*
X186332060Y-69912337D01*
X186332060Y-70040463D01*
X186307064Y-70166126D01*
X186291851Y-70202853D01*
X186258032Y-70284500D01*
X186186852Y-70391029D01*
X186096249Y-70481632D01*
X185989720Y-70552812D01*
X185930728Y-70577247D01*
X185871346Y-70601844D01*
X185745684Y-70626840D01*
X185617556Y-70626840D01*
X185491894Y-70601844D01*
X185432512Y-70577247D01*
X185373520Y-70552812D01*
X185266991Y-70481632D01*
X185176388Y-70391029D01*
X185105208Y-70284500D01*
X185071389Y-70202853D01*
X185056176Y-70166126D01*
X185031180Y-70040463D01*
X185031180Y-69912337D01*
X185056176Y-69786674D01*
X185105208Y-69668301D01*
X185105208Y-69668300D01*
X185176388Y-69561771D01*
X185266991Y-69471168D01*
X185373520Y-69399988D01*
X185491894Y-69350956D01*
X185617556Y-69325960D01*
X185745684Y-69325960D01*
X185871346Y-69350956D01*
G37*
G36*
X208700908Y-66589998D02*
G01*
X208800657Y-66609839D01*
X208906267Y-66653585D01*
X209055621Y-66715449D01*
X209061197Y-66719175D01*
X209285086Y-66868772D01*
X209480228Y-67063914D01*
X209563992Y-67189276D01*
X209633551Y-67293379D01*
X209739161Y-67548344D01*
X209793000Y-67819012D01*
X209793000Y-68094988D01*
X209767556Y-68222902D01*
X209739161Y-68365657D01*
X209695415Y-68471267D01*
X209633551Y-68620621D01*
X209633550Y-68620622D01*
X209480228Y-68850086D01*
X209285086Y-69045228D01*
X209149190Y-69136030D01*
X209055621Y-69198551D01*
X208906267Y-69260415D01*
X208800657Y-69304161D01*
X208714995Y-69321200D01*
X208529988Y-69358000D01*
X208254012Y-69358000D01*
X208069005Y-69321200D01*
X207983343Y-69304161D01*
X207877733Y-69260415D01*
X207728379Y-69198551D01*
X207634810Y-69136030D01*
X207498914Y-69045228D01*
X207303772Y-68850086D01*
X207150450Y-68620622D01*
X207150449Y-68620621D01*
X207088585Y-68471267D01*
X207044839Y-68365657D01*
X207016444Y-68222902D01*
X206991000Y-68094988D01*
X206991000Y-67819012D01*
X207044839Y-67548344D01*
X207150449Y-67293379D01*
X207220008Y-67189276D01*
X207303772Y-67063914D01*
X207498914Y-66868772D01*
X207722803Y-66719175D01*
X207728379Y-66715449D01*
X207877733Y-66653585D01*
X207983343Y-66609839D01*
X208083092Y-66589998D01*
X208254012Y-66556000D01*
X208529988Y-66556000D01*
X208700908Y-66589998D01*
G37*
G36*
X222700908Y-66589998D02*
G01*
X222800657Y-66609839D01*
X222906267Y-66653585D01*
X223055621Y-66715449D01*
X223061197Y-66719175D01*
X223285086Y-66868772D01*
X223480228Y-67063914D01*
X223563992Y-67189276D01*
X223633551Y-67293379D01*
X223739161Y-67548344D01*
X223793000Y-67819012D01*
X223793000Y-68094988D01*
X223767556Y-68222902D01*
X223739161Y-68365657D01*
X223695415Y-68471267D01*
X223633551Y-68620621D01*
X223633550Y-68620622D01*
X223480228Y-68850086D01*
X223285086Y-69045228D01*
X223149190Y-69136030D01*
X223055621Y-69198551D01*
X222906267Y-69260415D01*
X222800657Y-69304161D01*
X222714995Y-69321200D01*
X222529988Y-69358000D01*
X222254012Y-69358000D01*
X222069005Y-69321200D01*
X221983343Y-69304161D01*
X221877733Y-69260415D01*
X221728379Y-69198551D01*
X221634810Y-69136030D01*
X221498914Y-69045228D01*
X221303772Y-68850086D01*
X221150450Y-68620622D01*
X221150449Y-68620621D01*
X221088585Y-68471267D01*
X221044839Y-68365657D01*
X221016444Y-68222902D01*
X220991000Y-68094988D01*
X220991000Y-67819012D01*
X221044839Y-67548344D01*
X221150449Y-67293379D01*
X221220008Y-67189276D01*
X221303772Y-67063914D01*
X221498914Y-66868772D01*
X221722803Y-66719175D01*
X221728379Y-66715449D01*
X221877733Y-66653585D01*
X221983343Y-66609839D01*
X222083092Y-66589998D01*
X222254012Y-66556000D01*
X222529988Y-66556000D01*
X222700908Y-66589998D01*
G37*
G36*
X241689999Y-66721200D02*
G01*
X242215000Y-66721200D01*
X242215000Y-69321200D01*
X241715000Y-69321200D01*
X241715000Y-68294999D01*
X241712598Y-68270613D01*
X241705485Y-68247164D01*
X241693934Y-68225553D01*
X241678389Y-68206611D01*
X241659447Y-68191066D01*
X241637836Y-68179515D01*
X241614387Y-68172402D01*
X241590001Y-68170000D01*
X239739999Y-68170000D01*
X239715613Y-68172402D01*
X239692164Y-68179515D01*
X239670553Y-68191066D01*
X239651611Y-68206611D01*
X239636066Y-68225553D01*
X239624515Y-68247164D01*
X239617402Y-68270613D01*
X239615000Y-68294999D01*
X239615000Y-69321200D01*
X239115000Y-69321200D01*
X239115000Y-66721200D01*
X239640001Y-66721200D01*
X239652184Y-66720000D01*
X241677816Y-66720000D01*
X241689999Y-66721200D01*
G37*
G36*
X230200370Y-66245970D02*
G01*
X230436186Y-66317503D01*
X230653513Y-66433667D01*
X230844002Y-66589998D01*
X231000333Y-66780487D01*
X231116497Y-66997814D01*
X231188030Y-67233630D01*
X231212185Y-67478868D01*
X231188030Y-67724107D01*
X231116497Y-67959921D01*
X231000333Y-68177249D01*
X230883179Y-68320001D01*
X230372001Y-68831179D01*
X230229249Y-68948333D01*
X230011921Y-69064497D01*
X229776106Y-69136030D01*
X229530868Y-69160185D01*
X229285630Y-69136030D01*
X229049815Y-69064497D01*
X228832487Y-68948333D01*
X228641998Y-68792002D01*
X228485667Y-68601513D01*
X228369503Y-68384185D01*
X228297970Y-68148370D01*
X228273815Y-67903132D01*
X228297970Y-67657894D01*
X228369503Y-67422079D01*
X228485667Y-67204751D01*
X228602821Y-67061999D01*
X229113999Y-66550821D01*
X229256751Y-66433667D01*
X229474079Y-66317503D01*
X229709893Y-66245970D01*
X229955132Y-66221815D01*
X230200370Y-66245970D01*
G37*
G36*
X215684831Y-65684841D02*
G01*
X215829826Y-65713682D01*
X215942974Y-65760550D01*
X216102989Y-65826830D01*
X216102990Y-65826831D01*
X216348832Y-65991097D01*
X216557903Y-66200168D01*
X216563298Y-66208242D01*
X216722170Y-66446011D01*
X216835318Y-66719175D01*
X216893000Y-67009163D01*
X216893000Y-67304837D01*
X216835318Y-67594825D01*
X216722170Y-67867989D01*
X216640594Y-67990076D01*
X216557903Y-68113832D01*
X216348832Y-68322903D01*
X216284847Y-68365656D01*
X216102989Y-68487170D01*
X215942974Y-68553450D01*
X215829826Y-68600318D01*
X215727755Y-68620621D01*
X215539837Y-68658000D01*
X215244163Y-68658000D01*
X215056245Y-68620621D01*
X214954174Y-68600318D01*
X214841026Y-68553450D01*
X214681011Y-68487170D01*
X214499153Y-68365656D01*
X214435168Y-68322903D01*
X214226097Y-68113832D01*
X214143406Y-67990076D01*
X214061830Y-67867989D01*
X213948682Y-67594825D01*
X213891000Y-67304837D01*
X213891000Y-67009163D01*
X213948682Y-66719175D01*
X214061830Y-66446011D01*
X214220702Y-66208242D01*
X214226097Y-66200168D01*
X214435168Y-65991097D01*
X214681010Y-65826831D01*
X214681011Y-65826830D01*
X214841026Y-65760550D01*
X214954174Y-65713682D01*
X215099169Y-65684841D01*
X215244163Y-65656000D01*
X215539837Y-65656000D01*
X215684831Y-65684841D01*
G37*
G36*
X243207621Y-66828682D02*
G01*
X243320721Y-66862990D01*
X243424955Y-66918704D01*
X243516317Y-66993683D01*
X243591296Y-67085045D01*
X243647010Y-67189280D01*
X243681318Y-67302380D01*
X243690000Y-67390527D01*
X243690000Y-67649474D01*
X243681318Y-67737621D01*
X243647010Y-67850721D01*
X243591296Y-67954955D01*
X243516317Y-68046317D01*
X243424954Y-68121296D01*
X243320720Y-68177010D01*
X243207620Y-68211318D01*
X243090000Y-68222903D01*
X242972379Y-68211318D01*
X242859279Y-68177010D01*
X242755045Y-68121296D01*
X242663683Y-68046317D01*
X242588704Y-67954954D01*
X242532990Y-67850720D01*
X242498682Y-67737620D01*
X242490000Y-67649473D01*
X242490000Y-67390526D01*
X242498682Y-67302379D01*
X242532990Y-67189279D01*
X242588705Y-67085045D01*
X242588707Y-67085043D01*
X242607620Y-67061997D01*
X242663684Y-66993683D01*
X242755046Y-66918704D01*
X242859280Y-66862990D01*
X242972380Y-66828682D01*
X243090000Y-66817097D01*
X243207621Y-66828682D01*
G37*
G36*
X238357621Y-66828682D02*
G01*
X238470721Y-66862990D01*
X238574955Y-66918704D01*
X238666317Y-66993683D01*
X238741296Y-67085045D01*
X238797010Y-67189280D01*
X238831318Y-67302380D01*
X238840000Y-67390527D01*
X238840000Y-67649474D01*
X238831318Y-67737621D01*
X238797010Y-67850721D01*
X238741296Y-67954955D01*
X238666317Y-68046317D01*
X238574954Y-68121296D01*
X238470720Y-68177010D01*
X238357620Y-68211318D01*
X238240000Y-68222903D01*
X238122379Y-68211318D01*
X238009279Y-68177010D01*
X237905045Y-68121296D01*
X237813683Y-68046317D01*
X237738704Y-67954954D01*
X237682990Y-67850720D01*
X237648682Y-67737620D01*
X237640000Y-67649473D01*
X237640000Y-67390526D01*
X237648682Y-67302379D01*
X237682990Y-67189279D01*
X237738705Y-67085045D01*
X237738707Y-67085043D01*
X237757620Y-67061997D01*
X237813684Y-66993683D01*
X237905046Y-66918704D01*
X238009280Y-66862990D01*
X238122380Y-66828682D01*
X238240000Y-66817097D01*
X238357621Y-66828682D01*
G37*
G36*
X218052721Y-65327174D02*
G01*
X218152995Y-65368709D01*
X218152996Y-65368710D01*
X218243242Y-65429010D01*
X218319990Y-65505758D01*
X218338104Y-65532868D01*
X218380291Y-65596005D01*
X218421826Y-65696279D01*
X218443000Y-65802730D01*
X218443000Y-65911270D01*
X218421826Y-66017721D01*
X218380291Y-66117995D01*
X218380290Y-66117996D01*
X218319990Y-66208242D01*
X218243242Y-66284990D01*
X218197812Y-66315345D01*
X218152995Y-66345291D01*
X218052721Y-66386826D01*
X217946270Y-66408000D01*
X217837730Y-66408000D01*
X217731279Y-66386826D01*
X217631005Y-66345291D01*
X217586188Y-66315345D01*
X217540758Y-66284990D01*
X217464010Y-66208242D01*
X217403710Y-66117996D01*
X217403709Y-66117995D01*
X217362174Y-66017721D01*
X217341000Y-65911270D01*
X217341000Y-65802730D01*
X217362174Y-65696279D01*
X217403709Y-65596005D01*
X217445896Y-65532868D01*
X217464010Y-65505758D01*
X217540758Y-65429010D01*
X217631004Y-65368710D01*
X217631005Y-65368709D01*
X217731279Y-65327174D01*
X217837730Y-65306000D01*
X217946270Y-65306000D01*
X218052721Y-65327174D01*
G37*
G36*
X213052721Y-65327174D02*
G01*
X213152995Y-65368709D01*
X213152996Y-65368710D01*
X213243242Y-65429010D01*
X213319990Y-65505758D01*
X213338104Y-65532868D01*
X213380291Y-65596005D01*
X213421826Y-65696279D01*
X213443000Y-65802730D01*
X213443000Y-65911270D01*
X213421826Y-66017721D01*
X213380291Y-66117995D01*
X213380290Y-66117996D01*
X213319990Y-66208242D01*
X213243242Y-66284990D01*
X213197812Y-66315345D01*
X213152995Y-66345291D01*
X213052721Y-66386826D01*
X212946270Y-66408000D01*
X212837730Y-66408000D01*
X212731279Y-66386826D01*
X212631005Y-66345291D01*
X212586188Y-66315345D01*
X212540758Y-66284990D01*
X212464010Y-66208242D01*
X212403710Y-66117996D01*
X212403709Y-66117995D01*
X212362174Y-66017721D01*
X212341000Y-65911270D01*
X212341000Y-65802730D01*
X212362174Y-65696279D01*
X212403709Y-65596005D01*
X212445896Y-65532868D01*
X212464010Y-65505758D01*
X212540758Y-65429010D01*
X212631004Y-65368710D01*
X212631005Y-65368709D01*
X212731279Y-65327174D01*
X212837730Y-65306000D01*
X212946270Y-65306000D01*
X213052721Y-65327174D01*
G37*
G36*
X237205998Y-63728280D02*
G01*
X237217423Y-63729405D01*
X237278685Y-63747989D01*
X237339948Y-63766573D01*
X237452868Y-63826930D01*
X237551843Y-63908157D01*
X237633070Y-64007132D01*
X237693427Y-64120052D01*
X237730595Y-64242578D01*
X237740000Y-64338068D01*
X237740000Y-65201932D01*
X237731771Y-65285486D01*
X237730595Y-65297423D01*
X237712011Y-65358685D01*
X237693427Y-65419948D01*
X237633070Y-65532868D01*
X237551843Y-65631843D01*
X237452867Y-65713070D01*
X237339947Y-65773427D01*
X237278684Y-65792011D01*
X237217422Y-65810595D01*
X237205997Y-65811720D01*
X237090000Y-65823145D01*
X236974002Y-65811720D01*
X236962577Y-65810595D01*
X236901315Y-65792011D01*
X236840052Y-65773427D01*
X236727132Y-65713070D01*
X236628157Y-65631843D01*
X236546930Y-65532867D01*
X236486573Y-65419947D01*
X236458431Y-65327175D01*
X236449405Y-65297422D01*
X236448229Y-65285485D01*
X236440000Y-65201931D01*
X236440000Y-64338068D01*
X236449405Y-64242578D01*
X236486574Y-64120052D01*
X236546931Y-64007132D01*
X236628158Y-63908157D01*
X236727133Y-63826930D01*
X236840053Y-63766573D01*
X236901316Y-63747989D01*
X236962578Y-63729405D01*
X236974003Y-63728280D01*
X237090000Y-63716855D01*
X237205998Y-63728280D01*
G37*
G36*
X244355998Y-63728280D02*
G01*
X244367423Y-63729405D01*
X244428685Y-63747989D01*
X244489948Y-63766573D01*
X244602868Y-63826930D01*
X244701843Y-63908157D01*
X244783070Y-64007132D01*
X244843427Y-64120052D01*
X244880595Y-64242578D01*
X244890000Y-64338068D01*
X244890000Y-65201932D01*
X244881771Y-65285486D01*
X244880595Y-65297423D01*
X244862011Y-65358685D01*
X244843427Y-65419948D01*
X244783070Y-65532868D01*
X244701843Y-65631843D01*
X244602867Y-65713070D01*
X244489947Y-65773427D01*
X244428684Y-65792011D01*
X244367422Y-65810595D01*
X244355997Y-65811720D01*
X244240000Y-65823145D01*
X244124002Y-65811720D01*
X244112577Y-65810595D01*
X244051315Y-65792011D01*
X243990052Y-65773427D01*
X243877132Y-65713070D01*
X243778157Y-65631843D01*
X243696930Y-65532867D01*
X243636573Y-65419947D01*
X243608431Y-65327175D01*
X243599405Y-65297422D01*
X243598229Y-65285485D01*
X243590000Y-65201931D01*
X243590000Y-64338068D01*
X243599405Y-64242578D01*
X243636574Y-64120052D01*
X243696931Y-64007132D01*
X243778158Y-63908157D01*
X243877133Y-63826930D01*
X243990053Y-63766573D01*
X244051316Y-63747989D01*
X244112578Y-63729405D01*
X244124003Y-63728280D01*
X244240000Y-63716855D01*
X244355998Y-63728280D01*
G37*
G36*
X241715000Y-65820000D02*
G01*
X239615000Y-65820000D01*
X239615000Y-63720000D01*
X241715000Y-63720000D01*
X241715000Y-65820000D01*
G37*
M02*
