M48
; DRILL file {KiCad (5.1.5)-3} date 30/08/2020 8:52:39 PM
; FORMAT={-:-/ absolute / inch / decimal}
; #@! TF.CreationDate,2020-08-30T20:52:39+12:00
; #@! TF.GenerationSoftware,Kicad,Pcbnew,(5.1.5)-3
; #@! TF.FileFunction,Plated,1,2,PTH
FMAT,2
INCH
T1C0.0118
T2C0.0157
T3C0.0197
T4C0.0236
T5C0.0256
T6C0.0276
T7C0.0354
T8C0.0390
T9C0.0394
T10C0.0512
T11C0.0787
T12C0.0866
T13C0.1260
%
G90
G05
T1
X7.9091Y-3.872
X7.9091Y-3.9114
X7.9091Y-3.9507
X7.9091Y-3.9901
X7.9091Y-4.0295
X7.9485Y-3.872
X7.9485Y-3.9114
X7.9485Y-3.9507
X7.9485Y-3.9901
X7.9485Y-4.0295
X7.9879Y-3.872
X7.9879Y-3.9114
X7.9879Y-3.9507
X7.9879Y-3.9901
X7.9879Y-4.0295
X8.0272Y-3.872
X8.0272Y-3.9114
X8.0272Y-3.9507
X8.0272Y-3.9901
X8.0272Y-4.0295
X8.0666Y-3.872
X8.0666Y-3.9114
X8.0666Y-3.9507
X8.0666Y-3.9901
X8.0666Y-4.0295
T2
X6.55Y-4.9
X6.905Y-3.45
X6.905Y-3.76
X6.95Y-3.115
X7.06Y-4.295
X7.06Y-4.465
X7.1144Y-3.5094
X7.1219Y-3.1919
X7.1294Y-4.1169
X7.1785Y-3.51
X7.215Y-3.555
X7.295Y-4.555
X7.2984Y-2.972
X7.315Y-3.4175
X7.345Y-4.1025
X7.351Y-3.382
X7.36Y-3.005
X7.375Y-3.2275
X7.425Y-3.255
X7.44Y-4.8
X7.455Y-3.215
X7.479Y-3.382
X7.5225Y-3.01
X7.535Y-3.136
X7.535Y-3.1754
X7.5355Y-4.5015
X7.5935Y-3.135
X7.5946Y-3.1754
X7.5992Y-4.4935
X7.6125Y-4.385
X7.615Y-3.01
X7.62Y-3.215
X7.6378Y-4.5012
X7.7158Y-4.3992
X7.76Y-4.9109
X7.8025Y-4.7075
X7.8025Y-4.7475
X7.815Y-3.36
X7.815Y-3.4275
X7.835Y-4.175
X7.8665Y-3.4545
X7.8775Y-3.205
X7.915Y-3.48
X7.9276Y-4.5774
X7.965Y-3.48
X7.98Y-4.5965
X7.9925Y-2.9625
X8.0325Y-3.01
X8.035Y-4.465
X8.035Y-4.626
X8.07Y-4.565
X8.075Y-4.21
X8.11Y-3.4475
X8.115Y-3.6825
X8.125Y-4.055
X8.1452Y-3.49
X8.175Y-2.9925
X8.185Y-4.025
X8.195Y-4.165
X8.215Y-4.38
X8.245Y-3.135
X8.265Y-4.515
X8.2769Y-3.2456
X8.285Y-3.09
X8.3381Y-4.1981
X8.4165Y-4.401
X8.42Y-3.04
X8.455Y-3.305
X8.615Y-3.155
X8.615Y-3.235
X8.615Y-3.49
X8.66Y-4.075
X8.6713Y-4.9838
X8.685Y-3.205
X8.695Y-4.765
X8.7Y-3.535
X8.7Y-4.085
X8.715Y-4.385
X8.7152Y-4.9813
X8.75Y-4.2058
X8.7589Y-4.9625
X8.7707Y-4.4762
X8.7742Y-4.9262
X8.7963Y-4.8937
X8.81Y-3.26
X8.845Y-3.835
X8.845Y-3.835
X8.926Y-4.1133
X8.9273Y-4.5127
X8.93Y-2.85
X8.95Y-3.835
X8.9558Y-4.545
X8.9582Y-4.1418
X8.99Y-4.57
X9.01Y-5.04
X9.025Y-4.9165
X9.0333Y-4.1133
X9.11Y-5.045
X9.155Y-3.715
X9.195Y-3.27
X9.3Y-3.205
X9.3Y-3.26
X9.385Y-2.875
X9.424Y-2.771
X9.5656Y-2.8506
X9.635Y-3.42
X9.72Y-2.85
X9.72Y-3.335
T5
X7.3103Y-2.895
T6
X7.2652Y-2.8255
X7.3103Y-2.755
X7.3555Y-2.8255
X7.4005Y-2.755
X7.4005Y-2.895
X7.446Y-2.8255
X7.4905Y-2.895
X7.4906Y-2.755
X7.5365Y-2.8255
X7.5808Y-2.755
X7.5808Y-2.895
X7.626Y-2.8255
X7.6709Y-2.895
X7.671Y-2.755
T7
X8.3461Y-2.7936
X8.3461Y-2.892
X8.4288Y-2.7936
X8.5312Y-2.7936
X8.6139Y-2.7936
X8.6139Y-2.892
T8
X9.5828Y-5.24
X9.76Y-5.24
T9
X6.57Y-5.12
X6.57Y-5.22
X8.2831Y-2.892
X8.3816Y-2.5928
X8.5784Y-2.5928
X8.6769Y-2.892
X6.625Y-3.66
X6.625Y-3.76
X6.625Y-3.86
X6.625Y-3.96
X6.625Y-4.06
X6.625Y-4.16
X6.86Y-5.12
X6.86Y-5.22
X6.96Y-5.12
X6.96Y-5.22
X7.06Y-5.12
X7.06Y-5.22
X7.16Y-5.12
X7.16Y-5.22
X7.26Y-5.12
X7.26Y-5.22
X7.36Y-5.12
X7.36Y-5.22
X7.46Y-5.12
X7.46Y-5.22
X7.56Y-5.12
X7.56Y-5.22
X7.66Y-5.12
X7.66Y-5.22
X7.76Y-5.12
X7.76Y-5.22
X7.86Y-5.12
X7.86Y-5.22
X7.96Y-5.12
X7.96Y-5.22
X8.06Y-5.12
X8.06Y-5.22
X8.16Y-5.12
X8.16Y-5.22
X8.26Y-5.12
X8.26Y-5.22
X8.36Y-5.12
X8.36Y-5.22
X8.46Y-5.12
X8.46Y-5.22
X8.56Y-5.12
X8.56Y-5.22
X8.66Y-5.12
X8.66Y-5.22
X8.76Y-5.12
X8.76Y-5.22
X8.86Y-5.12
X8.86Y-5.22
X8.96Y-5.12
X8.96Y-5.22
X9.06Y-5.12
X9.06Y-5.22
X9.16Y-5.12
X9.16Y-5.22
X9.26Y-5.12
X9.26Y-5.22
X6.715Y-5.12
X6.715Y-5.22
T10
X9.5332Y-5.142
X9.8092Y-5.142
T11
X8.2044Y-2.6755
X8.7556Y-2.6755
X9.045Y-2.665
X9.045Y-2.9052
X9.045Y-3.1217
X9.1237Y-2.7595
X9.1237Y-2.976
T12
X8.48Y-2.644
T13
X6.9881Y-2.8273
X7.9719Y-2.8273
T3
G00X9.3343Y-2.5638
M15
G01X9.3343Y-2.5362
M16
G05
G00X9.6157Y-2.5638
M15
G01X9.6157Y-2.5362
M16
G05
T4
G00X9.3795Y-2.6622
M15
G01X9.3795Y-2.6543
M16
G05
G00X9.5705Y-2.6622
M15
G01X9.5705Y-2.6543
M16
G05
T0
M30
