G04 #@! TF.GenerationSoftware,KiCad,Pcbnew,(5.1.5)-3*
G04 #@! TF.CreationDate,2021-01-31T13:17:02+13:00*
G04 #@! TF.ProjectId,PocketTRS,506f636b-6574-4545-9253-2e6b69636164,rev?*
G04 #@! TF.SameCoordinates,Original*
G04 #@! TF.FileFunction,Paste,Top*
G04 #@! TF.FilePolarity,Positive*
%FSLAX46Y46*%
G04 Gerber Fmt 4.6, Leading zero omitted, Abs format (unit mm)*
G04 Created by KiCad (PCBNEW (5.1.5)-3) date 2021-01-31 13:17:02*
%MOMM*%
%LPD*%
G04 APERTURE LIST*
%ADD10C,0.050000*%
%ADD11O,0.900000X3.000000*%
%ADD12R,5.000000X5.000000*%
%ADD13R,1.500000X2.000000*%
%ADD14R,3.800000X2.000000*%
%ADD15R,1.250000X1.500000*%
%ADD16R,1.600000X2.000000*%
%ADD17R,2.000000X1.600000*%
%ADD18R,1.500000X1.250000*%
%ADD19R,1.300000X1.500000*%
%ADD20R,1.500000X1.300000*%
%ADD21R,0.450000X1.750000*%
%ADD22R,0.450000X1.450000*%
%ADD23R,0.900000X0.800000*%
%ADD24R,0.800000X0.900000*%
%ADD25O,1.200000X2.000000*%
%ADD26R,2.000000X2.000000*%
%ADD27R,0.400000X2.500000*%
%ADD28R,0.400000X1.350000*%
G04 APERTURE END LIST*
D10*
X165100000Y-135890000D02*
X165100000Y-114046000D01*
X165100000Y-64770000D02*
X165100000Y-85852000D01*
X171323000Y-85852000D02*
X171323000Y-90805000D01*
X171323000Y-85852000D02*
X165100000Y-85852000D01*
X171323000Y-114046000D02*
X171323000Y-90805000D01*
X165100000Y-114046000D02*
X171323000Y-114046000D01*
X252730000Y-64770000D02*
X252730000Y-61976000D01*
X165100000Y-61976000D02*
X165100000Y-64770000D01*
X252730000Y-135890000D02*
X165100000Y-135890000D01*
X252730000Y-64770000D02*
X252730000Y-135890000D01*
X165100000Y-61976000D02*
X252730000Y-61976000D01*
D11*
X172614000Y-90919000D03*
X173884000Y-90919000D03*
X175154000Y-90919000D03*
X176424000Y-90919000D03*
X177694000Y-90919000D03*
X178964000Y-90919000D03*
X180234000Y-90919000D03*
X181504000Y-90919000D03*
X182774000Y-90919000D03*
X184044000Y-90919000D03*
X185314000Y-90919000D03*
X186584000Y-90919000D03*
X187854000Y-90919000D03*
X189124000Y-90919000D03*
X190424000Y-90949000D03*
X191694000Y-90949000D03*
X192964000Y-90949000D03*
X194234000Y-90949000D03*
X195504000Y-90949000D03*
X195504000Y-108949000D03*
X194234000Y-108949000D03*
X192964000Y-108949000D03*
X191694000Y-108949000D03*
X190424000Y-108949000D03*
X189124000Y-108949000D03*
X187854000Y-108949000D03*
X186584000Y-108949000D03*
X185314000Y-108949000D03*
X184044000Y-108949000D03*
X182774000Y-108949000D03*
X181504000Y-108949000D03*
X180234000Y-108949000D03*
X178964000Y-108949000D03*
X177694000Y-108949000D03*
X176424000Y-108949000D03*
X175154000Y-108949000D03*
X173884000Y-108949000D03*
X172614000Y-108949000D03*
D12*
X179534000Y-100349000D03*
D13*
X242965000Y-75590000D03*
X238365000Y-75590000D03*
X240665000Y-75590000D03*
D14*
X240665000Y-81890000D03*
D15*
X230632000Y-91841000D03*
X230632000Y-94341000D03*
D16*
X246888000Y-79597000D03*
X246888000Y-75597000D03*
D17*
X244729000Y-88773000D03*
X240729000Y-88773000D03*
D15*
X187960000Y-120543000D03*
X187960000Y-123043000D03*
D18*
X233025000Y-126365000D03*
X230525000Y-126365000D03*
X195874000Y-81407000D03*
X198374000Y-81407000D03*
X171343000Y-117094000D03*
X173843000Y-117094000D03*
X174137000Y-125476000D03*
X176637000Y-125476000D03*
D19*
X211963000Y-78533000D03*
X211963000Y-81233000D03*
X216027000Y-81233000D03*
X216027000Y-78533000D03*
X220980000Y-87456000D03*
X220980000Y-84756000D03*
X223774000Y-87456000D03*
X223774000Y-84756000D03*
X233553000Y-87409000D03*
X233553000Y-84756000D03*
X236220000Y-84709000D03*
X236220000Y-87409000D03*
D20*
X210232000Y-86360000D03*
X212932000Y-86360000D03*
X212932000Y-83947000D03*
X210232000Y-83947000D03*
X200326000Y-95885000D03*
X203026000Y-95885000D03*
X176610000Y-122936000D03*
X173910000Y-122936000D03*
X238172000Y-93853000D03*
X240872000Y-93853000D03*
X238172000Y-96393000D03*
X240872000Y-96393000D03*
D19*
X180340000Y-113458000D03*
X180340000Y-116158000D03*
D21*
X214977000Y-115526000D03*
X215627000Y-115526000D03*
X216277000Y-115526000D03*
X216927000Y-115526000D03*
X217577000Y-115526000D03*
X218227000Y-115526000D03*
X218877000Y-115526000D03*
X219527000Y-115526000D03*
X220177000Y-115526000D03*
X220827000Y-115526000D03*
X221477000Y-115526000D03*
X222127000Y-115526000D03*
X222777000Y-115526000D03*
X223427000Y-115526000D03*
X223427000Y-122726000D03*
X222777000Y-122726000D03*
X222127000Y-122726000D03*
X221477000Y-122726000D03*
X220827000Y-122726000D03*
X220177000Y-122726000D03*
X219527000Y-122726000D03*
X218877000Y-122726000D03*
X218227000Y-122726000D03*
X217577000Y-122726000D03*
X216927000Y-122726000D03*
X216277000Y-122726000D03*
X215627000Y-122726000D03*
X214977000Y-122726000D03*
D22*
X191266000Y-84230000D03*
X190616000Y-84230000D03*
X189966000Y-84230000D03*
X189316000Y-84230000D03*
X188666000Y-84230000D03*
X188016000Y-84230000D03*
X187366000Y-84230000D03*
X186716000Y-84230000D03*
X186066000Y-84230000D03*
X185416000Y-84230000D03*
X185416000Y-78330000D03*
X186066000Y-78330000D03*
X186716000Y-78330000D03*
X187366000Y-78330000D03*
X188016000Y-78330000D03*
X188666000Y-78330000D03*
X189316000Y-78330000D03*
X189966000Y-78330000D03*
X190616000Y-78330000D03*
X191266000Y-78330000D03*
D23*
X206867000Y-85344000D03*
X204867000Y-86294000D03*
X204867000Y-84394000D03*
D24*
X234000000Y-101203000D03*
X235900000Y-101203000D03*
X234950000Y-99203000D03*
X239014000Y-103267000D03*
X239964000Y-105267000D03*
X238064000Y-105267000D03*
D21*
X196600000Y-123107000D03*
X195950000Y-123107000D03*
X195300000Y-123107000D03*
X194650000Y-123107000D03*
X194000000Y-123107000D03*
X193350000Y-123107000D03*
X192700000Y-123107000D03*
X192050000Y-123107000D03*
X191400000Y-123107000D03*
X190750000Y-123107000D03*
X190750000Y-115907000D03*
X191400000Y-115907000D03*
X192050000Y-115907000D03*
X192700000Y-115907000D03*
X193350000Y-115907000D03*
X194000000Y-115907000D03*
X194650000Y-115907000D03*
X195300000Y-115907000D03*
X195950000Y-115907000D03*
X196600000Y-115907000D03*
D17*
X169958000Y-120142000D03*
X173958000Y-120142000D03*
D16*
X227203000Y-83344000D03*
X227203000Y-87344000D03*
X230505000Y-87344000D03*
X230505000Y-83344000D03*
X224028000Y-96361000D03*
X224028000Y-92361000D03*
D25*
X244240000Y-64770000D03*
D26*
X240665000Y-64770000D03*
D25*
X237090000Y-64770000D03*
D27*
X241965000Y-68021200D03*
D28*
X241315000Y-67445000D03*
X240665000Y-67445000D03*
X240015000Y-67445000D03*
D27*
X239365000Y-68021200D03*
M02*
